<svg width="98.121mm" height="43.628mm" version="1.1" viewBox="0 0 98.121 43.628" xmlns="http://www.w3.org/2000/svg">
	<defs>
		<clipPath id="j">
			<path transform="translate(-263.23,-42.396)" d="m245.23 36.868h44.375v19.936h-44.375z"/>
		</clipPath>
		<clipPath id="i">
			<path transform="translate(-269.25,-46.994)" d="m245.23 36.868h44.375v19.936h-44.375z"/>
		</clipPath>
		<clipPath id="h">
			<path transform="translate(-280.06,-42.689)" d="m245.23 36.868h44.375v19.936h-44.375z"/>
		</clipPath>
		<clipPath id="g">
			<path transform="translate(-254.87,-49)" d="m245.23 36.868h44.375v19.936h-44.375z"/>
		</clipPath>
		<clipPath id="f">
			<path transform="translate(-250.98,-39.485)" d="m245.23 36.868h44.375v19.936h-44.375z"/>
		</clipPath>
		<clipPath id="e">
			<path transform="translate(-267.61,-40.317)" d="m245.23 36.868h44.375v19.936h-44.375z"/>
		</clipPath>
		<clipPath id="d">
			<path transform="translate(-280.14,-40.317)" d="m245.23 36.868h44.375v19.936h-44.375z"/>
		</clipPath>
		<clipPath id="c">
			<path transform="translate(-287.84,-40.806)" d="m245.23 36.868h44.375v19.936h-44.375z"/>
		</clipPath>
		<clipPath id="b">
			<path transform="translate(-281.73,-37.797)" d="m245.23 36.868h44.375v19.936h-44.375z"/>
		</clipPath>
		<clipPath id="a">
			<path transform="translate(-289.46,-37.014)" d="m245.23 36.868h44.375v19.936h-44.375z"/>
		</clipPath>
	</defs>
	<g transform="translate(-116.95 -19.844)">
		<g transform="matrix(1.6724 0 0 1.6724 -430.42 -1138.4)">
			<path transform="matrix(1.3333,0,0,-1.3333,350.98,711.47)" d="m0 0c-3.718 0-5.039 2.471-5.039 4.794 0 2.398 1.296 4.941 4.966 4.941 0.782 0 1.369-0.122 1.883-0.269l-0.269-0.366-0.098-1.957c-0.318 0.171-0.636 0.293-1.101 0.293-1.932 0-2.079-1.981-2.079-2.568 0-0.759 0.22-2.52 2.202-2.52h0.049c0.171-0.856 0.587-1.59 1.247-2.103-0.514-0.147-1.052-0.245-1.761-0.245" clip-path="url(#j)" fill="#005d7e"/>
			<path transform="matrix(1.3333,0,0,-1.3333,359,705.34)" d="m0 0c-1.076-0.147-2.128-0.391-2.128-1.321 0-0.856 0.758-0.929 1.003-0.929 0.489 0 0.88 0.171 1.198 0.367l0.074 0.024v1.859zm-2.104-4.648c-1.81 0-3.155 1.321-3.155 3.156 0 1.027 0.514 1.932 1.345 2.47 1.052 0.661 2.03 0.832 3.89 1.101l0.122 0.025-0.025 0.122c-0.024 0.122-0.073 0.318-0.171 0.416-0.196 0.195-0.391 0.293-1.027 0.293-1.125 0-2.226-0.44-2.813-0.685l-0.049-0.049-0.049 0.025-0.22 0.098 0.098 2.006 0.146 0.195 0.074 0.025c0.978 0.293 1.908 0.562 3.4 0.562 1.174 0 2.079-0.195 2.666-0.611l0.025-0.147c0.195-2.006 0.244-2.764 0.244-7.754v-1.076c-0.611 0-1.052-0.025-1.908-0.049h-0.147l-0.171 0.195v0.441l-0.195-0.123c-0.636-0.44-1.321-0.636-2.08-0.636m8.855 7.412c-0.342 0-0.538-0.073-0.831-0.245l-0.049-0.024v-4.819h0.122c0.514 0.025 1.076 0.098 1.517 0.392 0.611 0.415 0.954 1.247 0.954 2.274 0 0.881-0.196 1.541-0.588 1.957-0.44 0.465-0.954 0.465-1.125 0.465m-4.134-11.35v0.367c0.049 1.761 0.074 2.935 0.074 4.843 0 5.015-0.074 5.773-0.269 7.779v0.049l0.195 0.22h0.049c1.248 0.147 1.59 0.22 2.838 0.489l0.073 0.025 0.22-0.245-0.024-0.465 0.195 0.123c0.392 0.244 1.028 0.562 2.006 0.562 0.93 0 1.81-0.367 2.495-1.076 0.025-2.128 0.025-4.403 0.025-6.922-0.098-0.123-0.196-0.221-0.294-0.294-1.296-1.223-2.862-1.345-4.232-1.37h-0.122l0.122-4.036-0.195-0.147h-0.881c-0.685 0-1.101-0.024-1.957-0.049h-0.146z" clip-path="url(#i)" fill="#005d7e"/>
			<path transform="matrix(1.3333,0,0,-1.3333,373.42,711.08)" d="m0 0v0.049c0.024 3.131 0.024 5.871-0.024 8.366-0.025 2.274-0.098 3.082-0.196 4.721v0.048l0.171 0.196 3.082 0.489 0.245-0.171v-0.073c-0.098-2.666-0.098-3.327-0.123-6.507v-1.468l0.221 0.343c0.464 0.734 0.807 1.321 1.834 3.082l0.025 0.025 0.22 0.171 2.935 0.024 0.171-0.318-0.049-0.073c-1.125-1.443-1.296-1.688-2.274-3.033l-0.196-0.269 0.049-0.074c1.247-2.275 1.443-2.593 3.008-5.259l0.049-0.073-0.22-0.269-3.204-0.123-0.22 0.147-0.025 0.025c-0.758 1.59-1.003 2.079-2.079 4.06l-0.22-0.049v-0.978l0.098-2.96-0.171-0.196h-0.049c-1.321 0-1.639 0-2.789-0.049h-0.049zm-27.201 11.35c-0.489-0.979-1.418-1.541-2.103-1.272-0.685 0.293-0.832 1.321-0.343 2.324 0.489 0.978 1.419 1.541 2.104 1.272s0.832-1.346 0.342-2.324" clip-path="url(#h)" fill="#c80752"/>
			<path transform="matrix(1.3333,0,0,-1.3333,339.83,702.67)" d="m0 0c0.122 0.196 0.245 0.391 0.367 0.612 0.122 0.22 0.367 0.122 0.147-0.392-0.098-0.22-0.172-0.342-0.343-0.636-0.147-0.22 0.025-0.293 0.294 0.049 0.367 0.489 0.734 0.979 0.929 1.223 0.196 0.294 0.465 0.147 0.22-0.147-0.293-0.391-0.44-0.611-0.636-0.856-0.195-0.244-0.048-0.416 0.196-0.098 0.269 0.343 0.612 0.783 0.856 1.077 0.245 0.318 0.392 0.098 0.22-0.123-0.318-0.415-0.66-0.856-0.856-1.125-0.171-0.244 0-0.367 0.172-0.147 0.22 0.269 0.489 0.636 0.684 0.832 0.147 0.171 0.318 0.049 0.172-0.122-0.049-0.074-0.147-0.196-0.269-0.367-0.514-0.661-0.612-0.758-0.514-0.832 0.098-0.073 0.318 0.147 0.611 0.514 0.196 0.22 0.392 0.147 0.172-0.147-0.123-0.171-0.123-0.196-0.269-0.342-0.27-0.294-2.887-3.498-5.578-5.308-10.371 5.087-5.136 11.986 0.025 9.172 2.055 3.229 6.653 1.835 2.837-1.687-1.394-1.248-3.033-1.468-5.039-1.077-0.244 0.049-0.318-0.22 0.196-0.367 0.22-0.073 0.343-0.097 0.661-0.146 0.244-0.025 0.195-0.22-0.196-0.22-0.563 0.024-1.174 0.048-1.468 0.073-0.293 0-0.318-0.269-0.024-0.269 0.44-0.025 0.758-0.049 1.052-0.049 0.293 0 0.318-0.22-0.025-0.22-0.416 0.024-0.929 0.024-1.272 0.024-0.293 0-0.269-0.269-0.049-0.269 0.489-0.024 1.003-0.024 1.321-0.049 0.269-0.024 0.269-0.22 0-0.22-0.318 0-0.734 0.025-0.978 0-0.196 0-0.22-0.22 0-0.22 0.098 0 0.244-0.024 0.416-0.024 0.758-0.025 0.905 0 0.905-0.123 0-0.122-0.441-0.147-0.857-0.171-0.318 0-0.366-0.22 0.025-0.22 2.837-0.22 4.696 0.538 5.895 2.397" clip-path="url(#g)" fill="#c80752"/>
			<g fill="#005d7e">
				<path transform="matrix(1.3333,0,0,-1.3333,334.64,715.35)" d="m0 0c-0.122-0.024-0.245-0.073-0.44-0.073-0.294 0-0.49 0.073-0.612 0.146-0.244 0.172-0.293 0.441-0.293 0.636 0 0.539 0.367 0.832 0.905 0.832 0.22 0 0.342-0.049 0.44-0.073v-0.025c-0.024-0.147-0.024-0.195-0.024-0.367h-0.025c-0.049 0.049-0.147 0.098-0.318 0.098-0.196 0-0.44-0.098-0.44-0.44 0-0.343 0.244-0.44 0.465-0.44 0.171 0 0.269 0.073 0.342 0.097h0.024zm0.832 0.881c-0.147 0-0.172-0.172-0.172-0.367 0-0.074 0-0.123 0.025-0.196 0.024-0.122 0.122-0.122 0.147-0.122 0.049 0 0.098 0.024 0.122 0.073 0.049 0.073 0.049 0.245 0.049 0.269 0 0.22-0.049 0.343-0.171 0.343m0.587-0.734c-0.123-0.147-0.343-0.22-0.563-0.22-0.098 0-0.22 0-0.318 0.049-0.342 0.097-0.367 0.391-0.367 0.562 0 0.147 0.025 0.318 0.147 0.44 0.171 0.172 0.416 0.172 0.538 0.172 0.196 0 0.367-0.049 0.514-0.147 0.098-0.073 0.171-0.196 0.171-0.465-0.024-0.073-0.024-0.269-0.122-0.391m0.293 0.954c0.22 0.024 0.294 0.024 0.514 0.073l0.024-0.024v-0.123c0.098 0.049 0.221 0.147 0.367 0.147 0.196 0 0.245-0.098 0.294-0.147 0.049 0.025 0.073 0.049 0.147 0.074 0.097 0.024 0.195 0.049 0.293 0.049 0.147 0 0.245-0.049 0.269-0.074 0.098-0.073 0.098-0.195 0.098-0.293v-0.074c0-0.318 0-0.391 0.025-0.709l-0.025-0.024h-0.489l-0.025 0.024v0.538c0 0.049 0 0.22-0.024 0.269-0.025 0.049-0.073 0.074-0.098 0.074-0.049 0-0.073 0-0.122-0.025 0-0.367 0-0.465 0.024-0.832l-0.024-0.024h-0.489l-0.025 0.024v0.514c0 0.269-0.024 0.318-0.122 0.318-0.049 0-0.074-0.024-0.123-0.024 0-0.392 0-0.465 0.025-0.808l-0.025-0.024h-0.489l-0.024 0.024v0.612c0.049 0.196 0.024 0.318 0.024 0.465m2.275 0c0.22 0.024 0.294 0.024 0.514 0.073l0.024-0.024v-0.123c0.098 0.049 0.22 0.147 0.367 0.147 0.196 0 0.245-0.098 0.294-0.147 0.049 0.025 0.073 0.049 0.146 0.074 0.098 0.024 0.196 0.049 0.294 0.049 0.147 0 0.245-0.049 0.269-0.074 0.098-0.073 0.098-0.195 0.098-0.293v-0.074c0-0.318 0-0.391 0.024-0.709l-0.024-0.024h-0.489l-0.025 0.024v0.538c0 0.049 0 0.22-0.024 0.269-0.025 0.049-0.074 0.074-0.098 0.074-0.049 0-0.073 0-0.122-0.025 0-0.367 0-0.465 0.024-0.832l-0.024-0.024h-0.49v0.489c0 0.269-0.024 0.318-0.122 0.318-0.049 0-0.073-0.024-0.122-0.024 0-0.392 0-0.465 0.024-0.807h-0.513v0.611c0 0.245-0.025 0.367-0.025 0.514m3.107-1.028c-0.025-0.024-0.049-0.049-0.098-0.049-0.098-0.048-0.22-0.073-0.318-0.073-0.147 0-0.245 0.073-0.294 0.122-0.098 0.098-0.098 0.221-0.098 0.441v0.611l0.025 0.025 0.465 0.024 0.024-0.024v-0.612c0-0.147 0-0.269 0.147-0.269 0.049 0 0.098 0.025 0.147 0.049l-0.025 0.807 0.025 0.025c0.22 0 0.269 0 0.489 0.024l0.024-0.024v-1.126l-0.024-0.024h-0.465l-0.024 0.024zm2.03-0.097h-0.489v0.342c0 0.171 0 0.342-0.025 0.416 0 0.024-0.024 0.122-0.122 0.122-0.049 0-0.098-0.024-0.147-0.049v-0.831h-0.513l-0.025 0.024v0.416c0 0.367-0.024 0.514-0.049 0.709l0.025 0.025c0.22 0.024 0.269 0.024 0.513 0.073l0.025-0.024v-0.123c0.024 0.025 0.073 0.049 0.098 0.074 0.097 0.049 0.22 0.073 0.293 0.073 0.098 0 0.22-0.024 0.318-0.122 0.073-0.098 0.073-0.22 0.073-0.441v-0.122c0.025-0.342 0.049-0.391 0.025-0.562m0.783 1.345c-0.22-0.025-0.269-0.049-0.49-0.073h-0.024v0.366l0.024 0.025 0.49 0.049 0.024-0.025v-0.342zm0.024-1.345h-0.538c0 0.195 0.024 0.391 0.024 0.587 0 0.269-0.024 0.367-0.024 0.513l0.024 0.025c0.221 0.024 0.294 0.024 0.514 0.073l0.025-0.024v-0.49c-0.049-0.342-0.025-0.513-0.025-0.684m0.783 0.856v-0.392c0-0.049 0-0.122 0.024-0.171 0.025-0.024 0.074-0.049 0.123-0.049s0.098 0 0.122 0.025h0.024l-0.024-0.269-0.024-0.025c-0.098-0.024-0.196-0.024-0.318-0.024-0.245 0-0.367 0.073-0.416 0.195-0.025 0.049-0.025 0.123-0.025 0.22v0.49h-0.171l-0.024 0.024 0.024 0.269 0.024 0.025h0.147v0.293c0.196 0.049 0.245 0.049 0.465 0.098l0.024-0.024v-0.416h0.245l0.025-0.025-0.025-0.269-0.024-0.024h-0.123zm0.514-1.395c0.097 0.196 0.122 0.245 0.22 0.49-0.098 0.244-0.147 0.367-0.196 0.538-0.049 0.098-0.073 0.195-0.122 0.293-0.074 0.22-0.098 0.22-0.147 0.367v0.025c0.245 0 0.294 0 0.538 0.024l0.025-0.024c0.073-0.294 0.097-0.343 0.195-0.636 0.098 0.318 0.123 0.367 0.196 0.636l0.024 0.024h0.392l0.024-0.024-0.293-0.734-0.123-0.343c-0.097-0.293-0.122-0.367-0.195-0.611l-0.025-0.025c-0.22-0.024-0.269-0.024-0.513 0m2.813 1.223-0.074 0.221-0.073 0.318c-0.025-0.123-0.049-0.172-0.098-0.343l-0.073-0.22h0.318zm-0.392-0.318-0.098-0.366h-0.489v0.024l0.538 1.517h0.685l0.514-1.517-0.025-0.024h-0.513l-0.098 0.366zm2.275-0.048-0.024-0.294-0.025-0.024c-0.122-0.025-0.22-0.049-0.342-0.049-0.587 0-0.734 0.367-0.734 0.611 0 0.22 0.098 0.416 0.293 0.514 0.098 0.049 0.27 0.098 0.465 0.098 0.147 0 0.245-0.025 0.343-0.074l0.024-0.024c-0.024-0.122-0.024-0.171-0.049-0.294h-0.024c-0.049 0.025-0.098 0.074-0.22 0.074-0.147 0-0.294-0.098-0.294-0.294 0-0.171 0.098-0.318 0.318-0.318 0.147 0.025 0.196 0.049 0.269 0.074" clip-path="url(#f)"/>
				<path transform="matrix(1.3333,0,0,-1.3333,356.82,714.24)" d="m0 0v-0.391c0-0.049 0-0.123 0.024-0.172 0.025-0.024 0.074-0.049 0.123-0.049s0.098 0 0.122 0.025h0.025l-0.025-0.269-0.024-0.025c-0.098-0.024-0.196-0.024-0.318-0.024-0.245 0-0.367 0.073-0.416 0.196-0.025 0.049-0.025 0.122-0.025 0.22v0.489h-0.171l-0.024 0.024 0.024 0.27 0.025 0.024h0.146v0.269l0.025 0.025c0.195 0.048 0.244 0.048 0.465 0.097l0.024-0.024v-0.416h0.245l0.024-0.024-0.024-0.269-0.025-0.025h-0.122zm0.905 0.489c-0.22-0.024-0.269-0.049-0.489-0.073l-0.025 0.024v0.367l0.025 0.025 0.489 0.049 0.025-0.025v-0.367zm0.025-1.345h-0.514l-0.025 0.024c0 0.196 0.025 0.392 0.025 0.587 0 0.269 0 0.367-0.025 0.514l0.025 0.025c0.22 0.024 0.293 0.024 0.514 0.073v-0.514c-0.025-0.367 0-0.538 0-0.709m0.856 0.905c-0.147 0-0.172-0.171-0.172-0.367 0-0.073 0-0.122 0.025-0.196 0.024-0.122 0.122-0.122 0.147-0.122 0.049 0 0.098 0.024 0.122 0.073 0.049 0.074 0.049 0.245 0.049 0.269 0 0.221-0.049 0.343-0.171 0.343m0.587-0.734c-0.123-0.147-0.343-0.22-0.563-0.22-0.098 0-0.22 0-0.318 0.049-0.342 0.098-0.367 0.391-0.367 0.562 0 0.147 0.025 0.318 0.147 0.441 0.171 0.171 0.44 0.171 0.538 0.171 0.196 0 0.367-0.049 0.514-0.147 0.098-0.073 0.171-0.195 0.171-0.465-0.024-0.073-0.024-0.269-0.122-0.391m1.59-0.171h-0.49l-0.024 0.024v0.318c0 0.172 0 0.343-0.024 0.416 0 0.025-0.025 0.122-0.123 0.122-0.049 0-0.098-0.024-0.147-0.048v-0.832h-0.489l-0.024 0.024v0.416c0 0.367-0.025 0.514-0.049 0.71l0.024 0.024c0.22 0.024 0.269 0.024 0.514 0.073l0.024-0.024v-0.122c0.025 0.024 0.074 0.049 0.098 0.073 0.098 0.049 0.22 0.073 0.294 0.073 0.098 0 0.22-0.024 0.318-0.122 0.073-0.098 0.073-0.22 0.073-0.44v-0.123c0.025-0.342 0.025-0.391 0.025-0.562m4.525 0.807c0.098 0 0.171 0 0.245 0.025 0.073 0.048 0.122 0.122 0.122 0.195 0 0.025 0 0.123-0.122 0.171-0.049 0.025-0.098 0.025-0.245 0.025zm0.122 0.734c0.269 0 0.49 0 0.636-0.147 0.098-0.098 0.147-0.22 0.147-0.342 0-0.098-0.024-0.294-0.196-0.416-0.195-0.147-0.464-0.147-0.709-0.147v-0.489h-0.538c0 0.342 0.024 0.685 0.024 1.003v0.513h0.538zm1.541-1.003c-0.122 0-0.293-0.024-0.293-0.147 0-0.073 0.049-0.122 0.147-0.122 0.073 0 0.122 0.024 0.146 0.049zm0-0.465c-0.098-0.049-0.22-0.122-0.367-0.122-0.244 0-0.415 0.147-0.415 0.367 0 0.367 0.44 0.416 0.758 0.44 0 0.049 0 0.122-0.147 0.122-0.171 0-0.293-0.048-0.44-0.097h-0.025l0.025 0.269 0.024 0.024c0.147 0.049 0.294 0.074 0.538 0.074 0.245 0 0.367-0.049 0.441-0.098 0.122-0.098 0.122-0.22 0.122-0.441v-0.146c0-0.221 0-0.269 0.024-0.49l-0.024-0.024h-0.465l-0.024 0.024v0.098zm0.734 1.052c0.22 0.025 0.269 0.025 0.514 0.073l0.024-0.024v-0.22c0.025 0.024 0.025 0.073 0.049 0.098 0.074 0.098 0.147 0.146 0.269 0.146h0.098l0.025-0.024c-0.049-0.196-0.074-0.245-0.098-0.44h-0.025c-0.049 0.024-0.073 0.049-0.122 0.049-0.171 0-0.171-0.123-0.171-0.269v-0.49l-0.025-0.024h-0.513l-0.025 0.024c0 0.196 0.025 0.392 0.025 0.612s-0.025 0.318-0.025 0.489" clip-path="url(#e)"/>
				<path transform="matrix(1.3333,0,0,-1.3333,373.52,714.24)" d="m0 0v-0.391c0-0.049 0-0.123 0.024-0.172 0.025-0.024 0.074-0.049 0.123-0.049s0.098 0 0.122 0.025h0.025l-0.025-0.269-0.024-0.025c-0.098-0.024-0.196-0.024-0.318-0.024-0.245 0-0.367 0.073-0.416 0.196-0.025 0.049-0.025 0.122-0.025 0.22v0.489h-0.171l-0.024 0.024 0.024 0.27 0.025 0.024h0.146v0.269l0.025 0.025c0.195 0.048 0.244 0.048 0.465 0.097l0.024-0.024v-0.416h0.245l0.024-0.024-0.024-0.269-0.025-0.025h-0.122zm1.688-0.856h-0.489l-0.025 0.024v0.318c0 0.172 0 0.343-0.024 0.416 0 0.025-0.025 0.122-0.123 0.122-0.049 0-0.097-0.024-0.146-0.048v-0.441c0-0.22 0-0.269 0.024-0.367l-0.024-0.024h-0.49l-0.024 0.024v0.416c0 0.367-0.025 0.514-0.049 0.71l0.024 0.024c0.221 0.024 0.27 0.024 0.514 0.073l0.025-0.024v-0.122c0.024 0.024 0.073 0.049 0.097 0.073 0.098 0.049 0.221 0.073 0.294 0.073 0.098 0 0.22-0.024 0.318-0.122 0.073-0.098 0.073-0.22 0.073-0.44v-0.123c0.025-0.342 0.025-0.391 0.025-0.562m1.003 0.709c0 0.049 0 0.196-0.172 0.196h-0.073c-0.098-0.049-0.098-0.147-0.122-0.196zm-0.318-0.244c0.024-0.074 0.024-0.123 0.122-0.147 0.049-0.025 0.122-0.049 0.22-0.049 0.122 0 0.269 0.024 0.392 0.098h0.024l-0.024-0.269-0.025-0.025c-0.024 0-0.049-0.024-0.073-0.024-0.049-0.025-0.196-0.049-0.392-0.049-0.122 0-0.342 0.024-0.464 0.098-0.196 0.122-0.27 0.293-0.27 0.513 0 0.441 0.367 0.612 0.661 0.612 0.122 0 0.269-0.025 0.391-0.098 0.22-0.147 0.22-0.416 0.22-0.587l-0.024-0.024zm0.978 0.66c0.22 0.025 0.269 0.025 0.514 0.073l0.024-0.024v-0.22c0.025 0.024 0.025 0.073 0.049 0.098 0.074 0.098 0.147 0.146 0.269 0.146h0.098l0.025-0.024c-0.049-0.196-0.074-0.245-0.098-0.44h-0.025c-0.049 0.024-0.073 0.049-0.122 0.049-0.171 0-0.171-0.123-0.171-0.269v-0.49l-0.025-0.024h-0.513l-0.025 0.024c0 0.196 0.025 0.392 0.025 0.612-0.025 0.22-0.025 0.318-0.025 0.489m1.786-0.416c0.049-0.024 0.098-0.024 0.147-0.073 0.073-0.049 0.146-0.147 0.146-0.269 0-0.245-0.22-0.416-0.611-0.416-0.171 0-0.343 0.024-0.392 0.049-0.024 0-0.048 0.024-0.073 0.024l-0.024 0.025 0.024 0.293h0.025c0.024-0.024 0.048-0.049 0.097-0.073 0.074-0.049 0.196-0.073 0.269-0.073 0.147 0 0.147 0.073 0.147 0.073 0 0.049-0.073 0.073-0.122 0.098l-0.098 0.049c-0.073 0.024-0.171 0.073-0.22 0.122s-0.098 0.122-0.098 0.22c0 0.122 0.073 0.245 0.171 0.294 0.147 0.098 0.343 0.098 0.416 0.098 0.171 0 0.269-0.025 0.391-0.049l0.025-0.025c-0.025-0.122-0.025-0.171-0.025-0.269h-0.024c-0.049 0.049-0.147 0.098-0.318 0.098-0.122 0-0.122-0.073-0.122-0.073 0-0.025 0.049-0.049 0.098-0.074zm1.003 0.343c0.073 0.049 0.22 0.122 0.416 0.122 0.171 0 0.244-0.049 0.269-0.098 0.097-0.073 0.097-0.171 0.097-0.342v-0.172c0-0.293 0-0.366 0.025-0.587l-0.025-0.024h-0.489l-0.024 0.024v0.514c0 0.22 0 0.318-0.147 0.318-0.049 0-0.098-0.024-0.147-0.049 0-0.391 0-0.489 0.025-0.807l-0.025-0.025h-0.489v0.759c0 0.587 0 0.685-0.049 0.905v0.024c0.22 0.025 0.269 0.025 0.514 0.074l0.024-0.025v-0.611z" clip-path="url(#d)"/>
				<path transform="matrix(1.3333,0,0,-1.3333,383.79,713.59)" d="m0 0c-0.22-0.024-0.269-0.049-0.489-0.073l-0.025 0.024v0.367l0.025 0.024 0.489 0.049 0.024-0.024v-0.367zm0.024-1.345h-0.513l-0.025 0.024c0 0.196 0.025 0.391 0.025 0.587 0 0.269-0.025 0.367-0.025 0.514l0.025 0.024c0.22 0.025 0.293 0.025 0.513 0.074v-0.514c-0.024-0.367 0-0.538 0-0.709m0.759 0.269c0.073 0 0.195 0 0.269 0.098 0.049 0.048 0.073 0.122 0.073 0.22 0 0.122-0.024 0.171-0.049 0.195-0.024 0.025-0.073 0.098-0.171 0.098-0.049 0-0.098-0.024-0.122-0.024zm-0.025 0.807c0.049 0.049 0.147 0.098 0.343 0.098 0.367 0 0.538-0.294 0.538-0.563 0-0.098-0.025-0.171-0.049-0.269-0.049-0.098-0.122-0.196-0.269-0.269-0.171-0.098-0.367-0.098-0.538-0.098l0.024-0.538-0.024-0.024h-0.514l-0.024 0.024v0.758c0 0.514-0.025 0.661-0.049 0.905l0.024 0.025c0.22 0.024 0.269 0.024 0.489 0.073l0.025-0.024z" clip-path="url(#c)"/>
			</g>
			<path transform="matrix(1.3333,0,0,-1.3333,375.64,717.6)" d="m0 0c0 0.098-0.049 0.147-0.122 0.147-0.098 0-0.147-0.098-0.147-0.123-0.073-0.097-0.098-0.318-0.098-0.415 0-0.049 0-0.147 0.122-0.147 0.123 0 0.196 0.147 0.245 0.342v0.196m0.367-0.538c-0.196-0.269-0.538-0.269-0.636-0.269-0.367 0-0.587 0.171-0.587 0.489 0 0.171 0.073 0.391 0.196 0.538 0.171 0.171 0.415 0.196 0.587 0.196 0.171 0 0.293-0.025 0.342-0.074 0.245-0.122 0.245-0.366 0.245-0.415 0-0.074 0-0.147-0.025-0.221-0.049-0.097-0.073-0.195-0.122-0.244m0.978 0.636c-0.098-0.392-0.122-0.465-0.22-0.856l-0.024-0.025h-0.489l-0.025 0.025 0.098 0.318 0.147 0.538h-0.196l-0.024 0.024 0.097 0.269 0.025 0.025h0.171l0.025 0.098c0.048 0.22 0.097 0.342 0.244 0.416 0.098 0.048 0.22 0.073 0.343 0.073 0.122 0 0.195-0.025 0.293-0.025v-0.024l-0.098-0.269h-0.024c-0.025 0-0.074 0.024-0.098 0.024-0.098 0-0.122-0.049-0.171-0.22l-0.025-0.049h0.22v-0.024l-0.097-0.269-0.025-0.025h-0.147zm1.517-0.074v-0.318c0-0.244 0-0.269 0.024-0.464h-0.538l-0.024 0.024c0 0.245 0.024 0.392 0.024 0.612 0 0.513-0.024 0.685-0.024 0.905l0.024 0.024h0.538l-0.024-0.685 0.318 0.49 0.122 0.195h0.563l0.024-0.024c-0.293-0.343-0.342-0.416-0.513-0.636l0.318-0.514c0.146-0.22 0.171-0.245 0.244-0.342v-0.025l-0.562-0.024h-0.025c-0.073 0.146-0.098 0.171-0.196 0.342zm1.883-0.073c0 0.049 0 0.196-0.171 0.196h-0.073c-0.098-0.049-0.098-0.147-0.122-0.196zm-0.318-0.245c0.025-0.073 0.025-0.122 0.123-0.146 0.049-0.025 0.122-0.049 0.22-0.049 0.122 0 0.269 0.024 0.391 0.098h0.025v-0.269l-0.025-0.025c-0.024 0-0.049-0.024-0.073-0.024-0.049-0.025-0.196-0.049-0.391-0.049-0.123 0-0.343 0.024-0.465 0.098-0.196 0.122-0.269 0.293-0.269 0.513 0 0.441 0.367 0.612 0.66 0.612 0.122 0 0.269-0.025 0.391-0.098 0.221-0.147 0.221-0.416 0.221-0.587l-0.025-0.025zm0.979 0.636c0.22 0.025 0.269 0.025 0.514 0.074l0.024-0.025v-0.22c0.024 0.025 0.024 0.074 0.049 0.098 0.073 0.098 0.147 0.147 0.269 0.147h0.098l0.024-0.025c-0.049-0.195-0.073-0.244-0.098-0.44h-0.024c-0.049 0.025-0.073 0.049-0.122 0.049-0.172 0-0.172-0.122-0.172-0.269v-0.489l-0.024-0.025h-0.514l-0.024 0.025c0 0.195 0.024 0.391 0.024 0.611-0.024 0.245-0.024 0.318-0.024 0.489" clip-path="url(#b)" fill="#c80752"/>
			<path transform="matrix(1.3333,0,0,-1.3333,385.94,718.65)" d="m0 0h-0.489l-0.025 0.024v0.318c0 0.172 0 0.343-0.024 0.416 0 0.025-0.025 0.123-0.122 0.123-0.049 0-0.098-0.025-0.147-0.049v-0.441c0-0.22 0-0.269 0.024-0.367l-0.024-0.024h-0.489l-0.025 0.024v0.416c0 0.367-0.024 0.514-0.049 0.71l0.025 0.024c0.22 0.025 0.269 0.025 0.513 0.074l0.025-0.025v-0.122c0.024 0.024 0.073 0.049 0.098 0.073 0.097 0.049 0.22 0.074 0.293 0.074 0.098 0 0.22-0.025 0.318-0.123 0.074-0.098 0.074-0.22 0.074-0.44v-0.122c0.024-0.318 0.024-0.367 0.024-0.563" clip-path="url(#a)" fill="#c80752"/>
		</g>
	</g>
</svg>
