<?xml version="1.0" encoding="UTF-8"?>
<svg version="1.1" xmlns="http://www.w3.org/2000/svg" width="1746" height="983">
<path d="M0 0 C0.66 0.33 1.32 0.66 2 1 C4.513864 1.09247699 6.99980104 1.12401837 9.51370239 1.1111145 C10.29789232 1.11111352 11.08208225 1.11111253 11.89003551 1.11111152 C14.53234738 1.11007385 17.17459465 1.10204688 19.81689453 1.09423828 C21.7056626 1.09236006 23.59443126 1.09101462 25.48320007 1.09016418 C29.55872255 1.08787653 33.63423277 1.08314778 37.70975113 1.07696915 C44.15587688 1.0685799 50.60194284 1.07398919 57.04806519 1.08297729 C58.13524247 1.0844483 59.22241976 1.08591931 60.34254181 1.08743489 C62.56614565 1.0905058 64.78974941 1.09362584 67.01335311 1.09679389 C82.02491981 1.11798979 97.03629256 1.13169655 112.04785156 1.09960938 C122.16711334 1.0780795 132.28603303 1.0812282 142.40527236 1.11301792 C147.76123515 1.12887193 153.11654397 1.13209832 158.47247696 1.10525894 C163.5141157 1.08021779 168.55465967 1.08778685 173.59624672 1.12013817 C175.44410414 1.12622409 177.29204599 1.12040566 179.13981819 1.10164452 C194.84117739 0.95326679 194.84117739 0.95326679 199.95968628 5.381073 C201.00123329 6.56319719 202.01774565 7.76816633 203 9 C204.05955011 9.94719487 205.13623404 10.87604322 206.23828125 11.7734375 C206.74254639 12.20092285 207.24681152 12.6284082 207.76635742 13.06884766 C208.27658447 13.49987793 208.78681152 13.9309082 209.3125 14.375 C210.14261597 15.07761963 210.14261597 15.07761963 210.98950195 15.79443359 C214.52389498 18.77795299 218.0935708 21.71320467 221.6875 24.625 C226.08726497 28.20339061 230.29581432 31.94830818 234.48828125 35.765625 C237.00151232 38.00134533 239.57311479 40.13377682 242.1875 42.25 C248.62711993 47.46518515 254.85455403 52.91331752 261.10351562 58.35351562 C264.07855189 60.93637409 267.0694406 63.50056914 270.0625 66.0625 C270.63589111 66.55339111 271.20928223 67.04428223 271.80004883 67.55004883 C272.95530518 68.53885203 274.11065976 69.52754049 275.26611328 70.51611328 C278.17894046 73.00895524 281.08934061 75.50462766 284 78 C285.16665518 79.0000134 286.33332184 80.00001341 287.5 81 C294.5 87 294.5 87 296.25073242 88.50073242 C297.41481977 89.49845195 298.57904456 90.49601114 299.7434082 91.4934082 C302.70069887 94.02698743 305.65538369 96.56350137 308.60546875 99.10546875 C313.93835322 103.69606553 319.28185945 108.25761398 324.75 112.6875 C329.12507747 116.23745321 333.30549192 119.95563821 337.46875 123.75 C340.0884481 126.07862053 342.7751531 128.29562947 345.5 130.5 C349.0947765 133.4081338 352.58260628 136.38541332 356 139.5 C359.31989486 142.52282421 362.69764112 145.42512161 366.1875 148.25 C372.62711993 153.46518515 378.85455403 158.91331752 385.10351562 164.35351562 C388.07855189 166.93637409 391.0694406 169.50056914 394.0625 172.0625 C394.63589111 172.55339111 395.20928223 173.04428223 395.80004883 173.55004883 C396.95530518 174.53885203 398.11065976 175.52754049 399.26611328 176.51611328 C402.17894046 179.00895524 405.08934061 181.50462766 408 184 C409.16665518 185.0000134 410.33332184 186.00001341 411.5 187 C418.50000001 193.00000001 418.50000001 193.00000001 420.25024414 194.50024414 C421.41605104 195.49948396 422.58190386 196.49867023 423.74780273 197.49780273 C426.67800398 200.00899461 429.60738291 202.52113393 432.53515625 205.03515625 C438.67932049 210.30923002 444.84034909 215.56158129 451.03100586 220.78100586 C455.26284733 224.35716483 459.44683517 227.98637854 463.625 231.625 C468.8224297 236.15108952 474.0996563 240.55407925 479.45703125 244.890625 C482.89147379 247.73947135 486.17135796 250.74478194 489.46875 253.75 C492.0884481 256.07862053 494.7751531 258.29562947 497.5 260.5 C501.0947765 263.4081338 504.58260628 266.38541332 508 269.5 C511.31989486 272.52282421 514.69764112 275.42512161 518.1875 278.25 C522.82087221 282.00428732 527.36423251 285.85016299 531.875 289.75 C532.50559326 290.29301758 533.13618652 290.83603516 533.78588867 291.39550781 C541.07721604 297.72159214 541.07721604 297.72159214 544 301 C544 304.38634484 543.76688814 306.17559524 541.4375 308.6796875 C540.963125 309.11539062 540.48875 309.55109375 540 310 C530.63478562 303.46289492 521.34399274 296.85759002 512.26757812 289.92285156 C508.93861636 287.39235565 505.59688653 285.14129031 502 283 C500.43748353 281.79744893 498.89635094 280.56672411 497.375 279.3125 C492.60647429 275.45159997 487.70220809 271.83584955 482.72607422 268.24902344 C472.18729328 260.62294094 461.76358501 252.84878206 451.4375 244.9375 C445.02592245 240.02590557 438.56968256 235.19806144 432 230.5 C424.51573347 225.14790822 417.18927035 219.60856487 409.88671875 214.01171875 C404.1365304 209.6105482 398.34246346 205.27779075 392.5 201 C384.8724996 195.4135157 377.34355111 189.70723413 369.8359375 183.9609375 C364.10097273 179.57935674 358.32240437 175.26457042 352.5 171 C344.87259983 165.4133758 337.34355435 159.70723662 329.8359375 153.9609375 C324.10097273 149.57935674 318.32240437 145.26457042 312.5 141 C304.87259983 135.4133758 297.34355435 129.70723662 289.8359375 123.9609375 C284.10097273 119.57935674 278.32240437 115.26457042 272.5 111 C264.87259983 105.4133758 257.34355435 99.70723662 249.8359375 93.9609375 C244.10097273 89.57935674 238.32240437 85.26457042 232.5 81 C225.77502682 76.07435075 219.1195557 71.06640797 212.5 66 C200.4791095 56.80211299 188.3358053 47.77176657 176 39 C172.08022678 40.69219478 168.92776492 43.28803932 165.625 45.9375 C164.36854568 46.9349665 163.11203364 47.9323603 161.85546875 48.9296875 C161.21528809 49.43983398 160.57510742 49.94998047 159.91552734 50.47558594 C156.93219297 52.84978169 153.93557367 55.20696085 150.9375 57.5625 C150.35895264 58.01737793 149.78040527 58.47225586 149.18432617 58.94091797 C143.6893902 63.25546029 138.15373468 67.51601851 132.60888672 71.76611328 C129.90350188 73.84092587 127.20195834 75.92072853 124.5 78 C123.41668482 78.83335693 122.33335149 79.66669027 121.25 80.5 C120.71375 80.9125 120.1775 81.325 119.625 81.75 C101.75 95.5 101.75 95.5 100.1262207 96.74902344 C99.03876999 97.5855491 97.95136793 98.42213803 96.86401367 99.25878906 C94.21906213 101.29379288 91.57318888 103.32756533 88.92578125 105.359375 C82.68212498 110.15375095 76.45961933 114.97411088 70.25 119.8125 C62.1824492 126.09694941 54.06682722 132.31645938 45.93701172 138.52001953 C40.94715675 142.33253539 35.97529632 146.1685218 31 150 C28.83355349 151.66695292 26.66677503 153.33347413 24.5 155 C23.41666062 155.83332547 22.33332728 156.6666588 21.25 157.5 C-24.25 192.5 -24.25 192.5 -25.8737793 193.74902344 C-26.96123001 194.5855491 -28.04863207 195.42213803 -29.13598633 196.25878906 C-31.78093787 198.29379288 -34.42681112 200.32756533 -37.07421875 202.359375 C-41.81351561 205.99858413 -46.54770044 209.64335922 -51.2578125 213.3203125 C-59.19366507 219.51479852 -67.16316491 225.65044949 -75.23486328 231.66699219 C-80.18974895 235.36924517 -85.06795342 239.15977162 -89.9206543 242.99462891 C-95.37213131 247.30264055 -100.87659632 251.53926705 -106.39111328 255.76611328 C-109.09649812 257.84092587 -111.79804166 259.92072853 -114.5 262 C-115.58331518 262.83335693 -116.66664851 263.66669027 -117.75 264.5 C-118.28625 264.9125 -118.8225 265.325 -119.375 265.75 C-163.25 299.5 -163.25 299.5 -164.8737793 300.74902344 C-165.96123001 301.5855491 -167.04863207 302.42213803 -168.13598633 303.25878906 C-170.78093787 305.29379288 -173.42681112 307.32756533 -176.07421875 309.359375 C-180.76707153 312.96292068 -185.45572671 316.57072255 -190.1171875 320.21484375 C-198.07947481 326.4367113 -206.08493776 332.58655331 -214.1875 338.625 C-220.74956523 343.51657297 -227.20427341 348.50838275 -233.56591797 353.65722656 C-238.55485622 357.68130388 -243.66076633 361.53043178 -248.80297852 365.35571289 C-256.26809066 370.91999047 -263.59378338 376.66058112 -270.93261719 382.38964844 C-275.93481586 386.28602331 -280.97000814 390.13962505 -286 394 C-288.16710847 395.66609253 -290.33354953 397.33305199 -292.5 399 C-293.58332124 399.83334905 -294.66665456 400.66668241 -295.75 401.5 C-296.28625 401.9125 -296.8225 402.325 -297.375 402.75 C-328.25 426.5 -328.25 426.5 -329.8737793 427.74902344 C-330.96123001 428.5855491 -332.04863207 429.42213803 -333.13598633 430.25878906 C-335.78093787 432.29379288 -338.42681112 434.32756533 -341.07421875 436.359375 C-345.81351561 439.99858413 -350.54770044 443.64335922 -355.2578125 447.3203125 C-363.19366507 453.51479852 -371.16316491 459.65044949 -379.23486328 465.66699219 C-384.18974895 469.36924517 -389.06795342 473.15977162 -393.9206543 476.99462891 C-399.37213131 481.30264055 -404.87659632 485.53926705 -410.39111328 489.76611328 C-412.55427869 491.42508718 -414.71495032 493.08728922 -416.87524414 494.75 C-417.95076977 495.57745173 -419.02677234 496.40428394 -420.10327148 497.23046875 C-422.94607619 499.41319018 -425.77951712 501.60689197 -428.6015625 503.81640625 C-429.19130859 504.27595703 -429.78105469 504.73550781 -430.38867188 505.20898438 C-431.520203 506.09104407 -432.64924346 506.97631111 -433.77539062 507.86523438 C-436.19277924 509.74474639 -438.06658358 511.02219453 -441 512 C-441.33 512.99 -441.66 513.98 -442 515 C-465.47855181 515.07008742 -488.95708794 515.12298691 -512.4357233 515.15543652 C-523.3373114 515.17090404 -534.23883449 515.19199143 -545.14038086 515.22631836 C-554.6423929 515.25622415 -564.14435786 515.27557584 -573.64641565 515.28226548 C-578.67747891 515.28617572 -583.70840748 515.29536307 -588.73942757 515.31719017 C-593.4761968 515.33757389 -598.21277603 515.34382996 -602.94958496 515.33932304 C-604.68660452 515.3401474 -606.42363052 515.34610181 -608.16061211 515.35761642 C-610.53622613 515.37259024 -612.91112714 515.36893609 -615.28675842 515.36076355 C-615.97063017 515.36950207 -616.65450193 515.3782406 -617.35909706 515.38724393 C-622.31365388 515.34132086 -625.67258901 514.25114244 -630 512 C-630.33 511.34 -630.66 510.68 -631 510 C-630.154375 509.649375 -629.30875 509.29875 -628.4375 508.9375 C-625.56096726 507.31618155 -624.16764407 506.30001928 -622 504 C-618.72099962 500.56210533 -615.12806074 497.64735881 -611.375 494.75 C-606.57291395 491.03947195 -601.86308045 487.25597297 -597.25 483.3125 C-592.81836228 479.52863922 -588.33501308 475.82843929 -583.76953125 472.20703125 C-580.28631542 469.43126687 -576.83014172 466.62308435 -573.375 463.8125 C-572.69203857 463.2570752 -572.00907715 462.70165039 -571.30541992 462.12939453 C-569.90242221 460.98822213 -568.49950959 459.8469451 -567.09667969 458.70556641 C-563.73237286 455.96883521 -560.36611672 453.2345045 -557 450.5 C-555.6666567 449.41667893 -554.33332338 448.33334558 -553 447.25 C-545 440.75 -537 434.25 -529 427.75 C-528.33983887 427.21358887 -527.67967773 426.67717773 -526.99951172 426.12451172 C-525.66792549 425.04265888 -524.33622 423.96095282 -523.00439453 422.87939453 C-519.64333059 420.14960892 -516.28446381 417.41719783 -512.9296875 414.6796875 C-506.60113824 409.51982504 -500.25398092 404.39342572 -493.8125 399.375 C-488.72939427 395.41352525 -483.78827729 391.31595291 -478.89379883 387.12451172 C-475.00715398 383.81159567 -471.03236257 380.63337505 -467 377.5 C-461.75802578 373.42605858 -456.65567235 369.21979362 -451.60668945 364.90966797 C-447.72051545 361.5959129 -443.77039748 358.3805778 -439.76953125 355.20703125 C-436.28631419 352.43126589 -432.83021803 349.62299213 -429.375 346.8125 C-428.69348877 346.25852539 -428.01197754 345.70455078 -427.30981445 345.13378906 C-423.83954595 342.31219538 -420.37158998 339.48780051 -416.90625 336.66015625 C-410.58530797 331.50707333 -404.24595156 326.38717021 -397.8125 321.375 C-392.72939427 317.41352525 -387.78827729 313.31595291 -382.89379883 309.12451172 C-378.43821946 305.32664467 -373.85278204 301.7167313 -369.23046875 298.125 C-365.23747246 295.00851509 -361.34702042 291.79452281 -357.5 288.5 C-353.162441 284.78762154 -348.75655376 281.19281036 -344.25 277.6875 C-336.6752413 271.79471577 -329.28565238 265.68526195 -321.89355469 259.56591797 C-313.00436552 252.2148015 -304.0354623 244.96021922 -295.08056641 237.68945312 C-291.71974572 234.96041309 -288.3599111 232.23015975 -285 229.5 C-283.66667165 228.41666054 -282.33333831 227.33332721 -281 226.25 C-280.34 225.71375 -279.68 225.1775 -279 224.625 C-266.33333333 214.33333333 -253.66666667 204.04166667 -241 193.75 C-240.33983887 193.21358887 -239.67967773 192.67717773 -238.99951172 192.12451172 C-237.66792549 191.04265888 -236.33622 189.96095282 -235.00439453 188.87939453 C-231.64333059 186.14960892 -228.28446381 183.41719783 -224.9296875 180.6796875 C-218.60113824 175.51982504 -212.25398092 170.39342572 -205.8125 165.375 C-200.72939427 161.41352525 -195.78827729 157.31595291 -190.89379883 153.12451172 C-187.00715398 149.81159567 -183.03236257 146.63337505 -179 143.5 C-173.75802578 139.42605858 -168.65567235 135.21979362 -163.60668945 130.90966797 C-159.72328147 127.59827149 -155.77668046 124.38449634 -151.77734375 121.21484375 C-148.24636784 118.3990022 -144.74975881 115.54197784 -141.25 112.6875 C-136.14632729 108.52735335 -131.00761935 104.42027211 -125.8125 100.375 C-120.72928415 96.41367137 -115.78827087 92.31594742 -110.89379883 88.12451172 C-106.43821946 84.32664467 -101.85278204 80.7167313 -97.23046875 77.125 C-93.23747246 74.00851509 -89.34702042 70.79452281 -85.5 67.5 C-81.16243925 63.78762004 -76.75651968 60.19285464 -72.25 56.6875 C-66.23689939 52.00877195 -60.34220637 47.19921647 -54.47119141 42.34375 C-48.87382339 37.71493809 -43.24739725 33.12350222 -37.60473633 28.55004883 C-33.82680659 25.48733309 -30.0642561 22.40729158 -26.3125 19.3125 C-21.68415953 15.50838455 -16.94761928 11.85946443 -12.1496582 8.27270508 C-9.10764861 6.05071947 -9.10764861 6.05071947 -7 3 C-3.5625 1.3125 -3.5625 1.3125 0 0 Z " fill="#008694" transform="translate(705,0)"/>
<path d="M0 0 C1.64659651 -0.0070305 3.29319277 -0.01411722 4.93978882 -0.02125549 C10.19033192 -0.04068281 15.44083084 -0.04569269 20.69140625 -0.046875 C21.59020382 -0.04731686 22.48900139 -0.04775871 23.41503525 -0.04821396 C54.12541062 -0.05611649 84.6345962 0.64951553 115.25390625 3.203125 C116.29073547 3.28798157 117.3275647 3.37283813 118.39581299 3.46026611 C229.90789848 12.62543895 340.86055198 33.2624758 471.63000488 71.24205017 C481.01170483 74.02902427 490.42824909 76.68315565 499.86669922 79.27099609 C502.34891159 79.95407861 504.82955094 80.64179548 507.30908203 81.33447266 C569.64178225 98.73441473 633.54245608 110.12472138 697.87890625 117.015625 C698.80045502 117.11508423 699.72200378 117.21454346 700.67147827 117.3170166 C707.19336182 118.01252382 713.71983101 118.63379468 720.25390625 119.203125 C721.33567139 119.29801208 722.41743652 119.39289917 723.53198242 119.49066162 C742.88479454 121.13618024 762.10457533 121.39996085 781.50390625 121.203125 C812.29124346 120.89427967 812.29124346 120.89427967 825.27978516 122.74023438 C833.39150775 123.80381513 841.65243259 123.50047663 849.81640625 123.453125 C851.26277969 123.44847229 851.26277969 123.44847229 852.7383728 123.44372559 C941.67953463 123.11425018 1030.74601459 113.89745585 1118.359375 98.9375 C1119.21467804 98.79188629 1120.06998108 98.64627258 1120.95120239 98.49624634 C1125.97403612 97.62997147 1130.96837625 96.6709154 1135.95649719 95.62237549 C1138.28692209 95.19709999 1140.58087507 94.9528929 1142.94140625 94.765625 C1148.35413644 94.28654795 1153.58117029 93.16505485 1158.89477539 92.05322266 C1162.51943296 91.32332685 1166.1513894 90.73698375 1169.80819702 90.1943512 C1180.03431715 88.6743282 1190.06747882 86.62683888 1200.12890625 84.265625 C1200.94129761 84.07737152 1201.75368896 83.88911804 1202.59069824 83.69515991 C1217.61648459 80.20727621 1232.51123585 76.26900021 1247.39715576 72.23074341 C1259.80910038 68.86415839 1272.20037912 65.66449075 1284.80175781 63.07739258 C1291.12887414 61.76473751 1297.19431594 60.03670819 1303.32617188 57.99023438 C1306.12536009 57.23768411 1308.37468922 57.04655928 1311.25390625 57.203125 C1295.48209021 78.893371 1255.33318251 86.05892733 1230.62353516 92.50924683 C1222.23038986 94.70748053 1214.29077586 97.11306102 1206.4753418 100.90771484 C1125.7733581 139.50309445 1028.8154992 156.24094054 725.78045654 180.33966064 C721.32531818 180.09890344 716.86980702 179.86595592 712.4140625 179.63671875 C711.59747665 179.59313736 710.78089081 179.54955597 709.93955994 179.50465393 C706.36654058 179.3216552 702.82184734 179.1885529 699.24389648 179.23852539 C696.25390625 179.203125 696.25390625 179.203125 695.25390625 178.203125 C693.92243739 178.00006192 692.58158072 177.85799096 691.23974609 177.74169922 C690.37406509 177.66396774 689.50838409 177.58623627 688.61647034 177.50614929 C687.65893356 177.42419815 686.70139679 177.34224701 685.71484375 177.2578125 C683.63447231 177.07045086 681.55415244 176.88251583 679.47387695 176.6940918 C678.36146637 176.59446136 677.24905579 176.49483093 676.10293579 176.3921814 C586.31134893 168.2749153 491.58631432 156.53389179 406.21435547 126.01416016 C401.40730063 124.37467947 396.86710661 123.71887018 391.81640625 123.328125 C384.27649053 122.73830337 378.25478175 120.3865067 371.39501953 117.30175781 C360.57913679 112.46796593 349.32445685 109.87593436 337.79656982 107.2875061 C326.76924646 104.80267573 315.8157625 102.09259467 304.89453125 99.1796875 C272.86995052 90.65408086 241.1101462 82.88248867 208.25390625 78.203125 C207.31472351 78.0675116 206.37554077 77.93189819 205.40789795 77.79217529 C180.30125556 74.17210842 155.13233178 71.29984962 129.875 68.96484375 C129.19145447 68.90159409 128.50790894 68.83834442 127.8036499 68.7731781 C125.62099108 68.57573847 123.43758844 68.38890304 121.25390625 68.203125 C120.28731079 68.11650604 119.32071533 68.02988708 118.3248291 67.94064331 C110.22142342 67.25538032 102.17328779 67.02869292 94.04296875 67 C92.6885068 66.99296859 91.33404514 66.98588188 89.97958374 66.97874451 C85.61268694 66.9591557 81.24584247 66.95430045 76.87890625 66.953125 C76.12756409 66.95268314 75.37622192 66.95224129 74.60211182 66.95178604 C44.73863481 66.94260482 15.04379675 68.02403022 -14.74609375 70.203125 C-15.92075195 70.28798157 -17.09541016 70.37283813 -18.30566406 70.46026611 C-111.07167784 77.19656267 -203.75159519 88.74901515 -294.74609375 108.203125 C-295.50043701 108.36319031 -296.25478027 108.52325562 -297.03198242 108.68817139 C-313.05838887 112.09199823 -328.60819122 115.85936849 -343.74609375 122.203125 C-345.48076904 122.92773926 -345.48076904 122.92773926 -347.25048828 123.66699219 C-352.61999491 125.9136036 -357.9863785 128.1673893 -363.34423828 130.44165039 C-370.35236786 133.4100731 -377.3724104 136.25149906 -384.55859375 138.765625 C-393.5398903 141.91588742 -402.09238368 145.93746843 -410.67895508 150.02954102 C-427.3761996 157.94268926 -427.3761996 157.94268926 -432.74609375 156.203125 C-432.14453125 153.41015625 -432.14453125 153.41015625 -430.74609375 150.203125 C-428.03515625 148.46484375 -428.03515625 148.46484375 -424.37109375 146.890625 C-414.83127875 142.53524652 -406.0307589 137.040704 -397.12353516 131.5456543 C-395.97439348 130.83754993 -394.82514259 130.12962277 -393.67578125 129.421875 C-393.10806 129.07167297 -392.54033875 128.72147095 -391.95541382 128.36065674 C-387.84971998 125.84202135 -383.68488459 123.44538155 -379.48828125 121.08203125 C-374.69053772 118.37314967 -370.05293479 115.51490187 -365.52081299 112.37980652 C-344.46650171 97.8763051 -321.99926133 85.97088787 -299.12109375 74.640625 C-297.94975891 74.05805939 -296.77842407 73.47549377 -295.57159424 72.87527466 C-256.45685627 53.42805466 -216.88831788 38.42894328 -175.06872559 25.90093994 C-172.85466869 25.23574541 -170.64234693 24.56513035 -168.43066406 23.89208984 C-113.94842475 7.32853561 -56.90711473 0.15206395 0 0 Z " fill="#008593" transform="translate(432.74609375,800.796875)"/>
<path d="M0 0 C1.9495603 0.00798979 3.89913401 0.01315901 5.84870911 0.01564026 C9.9232931 0.02785036 13.99679333 0.06272483 18.07104492 0.1159668 C23.28983421 0.18395774 28.50785978 0.21280948 33.72704601 0.22695827 C38.71396491 0.24209288 43.70069532 0.27650333 48.6875 0.3125 C50.11095262 0.32041471 50.11095262 0.32041471 51.56316185 0.3284893 C54.25092644 0.34697006 56.93816139 0.37913202 59.62573242 0.41577148 C60.41805267 0.41957825 61.21037292 0.42338501 62.02670288 0.42730713 C67.66665108 0.52592719 71.37834053 1.10852988 75.54296875 4.98828125 C76.83074219 6.35726563 76.83074219 6.35726563 78.14453125 7.75390625 C85.25679157 14.63439323 92.5729502 21.19664141 100.30078125 27.37890625 C104.33464005 30.74784327 108.1280921 34.35505642 111.953125 37.95703125 C115.41549336 41.19968696 118.93758228 44.28834708 122.64453125 47.25390625 C128.3408483 51.81432551 133.61772191 56.77125288 138.9375 61.7578125 C143.60846445 66.13507339 148.44200666 70.30533515 153.31640625 74.453125 C160.15971604 80.28408838 166.88436342 86.20798959 173.48828125 92.30859375 C178.00751972 96.46895152 182.64631734 100.4807616 187.32421875 104.4609375 C193.59971331 109.80676149 199.78282515 115.21421507 205.82202148 120.82592773 C208.93979284 123.70359189 212.14360938 126.41762357 215.45703125 129.06640625 C220.75542243 133.32499771 225.66049974 137.93125451 230.59472656 142.59863281 C235.01207206 146.75547395 239.58328761 150.6205811 244.32421875 154.40625 C249.03860767 158.33055435 253.46358841 162.56417487 257.9375 166.7578125 C262.60846445 171.13507339 267.44200666 175.30533515 272.31640625 179.453125 C279.15971604 185.28408838 285.88436342 191.20798959 292.48828125 197.30859375 C297.03175388 201.4912612 301.6992876 205.52072938 306.39453125 209.53125 C306.98331055 210.03446777 307.57208984 210.53768555 308.17871094 211.05615234 C309.41301302 212.11071123 310.6480479 213.16441297 311.88378906 214.21728516 C315.25222707 217.09646783 318.5368603 220.03434431 321.76953125 223.06640625 C328.08584724 228.80286372 335.0265635 233.74164051 341.87109375 238.8203125 C346.97113261 242.60910106 352.00715113 246.47511353 357.01953125 250.37890625 C357.74978516 250.94633545 358.48003906 251.51376465 359.23242188 252.09838867 C363.26635153 255.2457766 367.23305877 258.45551723 371.14453125 261.75390625 C370.81453125 263.07390625 370.48453125 264.39390625 370.14453125 265.75390625 C368.10546875 266.58203125 368.10546875 266.58203125 365.14453125 266.75390625 C362.42636958 265.34637192 360.13991853 263.42743142 357.76953125 261.50390625 C356.34837161 260.39361498 354.92647831 259.28426226 353.50390625 258.17578125 C352.78267578 257.60666016 352.06144531 257.03753906 351.31835938 256.45117188 C347.93863134 253.81237254 344.4828405 251.28139811 341.01953125 248.75390625 C340.41705566 248.31014648 339.81458008 247.86638672 339.19384766 247.40917969 C336.48085596 245.4182857 333.75963214 243.50106654 330.9453125 241.65234375 C328.53286404 240.01712764 326.55127011 238.38683157 324.45703125 236.37890625 C319.18575883 231.60292117 313.46809221 227.50347454 307.72558594 223.32202148 C301.97377386 219.1252505 296.31287459 214.83107877 290.70703125 210.44140625 C285.02138617 205.99134921 279.3064525 201.5942519 273.515625 197.28125 C268.94856392 193.86989996 264.42563874 190.4002577 259.89453125 186.94140625 C253.58073141 182.1232593 247.2558768 177.32161803 240.89453125 172.56640625 C234.11968744 167.50037871 227.39447023 162.371833 220.6796875 157.2265625 C214.87078304 152.77574952 209.04822409 148.34288708 203.22607422 143.90942383 C198.76339066 140.51111827 194.3018403 137.11136116 189.84375 133.70703125 C180.29506111 126.41815156 170.71703878 119.17141572 161.09912109 111.97412109 C155.58366955 107.84328341 150.10593703 103.66926954 144.65234375 99.45703125 C133.15905177 90.58668972 121.58770716 81.81809977 109.95703125 73.12890625 C102.70198718 67.7074058 95.52528742 62.19460679 88.39013672 56.61645508 C83.23409131 52.58854732 78.02878847 48.63867732 72.78125 44.73046875 C68.86072574 41.7915276 64.99788045 38.78014767 61.14453125 35.75390625 C57.05875562 37.39806174 54.21000614 40.32183233 51.08203125 43.31640625 C47.06616671 47.09793223 43.02153098 50.74748807 38.70703125 54.19140625 C33.685309 58.21901754 29.01870364 62.54736481 24.33618164 66.95678711 C20.04309125 70.9774867 15.58197633 74.70395019 10.98828125 78.37890625 C7.58818053 81.21855081 4.3686668 84.21778724 1.14453125 87.25390625 C-3.74646319 91.85968071 -8.76313963 96.18004295 -14.01171875 100.37890625 C-17.41181947 103.21855081 -20.6313332 106.21778724 -23.85546875 109.25390625 C-27.91423603 113.07598516 -31.99843684 116.76828072 -36.35546875 120.25390625 C-42.0517858 124.81432551 -47.32865941 129.77125288 -52.6484375 134.7578125 C-57.31940195 139.13507339 -62.15294416 143.30533515 -67.02734375 147.453125 C-68.2203319 148.46972381 -69.4130308 149.48666213 -70.60546875 150.50390625 C-71.51099487 151.27613525 -71.51099487 151.27613525 -72.43481445 152.06396484 C-76.38032158 155.44492615 -80.23666241 158.90492668 -84.04296875 162.44140625 C-87.66830083 165.80974072 -91.36779268 169.03312645 -95.23046875 172.12890625 C-99.62353364 175.66108234 -103.75463933 179.39286545 -107.85546875 183.25390625 C-112.79066187 187.90052284 -117.85022279 192.27316682 -123.14453125 196.51171875 C-126.14452644 198.99298278 -129.0068041 201.6027551 -131.85546875 204.25390625 C-136.37992257 208.45926778 -141.04573452 212.4224944 -145.859375 216.29296875 C-150.14657258 219.8143957 -154.31091895 223.47400797 -158.46606445 227.14990234 C-159.06378662 227.67406738 -159.66150879 228.19823242 -160.27734375 228.73828125 C-160.7990918 229.19944336 -161.32083984 229.66060547 -161.85839844 230.13574219 C-162.51743164 230.66973633 -163.17646484 231.20373047 -163.85546875 231.75390625 C-164.82889725 232.60057358 -165.80232574 233.44724091 -166.80525208 234.31956482 C-171.53550318 237.65861061 -176.03165078 237.42324253 -181.65600586 237.3215332 C-183.25224792 237.3226284 -183.25224792 237.3226284 -184.8807373 237.32374573 C-188.38195586 237.32027516 -191.88182766 237.28143665 -195.3828125 237.2421875 C-197.8166074 237.23285755 -200.2504117 237.2257423 -202.68421936 237.2207489 C-209.07787173 237.20169378 -215.47095268 237.15260452 -221.86437988 237.097229 C-228.39323192 237.04600522 -234.92217664 237.02322809 -241.45117188 236.99804688 C-254.2528474 236.9444854 -267.05412763 236.86015599 -279.85546875 236.75390625 C-278.91763637 235.65007851 -277.97839235 234.54745004 -277.03857422 233.4453125 C-276.51568817 232.83115479 -275.99280212 232.21699707 -275.45407104 231.58422852 C-273.07444314 228.85966972 -270.54942974 226.29885826 -267.98046875 223.75390625 C-267.45364502 223.22974121 -266.92682129 222.70557617 -266.3840332 222.16552734 C-263.08702128 218.90838439 -259.70959809 215.79746288 -256.1796875 212.79296875 C-252.83287473 209.85677334 -249.60130054 206.80087648 -246.35546875 203.75390625 C-241.92489566 199.59909721 -237.47950997 195.4859243 -232.875 191.5234375 C-230.16060639 189.14506166 -227.50976118 186.69879996 -224.85546875 184.25390625 C-220.92269345 180.63292732 -216.95332652 177.06431517 -212.9140625 173.5625 C-210.36590225 171.32379375 -207.86136282 169.03980413 -205.35546875 166.75390625 C-201.56612749 163.29815212 -197.74463177 159.88867735 -193.875 156.5234375 C-189.82881786 152.97813671 -185.84803688 149.35931626 -181.85546875 145.75390625 C-172.36328125 137.1821733 -172.36328125 137.1821733 -167.98046875 133.37890625 C-164.55214683 130.39473939 -161.19926074 127.33202141 -157.85546875 124.25390625 C-153.89682226 120.60978909 -149.90370187 117.0147697 -145.83984375 113.48828125 C-141.80171468 109.95889285 -137.8366208 106.3472444 -133.85546875 102.75390625 C-132.20976631 101.27459395 -130.5639334 99.79542679 -128.91796875 98.31640625 C-125.34307114 95.10068203 -121.78373752 91.86850716 -118.23046875 88.62890625 C-114.48027504 85.21533582 -110.69697516 81.84773703 -106.87109375 78.51953125 C-100.91795179 73.30476349 -95.07926484 67.95996659 -89.23046875 62.62890625 C-85.50750807 59.23965633 -81.74952159 55.89955872 -77.94921875 52.59765625 C-75.39127848 50.34514168 -72.87367895 48.05073533 -70.35546875 45.75390625 C-66.59196354 42.32125864 -62.79417524 38.93835615 -58.94921875 35.59765625 C-56.39127848 33.34514168 -53.87367895 31.05073533 -51.35546875 28.75390625 C-47.56883877 25.30062472 -43.75070555 21.89291574 -39.8828125 18.53125 C-36.73882586 15.77496113 -33.64237493 12.96637536 -30.54296875 10.16015625 C-29.21265625 8.9690625 -29.21265625 8.9690625 -27.85546875 7.75390625 C-27.42171432 7.17979507 -26.9879599 6.6056839 -26.5410614 6.01417542 C-19.68457775 -1.90928902 -9.5771141 -0.15821842 0 0 Z " fill="#006F7A" transform="translate(1309.85546875,279.24609375)"/>
<path d="M0 0 C16.57776201 0.10761351 33.1554793 0.22043897 49.73316383 0.33933926 C57.43179533 0.39443689 65.13043145 0.44787815 72.82910156 0.49731445 C79.545264 0.54044599 86.26139555 0.58679294 92.97750986 0.63687855 C96.5281646 0.66324862 100.07881415 0.68809177 103.62950516 0.70907402 C107.60933184 0.73265279 111.58907389 0.76341568 115.56884766 0.79467773 C117.30271477 0.80331093 117.30271477 0.80331093 119.0716095 0.81211853 C124.89570981 0.86372761 130.71022078 1.02349109 136.52694702 1.32533264 C137.64711905 1.38148774 138.76729107 1.43764284 139.9214077 1.49549961 C145.36704714 2.38789683 148.97578684 5.66938666 153.125 9.125 C154.08921875 9.92421875 155.0534375 10.7234375 156.046875 11.546875 C157.02140625 12.35640625 157.9959375 13.1659375 159 14 C160.79072346 15.45949137 162.58237884 16.91784011 164.375 18.375 C168.47590183 21.72709237 172.52781188 25.13148234 176.5625 28.5625 C181.16332132 32.47333289 185.82106047 36.29594656 190.55078125 40.05078125 C197.31956693 45.43774147 203.97214972 50.9595944 210.5625 56.5625 C215.03233828 60.36131038 219.55681361 64.07221551 224.15234375 67.71875 C233.19504833 74.96283707 242.11231126 82.36781583 250.9375 89.875 C255.28139509 93.56991334 259.68511718 97.17402387 264.15234375 100.71875 C273.74255328 108.40144186 283.1812645 116.27326897 292.53833008 124.23754883 C296.4317456 127.54281661 300.40347641 130.73522157 304.40625 133.90625 C308.05401433 136.85083084 311.6145398 139.89451533 315.18359375 142.93359375 C319.18772711 146.33475173 323.26511337 149.62855934 327.38671875 152.88671875 C331.14083812 155.92256117 334.80232968 159.06650977 338.44726562 162.23242188 C340.83749427 164.28415851 343.11978761 166.06814657 345.86328125 167.62890625 C346.56839844 168.08136719 347.27351563 168.53382813 348 169 C348.375 172.125 348.375 172.125 348 175 C347 176 347 176 343.85717773 176.11352539 C342.46597303 176.11336633 341.07476239 176.10767506 339.68359375 176.09765625 C338.95253922 176.0962413 338.22148468 176.09482635 337.46827698 176.09336853 C335.12464368 176.08775408 332.78110461 176.07519922 330.4375 176.0625 C328.85221492 176.05748686 327.26692834 176.05292363 325.68164062 176.04882812 C321.7877239 176.03777997 317.89387795 176.02050572 314 176 C313.90750977 175.2366333 313.81501953 174.4732666 313.71972656 173.68676758 C312.87262185 170.52449235 312.12287946 169.85278408 309.484375 168.01171875 C308.36579102 167.21217773 308.36579102 167.21217773 307.22460938 166.39648438 C306.40798828 165.83251953 305.59136719 165.26855469 304.75 164.6875 C303.00386194 163.44329364 301.25911963 162.19712663 299.515625 160.94921875 C298.60619141 160.30259277 297.69675781 159.6559668 296.75976562 158.98974609 C292.26916456 155.75209582 287.88809756 152.37454687 283.5 149 C275.93154563 143.20334738 268.29659334 137.50783489 260.6081543 131.87158203 C255.09177378 127.82169896 249.65156888 123.687332 244.2421875 119.49609375 C240.50226564 116.60551863 236.720993 113.77067485 232.9375 110.9375 C232.25171875 110.42396973 231.5659375 109.91043945 230.859375 109.38134766 C227.92578562 107.18607304 224.99058413 104.99296932 222.0546875 102.80078125 C217.43863249 99.34860336 212.83724231 95.87950216 208.2578125 92.37890625 C198.95269311 85.26593768 189.6147081 78.21120184 180.16577148 71.2902832 C174.22434005 66.92805577 168.35473928 62.47769085 162.5 58 C160.74878266 56.66915932 158.99748084 55.33842978 157.24609375 54.0078125 C153.69219836 51.30443898 150.169774 48.5652347 146.66015625 45.8046875 C144.9613872 44.49420852 143.26218605 43.18428941 141.5625 41.875 C140.78777344 41.25238281 140.01304687 40.62976563 139.21484375 39.98828125 C135.06437277 36.68377122 135.06437277 36.68377122 129.9921875 36.3046875 C126.09959906 38.51014884 122.30723409 40.80156546 118.5625 43.25 C116.88399118 44.32995915 115.20424521 45.40799725 113.5234375 46.484375 C112.63495117 47.05349609 111.74646484 47.62261719 110.83105469 48.20898438 C104.85684487 51.98846034 98.79385955 55.62428725 92.74243164 59.27832031 C84.31475703 63.56829531 84.31475703 63.56829531 78 70 C72.93827708 69.62644111 70.31882521 66.90237704 66.875 63.5 C65.71984715 62.39462269 64.56226128 61.29178275 63.40234375 60.19140625 C62.8285498 59.64629395 62.25475586 59.10118164 61.66357422 58.53955078 C59.34307662 56.39205183 56.90613114 54.41168833 54.4375 52.4375 C49.34745583 48.34914091 44.56215969 43.99756924 39.77734375 39.5625 C36.89037879 36.89885863 33.95076666 34.30851652 30.984375 31.734375 C27.81583981 28.96502534 24.6966131 26.14146513 21.57421875 23.3203125 C19.8741692 21.78794614 18.16852432 20.26176199 16.45703125 18.7421875 C12.19012017 14.94496741 7.9810701 11.09612883 3.875 7.125 C3.12992188 6.40570313 2.38484375 5.68640625 1.6171875 4.9453125 C0 3 0 3 0 0 Z " fill="#4EA7B0" transform="translate(1026,94)"/>
<path d="M0 0 C12.87 0 25.74 0 39 0 C39 54.78 39 109.56 39 166 C-38.34834071 166 -38.34834071 166 -61 144.5625 C-71.02868994 133.86274531 -75.56784833 121.48203805 -75.2734375 106.953125 C-74.39335513 94.22964843 -67.62470926 82.60697336 -58.40234375 73.96875 C-41.4487118 60.07504186 -21.78558888 54 0 54 C0 36.18 0 18.36 0 0 Z M-29 85 C-30.0725 85.7425 -31.145 86.485 -32.25 87.25 C-38.84898433 93.84898433 -43.98442626 101.99603906 -44.375 111.5 C-44.03834547 120.39074018 -39.72638796 127.63106899 -33.3125 133.625 C-23.19232733 142.85667785 -13.66910145 141 0 141 C0 120.87 0 100.74 0 80 C-16.16556189 79.04794825 -16.16556189 79.04794825 -29 85 Z " fill="#000000" transform="translate(946,449)"/>
<path d="M0 0 C35.31 0 70.62 0 107 0 C107 9.9 107 19.8 107 30 C84.56 30 62.12 30 39 30 C39 42.54 39 55.08 39 68 C61.44 68 83.88 68 107 68 C107 76.25 107 84.5 107 93 C84.56 93 62.12 93 39 93 C39 112.14 39 131.28 39 151 C26.13 151 13.26 151 0 151 C0 101.17 0 51.34 0 0 Z " fill="#000000" transform="translate(407,464)"/>
<path d="M0 0 C11.17030534 8.57960199 20.68181199 20.41819211 23.0703125 34.72265625 C24.54442996 51.45661924 21.39337925 65.34114938 11.17578125 78.9140625 C-0.13627067 92.12814084 -16.55352062 100.91011898 -33.98242188 102.29736328 C-53.41048637 103.38231724 -70.95556873 99.80570839 -86.09375 86.7421875 C-92.69749904 80.4278885 -98.23646891 73.6133085 -101.71875 65.1171875 C-102.0178125 64.42753906 -102.316875 63.73789062 -102.625 63.02734375 C-107.15923904 50.74711302 -105.86978068 35.93245966 -100.71875 24.1171875 C-93.74295837 9.36995692 -82.09473079 -1.68087512 -66.73046875 -7.453125 C-44.18972308 -15.35448128 -20.02371762 -13.86699985 0 0 Z M-63.71875 27.1171875 C-69.24395058 36.1016441 -70.47162553 46.6199488 -68.0703125 56.890625 C-64.92129816 64.56130095 -58.98974963 71.17872937 -51.71875 75.1171875 C-44.20831371 77.9513144 -36.60137581 78.15840096 -29.0546875 75.3515625 C-21.52173233 71.37093736 -15.51081305 65.18673389 -12.71875 57.1171875 C-12.36876953 56.18132812 -12.36876953 56.18132812 -12.01171875 55.2265625 C-9.44171328 47.06886771 -10.8939007 38.24400535 -14.3046875 30.5390625 C-18.42730593 23.47822431 -24.3564333 18.3139719 -32.1171875 15.70703125 C-44.92297523 12.80361691 -55.67107399 16.83920867 -63.71875 27.1171875 Z " fill="#000000" transform="translate(699.71875,513.8828125)"/>
<path d="M0 0 C11.17030534 8.57960199 20.68181199 20.41819211 23.0703125 34.72265625 C24.54442996 51.45661924 21.39337925 65.34114938 11.17578125 78.9140625 C-0.13627067 92.12814084 -16.55352062 100.91011898 -33.98242188 102.29736328 C-53.41048637 103.38231724 -70.95556873 99.80570839 -86.09375 86.7421875 C-92.69749904 80.4278885 -98.23646891 73.6133085 -101.71875 65.1171875 C-102.0178125 64.42753906 -102.316875 63.73789062 -102.625 63.02734375 C-107.15923904 50.74711302 -105.86978068 35.93245966 -100.71875 24.1171875 C-93.74295837 9.36995692 -82.09473079 -1.68087512 -66.73046875 -7.453125 C-44.18972308 -15.35448128 -20.02371762 -13.86699985 0 0 Z M-63.71875 27.1171875 C-69.24395058 36.1016441 -70.47162553 46.6199488 -68.0703125 56.890625 C-64.92129816 64.56130095 -58.98974963 71.17872937 -51.71875 75.1171875 C-44.20831371 77.9513144 -36.60137581 78.15840096 -29.0546875 75.3515625 C-21.52173233 71.37093736 -15.51081305 65.18673389 -12.71875 57.1171875 C-12.36876953 56.18132812 -12.36876953 56.18132812 -12.01171875 55.2265625 C-9.44171328 47.06886771 -10.8939007 38.24400535 -14.3046875 30.5390625 C-18.42730593 23.47822431 -24.3564333 18.3139719 -32.1171875 15.70703125 C-44.92297523 12.80361691 -55.67107399 16.83920867 -63.71875 27.1171875 Z " fill="#000000" transform="translate(835.71875,512.8828125)"/>
<path d="M0 0 C12.87 0 25.74 0 39 0 C39 54.78 39 109.56 39 166 C26.13 166 13.26 166 0 166 C0 111.22 0 56.44 0 0 Z " fill="#000000" transform="translate(538,450)"/>
<path d="M0 0 C4.95 0 9.9 0 15 0 C16.60947981 3.60187262 18.21339478 7.20601877 19.8125 10.8125 C20.30371338 11.91787109 20.79492676 13.02324219 21.30102539 14.16210938 C23.9974903 20.27987229 26.59590108 26.41433954 29.0390625 32.63671875 C29.40613564 33.56542534 29.40613564 33.56542534 29.78062439 34.51289368 C30.97116454 37.52748402 32.14486883 40.54680141 33.29418945 43.57739258 C33.93553833 45.20970825 33.93553833 45.20970825 34.58984375 46.875 C34.95972412 47.84179688 35.32960449 48.80859375 35.71069336 49.8046875 C36.77794083 52.18846153 36.77794083 52.18846153 39.08058167 52.63720703 C39.71398972 52.75692871 40.34739777 52.87665039 41 53 C41.17042816 52.39015259 41.34085632 51.78030518 41.51644897 51.15197754 C43.28558297 45.01800031 45.44489035 39.19976211 47.9765625 33.34375 C48.34727875 32.47480103 48.717995 31.60585205 49.09994507 30.71057129 C50.26996777 27.97154448 51.44741547 25.23578293 52.625 22.5 C53.42235268 20.63562089 54.21923186 18.77103919 55.015625 16.90625 C56.46546095 13.51637087 57.91642886 10.12699559 59.37353516 6.74023438 C59.80963608 5.72624573 59.80963608 5.72624573 60.25454712 4.69177246 C60.80341675 3.44613702 61.39125284 2.21749432 62 1 C66.95 1 71.9 1 77 1 C80.22162696 8.67483305 81.9253036 16.68745603 83.7578125 24.77734375 C84.1095125 26.31384448 84.46155922 27.85026589 84.81393433 29.38661194 C85.54865138 32.59572113 86.27942221 35.80569577 87.00732422 39.01635742 C87.93589476 43.11083287 88.8739179 47.20307228 89.81488228 51.29471493 C90.54266449 54.46391988 91.26556704 57.63422275 91.98702621 60.80487251 C92.3308306 62.31332839 92.67607006 63.821458 93.02283096 65.32923698 C93.50857987 67.44488968 93.98775294 69.56193353 94.46533203 71.67944336 C94.87478561 73.47858437 94.87478561 73.47858437 95.29251099 75.31407166 C96.09680751 79.50435487 96.52881356 83.75932203 97 88 C90.07 88 83.14 88 76 88 C72.7 70.18 69.4 52.36 66 34 C56.3450057 56.43513618 56.3450057 56.43513618 47 79 C44.56183415 79.0809723 42.12635616 79.14046972 39.6875 79.1875 C38.99720703 79.21263672 38.30691406 79.23777344 37.59570312 79.26367188 C32.42258488 79.3386446 32.42258488 79.3386446 30.38098145 77.70257568 C28.07071899 74.8543139 26.89385586 71.44861487 25.53125 68.078125 C25.20966919 67.29991394 24.88808838 66.52170288 24.5567627 65.71990967 C23.53078474 63.23277526 22.51520082 60.74155024 21.5 58.25 C20.81710426 56.58825465 20.13351784 54.92679295 19.44921875 53.265625 C18.48034207 50.91303347 17.5124643 48.56008769 16.54992676 46.20489502 C16.25952515 45.49435974 15.96912354 44.78382446 15.66992188 44.05175781 C15.41915894 43.43681458 15.168396 42.82187134 14.91003418 42.18829346 C13.63192352 39.11491308 12.31117941 36.05941863 11 33 C7.7 50.82 4.4 68.64 1 87 C-5.93 87 -12.86 87 -20 87 C-18.5946762 77.05671308 -16.622177 67.3350521 -14.375 57.55859375 C-14.0236736 56.01739653 -13.6726043 54.47614069 -13.32177734 52.93482971 C-12.59188813 49.7331159 -11.85867288 46.53218752 -11.12304688 43.33178711 C-10.18161051 39.23457162 -9.2491016 35.1353826 -8.31906128 31.03556728 C-7.59869653 27.86487126 -6.87347292 24.69530191 -6.14678955 21.52604866 C-5.80077774 20.01415305 -5.45631877 18.50190116 -5.11346436 16.98928642 C-4.63529756 14.88287605 -4.15055219 12.7780854 -3.6640625 10.67358398 C-3.39029785 9.47813461 -3.1165332 8.28268524 -2.83447266 7.05101013 C-2 4 -2 4 0 0 Z " fill="#000000" transform="translate(408,653)"/>
<path d="M0 0 C6.6 0 13.2 0 20 0 C20 1.65 20 3.3 20 5 C20.67546875 4.72285156 21.3509375 4.44570313 22.046875 4.16015625 C22.93890625 3.79792969 23.8309375 3.43570313 24.75 3.0625 C25.63171875 2.70285156 26.5134375 2.34320312 27.421875 1.97265625 C35.3393007 -1.01437254 45.5266143 -1.42851485 53.75390625 0.71875 C57.82701853 2.63550872 60.58958379 5.23975071 63 9 C63.99293809 11.97881427 64.12119785 13.91487239 64.11352539 17.0222168 C64.11341209 18.55346443 64.11341209 18.55346443 64.11329651 20.11564636 C64.10813522 21.21572525 64.10297394 22.31580414 64.09765625 23.44921875 C64.0962413 24.5769722 64.09482635 25.70472565 64.09336853 26.86665344 C64.0877647 30.47362912 64.07521153 34.08054304 64.0625 37.6875 C64.05748549 40.13085848 64.0529225 42.57421793 64.04882812 45.01757812 C64.03779403 51.01174259 64.02052679 57.00586082 64 63 C57.4 63 50.8 63 44 63 C44 47.16 44 31.32 44 15 C36.41 15.33 28.82 15.66 21 16 C20.67 31.51 20.34 47.02 20 63 C13.4 63 6.8 63 0 63 C0 42.21 0 21.42 0 0 Z " fill="#000000" transform="translate(557,678)"/>
<path d="M0 0 C8.66144201 5.70166203 14.09773012 12.24299038 17.484375 22.01953125 C18.06046815 25.37512537 17.86328125 28.82187526 17.86328125 32.2265625 C3.67328125 32.5565625 -10.51671875 32.8865625 -25.13671875 33.2265625 C-26.35776807 36.96003413 -26.35776807 36.96003413 -25.69921875 39.7265625 C-23.346789 43.49045009 -20.24517067 44.91510645 -16.13671875 46.2265625 C-11.13866627 46.84014896 -6.16834012 46.92235306 -1.13671875 46.9765625 C0.22399555 47.00476887 1.58467519 47.03470271 2.9453125 47.06640625 C6.25098495 47.13673971 9.55713516 47.18395752 12.86328125 47.2265625 C12.86328125 51.8465625 12.86328125 56.4665625 12.86328125 61.2265625 C8.47017576 61.29588678 4.07901013 61.35547683 -0.31420898 61.39135742 C-1.80483473 61.40633292 -3.29541726 61.42672069 -4.78588867 61.45288086 C-17.17219113 61.66464802 -27.41173545 60.67194273 -37.13671875 52.2265625 C-43.56450586 44.56266249 -46.77728103 35.77096264 -45.92578125 25.7421875 C-44.42370675 16.61637638 -40.53976201 9.51741176 -33.27734375 3.734375 C-24.25531868 -2.62055507 -10.39538115 -4.93261988 0 0 Z M-26.57421875 16.7265625 C-28.40171822 19.15920847 -28.40171822 19.15920847 -28.13671875 22.2265625 C-19.22671875 22.2265625 -10.31671875 22.2265625 -1.13671875 22.2265625 C-2.09690356 17.42563843 -2.49806141 16.0972237 -6.265625 13.2421875 C-13.40432144 9.36732095 -20.99320318 11.00244397 -26.57421875 16.7265625 Z " fill="#000000" transform="translate(923.13671875,679.7734375)"/>
<path d="M0 0 C6.6 0 13.2 0 20 0 C20 6.27 20 12.54 20 19 C26.27 19 32.54 19 39 19 C39 23.95 39 28.9 39 34 C32.73 34 26.46 34 20 34 C20.08689396 38.56343089 20.19378678 43.1248806 20.3125 47.6875 C20.33505859 48.98107422 20.35761719 50.27464844 20.38085938 51.60742188 C20.4340332 53.47817383 20.4340332 53.47817383 20.48828125 55.38671875 C20.51446533 56.53358154 20.54064941 57.68044434 20.56762695 58.86206055 C21.04548419 62.33010069 21.82878774 64.2646737 24 67 C26.75320725 67.54462351 28.9314081 67.78933956 31.6875 67.8125 C32.38939453 67.83763672 33.09128906 67.86277344 33.81445312 67.88867188 C35.54236781 67.94744448 37.2712443 67.9766097 39 68 C39 72.62 39 77.24 39 82 C34.62462713 82.08102542 30.25075915 82.14052099 25.875 82.1875 C24.6375 82.21263672 23.4 82.23777344 22.125 82.26367188 C20.92617188 82.27333984 19.72734375 82.28300781 18.4921875 82.29296875 C17.39245605 82.3086792 16.29272461 82.32438965 15.15966797 82.34057617 C10.30050837 81.81681418 7.05062671 80.13817894 3.75 76.5625 C0.28718683 71.49195214 -0.27793131 67.87170335 -0.1953125 61.734375 C-0.1924826 60.94097717 -0.18965271 60.14757935 -0.18673706 59.33013916 C-0.17556779 56.80327083 -0.15046944 54.27676068 -0.125 51.75 C-0.11496598 50.0338593 -0.10584087 48.31771302 -0.09765625 46.6015625 C-0.07563914 42.40090426 -0.04113187 38.2005128 0 34 C-3.3 34 -6.6 34 -10 34 C-10 29.05 -10 24.1 -10 19 C-6.7 19 -3.4 19 0 19 C0 12.73 0 6.46 0 0 Z " fill="#000000" transform="translate(737,659)"/>
<path d="M0 0 C1.7415044 0.02511707 3.48304374 0.04792422 5.22460938 0.06835938 C9.46311158 0.12307913 13.69991584 0.2091598 17.9375 0.3125 C17.9375 5.2625 17.9375 10.2125 17.9375 15.3125 C9.3575 15.6425 0.7775 15.9725 -8.0625 16.3125 C-8.85059405 22.86282642 -8.85059405 22.86282642 -6.3984375 25.12890625 C-3.86693076 26.41159278 -1.38577205 27.36947145 1.3125 28.25 C7.40228479 30.38548453 12.43429033 32.59673686 15.9375 38.3125 C17.18151851 42.04455552 17.45431018 45.43642365 16.9375 49.3125 C14.13344318 54.92061365 9.44642896 59.51028379 3.85644531 62.38134766 C0.0070774 63.60930761 -3.64973333 63.56044218 -7.64453125 63.5078125 C-8.45871017 63.5049826 -9.2728891 63.50215271 -10.11174011 63.49923706 C-12.699646 63.48808584 -15.28719958 63.46299083 -17.875 63.4375 C-19.63476061 63.42746365 -21.39452667 63.41833894 -23.15429688 63.41015625 C-27.45716598 63.3881631 -31.75977336 63.35366836 -36.0625 63.3125 C-36.0625 58.6925 -36.0625 54.0725 -36.0625 49.3125 C-34.29261719 49.26351562 -32.52273438 49.21453125 -30.69921875 49.1640625 C-28.38279641 49.08903668 -26.06639095 49.01348877 -23.75 48.9375 C-22.58275391 48.9065625 -21.41550781 48.875625 -20.21289062 48.84375 C-18.53549805 48.78574219 -18.53549805 48.78574219 -16.82421875 48.7265625 C-15.79256592 48.6951416 -14.76091309 48.6637207 -13.69799805 48.63134766 C-10.83406764 48.48575371 -10.83406764 48.48575371 -8.0625 46.3125 C-7.39506123 43.89905333 -7.39506123 43.89905333 -8.0625 41.3125 C-10.94029172 38.05100272 -13.86083927 36.98738151 -17.9375 35.875 C-24.01136326 34.19133597 -28.17810587 31.8047632 -32 26.75 C-33.60491436 21.55763001 -33.82465605 16.69198975 -33.0625 11.3125 C-25.87783708 -1.43448259 -12.72583947 -0.31968409 0 0 Z " fill="#000000" transform="translate(982.0625,677.6875)"/>
<path d="M0 0 C1.7415044 0.02511707 3.48304374 0.04792422 5.22460938 0.06835938 C9.46311158 0.12307913 13.69991584 0.2091598 17.9375 0.3125 C17.9375 5.2625 17.9375 10.2125 17.9375 15.3125 C9.3575 15.6425 0.7775 15.9725 -8.0625 16.3125 C-8.85059405 22.86282642 -8.85059405 22.86282642 -6.3984375 25.12890625 C-3.86693076 26.41159278 -1.38577205 27.36947145 1.3125 28.25 C7.40228479 30.38548453 12.43429033 32.59673686 15.9375 38.3125 C17.18151851 42.04455552 17.45431018 45.43642365 16.9375 49.3125 C14.13344318 54.92061365 9.44642896 59.51028379 3.85644531 62.38134766 C0.0070774 63.60930761 -3.64973333 63.56044218 -7.64453125 63.5078125 C-8.45871017 63.5049826 -9.2728891 63.50215271 -10.11174011 63.49923706 C-12.699646 63.48808584 -15.28719958 63.46299083 -17.875 63.4375 C-19.63476061 63.42746365 -21.39452667 63.41833894 -23.15429688 63.41015625 C-27.45716598 63.3881631 -31.75977336 63.35366836 -36.0625 63.3125 C-36.0625 58.6925 -36.0625 54.0725 -36.0625 49.3125 C-34.29261719 49.26351562 -32.52273438 49.21453125 -30.69921875 49.1640625 C-28.38279641 49.08903668 -26.06639095 49.01348877 -23.75 48.9375 C-22.58275391 48.9065625 -21.41550781 48.875625 -20.21289062 48.84375 C-18.53549805 48.78574219 -18.53549805 48.78574219 -16.82421875 48.7265625 C-15.79256592 48.6951416 -14.76091309 48.6637207 -13.69799805 48.63134766 C-10.83406764 48.48575371 -10.83406764 48.48575371 -8.0625 46.3125 C-7.39506123 43.89905333 -7.39506123 43.89905333 -8.0625 41.3125 C-10.94029172 38.05100272 -13.86083927 36.98738151 -17.9375 35.875 C-24.01136326 34.19133597 -28.17810587 31.8047632 -32 26.75 C-33.60491436 21.55763001 -33.82465605 16.69198975 -33.0625 11.3125 C-25.87783708 -1.43448259 -12.72583947 -0.31968409 0 0 Z " fill="#000000" transform="translate(704.0625,677.6875)"/>
<path d="M0 0 C6.27 0 12.54 0 19 0 C19.33 2.97 19.66 5.94 20 9 C20.99 8.43410156 21.98 7.86820313 23 7.28515625 C24.33295174 6.54358451 25.66630692 5.80273762 27 5.0625 C27.64839844 4.68931641 28.29679688 4.31613281 28.96484375 3.93164062 C29.61582031 3.57392578 30.26679687 3.21621094 30.9375 2.84765625 C31.52402344 2.51773682 32.11054687 2.18781738 32.71484375 1.84790039 C35 1 35 1 43 0 C43 6.6 43 13.2 43 20 C35.3125 20.3125 35.3125 20.3125 32.91918945 20.38793945 C28.43819915 20.62079911 25.79872678 21.44698182 22 24 C21.01 24 20.02 24 19 24 C19 36.87 19 49.74 19 63 C12.73 63 6.46 63 0 63 C0 42.21 0 21.42 0 0 Z " fill="#000000" transform="translate(791,678)"/>
<path d="M0 0 C6.6 0 13.2 0 20 0 C20 20.79 20 41.58 20 63 C13.4 63 6.8 63 0 63 C0 42.21 0 21.42 0 0 Z " fill="#000000" transform="translate(844,678)"/>
<path d="M0 0 C6.6 0 13.2 0 20 0 C20 20.79 20 41.58 20 63 C13.4 63 6.8 63 0 63 C0 42.21 0 21.42 0 0 Z " fill="#000000" transform="translate(637,678)"/>
<path d="M0 0 C6.6 0 13.2 0 20 0 C20 20.79 20 41.58 20 63 C13.4 63 6.8 63 0 63 C0 42.21 0 21.42 0 0 Z " fill="#000000" transform="translate(519,678)"/>
<path d="M0 0 C0.84433594 0.04833984 1.68867187 0.09667969 2.55859375 0.14648438 C3.43128906 0.20255859 4.30398438 0.25863281 5.203125 0.31640625 C6.53537109 0.3947168 6.53537109 0.3947168 7.89453125 0.47460938 C10.08111696 0.60392358 12.26720394 0.73887267 14.453125 0.87890625 C14.453125 2.19890625 14.453125 3.51890625 14.453125 4.87890625 C12.473125 5.20890625 10.493125 5.53890625 8.453125 5.87890625 C8.845 6.72453125 9.236875 7.57015625 9.640625 8.44140625 C10.7140456 12.98280108 9.78129619 14.89848453 7.453125 18.87890625 C3.76692264 22.13143774 0.16715548 22.25586346 -4.55859375 22.375 C-6.75346626 22.68706937 -6.75346626 22.68706937 -7.81640625 24.9140625 C-8.17798828 25.88666016 -8.17798828 25.88666016 -8.546875 26.87890625 C-7.44988281 26.91628906 -6.35289063 26.95367188 -5.22265625 26.9921875 C-3.76819643 27.05787278 -2.31377084 27.12431924 -0.859375 27.19140625 C0.2224707 27.22524414 0.2224707 27.22524414 1.32617188 27.25976562 C5.7952517 27.48423995 8.79796065 28.04842525 12.453125 30.87890625 C14.07921062 34.13107749 14.13231137 37.3753805 13.453125 40.87890625 C9.69525218 45.42791019 5.81262372 46.81481007 0.046875 47.7265625 C-5.43694661 48.04865443 -9.79403259 46.8089859 -14.609375 44.25390625 C-17.03750321 41.27749103 -17.14292896 39.50882188 -16.921875 35.7578125 C-16.42411551 33.26383004 -15.08841412 31.87006095 -13.546875 29.87890625 C-13.50594563 27.54593192 -13.50445777 25.211854 -13.546875 22.87890625 C-12.886875 21.88890625 -12.226875 20.89890625 -11.546875 19.87890625 C-12.02125 19.54890625 -12.495625 19.21890625 -12.984375 18.87890625 C-15.34411451 15.85843967 -15.67096918 12.60903119 -15.546875 8.87890625 C-13.97357016 5.15265795 -11.99571364 2.96911149 -8.546875 0.87890625 C-5.58543413 -0.06133947 -3.09060914 -0.18794245 0 0 Z M-8.546875 6.00390625 C-10.050981 8.824105 -9.99600349 10.73500681 -9.546875 13.87890625 C-8.046875 16.37890625 -8.046875 16.37890625 -5.546875 17.87890625 C-1.8751663 18.4908577 -0.25873932 18.36597131 2.828125 16.25390625 C4.91692341 13.20104704 4.99381062 11.50922401 4.453125 7.87890625 C3.58183193 5.8400853 3.58183193 5.8400853 1.453125 4.87890625 C-2.14470602 4.3392316 -5.32867176 4.19366693 -8.546875 6.00390625 Z M-10.390625 33.23828125 C-11.79534032 34.88517872 -11.79534032 34.88517872 -11.484375 37.37890625 C-10.29183248 40.55901965 -9.63065772 41.41410946 -6.546875 42.87890625 C-2.20921271 43.47077419 1.36958299 43.3078083 5.453125 41.69140625 C7.63554208 39.99598534 7.63554208 39.99598534 8.390625 37.31640625 C8.41125 36.51203125 8.431875 35.70765625 8.453125 34.87890625 C5.10661759 31.53239884 1.47825008 31.70380625 -3.109375 31.62890625 C-4.05941406 31.603125 -5.00945312 31.57734375 -5.98828125 31.55078125 C-8.57951766 31.67233916 -8.57951766 31.67233916 -10.390625 33.23828125 Z " fill="#000000" transform="translate(1540.546875,702.12109375)"/>
<path d="M0 0 C0.84433594 0.04833984 1.68867187 0.09667969 2.55859375 0.14648438 C3.43128906 0.20255859 4.30398438 0.25863281 5.203125 0.31640625 C6.53537109 0.3947168 6.53537109 0.3947168 7.89453125 0.47460938 C10.08111696 0.60392358 12.26720394 0.73887267 14.453125 0.87890625 C14.453125 2.19890625 14.453125 3.51890625 14.453125 4.87890625 C12.473125 5.20890625 10.493125 5.53890625 8.453125 5.87890625 C8.845 6.72453125 9.236875 7.57015625 9.640625 8.44140625 C10.7140456 12.98280108 9.78129619 14.89848453 7.453125 18.87890625 C3.76692264 22.13143774 0.16715548 22.25586346 -4.55859375 22.375 C-6.75346626 22.68706937 -6.75346626 22.68706937 -7.81640625 24.9140625 C-8.17798828 25.88666016 -8.17798828 25.88666016 -8.546875 26.87890625 C-7.44988281 26.91628906 -6.35289063 26.95367188 -5.22265625 26.9921875 C-3.76819643 27.05787278 -2.31377084 27.12431924 -0.859375 27.19140625 C0.2224707 27.22524414 0.2224707 27.22524414 1.32617188 27.25976562 C5.7952517 27.48423995 8.79796065 28.04842525 12.453125 30.87890625 C14.07921062 34.13107749 14.13231137 37.3753805 13.453125 40.87890625 C9.69525218 45.42791019 5.81262372 46.81481007 0.046875 47.7265625 C-5.43694661 48.04865443 -9.79403259 46.8089859 -14.609375 44.25390625 C-17.03750321 41.27749103 -17.14292896 39.50882188 -16.921875 35.7578125 C-16.42411551 33.26383004 -15.08841412 31.87006095 -13.546875 29.87890625 C-13.50594563 27.54593192 -13.50445777 25.211854 -13.546875 22.87890625 C-12.886875 21.88890625 -12.226875 20.89890625 -11.546875 19.87890625 C-12.02125 19.54890625 -12.495625 19.21890625 -12.984375 18.87890625 C-15.34411451 15.85843967 -15.67096918 12.60903119 -15.546875 8.87890625 C-13.97357016 5.15265795 -11.99571364 2.96911149 -8.546875 0.87890625 C-5.58543413 -0.06133947 -3.09060914 -0.18794245 0 0 Z M-8.546875 6.00390625 C-10.050981 8.824105 -9.99600349 10.73500681 -9.546875 13.87890625 C-8.046875 16.37890625 -8.046875 16.37890625 -5.546875 17.87890625 C-1.8751663 18.4908577 -0.25873932 18.36597131 2.828125 16.25390625 C4.91692341 13.20104704 4.99381062 11.50922401 4.453125 7.87890625 C3.58183193 5.8400853 3.58183193 5.8400853 1.453125 4.87890625 C-2.14470602 4.3392316 -5.32867176 4.19366693 -8.546875 6.00390625 Z M-10.390625 33.23828125 C-11.79534032 34.88517872 -11.79534032 34.88517872 -11.484375 37.37890625 C-10.29183248 40.55901965 -9.63065772 41.41410946 -6.546875 42.87890625 C-2.20921271 43.47077419 1.36958299 43.3078083 5.453125 41.69140625 C7.63554208 39.99598534 7.63554208 39.99598534 8.390625 37.31640625 C8.41125 36.51203125 8.431875 35.70765625 8.453125 34.87890625 C5.10661759 31.53239884 1.47825008 31.70380625 -3.109375 31.62890625 C-4.05941406 31.603125 -5.00945312 31.57734375 -5.98828125 31.55078125 C-8.57951766 31.67233916 -8.57951766 31.67233916 -10.390625 33.23828125 Z " fill="#000000" transform="translate(1302.546875,624.12109375)"/>
<path d="M0 0 C2.5625 1.5625 2.5625 1.5625 4 3 C4.495 2.525625 4.99 2.05125 5.5 1.5625 C8.91555407 -0.57222129 12.0025425 -1 16 -1 C19.03372184 -0.25842355 20.47721351 0.45016331 22.6184082 2.70214844 C24.40250539 5.66944349 24.34366718 7.63063154 24.29296875 11.078125 C24.2784668 12.81835938 24.2784668 12.81835938 24.26367188 14.59375 C24.23853516 15.8003125 24.21339844 17.006875 24.1875 18.25 C24.16719727 20.08304688 24.16719727 20.08304688 24.14648438 21.953125 C24.1111398 24.96919498 24.0617956 27.98437487 24 31 C22.35 31 20.7 31 19 31 C18.970271 29.97845825 18.970271 29.97845825 18.93994141 28.9362793 C18.84473017 25.85296083 18.73503534 22.77032351 18.625 19.6875 C18.5940625 18.61564453 18.563125 17.54378906 18.53125 16.43945312 C18.47324219 14.89741211 18.47324219 14.89741211 18.4140625 13.32421875 C18.3826416 12.37635498 18.3512207 11.42849121 18.31884766 10.4519043 C18.1510949 7.7469731 18.1510949 7.7469731 16 5 C11.65413172 4.60492107 9.67996503 4.54668998 6 7 C5.49039309 9.51385259 5.49039309 9.51385259 5.48828125 12.4453125 C5.45283203 13.52167969 5.41738281 14.59804688 5.38085938 15.70703125 C5.35830078 16.83496094 5.33574219 17.96289062 5.3125 19.125 C5.27833984 20.26066406 5.24417969 21.39632812 5.20898438 22.56640625 C5.12630498 25.37750579 5.05722063 28.18828553 5 31 C3.02 31 1.04 31 -1 31 C-1.495 18.13 -1.495 18.13 -2 5 C-9.5527864 4.40371521 -9.5527864 4.40371521 -14 7 C-14.33 14.92 -14.66 22.84 -15 31 C-16.98 31 -18.96 31 -21 31 C-21 20.77 -21 10.54 -21 0 C-19.35 0 -17.7 0 -16 0 C-15.67 0.66 -15.34 1.32 -15 2 C-14.195625 1.484375 -13.39125 0.96875 -12.5625 0.4375 C-8.02909326 -1.39176939 -4.69189342 -1.20190818 0 0 Z " fill="#000000" transform="translate(1448,703)"/>
<path d="M0 0 C2.5625 1.5625 2.5625 1.5625 4 3 C4.495 2.525625 4.99 2.05125 5.5 1.5625 C8.91555407 -0.57222129 12.0025425 -1 16 -1 C19.03372184 -0.25842355 20.47721351 0.45016331 22.6184082 2.70214844 C24.40250539 5.66944349 24.34366718 7.63063154 24.29296875 11.078125 C24.2784668 12.81835938 24.2784668 12.81835938 24.26367188 14.59375 C24.23853516 15.8003125 24.21339844 17.006875 24.1875 18.25 C24.16719727 20.08304688 24.16719727 20.08304688 24.14648438 21.953125 C24.1111398 24.96919498 24.0617956 27.98437487 24 31 C22.35 31 20.7 31 19 31 C18.970271 29.97845825 18.970271 29.97845825 18.93994141 28.9362793 C18.84473017 25.85296083 18.73503534 22.77032351 18.625 19.6875 C18.5940625 18.61564453 18.563125 17.54378906 18.53125 16.43945312 C18.47324219 14.89741211 18.47324219 14.89741211 18.4140625 13.32421875 C18.3826416 12.37635498 18.3512207 11.42849121 18.31884766 10.4519043 C18.1510949 7.7469731 18.1510949 7.7469731 16 5 C11.65413172 4.60492107 9.67996503 4.54668998 6 7 C5.49039309 9.51385259 5.49039309 9.51385259 5.48828125 12.4453125 C5.45283203 13.52167969 5.41738281 14.59804688 5.38085938 15.70703125 C5.35830078 16.83496094 5.33574219 17.96289062 5.3125 19.125 C5.27833984 20.26066406 5.24417969 21.39632812 5.20898438 22.56640625 C5.12630498 25.37750579 5.05722063 28.18828553 5 31 C3.02 31 1.04 31 -1 31 C-1.495 18.13 -1.495 18.13 -2 5 C-9.5527864 4.40371521 -9.5527864 4.40371521 -14 7 C-14.33 14.92 -14.66 22.84 -15 31 C-16.98 31 -18.96 31 -21 31 C-21 20.77 -21 10.54 -21 0 C-19.35 0 -17.7 0 -16 0 C-15.67 0.66 -15.34 1.32 -15 2 C-14.195625 1.484375 -13.39125 0.96875 -12.5625 0.4375 C-8.02909326 -1.39176939 -4.69189342 -1.20190818 0 0 Z " fill="#000000" transform="translate(1427,625)"/>
<path d="M0 0 C17 0 17 0 23 3 C26.02106811 6.02106811 26.74603892 8.76731536 27 13 C25.95277444 18.13140522 23.68073434 20.41612709 20 24 C20 28.20372022 22.23217836 30.75391379 24.5 34.125 C29 40.89527027 29 40.89527027 29 42 C25.77734375 42.46484375 25.77734375 42.46484375 22 42 C19.46507325 39.27354119 18.12346351 35.76206525 16.56054688 32.41992188 C14.61132788 28.43967509 14.61132788 28.43967509 10.93310547 26.30419922 C8.47302154 25.9534056 8.47302154 25.9534056 5 26 C5 31.28 5 36.56 5 42 C3.35 42 1.7 42 0 42 C0 28.14 0 14.28 0 0 Z M5 5 C5 10.28 5 15.56 5 21 C12.55239031 21.50111845 12.55239031 21.50111845 19 18 C20.94663632 15.4339794 21.00770736 14.18883026 20.875 10.9375 C19.83692866 7.45254623 19.09962432 6.78622419 16 5 C13.18170117 4.63899466 13.18170117 4.63899466 10.25 4.8125 C8.5175 4.874375 6.785 4.93625 5 5 Z " fill="#000000" transform="translate(1085,614)"/>
<path d="M0 0 C1.65 0 3.3 0 5 0 C5 15.51 5 31.02 5 47 C2.33333333 47 -0.33333333 47 -3 47 C-3.99 47.495 -3.99 47.495 -5 48 C-10.22949274 48.40226867 -13.60684575 47.9287695 -18 45 C-22.47867593 39.31087112 -23.47785523 35.16782838 -23 28 C-22.00910293 23.82574858 -20.69159279 20.77063197 -17.8125 17.5625 C-14.25296536 15.58498075 -11.07581474 14.77888889 -7 15 C-5.02 15.66 -3.04 16.32 -1 17 C-0.67 11.39 -0.34 5.78 0 0 Z M-16 24 C-17.99002934 27.98005868 -17.51739049 32.67218069 -17 37 C-15.76197015 40.18264259 -14.87871188 40.82627878 -12 43 C-8.89168831 43.64234812 -6.09242328 43.74704607 -3 43 C-0.07165793 40.64867554 -0.01134771 40.10223158 0.43359375 36.09375 C0.45084245 34.5625966 0.4515593 33.03118601 0.4375 31.5 C0.45748047 30.72785156 0.47746094 29.95570313 0.49804688 29.16015625 C0.51924344 24.66662025 0.51924344 24.66662025 -1.8125 20.99609375 C-7.55202046 18.38256211 -11.70181222 19.70181222 -16 24 Z " fill="#000000" transform="translate(1169,609)"/>
<path d="M0 0 C1.65 0 3.3 0 5 0 C5 5.94 5 11.88 5 18 C11.93 18 18.86 18 26 18 C26 12.06 26 6.12 26 0 C27.65 0 29.3 0 31 0 C31 13.86 31 27.72 31 42 C29.35 42 27.7 42 26 42 C26 35.73 26 29.46 26 23 C19.07 23 12.14 23 5 23 C5 29.27 5 35.54 5 42 C3.35 42 1.7 42 0 42 C0 28.14 0 14.28 0 0 Z " fill="#000000" transform="translate(1335,614)"/>
<path d="M0 0 C3.55584815 1.80327126 5.58259138 4.16518275 7.375 7.75 C8.71074465 14.69587217 8.67281572 20.0687233 5.14453125 26.33984375 C2.90262776 29.59175155 0.68359442 30.77213519 -3 32 C-8.58419173 32.36617651 -12.22647798 32.2546741 -17 29 C-21.24248277 23.49623857 -22.68787968 18.91701234 -22 12 C-20.2080765 6.12647298 -17.86844711 3.44848337 -13 0 C-8.54614035 -1.48461988 -4.54920689 -1.02587092 0 0 Z M-15 8 C-16.68325534 13.04976602 -16.90107581 18.07497442 -14.625 22.9375 C-13.01770773 25.06083743 -13.01770773 25.06083743 -11 27 C-5.54435142 27.49332246 -5.54435142 27.49332246 -0.5625 25.6875 C2.79147232 22.0652099 2.39557988 17.41163686 2.33984375 12.7421875 C1.78709178 8.2820509 0.52898811 6.77813957 -3 4 C-8.422767 3.03164875 -11.19135141 4.07933233 -15 8 Z " fill="#000000" transform="translate(1392,703)"/>
<path d="M0 0 C3.55584815 1.80327126 5.58259138 4.16518275 7.375 7.75 C8.71074465 14.69587217 8.67281572 20.0687233 5.14453125 26.33984375 C2.90262776 29.59175155 0.68359442 30.77213519 -3 32 C-8.58419173 32.36617651 -12.22647798 32.2546741 -17 29 C-21.24248277 23.49623857 -22.68787968 18.91701234 -22 12 C-20.2080765 6.12647298 -17.86844711 3.44848337 -13 0 C-8.54614035 -1.48461988 -4.54920689 -1.02587092 0 0 Z M-15 8 C-16.68325534 13.04976602 -16.90107581 18.07497442 -14.625 22.9375 C-13.01770773 25.06083743 -13.01770773 25.06083743 -11 27 C-5.54435142 27.49332246 -5.54435142 27.49332246 -0.5625 25.6875 C2.79147232 22.0652099 2.39557988 17.41163686 2.33984375 12.7421875 C1.78709178 8.2820509 0.52898811 6.77813957 -3 4 C-8.422767 3.03164875 -11.19135141 4.07933233 -15 8 Z " fill="#000000" transform="translate(1393,625)"/>
<path d="M0 0 C3.2044343 2.52263977 5.73211647 5.08108727 7 9 C7 11.31 7 13.62 7 16 C-0.26 16 -7.52 16 -15 16 C-13.72390184 22.54552956 -13.72390184 22.54552956 -11.1875 24.875 C-5.95890417 27.56399214 -1.63180901 26.85908951 4 26 C4.33 27.32 4.66 28.64 5 30 C0.39804194 32.63873742 -3.81131356 32.63011035 -9 32 C-13.26697495 30.6732935 -16.1883727 29.04726103 -18.9375 25.5 C-21.43552332 19.62229807 -21.83967464 14.47704018 -19.75 8.3125 C-17.62346961 4.28728177 -15.69985724 2.01991434 -11.8125 -0.3125 C-7.70347968 -1.31692719 -4.07317786 -1.15320462 0 0 Z M-12.375 5.75 C-14.29014897 8.10832228 -14.29014897 8.10832228 -15 12 C-9.72 12 -4.44 12 1 12 C0.67 10.02 0.34 8.04 0 6 C-4.24269494 3.17153671 -8.12604663 2.61919225 -12.375 5.75 Z " fill="#000000" transform="translate(1659,703)"/>
<path d="M0 0 C3.2044343 2.52263977 5.73211647 5.08108727 7 9 C7 11.31 7 13.62 7 16 C-0.26 16 -7.52 16 -15 16 C-13.72390184 22.54552956 -13.72390184 22.54552956 -11.1875 24.875 C-5.95890417 27.56399214 -1.63180901 26.85908951 4 26 C4.33 27.32 4.66 28.64 5 30 C0.39804194 32.63873742 -3.81131356 32.63011035 -9 32 C-13.26697495 30.6732935 -16.1883727 29.04726103 -18.9375 25.5 C-21.43552332 19.62229807 -21.83967464 14.47704018 -19.75 8.3125 C-17.62346961 4.28728177 -15.69985724 2.01991434 -11.8125 -0.3125 C-7.70347968 -1.31692719 -4.07317786 -1.15320462 0 0 Z M-12.375 5.75 C-14.29014897 8.10832228 -14.29014897 8.10832228 -15 12 C-9.72 12 -4.44 12 1 12 C0.67 10.02 0.34 8.04 0 6 C-4.24269494 3.17153671 -8.12604663 2.61919225 -12.375 5.75 Z " fill="#000000" transform="translate(1634,625)"/>
<path d="M0 0 C3.2044343 2.52263977 5.73211647 5.08108727 7 9 C7 11.31 7 13.62 7 16 C-0.26 16 -7.52 16 -15 16 C-13.72390184 22.54552956 -13.72390184 22.54552956 -11.1875 24.875 C-5.95890417 27.56399214 -1.63180901 26.85908951 4 26 C4.33 27.32 4.66 28.64 5 30 C0.39804194 32.63873742 -3.81131356 32.63011035 -9 32 C-13.26697495 30.6732935 -16.1883727 29.04726103 -18.9375 25.5 C-21.43552332 19.62229807 -21.83967464 14.47704018 -19.75 8.3125 C-17.62346961 4.28728177 -15.69985724 2.01991434 -11.8125 -0.3125 C-7.70347968 -1.31692719 -4.07317786 -1.15320462 0 0 Z M-12.375 5.75 C-14.29014897 8.10832228 -14.29014897 8.10832228 -15 12 C-9.72 12 -4.44 12 1 12 C0.67 10.02 0.34 8.04 0 6 C-4.24269494 3.17153671 -8.12604663 2.61919225 -12.375 5.75 Z " fill="#000000" transform="translate(1521,625)"/>
<path d="M0 0 C3.2044343 2.52263977 5.73211647 5.08108727 7 9 C7 11.31 7 13.62 7 16 C-0.26 16 -7.52 16 -15 16 C-13.72390184 22.54552956 -13.72390184 22.54552956 -11.1875 24.875 C-5.95890417 27.56399214 -1.63180901 26.85908951 4 26 C4.33 27.32 4.66 28.64 5 30 C0.39804194 32.63873742 -3.81131356 32.63011035 -9 32 C-13.26697495 30.6732935 -16.1883727 29.04726103 -18.9375 25.5 C-21.43552332 19.62229807 -21.83967464 14.47704018 -19.75 8.3125 C-17.62346961 4.28728177 -15.69985724 2.01991434 -11.8125 -0.3125 C-7.70347968 -1.31692719 -4.07317786 -1.15320462 0 0 Z M-12.375 5.75 C-14.29014897 8.10832228 -14.29014897 8.10832228 -15 12 C-9.72 12 -4.44 12 1 12 C0.67 10.02 0.34 8.04 0 6 C-4.24269494 3.17153671 -8.12604663 2.61919225 -12.375 5.75 Z " fill="#000000" transform="translate(1477,625)"/>
<path d="M0 0 C3.2044343 2.52263977 5.73211647 5.08108727 7 9 C7 11.31 7 13.62 7 16 C-0.26 16 -7.52 16 -15 16 C-13.72390184 22.54552956 -13.72390184 22.54552956 -11.1875 24.875 C-5.95890417 27.56399214 -1.63180901 26.85908951 4 26 C4.33 27.32 4.66 28.64 5 30 C0.39804194 32.63873742 -3.81131356 32.63011035 -9 32 C-13.26697495 30.6732935 -16.1883727 29.04726103 -18.9375 25.5 C-21.43552332 19.62229807 -21.83967464 14.47704018 -19.75 8.3125 C-17.62346961 4.28728177 -15.69985724 2.01991434 -11.8125 -0.3125 C-7.70347968 -1.31692719 -4.07317786 -1.15320462 0 0 Z M-12.375 5.75 C-14.29014897 8.10832228 -14.29014897 8.10832228 -15 12 C-9.72 12 -4.44 12 1 12 C0.67 10.02 0.34 8.04 0 6 C-4.24269494 3.17153671 -8.12604663 2.61919225 -12.375 5.75 Z " fill="#000000" transform="translate(1137,625)"/>
<path d="M0 0 C2.7109375 1.73046875 2.7109375 1.73046875 5 5 C5.62271131 9.45099228 5.46924914 13.82947472 5.3125 18.3125 C5.28994141 19.53001953 5.26738281 20.74753906 5.24414062 22.00195312 C5.1853053 25.00255482 5.1031414 28.00064797 5 31 C3.68 31 2.36 31 1 31 C0.67 30.34 0.34 29.68 0 29 C-0.845625 29.495 -1.69125 29.99 -2.5625 30.5 C-6.48083062 32.209817 -8.76813363 32.5289833 -13 32 C-16.375 30.5625 -16.375 30.5625 -19 28 C-20.13366736 24.91550403 -20.4305316 22.25807697 -20 19 C-17.59583209 15.35497124 -15.22807638 13.85523714 -11.125 12.6875 C-7.36710282 11.92306084 -3.82386216 11.84067241 0 12 C-0.96776098 8.20452079 -0.96776098 8.20452079 -3 5 C-7.84034716 4.83592044 -12.23258627 5.04651725 -17 6 C-17.33 4.68 -17.66 3.36 -18 2 C-11.61931183 -0.31430698 -6.66011729 -1.8061335 0 0 Z M-14 20 C-14.75 22.5 -14.75 22.5 -14 25 C-12.00155751 27.13353917 -12.00155751 27.13353917 -9 28 C-5.15804573 27.28370344 -2.78552878 26.78552878 0 24 C0.16677282 20.41656024 0.16677282 20.41656024 0 17 C-1.58246707 16.91846067 -3.16616273 16.86056443 -4.75 16.8125 C-5.63171875 16.77769531 -6.5134375 16.74289062 -7.421875 16.70703125 C-10.49073823 17.05576571 -11.79320941 17.87400724 -14 20 Z " fill="#000000" transform="translate(1284,703)"/>
<path d="M0 0 C1.98 0 3.96 0 6 0 C6.33 8.58 6.66 17.16 7 26 C16.25464401 26.74535599 16.25464401 26.74535599 21 24 C21 16.08 21 8.16 21 0 C22.98 0 24.96 0 27 0 C27 10.23 27 20.46 27 31 C25.35 31 23.7 31 22 31 C21.67 30.34 21.34 29.68 21 29 C20.154375 29.495 19.30875 29.99 18.4375 30.5 C13.68002077 32.57599094 10.11708508 32.81796469 5.25 30.9375 C1.56850426 27.76732312 0.19158321 24.11231263 -0.23876953 19.36743164 C-0.29442775 16.42682227 -0.26210305 13.50262519 -0.1875 10.5625 C-0.17396484 9.54478516 -0.16042969 8.52707031 -0.14648438 7.47851562 C-0.1113661 4.98511786 -0.06218559 2.49284488 0 0 Z " fill="#000000" transform="translate(1181,625)"/>
<path d="M0 0 C2.72265625 1.73046875 2.72265625 1.73046875 5 5 C5.62159573 9.45120577 5.46925208 13.82939041 5.3125 18.3125 C5.28994141 19.53001953 5.26738281 20.74753906 5.24414062 22.00195312 C5.1853053 25.00255482 5.1031414 28.00064797 5 31 C3.35 31 1.7 31 0 31 C-0.02505615 30.34926514 -0.0501123 29.69853027 -0.07592773 29.02807617 C-0.19193702 26.08101954 -0.31464115 23.1342787 -0.4375 20.1875 C-0.47681641 19.16333984 -0.51613281 18.13917969 -0.55664062 17.08398438 C-0.59853516 16.10107422 -0.64042969 15.11816406 -0.68359375 14.10546875 C-0.72025146 13.19949951 -0.75690918 12.29353027 -0.79467773 11.36010742 C-0.9208205 8.84951218 -0.9208205 8.84951218 -2 6 C-4.7798816 4.6100592 -6.9186326 4.81511796 -10 5 C-11.98 5.99 -11.98 5.99 -14 7 C-14.33 14.92 -14.66 22.84 -15 31 C-16.98 31 -18.96 31 -21 31 C-21 20.77 -21 10.54 -21 0 C-19.35 0 -17.7 0 -16 0 C-15.67 0.66 -15.34 1.32 -15 2 C-13.515 1.2265625 -13.515 1.2265625 -12 0.4375 C-7.94114545 -1.27970769 -4.14185104 -1.68922552 0 0 Z " fill="#000000" transform="translate(1514,703)"/>
<path d="M0 0 C2.72265625 1.73046875 2.72265625 1.73046875 5 5 C5.62159573 9.45120577 5.46925208 13.82939041 5.3125 18.3125 C5.28994141 19.53001953 5.26738281 20.74753906 5.24414062 22.00195312 C5.1853053 25.00255482 5.1031414 28.00064797 5 31 C3.35 31 1.7 31 0 31 C-0.02505615 30.34926514 -0.0501123 29.69853027 -0.07592773 29.02807617 C-0.19193702 26.08101954 -0.31464115 23.1342787 -0.4375 20.1875 C-0.47681641 19.16333984 -0.51613281 18.13917969 -0.55664062 17.08398438 C-0.59853516 16.10107422 -0.64042969 15.11816406 -0.68359375 14.10546875 C-0.72025146 13.19949951 -0.75690918 12.29353027 -0.79467773 11.36010742 C-0.9208205 8.84951218 -0.9208205 8.84951218 -2 6 C-4.7798816 4.6100592 -6.9186326 4.81511796 -10 5 C-11.98 5.99 -11.98 5.99 -14 7 C-14.33 14.92 -14.66 22.84 -15 31 C-16.98 31 -18.96 31 -21 31 C-21 20.77 -21 10.54 -21 0 C-19.35 0 -17.7 0 -16 0 C-15.67 0.66 -15.34 1.32 -15 2 C-13.515 1.2265625 -13.515 1.2265625 -12 0.4375 C-7.94114545 -1.27970769 -4.14185104 -1.68922552 0 0 Z " fill="#000000" transform="translate(1316,703)"/>
<path d="M0 0 C2.72265625 1.73046875 2.72265625 1.73046875 5 5 C5.62159573 9.45120577 5.46925208 13.82939041 5.3125 18.3125 C5.28994141 19.53001953 5.26738281 20.74753906 5.24414062 22.00195312 C5.1853053 25.00255482 5.1031414 28.00064797 5 31 C3.35 31 1.7 31 0 31 C-0.02505615 30.34926514 -0.0501123 29.69853027 -0.07592773 29.02807617 C-0.19193702 26.08101954 -0.31464115 23.1342787 -0.4375 20.1875 C-0.47681641 19.16333984 -0.51613281 18.13917969 -0.55664062 17.08398438 C-0.59853516 16.10107422 -0.64042969 15.11816406 -0.68359375 14.10546875 C-0.72025146 13.19949951 -0.75690918 12.29353027 -0.79467773 11.36010742 C-0.9208205 8.84951218 -0.9208205 8.84951218 -2 6 C-4.7798816 4.6100592 -6.9186326 4.81511796 -10 5 C-11.98 5.99 -11.98 5.99 -14 7 C-14.33 14.92 -14.66 22.84 -15 31 C-16.98 31 -18.96 31 -21 31 C-21 20.77 -21 10.54 -21 0 C-19.35 0 -17.7 0 -16 0 C-15.67 0.66 -15.34 1.32 -15 2 C-13.515 1.2265625 -13.515 1.2265625 -12 0.4375 C-7.94114545 -1.27970769 -4.14185104 -1.68922552 0 0 Z " fill="#000000" transform="translate(1603,625)"/>
<path d="M0 0 C2.72265625 1.73046875 2.72265625 1.73046875 5 5 C5.62159573 9.45120577 5.46925208 13.82939041 5.3125 18.3125 C5.28994141 19.53001953 5.26738281 20.74753906 5.24414062 22.00195312 C5.1853053 25.00255482 5.1031414 28.00064797 5 31 C3.35 31 1.7 31 0 31 C-0.02505615 30.34926514 -0.0501123 29.69853027 -0.07592773 29.02807617 C-0.19193702 26.08101954 -0.31464115 23.1342787 -0.4375 20.1875 C-0.47681641 19.16333984 -0.51613281 18.13917969 -0.55664062 17.08398438 C-0.59853516 16.10107422 -0.64042969 15.11816406 -0.68359375 14.10546875 C-0.72025146 13.19949951 -0.75690918 12.29353027 -0.79467773 11.36010742 C-0.9208205 8.84951218 -0.9208205 8.84951218 -2 6 C-4.7798816 4.6100592 -6.9186326 4.81511796 -10 5 C-11.98 5.99 -11.98 5.99 -14 7 C-14.33 14.92 -14.66 22.84 -15 31 C-16.98 31 -18.96 31 -21 31 C-21 20.77 -21 10.54 -21 0 C-19.35 0 -17.7 0 -16 0 C-15.67 0.66 -15.34 1.32 -15 2 C-13.515 1.2265625 -13.515 1.2265625 -12 0.4375 C-7.94114545 -1.27970769 -4.14185104 -1.68922552 0 0 Z " fill="#000000" transform="translate(1276,625)"/>
<path d="M0 0 C10.89 0 21.78 0 33 0 C33 1.65 33 3.3 33 5 C28.38 5 23.76 5 19 5 C19 17.21 19 29.42 19 42 C17.35 42 15.7 42 14 42 C14 29.79 14 17.58 14 5 C9.38 5 4.76 5 0 5 C0 3.35 0 1.7 0 0 Z " fill="#000000" transform="translate(1211,692)"/>
<path d="M0 0 C0.86625 0.00644531 1.7325 0.01289062 2.625 0.01953125 C5 0.1875 5 0.1875 8 1.1875 C7.67 2.5075 7.34 3.8275 7 5.1875 C4.98177083 5.15494792 2.96354167 5.12239583 0.9453125 5.08984375 C-1.08185404 5.06100758 -1.08185404 5.06100758 -3 6.1875 C-3.68931344 8.53657875 -3.68931344 8.53657875 -4.125 11.25 C-4.37636719 12.62865234 -4.37636719 12.62865234 -4.6328125 14.03515625 C-4.75398438 14.74542969 -4.87515625 15.45570313 -5 16.1875 C-1.7 16.1875 1.6 16.1875 5 16.1875 C5 17.5075 5 18.8275 5 20.1875 C1.7 20.1875 -1.6 20.1875 -5 20.1875 C-5 29.0975 -5 38.0075 -5 47.1875 C-6.65 47.1875 -8.3 47.1875 -10 47.1875 C-10 38.2775 -10 29.3675 -10 20.1875 C-11.65 20.1875 -13.3 20.1875 -15 20.1875 C-15 18.8675 -15 17.5475 -15 16.1875 C-13.35 16.1875 -11.7 16.1875 -10 16.1875 C-10.02320313 15.51203125 -10.04640625 14.8365625 -10.0703125 14.140625 C-10.08835937 13.24859375 -10.10640625 12.3565625 -10.125 11.4375 C-10.14820313 10.55578125 -10.17140625 9.6740625 -10.1953125 8.765625 C-9.98637114 6.00759905 -9.51063339 4.48846477 -8 2.1875 C-4.74004414 0.01419609 -3.77020034 -0.06171459 0 0 Z " fill="#000000" transform="translate(1365,686.8125)"/>
<path d="M0 0 C-0.33 1.32 -0.66 2.64 -1 4 C-4.96 4 -8.92 4 -13 4 C-13.33 5.65 -13.66 7.3 -14 9 C-13.25234375 9.31453125 -12.5046875 9.6290625 -11.734375 9.953125 C-10.74953125 10.38109375 -9.7646875 10.8090625 -8.75 11.25 C-7.28820313 11.87648438 -7.28820313 11.87648438 -5.796875 12.515625 C-2.90612905 14.04981978 -1.07053578 15.47578039 1 18 C1.5625 21.4375 1.5625 21.4375 1 25 C-1.54137159 28.15954305 -3.14622659 29.71540886 -7 31 C-12.03943886 31.40579751 -16.41808226 31.36486077 -21 29 C-20.67 27.68 -20.34 26.36 -20 25 C-15.38 25 -10.76 25 -6 25 C-5.67 23.68 -5.34 22.36 -5 21 C-6.96266431 18.24166097 -9.41818931 17.23272428 -12.5 16 C-15.64570298 14.74171881 -17.80934934 13.62071704 -20 11 C-21.14758366 7.88513006 -21.1883683 6.49446679 -20 3.375 C-14.91523104 -2.66316314 -6.94374047 -3.47187023 0 0 Z " fill="#000000" transform="translate(1690,704)"/>
<path d="M0 0 C-0.33 1.32 -0.66 2.64 -1 4 C-4.96 4 -8.92 4 -13 4 C-13.33 5.65 -13.66 7.3 -14 9 C-13.25234375 9.31453125 -12.5046875 9.6290625 -11.734375 9.953125 C-10.74953125 10.38109375 -9.7646875 10.8090625 -8.75 11.25 C-7.28820313 11.87648438 -7.28820313 11.87648438 -5.796875 12.515625 C-2.90612905 14.04981978 -1.07053578 15.47578039 1 18 C1.5625 21.4375 1.5625 21.4375 1 25 C-1.54137159 28.15954305 -3.14622659 29.71540886 -7 31 C-12.03943886 31.40579751 -16.41808226 31.36486077 -21 29 C-20.67 27.68 -20.34 26.36 -20 25 C-15.38 25 -10.76 25 -6 25 C-5.67 23.68 -5.34 22.36 -5 21 C-6.96266431 18.24166097 -9.41818931 17.23272428 -12.5 16 C-15.64570298 14.74171881 -17.80934934 13.62071704 -20 11 C-21.14758366 7.88513006 -21.1883683 6.49446679 -20 3.375 C-14.91523104 -2.66316314 -6.94374047 -3.47187023 0 0 Z " fill="#000000" transform="translate(1347,704)"/>
<path d="M0 0 C-0.33 1.32 -0.66 2.64 -1 4 C-4.96 4 -8.92 4 -13 4 C-13.33 5.65 -13.66 7.3 -14 9 C-13.25234375 9.31453125 -12.5046875 9.6290625 -11.734375 9.953125 C-10.74953125 10.38109375 -9.7646875 10.8090625 -8.75 11.25 C-7.28820313 11.87648438 -7.28820313 11.87648438 -5.796875 12.515625 C-2.90612905 14.04981978 -1.07053578 15.47578039 1 18 C1.5625 21.4375 1.5625 21.4375 1 25 C-1.54137159 28.15954305 -3.14622659 29.71540886 -7 31 C-12.03943886 31.40579751 -16.41808226 31.36486077 -21 29 C-20.67 27.68 -20.34 26.36 -20 25 C-15.38 25 -10.76 25 -6 25 C-5.67 23.68 -5.34 22.36 -5 21 C-6.96266431 18.24166097 -9.41818931 17.23272428 -12.5 16 C-15.64570298 14.74171881 -17.80934934 13.62071704 -20 11 C-21.14758366 7.88513006 -21.1883683 6.49446679 -20 3.375 C-14.91523104 -2.66316314 -6.94374047 -3.47187023 0 0 Z " fill="#000000" transform="translate(1690,626)"/>
<path d="M0 0 C-0.33 1.32 -0.66 2.64 -1 4 C-4.96 4 -8.92 4 -13 4 C-13.33 5.65 -13.66 7.3 -14 9 C-13.25234375 9.31453125 -12.5046875 9.6290625 -11.734375 9.953125 C-10.74953125 10.38109375 -9.7646875 10.8090625 -8.75 11.25 C-7.28820313 11.87648438 -7.28820313 11.87648438 -5.796875 12.515625 C-2.90612905 14.04981978 -1.07053578 15.47578039 1 18 C1.5625 21.4375 1.5625 21.4375 1 25 C-1.54137159 28.15954305 -3.14622659 29.71540886 -7 31 C-12.03943886 31.40579751 -16.41808226 31.36486077 -21 29 C-20.67 27.68 -20.34 26.36 -20 25 C-15.38 25 -10.76 25 -6 25 C-5.67 23.68 -5.34 22.36 -5 21 C-6.96266431 18.24166097 -9.41818931 17.23272428 -12.5 16 C-15.64570298 14.74171881 -17.80934934 13.62071704 -20 11 C-21.14758366 7.88513006 -21.1883683 6.49446679 -20 3.375 C-14.91523104 -2.66316314 -6.94374047 -3.47187023 0 0 Z " fill="#000000" transform="translate(1665,626)"/>
<path d="M0 0 C-0.33 1.32 -0.66 2.64 -1 4 C-4.96 4 -8.92 4 -13 4 C-13.33 5.65 -13.66 7.3 -14 9 C-13.25234375 9.31453125 -12.5046875 9.6290625 -11.734375 9.953125 C-10.74953125 10.38109375 -9.7646875 10.8090625 -8.75 11.25 C-7.28820313 11.87648438 -7.28820313 11.87648438 -5.796875 12.515625 C-2.90612905 14.04981978 -1.07053578 15.47578039 1 18 C1.5625 21.4375 1.5625 21.4375 1 25 C-1.54137159 28.15954305 -3.14622659 29.71540886 -7 31 C-12.03943886 31.40579751 -16.41808226 31.36486077 -21 29 C-20.67 27.68 -20.34 26.36 -20 25 C-15.38 25 -10.76 25 -6 25 C-5.67 23.68 -5.34 22.36 -5 21 C-6.96266431 18.24166097 -9.41818931 17.23272428 -12.5 16 C-15.64570298 14.74171881 -17.80934934 13.62071704 -20 11 C-21.14758366 7.88513006 -21.1883683 6.49446679 -20 3.375 C-14.91523104 -2.66316314 -6.94374047 -3.47187023 0 0 Z " fill="#000000" transform="translate(1576,626)"/>
<path d="M0 0 C-0.33 1.32 -0.66 2.64 -1 4 C-4.96 4 -8.92 4 -13 4 C-13.33 5.65 -13.66 7.3 -14 9 C-13.25234375 9.31453125 -12.5046875 9.6290625 -11.734375 9.953125 C-10.74953125 10.38109375 -9.7646875 10.8090625 -8.75 11.25 C-7.28820313 11.87648438 -7.28820313 11.87648438 -5.796875 12.515625 C-2.90612905 14.04981978 -1.07053578 15.47578039 1 18 C1.5625 21.4375 1.5625 21.4375 1 25 C-1.54137159 28.15954305 -3.14622659 29.71540886 -7 31 C-12.03943886 31.40579751 -16.41808226 31.36486077 -21 29 C-20.67 27.68 -20.34 26.36 -20 25 C-15.38 25 -10.76 25 -6 25 C-5.67 23.68 -5.34 22.36 -5 21 C-6.96266431 18.24166097 -9.41818931 17.23272428 -12.5 16 C-15.64570298 14.74171881 -17.80934934 13.62071704 -20 11 C-21.14758366 7.88513006 -21.1883683 6.49446679 -20 3.375 C-14.91523104 -2.66316314 -6.94374047 -3.47187023 0 0 Z " fill="#000000" transform="translate(1551,626)"/>
<path d="M0 0 C1.65 0 3.3 0 5 0 C8.00727783 7.23026373 10.59326535 14.54936402 13 22 C16.00727783 14.76973627 18.59326535 7.45063598 21 0 C22.98 0 24.96 0 27 0 C24.98337791 6.92597032 22.76666224 13.7574102 20.375 20.5625 C20.06304688 21.46291016 19.75109375 22.36332031 19.4296875 23.29101562 C19.130625 24.14501953 18.8315625 24.99902344 18.5234375 25.87890625 C18.25450684 26.6479126 17.98557617 27.41691895 17.70849609 28.20922852 C17 30 17 30 16 31 C14.33382885 31.04063832 12.66611905 31.042721 11 31 C8.15662694 24.79576745 5.60392465 18.5300997 3.25 12.125 C2.93417969 11.28453125 2.61835937 10.4440625 2.29296875 9.578125 C1.99519531 8.77117188 1.69742187 7.96421875 1.390625 7.1328125 C1.12282227 6.40980957 0.85501953 5.68680664 0.57910156 4.94189453 C0 3 0 3 0 0 Z " fill="#000000" transform="translate(1611,703)"/>
<path d="M0 0 C-0.33 1.32 -0.66 2.64 -1 4 C-1.81984375 3.95359375 -2.6396875 3.9071875 -3.484375 3.859375 C-4.56203125 3.82328125 -5.6396875 3.7871875 -6.75 3.75 C-7.81734375 3.70359375 -8.8846875 3.6571875 -9.984375 3.609375 C-13.67433406 4.08734897 -14.72626726 5.13127178 -17 8 C-18.72746904 11.45493809 -18.35356617 15.21553242 -18 19 C-16.63052926 22.57584027 -15.71587055 23.63374065 -12.3125 25.375 C-8.18464771 26.15384006 -5.12914847 25.71192215 -1 25 C-0.67 26.32 -0.34 27.64 0 29 C-4.3565338 31.47395924 -8.08934124 31.53897474 -13 31 C-18.27011062 29.17573094 -20.83751204 26.42748314 -24 22 C-24.8125 20.0625 -24.8125 20.0625 -25 18 C-25.1546875 16.39125 -25.1546875 16.39125 -25.3125 14.75 C-24.82115487 8.85385846 -22.72876334 4.68554426 -18.5 0.5625 C-12.67620126 -3.07737421 -6.17368705 -2.99330281 0 0 Z " fill="#000000" transform="translate(1237,626)"/>
<path d="M0 0 C6.6 0 13.2 0 20 0 C20 4.95 20 9.9 20 15 C13.4 15 6.8 15 0 15 C0 10.05 0 5.1 0 0 Z " fill="#000000" transform="translate(844,649)"/>
<path d="M0 0 C6.6 0 13.2 0 20 0 C20 4.95 20 9.9 20 15 C13.4 15 6.8 15 0 15 C0 10.05 0 5.1 0 0 Z " fill="#000000" transform="translate(637,649)"/>
<path d="M0 0 C6.6 0 13.2 0 20 0 C20 4.95 20 9.9 20 15 C13.4 15 6.8 15 0 15 C0 10.05 0 5.1 0 0 Z " fill="#000000" transform="translate(519,649)"/>
<path d="M0 0 C1.65 0 3.3 0 5 0 C5 12.54 5 25.08 5 38 C11.27 38 17.54 38 24 38 C24 39.32 24 40.64 24 42 C16.08 42 8.16 42 0 42 C0 28.14 0 14.28 0 0 Z " fill="#000000" transform="translate(1573,692)"/>
<path d="M0 0 C-0.33 1.65 -0.66 3.3 -1 5 C-2.0725 4.979375 -3.145 4.95875 -4.25 4.9375 C-7.14790424 4.9857984 -9.28612141 5.13155885 -12 6 C-12.86111516 9.02769315 -13.18230893 11.84266637 -13.31640625 14.984375 C-13.35830078 15.91894531 -13.40019531 16.85351562 -13.44335938 17.81640625 C-13.50233398 19.26853516 -13.50233398 19.26853516 -13.5625 20.75 C-13.60568359 21.73355469 -13.64886719 22.71710937 -13.69335938 23.73046875 C-13.79922052 26.15351275 -13.90130171 28.5766554 -14 31 C-15.98 31 -17.96 31 -20 31 C-20 20.77 -20 10.54 -20 0 C-17.525 0.495 -17.525 0.495 -15 1 C-14.67 1.66 -14.34 2.32 -14 3 C-13.401875 2.525625 -12.80375 2.05125 -12.1875 1.5625 C-7.92803168 -1.47997737 -4.97443912 -0.84471608 0 0 Z " fill="#000000" transform="translate(1425,703)"/>
<path d="M0 0 C-0.33 1.65 -0.66 3.3 -1 5 C-2.0725 4.979375 -3.145 4.95875 -4.25 4.9375 C-7.14790424 4.9857984 -9.28612141 5.13155885 -12 6 C-12.86111516 9.02769315 -13.18230893 11.84266637 -13.31640625 14.984375 C-13.35830078 15.91894531 -13.40019531 16.85351562 -13.44335938 17.81640625 C-13.50233398 19.26853516 -13.50233398 19.26853516 -13.5625 20.75 C-13.60568359 21.73355469 -13.64886719 22.71710937 -13.69335938 23.73046875 C-13.79922052 26.15351275 -13.90130171 28.5766554 -14 31 C-15.98 31 -17.96 31 -20 31 C-20 20.77 -20 10.54 -20 0 C-17.525 0.495 -17.525 0.495 -15 1 C-14.67 1.66 -14.34 2.32 -14 3 C-13.401875 2.525625 -12.80375 2.05125 -12.1875 1.5625 C-7.92803168 -1.47997737 -4.97443912 -0.84471608 0 0 Z " fill="#000000" transform="translate(1264,703)"/>
<path d="M0 0 C1.65 0 3.3 0 5 0 C5 15.51 5 31.02 5 47 C3.35 47 1.7 47 0 47 C0 31.49 0 15.98 0 0 Z " fill="#000000" transform="translate(1490,609)"/>
<path d="M0 0 C1.65 0 3.3 0 5 0 C5 10.23 5 20.46 5 31 C3.35 31 1.7 31 0 31 C0 20.77 0 10.54 0 0 Z " fill="#000000" transform="translate(1601,703)"/>
<path d="M0 0 C1.65 0 3.3 0 5 0 C5 10.23 5 20.46 5 31 C3.35 31 1.7 31 0 31 C0 20.77 0 10.54 0 0 Z " fill="#000000" transform="translate(1480,703)"/>
<path d="M0 0 C1.65 0 3.3 0 5 0 C5 10.23 5 20.46 5 31 C3.35 31 1.7 31 0 31 C0 20.77 0 10.54 0 0 Z " fill="#000000" transform="translate(1242,625)"/>
<path d="M0 0 C2.125 0.375 2.125 0.375 4 1 C4.625 3.375 4.625 3.375 5 6 C4.34 6.66 3.68 7.32 3 8 C0.375 7.625 0.375 7.625 -2 7 C-2.125 4.625 -2.125 4.625 -2 2 C-1.34 1.34 -0.68 0.68 0 0 Z " fill="#000000" transform="translate(1193,727)"/>
<path d="M0 0 C2.125 0.375 2.125 0.375 4 1 C4.625 3.375 4.625 3.375 5 6 C4.34 6.66 3.68 7.32 3 8 C0.375 7.625 0.375 7.625 -2 7 C-2.125 4.625 -2.125 4.625 -2 2 C-1.34 1.34 -0.68 0.68 0 0 Z " fill="#000000" transform="translate(1183,727)"/>
<path d="M0 0 C2.125 0.375 2.125 0.375 4 1 C4.625 3.375 4.625 3.375 5 6 C4.34 6.66 3.68 7.32 3 8 C0.375 7.625 0.375 7.625 -2 7 C-2.125 4.625 -2.125 4.625 -2 2 C-1.34 1.34 -0.68 0.68 0 0 Z " fill="#000000" transform="translate(1173,727)"/>
<path d="M0 0 C2.125 0.375 2.125 0.375 4 1 C4.625 3.375 4.625 3.375 5 6 C4.34 6.66 3.68 7.32 3 8 C0.375 7.625 0.375 7.625 -2 7 C-2.125 4.625 -2.125 4.625 -2 2 C-1.34 1.34 -0.68 0.68 0 0 Z " fill="#000000" transform="translate(1163,727)"/>
<path d="M0 0 C1.32 0.66 2.64 1.32 4 2 C3.67 3.65 3.34 5.3 3 7 C1.35 7 -0.3 7 -2 7 C-2.33 5.35 -2.66 3.7 -3 2 C-2.01 1.34 -1.02 0.68 0 0 Z " fill="#000000" transform="translate(1603,688)"/>
<path d="M0 0 C1.32 0.66 2.64 1.32 4 2 C3.67 3.65 3.34 5.3 3 7 C1.35 7 -0.3 7 -2 7 C-2.33 5.35 -2.66 3.7 -3 2 C-2.01 1.34 -1.02 0.68 0 0 Z " fill="#000000" transform="translate(1482,688)"/>
<path d="M0 0 C1.32 0.66 2.64 1.32 4 2 C3.67 3.65 3.34 5.3 3 7 C1.35 7 -0.3 7 -2 7 C-2.33 5.35 -2.66 3.7 -3 2 C-2.01 1.34 -1.02 0.68 0 0 Z " fill="#000000" transform="translate(1244,610)"/>
<path d="" fill="#00909E" transform="translate(0,0)"/>
</svg>
