<svg version="1.1" viewBox="0 0 846.7 523.2" xmlns="http://www.w3.org/2000/svg">
	<path d="m721.7 377.7-2-4 3.6-1.5a37 37 0 0 0 18.7-15.2c3.4-6.1 3.6-14.6 0.4-23.2-1.8-4.7-7.5-13.4-14.4-22a61.7 61.7 0 0 1-12.2-21.2c-1-4-1-11.2 0-15.1a53.2 53.2 0 0 1 21.8-26.6c3.3-2.2 7.6-4.7 8.1-4.7a20 20 0 0 1 2.4 4l2 4.2-1.3 0.5c-9.6 4-15.8 8.7-20.1 15.4a21.6 21.6 0 0 0-3 17.6c2.1 6.1 8.3 16.3 15.8 25.9a60.6 60.6 0 0 1 13.3 25.8c0.5 2.7 0.5 11.6 0 15a36.5 36.5 0 0 1-19.8 25.5 53.7 53.7 0 0 1-10.5 3.7c-0.5 0-1.2-1-2.7-4zm-420.4 1.7a1226.2 1226.2 0 0 1 5.3-27.5c0-0.1-1.8-0.2-3.9-0.2h-3.7l2.2-8h3.8c2 0 3.8-0.2 3.8-0.3a15756 15756 0 0 1 20.2-97.4l0.3-1.9h3.3l27.9 135.3-5.5 0.1h-5.5c-0.1-0.1-1.5-6.3-3-13.9l-3-13.7-25.5-0.2-0.4 1.9-5.1 25.2c-0.2 0.8-0.3 0.8-5.7 0.8-3 0-5.4-0.1-5.4-0.2zm40.5-36a3064.6 3064.6 0 0 0-11.3-51.7c-0.3 1-10.5 50.9-10.5 51.5 0 0.3 3.5 0.4 10.9 0.4 6 0 11-0.1 11-0.3zm246 36a1098.7 1098.7 0 0 1 5.2-27.6l-3.8-0.2h-3.8l2.2-7.8 7.5-0.2 0.2-1a85469 85469 0 0 1 20.3-98.3s0.8-0.2 1.7-0.2h1.7l13.8 67.3c7.6 37 13.9 67.5 13.8 67.7 0 0.4-1.3 0.5-5.4 0.5h-5.4l-0.6-2.6-3-13.8-2.4-11.3-12.7-0.1h-12.8l-5.5 27c-0.1 0.8-0.2 0.8-5.6 0.8-3 0-5.5-0.1-5.5-0.3zm40.5-36a3923.3 3923.3 0 0 0-11.1-52.3c-0.2 0.2-10.8 51.3-10.8 52 0 0.4 2.4 0.5 11 0.5 6 0 10.9-0.1 10.9-0.2zm-378.2-33v-66.3h8.4c13.3 0 17.6 0.6 22.8 3.3 4.2 2.2 7 5.1 9.3 9.8 2.3 4.5 3.2 8 3.6 13.7 0.4 5.6-0.1 18.6-0.9 23.2-1.6 9.6-5.8 16.6-12.1 19.8-3.9 2-6.5 2.6-13.8 2.8l-6.2 0.3v29.9l-0.2 29.9h-10.9zm17.9-3.1c4.6-0.5 7-1.5 9.3-3.9 4.2-4.2 6-11.2 6-23.1 0-10.1-1.7-16.8-5-20.5-3-3.2-6.2-4.3-13.7-4.5h-3.4l-0.2 52.3h1.9l5-0.3zm114.3 7.3v-62.2h-7l-7-0.2v-8h38.1v8l-6.4 0.1-6.5 0.1-0.2 124.4h-10.9zm49.5 28.8v-33.3h-6.7v-8.1h6.7v-58h11.3v29l0.2 28.8 23 0.2v-58h11.4v132.7h-11.3v-66.7h-23.4v66.7h-11.3zm89.1 32a23670 23670 0 0 1-16.3-130.1l-0.2-1.2 11.1 0.2 4.9 38.4 4.9 39.2c0 0.6 0 0.6 0.3 0.2l7.3-38.7 7.2-38.2 7.4 38.6c4 21.2 7.3 38.5 7.4 38.4l5.1-39 5-39 11.2-0.1-0.2 0.8-8.4 66.3-8.3 65.6h-1.3c-1.2 0-1.3 0-1.6-1.7l-8.2-43.4c-4.4-23-8-41.6-8.1-41.4-0.2 0.1-3.9 19.6-8.3 43.3l-8.1 43.2h-1.3c-1.2 0-1.3-0.1-1.5-1.4zm147.3-24.8v-26.2l-10.3-39.2-10.4-40.1-0.2-1h9.7l8 29.6 8 29.7c0.3 0 1.8-6.1 11.8-45l3.6-14.3h11l-20 79.6v53.1h-11.2zm-333-134c-10.4-1.8-15.5-18-14.5-45.6a68 68 0 0 1 4.6-24.9c2.1-4.6 4-6.7 7.2-8.4 1.5-0.9 2.2-1 5.1-1 3.6 0 5 0.5 7.7 2.5 2.2 1.7 2.2 2-0.1 4.4l-2 2-1.2-1.2a6 6 0 0 0-8.3-0.2c-4.6 4.2-6.3 14.9-5.9 37.5a67 67 0 0 0 2.7 23c0.9 2.2 2.8 4.6 4.4 5.4 2.3 1.2 6 0.5 7.8-1.5l1-1-0.2-13.8v-13.7l-11-0.4 2.2-6 15.3-0.2-0.2 39.3-2 1.2c-4.2 2.2-9 3.3-12.7 2.6zm154.3-18c-4-10.1-7.5-18.3-7.7-18.3s-0.3 8-0.3 18v18h-6.3v-79.3l6.8 0.2c7.5 0.3 9.5 0.7 12.3 2.5 2.7 1.7 5 5.2 6.2 9.4 0.9 3.3 0.9 15.7 0 19a19 19 0 0 1-9.1 12.4l-2.4 1.5 6.5 16.2 6.5 16.5-0.8 0.6-2.5 1-1.8 0.7zm-3.3-21.1c5.5-1.8 8.2-6.8 8.6-16.5a35 35 0 0 0-1.3-12.7c-1.3-3.5-4.3-5.3-9.5-5.5l-2.3-0.1v35c0.2 0.6 2 0.5 4.5-0.2zm238.6 37.5-11.3-26.2-10.6-24.3-0.2 51.6h-6.3v-79.7h0.8c0.7 0 2 2.6 12 26.2l11.4 26v-25.5l0.1-25.6h6.4v39.7c0 39.5 0 39.7-0.7 39.7-0.5 0-1-0.5-1.6-1.9zm-329.3 0.6 2.8-15.6c0-0.3-0.6-0.4-2.1-0.4-1.2 0-2.1-0.2-2.1-0.4l0.5-2.5 0.6-2h4.4l0.5-2 6-29.3 5.9-27.4 1-0.1c0.6 0 0.9 0 1 0.5a7347.2 7347.2 0 0 1 16.3 79c0.2 0.8 0.1 0.8-3 0.8h-3.3l-2-8.2-1.8-8.2-15.2-0.1-1.3 6.6-1.7 8.3-0.3 1.6h-3.2c-2.5 0-3.1 0-3.1-0.5zm23.8-21.6-3.3-15.3-3.2-14.8c-0.2 0-5 22.7-6.3 29.9l-0.2 0.8h6.6c6.1 0 6.6 0 6.4-0.6zm131.4-17.4v-39.5h7c6.8 0.2 7 0.3 8.8 1.2 6 3.1 9.7 11.1 11.4 25.1 0.6 4.6 0.6 23.1 0 28.2-1.2 10.4-3.4 16.9-7 20.6-3.1 3.1-6.1 4-15 4h-5.2zm12.6 33c1.4-0.2 3.4-1.9 4.5-3.8 1.1-2 2.5-6.8 3-10.6 0.2-1.8 0.5-8 0.6-13.8 0.4-21.1-1.2-31.8-5.3-36.1-1.6-1.7-3-2.2-6-2.2h-2.7v67l2.4-0.1a73 73 0 0 0 3.5-0.4zm63.5-10.6v-17.2l-4.1-0.3v-4.8l4-0.2 0.2-39.4 16.4 0.2 0.6 2.1 0.6 2.4c0 0.1-2.6 0.3-5.7 0.3l-5.7 0.1v34.3l12.5 0.2v4.9l-12.5 0.2v29.2l11.4 0.2v5h-17.5z" fill="#d04380"/>
	<path d="m767 518c-40-26.2-91.3-48-144.7-61.3-87.6-22-187.6-28.5-340-22.3a5751 5751 0 0 0-86.9 4.5l-18.1 1-2-1.1a22.8 22.8 0 0 1-11.7-15c-1-3.6-1-11-0.1-16 1.9-10.7 5.1-20 14.6-42a207.8 207.8 0 0 0 13.4-35.8c3.2-13.2 3.3-22 0.4-30.6-1.6-5-3.8-8.3-8.1-12.6a37 37 0 0 0-17.4-10.6 225 225 0 0 1-8.2-2.4l-4.2-1.3 2.6-0.6c1.5-0.3 3.7-0.7 5-0.8l2.7-0.5c0.3-0.2-1.5-1-4.6-2.3a507.4 507.4 0 0 1-35.2-16.1l-13.3-6.5c-0.3 0.3 9.4 9.7 12.2 11.8 7 5.2 18.8 11.3 27.7 14.1 1.9 0.6 1.9 1 0 1.3-3.7 0.5-15.3 4-30.1 9a190 190 0 0 1-21.7 6.5c-27.6 5.8-44 8-56.3 7.5-7.7-0.3-7.6-0.3-4.1-2.8l13-9.9c12.3-9.6 24.6-18.8 32.9-24.8 18.3-13.1 33.1-21.3 40.2-22.3 1.5-0.2 1.6-0.2 2-1.7 0.2-0.8 0.4-2.4 0.4-3.4s0.2-2.8 0.5-4c0.6-2.5 0.7-9 0.1-13.3-0.3-2.6-0.2-3.8 0.6-10 0.9-6.5 1-8 1-20.3 0-11.7 0.2-14.1 1-21.5 1.2-10.2 1.7-16 1.7-19 0-2.2-0.2-3-2.3-7.8a44.4 44.4 0 0 0-6-11.1 26 26 0 0 0-10.3-4.5c-4.4-0.7-6.6-0.2-12.6 2.9l-6.2 3c-1.3 0.5-14.8 16.7-14.8 17.8 0 1-6.6 4.6-8.4 4.6l-3.8 0.5a104 104 0 0 0-13.2 4l-1.7 1-1.2 0.6 0.2 2.7c0.3 2.7 0.2 2.8-0.7 4l-1 1.3-0.2-2.3c-0.3-3.4-0.6-3.5-3.4-0.6l-2.3 2.4 0.2-1.8c0.3-2.4 2.1-6 4-7.9 1.3-1.3 3-2.2 8-4.5a54.6 54.6 0 0 1 10.8-4c1.6-0.6 3.2-1 3.6-1s2-1.3 4-3.1l3.2-3.3c0-0.1-2.5-0.3-5.8-0.4a70 70 0 0 1-21.7-4c-4.3-1.9-11-3-14.2-2.5l-1.2 0.2v3.1c0 3 0 3.2 1 4.1a10 10 0 0 1 2.7 7.3c0 4.6-1.7 6.7-5.7 7-2.4 0.1-3.7-0.4-5.2-2-2.7-2.8-1.7-9.7 1.8-12.8 1.1-1 1.4-1 3.1-1l2-0.1c0-0.4-1.8-0.7-2.9-0.5l-1 0.2 0.5-2.2c0.3-1.1 0.4-2.2 0.3-2.3s-2.2 0.6-4.7 1.6c-2.4 1-4.5 1.7-4.6 1.6-0.3-0.3 2.7-3.4 4.7-4.8 4.7-3.4 4.8-3.4 12.3-3.4 6.8 0 13 0.5 21.4 1.8 17.9 2.6 16.4 2.6 18.6 0.4a89.7 89.7 0 0 1 14.6-9.7c0-0.4-2.2-2-3.9-2.6a225 225 0 0 0-17.8-5.5c-8.3-1.8-12.4-1.7-15.3 0.4a7 7 0 0 1-1.7 1c-0.2 0-1.2 0.7-2.2 1.5s-2 1.4-2 1.3c-0.4-0.4 0.4-2.5 1.5-3.8 3.4-4 13.2-7.4 20-7 2.3 0.2 3.6 0.7 11.2 3.7 8.6 3.5 8.6 3.5 11.5 3.4 2 0 4.2-0.4 7.2-1.2 4-1 4.8-1.2 9.7-1.2 5.2 0 6.3 0.2 15.2 2.1 0.6 0.2 1-0.1 1.7-1.7 1.4-2.8 1.5-5 0.4-7.4-2-4.5-8-8.1-17.1-10.4-3.7-1-9.2-1.6-11.4-1.3-1.8 0.2-2 0.3-2.5 1.6-0.7 1.3-0.8 1.3-1.8 1-1.4-0.4-1.4-0.4-1.1 0 0.1 0.3 0.5 0.4 0.9 0.4 0.3 0 1.9 1 3.4 2.3 2.7 2.2 2.9 2.4 3 4 0.3 2-0.2 5.7-1 7.2-0.5 0.9-0.7 1-2.2 1-4.3-0.1-5.5-0.5-7.5-2.3-2.1-1.8-3-3.6-3.1-5.5 0-1 0.2-1.7 1.4-3a12 12 0 0 0 2-3c0.4-0.7 1-1.5 1.3-1.7 0.8-0.7 0.7-1.4-0.4-1.6a94 94 0 0 0-11.7-1.6 9 9 0 0 0-4 1l-6.8 3-4.5 2h-4.1c-4.8-0.2-5.7-0.6-6.8-3-0.6-1.3-0.9-3.4-0.5-3.4l2 1c1.6 0.8 2.3 1 4.7 1a12 12 0 0 0 6.1-1.5 22 22 0 0 0 4.6-2.5l1.4-1.1-1-1c-0.7-0.6-2.3-1.4-3.8-1.9-2.2-0.7-3.3-0.8-7-0.8-6.2 0-9.8 1.2-15.1 5a42 42 0 0 1-4.8 3c-4.2 2.1-5.4 3.8-5.8 8.4-0.2 2-0.5 3.7-0.7 4.1-0.8 1.5-5.6 2.6-7.7 1.7-0.6-0.2-0.6-0.3 0.5-0.7 1.5-0.7 2.4-2.3 3-5.4a23 23 0 0 1 7.5-11 76.7 76.7 0 0 1 18.1-9.9 25 25 0 0 1 13.2 1.5 66 66 0 0 0 7.1 2l2.2 0.4 1.9-2c1.6-1.6 2.2-2 5.2-2.9 5.7-1.8 14-3.2 19-3.2 4.1 0 9.9 1.6 11.9 3.4 1.9 1.7 4.7 3.3 5.8 3.3 1 0 1.1 0 0.9-1.2a5 5 0 0 0-0.8-1.8c-0.5-0.5-0.7-1.3-0.7-4v-3.3l2.2-1.9c2.3-2.1 2.6-2 1.7 1-1 3.7-0.5 5.5 3 9.6a23 23 0 0 1 4.3 7.2c0 0.2 0.4 1 1 1.9 0.7 1.2 1.2 1.7 2.2 2 1.2 0.3 1.5 0.3 1.9-0.3a46.1 46.1 0 0 0 5-15.3c0.3-1.6 0.4-3.8 0.3-4.9-0.7-5.5-3.6-11-6.6-12.5a23.2 23.2 0 0 0-11.1-2.5c-4.2-0.2-4.9-0.2-7.2 0.5-4.3 1.3-10.1 3.5-15.2 5.9a29.7 29.7 0 0 1-11.3 3.6c-4.6 0.3-10.6-1-16.2-3.7a9 9 0 0 1-3.8-3c-1.4-1.9-3-3.8-2.7-3.2 0.1 0.3-0.2 0.5-0.7 0.7-0.7 0.1-1 0.4-1 1.2 0 0.7 0.7 1.6 2.6 3.6l2.9 3.2c0.2 0.3 0.3 2 0.3 3.4-0.1 2.3-0.2 2.8-1 3.6a10.8 10.8 0 0 1-5.8 2.7c-2 0.2-4.9-0.7-5.8-1.7-0.3-0.4-1-0.8-1.6-1-0.8-0.4-1-0.7-1.3-2.9-0.6-3.6-0.6-4.5 0.5-5.5a14 14 0 0 0 2-3.6c1.2-3 1.4-3.2 2.8-3.2s3.3-1 3.7-2c0.3-0.5 0.6-0.9 0.8-0.9s0.3-0.8 0.3-1.8 0.1-3 0.3-4.2l0.2-2.4 2.8 2.8a46.2 46.2 0 0 0 17 10.8c3.2 0.9 7.2 0.8 10.4-0.2 2.4-0.8 9.3-3.6 18-7.5 3.9-1.7 5.1-1.8 13.9-1.2 5.6 0.4 5.4 0.6 3.8-3.7-0.6-1.5-1-3.2-1-3.6 0-1-2.3-3-4.5-3.7-2.7-1-6-1-9.5 0.1a28 28 0 0 1-18.5-0.2c-1.7-0.6-3.7-1-4.3-1-1.6 0-3.5 2-4.6 5l-1 2.4c-0.2 0-0.4-0.5-0.5-1.1-1-4.7 1.3-8.4 6-9.8a18 18 0 0 1 12.1 0.8c2 0.7 8.4 0.6 12-0.3 1.4-0.3 4-0.5 6.3-0.6h4l0.1-1c0.9-4.1 2.2-6 5.5-7.7 2.2-1.2 2.4-1.2 5.3-1l7 0.4c4 0.2 4 0.2 6.2-0.9 1-0.6 2.1-1 2.2-0.9 0.5 0.4-1 2.2-2.4 3.1a42 42 0 0 1-10.7 3.3c-4.4 0.9-4.7 1-5.1 2.8-1 3.8-0.3 6.6 2 8 1.1 0.7 1.5 0.7 5.8 0.4 4.9-0.3 9.2-0.3 17.2 0 4 0 5 0 6.8-0.6 4-1.3 5.8-4.3 6.2-9.7l0.2-2.7 0.9 1.8c0.6 1.2 0.9 2.5 1 4.5 0.3 5.2-1.9 8.8-6.2 10.5-1.8 0.7-2.8 0.8-11 1-9 0.3-10.4 0.5-12.1 1.6-1 0.6-1 0.8-1 3.3 0 2.2 1.9 13 2.3 13.4l0.7-1c1.8-4.5 13.4-9.4 29-12.3a61.6 61.6 0 0 1 26.5 0.8c-0.2-0.3-1.2-0.6-2.3-0.8-3-0.7-3.3-0.9-3.3-2.5 0-1 0.3-1.5 1.1-2.3 1.7-1.4 3.2-1.2 5.1 0.6 2 1.8 2.2 3.3 0.7 4.5l-1 0.7h1c2.1 0 6.5-3 8.8-5.9 3-3.8 2.8-3.7 2.6-1.4-0.4 4.4-3.4 8.1-8.3 10.4a9.5 9.5 0 0 1-5.6 1.2c-1.5 0-4-0.2-5.3-0.4-3-0.4-5.8-0.4-5.8 0 0 1.3 7.6 4.4 13 5.3 1.9 0.3 10 0.5 10 0.2l-2.3-2.5a15.3 15.3 0 0 1-2.3-2.5c0-0.2 1.2-0.3 2.6-0.2 2.4 0.1 2.7 0.2 4 1.3 0.7 0.6 1.6 1.7 2 2.3l0.6 1.1-0.8-0.4-1.8-1.1c-1.2-1-1.5-0.8-0.8 0.2 0.7 1.1 0.7 1.5 0 1.7-0.4 0.1-0.2 0.2 0.5 0.2a53.9 53.9 0 0 1 18.6-0.7l6.7 0.6c4.9 0.3 11.3 4.4 15.4 10 4.1 5.3 7.8 14 8.2 19.1 0.2 2.4 0.4 2.8 1.5 4 1.2 1.2 1.2 1.2 0.5 1.6a4 4 0 0 0-1.3 1.4c-0.6 1.2-0.4 1.5 0.3 0.5 0.8-1 2.8-0.3 5.3 2 4.9 4.7 4.5 4.1 4.5 6.6 0 2.1 0 2.2-1.7 3.6-2.7 2.4-3.4 2.6-7 2.3l-3-0.2-3.2-3.5 0.2-2c0.4-3.1 1.2-5.6 2-6.3l0.7-0.6a75.3 75.3 0 0 0-5.2-16.7 23.2 23.2 0 0 0-20.8-15h-1.7l0.9 0.7 2.2 1.3a9 9 0 0 1 4 5.2c0.1 0.9-0.1 2-0.8 3.7-2 5.4-5.7 6.6-12 4.1-2.5-1-4-2.5-4.8-5-0.3-1-0.3-1.3 0.4-2a3 3 0 0 0 0.7-1.9c0-1.4 0.3-2.2 0.9-2.2 0.2 0 1.5-0.8 2.9-1.7s2.8-1.8 3.3-1.8 1.2-0.2 1.6-0.4a102 102 0 0 1-7.7 0c-2.3 0-3.4 0.2-3.3 0.4 0.4 0.6-0.6 2.8-1.2 2.8-0.7 0-2.8 1.3-2.8 1.8 0 0.2 1.2 0.3 3 0.3 4 0 4 0.8 0 1.8-2 0.5-5.1 0.1-5.4-0.6v-1.7c0.3-1 0.6-1.3 2.1-2.1 1-0.5 2.3-1.2 2.7-1.6l1-0.7-3.8 0.2c-6.2 0.5-15.6 0.4-20-0.3a93 93 0 0 1-17.8-4.5c-12-4-14.4-4.3-20.1-2-3.8 1.6-7 3.5-7 4.2a29.4 29.4 0 0 0-5.6 10c-0.7 2.3-1.3 7.4-0.8 7.2 4.4-1.8 4.9-2.2 5.3-3.7 0.8-3.2 0-3.6-1.9-0.9-1.3 1.9-2.2 2.4-1.7 1a11 11 0 0 1 2.2-4c0.7-0.6 4.6-2 4.9-1.7 0 0-0.4 1.3-1.1 2.7l-1.3 2.9c0 0.2-0.3 0.5-0.6 0.8-0.6 0.5-0.5 0.5 0.4 0.3a47 47 0 0 1 24 2.6c6.4 2.3 8.6 2.6 15.1 2.4 4-0.1 6.3-0.4 7.7-0.8 1.8-0.5 2-0.7 2.4-2 0.8-2.5 0.4-6-0.7-6-0.6 0-1 1.3-1 3.2 0 1-1 2.2-1.9 2.2-0.3 0-0.6-0.5-0.7-1.4-0.2-1.6 0.6-3.4 2.8-6.2 1.8-2.3 2-2.3 3.3 0.3 1 2 1 5.6 0 7.2-0.4 0.6-0.9 1.1-1.1 1.1s-0.3 0.1-0.2 0.2c0.3 0.4 3-1 7.1-3.7 2.1-1.3 4-2.5 4.2-2.5 0.3 0 0 1.1-0.7 2.7-0.8 1.5-4.9 5.4-7.5 7.2a38.2 38.2 0 0 1-12 5.4c-0.6 0.7 3.2 2.7 8.2 4.4l3.6 1.1v-1.4c0.1-1.6 0-1.8-0.5-0.5-0.3 0.7-0.6 0.9-1.2 0.8-0.7 0-0.8-0.3-0.7-1.5 0.1-0.8 0.3-1.6 0.5-1.9 0.8-0.9 3.5-2.2 4-2 1 0.3 0.5 3.7-0.6 5.4l-1 1.4 4.4 1 9.6 2.5c8.6 2 13.1 4.1 18 8.2 2.6 2.1 3.6 3.8 4.7 8.3 0.8 3 0.9 5.2 0.4 6.4-0.3 0.7-0.3 0.7-0.4-0.1 0-1.5-1-2.7-3.7-5-2.2-1.7-2.9-2-3-1.6-0.3 0.4-0.5 0.4-1.4 0-0.7-0.4-1.7-0.5-2.8-0.5l-1.6 0.2h1.8c1.6 0 2 0.3 3.6 1.7 2.1 1.9 2.9 3.9 2.9 7.4 0 2.1 0 2.2-1.6 3.5-2.4 2-3.3 2.3-6 2.3-3.3 0-4.5-0.6-6-3-1.2-1.8-1.3-2.2-1.1-3.6 0.5-3.6 3.3-7.9 5.2-7.9 0.6 0 0.7-0.1 0.6-1.8l-0.1-1.8-2.7-1-8.4-3a87.7 87.7 0 0 1-8-3.2c-1.2-0.6-4-1.7-6.4-2.4a99.4 99.4 0 0 1-19.9-9.8c-5.8-4-11.6-6.2-17.8-7-5-0.7-8-0.1-13.7 2.6a41.2 41.2 0 0 0-6 3.2 7.4 7.4 0 0 0-2.7 5.3c0 2 1 2 5.2 0.6 4.2-1.3 6.7-2.9 7.4-4.5 0.6-1.5 0.6-1.5-0.2-1.5-1.1 0-2.5 1.4-2.5 2.5 0 0.8-0.2 1.1-1.1 1.6l-1.1 0.6 0.2-1.2c0.4-1.7 2-3.9 3.8-5a16 16 0 0 1 6.4-2c0.3 0.1-0.4 1-1.4 2.2l-1.9 2 2.4 0.1 3.8 0.5 1.3 0.2-0.6-1.1c-1.2-2.4 0.2-5.3 2.5-5.3 3 0 4.4 1.5 4.4 5 0 1.7-0.1 2-0.6 2-0.3 0 0 0.2 0.7 0.4 1 0.2 2.2 0.1 4.6-0.4 2.3-0.4 3.4-0.5 3.7-0.2 0.4 0.3 0.3 0.4-0.2 1-0.7 0.7-1.8 2-1.8 2.2l1 1.4c1.4 1.8 1.4 2.1-0.2 1.4-2.2-0.9-2.8-0.1-1.7 2l0.5 1-1.3-0.7a6.2 6.2 0 0 1-2-2l-0.7-1.3-3.4-0.3c-4-0.3-9.7 0-11.7 0.5-1.7 0.5-3.5 2-3.5 3.1 0 1.3 1.8 1 4.4-0.8 1.4-1 3-1.7 4-1.8 1.4-0.2 4.3 0.3 4.3 0.8 0 0.2-0.6 0.7-1.4 1.1-1 0.5-1.3 1-1.1 1.2a38 38 0 0 0 12.3 0.7c4.1-0.5 5.4-1 7.3-2.6l1.4-1.2-1.3 2.1a75.1 75.1 0 0 1-4.4 6.3l4.4 0.5c13.4 1.4 23.1 6.6 26.9 14.5 1 2.2 1.2 3 1.4 5.9 0 2.4 0 4-0.5 5.8l-0.6 2.4 2.4 4a70.4 70.4 0 0 0 14.7 19.2 19.6 19.6 0 0 0 18.2 4.4 15 15 0 0 0 7.5-4c1.6-1.6 2.3-2 3.6-2.2 1-0.1 1.8-0.2 1.9 0 0.7 0.7-7.4 9-10 10-1.7 0.6-1.8 1-1.3 3.7 0.2 1 0.4 1.3 1 1.3 0.4 0 1.2 0.5 1.9 1 1 0.8 1 1.2 1 2-0.2 0.5 0 1.6 0.6 3 1 2.6 1.1 3.5 0.5 5.8-0.3 1.2-0.7 1.8-1.5 2.3-0.6 0.4-1.5 1-2 1.6-1.7 1.8-4 1.9-8.6 0.1-1.9-0.7-2-0.8-3-2.7-1-2.3-1.1-5-0.2-6.6 0.3-0.7 1.4-1.7 2.7-2.4 1.1-0.8 2.3-1.7 2.5-2.2s1.1-1.3 1.9-1.7c0.9-0.6 1.1-0.9 0.8-0.9-0.4 0-0.7-0.2-0.7-0.5s-0.3-0.9-0.6-1.3c-0.7-0.8-1-1-4-1.1-8.8-0.6-15.8-4.5-23.5-13-6.4-7-10.4-11.3-10.7-11.3a39 39 0 0 0-4.2 8c-1.5 4.5-1.3 8.4 0.6 14.1 0.4 1.5 0.8 2.8 0.7 2.9-0.3 0.3-2.6-1-3.7-2-1-1-1.1-1-1-0.3l0.8 1.5c0.3 0.4 0.5 1.7 0.5 3.5 0 3.5-0.5 4.2-3.7 5.6-1.8 0.9-2.2 1-4.3 0.6-1.2-0.2-2.8-0.6-3.4-1a38 38 0 0 0-2.2-1.3c-1.6-0.8-2-1.8-2-5.1 0-4 0.5-4.6 4.5-6.2a25 25 0 0 1 3.8-1.2c1 0 4 1.1 4.3 1.7 0.3 0.3 0.6 0.5 0.7 0.3 0.1 0 0-0.4-0.3-0.7-1.4-1.4-1.7-7.6-0.6-12l2.4-7.5c1-2.7 1.9-5.6 2-6.4l0.2-1.4-5-4.5c-6.7-6-10.3-8.7-15-11a30.5 30.5 0 0 0-13.3-3.6c-6.5-0.3-10.6 1.1-14.7 5.2-3.8 3.7-6.4 9-8.6 17.3a700 700 0 0 1-2.5 8.8 30 30 0 0 0-1.8 10.5 378 378 0 0 0 3.4 21.8c1.2 6.8 1.3 8.2 1.5 17.1 0.2 5.3 0.3 15.2 0.3 22a52 52 0 0 0 0.8 14.4c1.1 3.8 1.7 4.4 5.8 5.8 10 3.3 32.4 12.9 47.3 20.3a148 148 0 0 1 28 16.5c2.5 2 5.2 4.9 4.8 5.2l-6.9-2.1a164.8 164.8 0 0 0-49.8-10.4c-6.2-0.2-17.7 0.4-18.7 1-0.9 0.5 9 4.3 18.8 7.4 6.4 2 8.3 2.8 11.7 5 10 6.8 14.9 17.8 14.1 32.3-0.3 6.1-2.1 13.2-15.4 59.5-7.7 27-8.5 33.5-4.8 37.4 2.6 2.7 7 3.3 14.8 2.1a2043.5 2043.5 0 0 1 162.5-11.8 1861 1861 0 0 1 477.7 48l-2.8 0.9a53.9 53.9 0 0 0-22.6 15.9c-8.2 8.4-16.8 19-34.4 42a256.6 256.6 0 0 1-10.6 13.5c-0.2 0-3.6-2.2-7.6-4.8zm-511.7-347.4c0-0.1 0-0.2-0.2-0.2l-0.1 0.2 0.1 0.1zm-176.3-35.3c0-0.1 0-0.2-0.2-0.2l-0.1 0.2 0.1 0.2zm134.2-7.5c1-5.8-1-9.9-5.6-11.4-2.4-0.8-8.3-1.3-12.2-1.1l-2.3 0.1 2.6 0.7c4.5 1.1 6.5 2.4 12 8l5 5c0.2 0 0.4-0.6 0.5-1.3zm-45.3-18.8c9-1.5 9.6-1.9 3-2.3-6-0.4-9.3 0.7-9.3 2.9 0 0.7 0 0.8 1 0.5 0.5-0.2 2.9-0.7 5.3-1zm-3.4-17.8c0.4-0.3 0.6-0.6 0.5-0.7 0-0.1-0.5 0.1-1 0.5-1 0.8-0.5 1 0.5 0.2zm11.2 0.2c0-0.2-0.2-0.4-0.4-0.4s-0.3 0.2-0.2 0.4l0.4 0.3c0.1 0 0.2-0.1 0.2-0.3zm-52.2-5.2c-0.2-0.4-1.6-1.9-3-3.3-3.2-3-4.7-3.7-9.7-4.3-3.1-0.4-14 0.1-17.7 0.8-2.2 0.4-7 2.5-7 3 0.2 0.2 2.2 0.3 5.7 0.3 5 0 5.6-0.1 7.7-1 2-0.8 2.2-0.9 1.1-0.9-0.6 0-1.4 0.2-1.7 0.5-0.5 0.6-1.6 0.6-3.5 0.2l-1-0.2 1-0.7c1.6-1.2 2.7-1.3 5.7-0.7 3.5 0.7 8.3 1.2 8 0.8-0.3-0.5 1.4-1.7 2.3-1.7s0.9 0 0.2 0.7c-0.6 0.7-0.6 0.7 0.2 0.7 0.4 0 1-0.1 1.6-0.4 0.5-0.2 1.1-0.3 1.5-0.1 0.5 0.2 0.4 0.3-0.4 0.8-0.9 0.5-1.3 0.6-2.3 0.4-0.6-0.2-1.2-0.3-1.3-0.2-0.3 0.3 0 0.3 3.6 1.1 2.6 0.6 3 0.8 4.5 2.4 1.6 1.7 2.7 2.3 4.2 2.4 0.5 0 0.6-0.1 0.3-0.6zm-13.2-5.3h-0.5c-0.2 0.1 0 0.2 0.3 0.2 0.2 0 0.3 0 0.2-0.2zm108 111c-1.4-4-1.4-3.8-1-6.4 0.4-2 0.6-2.5 1.2-2.7a6 6 0 0 0 1.7-1.4c0.6-0.6 1.2-1.1 1.6-1.1s0.5 0.3 0.4 1.6c-0.2 1-0.5 1.8-0.7 2-0.6 0.5-1.4 1.8-1.4 2.3 0 0.8 1.5-0.1 2.4-1.3 0.8-1.3 2.4-2.4 2.8-2 0.5 0.4-0.4 3.2-1.5 4.8l-1.8 3c-0.5 1-2 2.3-3 2.3 0 0-0.4-0.5-0.6-1.2zm14-2.3a6.5 6.5 0 0 1-2.9-4.4c-0.2-1.5 0.7-3.6 1.4-3.3 0.5 0.2 1.5 2.4 1.9 4.1 0.2 1 0.8 1.3 0.8 0.4l-0.7-3c-0.8-2.7-0.9-4.1-0.1-4.4 0.6-0.3 1.9 1.2 1.9 2.2l0.6 3.2c0.5 2.3 0.5 2.8 0 4.1-0.5 1.7-1.2 2-2.9 1.1zm-21-5.1c-1-2.2 1.2-8.2 3.5-9.8 1.5-1 2-0.9 2 0.5 0.2 1 0 1.2-1.6 2.2s-1.8 1.2-1.7 2c0.2 1.6 1.3 1.4 2.2-0.4 0.6-1.1 1-1.4 1.8-1.4s1 0.2 1.2 1c0.3 0.8 0 1.2-1 2.3a29 29 0 0 1-5.3 4.3c-0.5 0.2-0.7 0-1-0.7zm-29.5-4.7 0.4-2.5c0.3-2 1.1-3.6 2-4 0.7-0.5 3.1-0.5 3.8-0.1 0.8 0.5 0.1 1.6-1.7 2.7-1.9 1-2.5 2.1-1 1.7l1.6-0.7c0.4-0.2 1-0.5 1.3-0.4 0.8 0.3 0.6 2.2-0.4 3.4-0.9 1-1 1-3.6 1h-2.6zm58.2 0a28 28 0 0 1-4.7-8c0-1.1 0.9-0.9 2.3 0.8l1.2 1.4v-1.5c0-0.9-0.2-1.9-0.5-2.3s-0.5-1-0.5-1.5v-0.8l1 0.6c1.4 0.8 1.8 1.6 3 6.2 1 3.5 1 3.8 0.4 5-0.3 0.7-0.7 1.3-0.8 1.3-0.2 0-0.8-0.5-1.4-1.2zm-14.6-1.2c-0.6-1.3-0.6-4.7 0-7.3 0.3-1.6 0.8-2.5 1.7-3.5 1.2-1.2 2.8-2.3 3.4-2.3 0.5 0 0.1 2.4-0.5 3.5l-1.2 2.3a6 6 0 0 1-1.4 1.7c-0.7 0.4-1.5 2-1 2 0.3 0 3-3.1 3.1-3.8 0.1-0.4 0.5-0.8 0.7-0.8 0.7 0 0.6 0.6-0.1 1.7-0.4 0.5-0.8 1.4-1 2a10 10 0 0 1-2.5 4.8l-0.8 0.8zm-153.9-2.3a12 12 0 0 1-2.3-3.2c-0.9-1.8-1-2-0.5-2.7 0.6-0.8 1.5-0.6 1.5 0.5 0 1 1 2.1 1.6 1.8 0.3 0 0.5-0.4 0.5-0.7 0-1-1-3-1.6-3.2-0.6-0.3-0.7-2.1-0.2-3 0.6-0.8 2 0 3.6 1.8l1.6 1.9 0.2 6.8-1 0.4-1.5 0.5c-0.3 0.2-1.1-0.2-1.9-0.9zm191.9-1c-0.1-0.1 0.3-0.8 1-1.5 0.9-1 1.2-1.6 1.2-2.4 0-0.5 0-1-0.2-1-0.4 0-1.7 0.8-2.3 1.4-0.4 0.4-1 0.6-1.5 0.4-0.9-0.1-0.9-0.2-0.3-0.8 0.8-0.9 4.5-2.7 6.1-3 1 0 1.4 0 1.5 0.4 0.3 0.7-0.8 4.4-1.5 5.2-1 1.4-3.5 2.2-4 1.4zm-87.2-1c-1.5-0.9-2-2-2.6-4.4-0.8-4.2-0.2-7 1.5-7 0.8 0 0.8 0.2 0.7 3a9 9 0 0 0 0.3 3.8c1 1.8 2.6 0.5 1.7-1.5-0.9-2.3-0.9-2.7 0-2.7 1.3 0 1.6 0.5 2 4 0.7 4 0.3 5.5-1.4 5.5a5 5 0 0 1-2.2-0.7zm-138.6-0.3c-0.1-0.2 0-1.4 0.1-2.5 0.6-4 2.6-7 4.2-6.5 1.2 0.3 1 1-0.8 2.2-1.2 0.8-1.5 1.2-1.3 1.8 0.2 1 0.5 0.9 2.4-0.5 1.8-1.4 2-1.5 2.6-0.8 1 1.3-0.7 4.3-3.2 5.5-1.6 0.9-3.7 1.3-4 0.8zm16.9-1a8.3 8.3 0 0 1-0.7-14.1 7 7 0 0 1 6.9 0c4 2.6 4 11.2 0 13.9-1.4 0.9-4.4 1-6.2 0.3zm164.4-1.5-2.1-1.5c-2.6-1.2-6.6-6-5.1-6 0.9 0 4.3 2.4 5.4 3.8 1.6 1.9 2.3 2.2 2.3 1 0-0.6-0.5-1.4-1.5-2.4a18.8 18.8 0 0 0-5.5-3.8c-0.6 0-0.5-2.8 0.1-3 0.7-0.3 5.4 3.5 5.6 4.5 0.1 0.5 1 1.8 2 3 1 1.1 2 2.5 2 3.1 0.3 1 0.3 1.1-0.7 1.5-1.5 0.6-1.8 0.5-2.5-0.2zm-130.6-1.9a8.9 8.9 0 0 1-2.3-3c-1-1.9-1-2.4-0.9-3.8a7 7 0 0 1 5.6-6c1-0.2 1.8 0 3.3 0.7 2.8 1.4 4.4 3.9 4 6.3-0.5 2.4-5.3 6.6-7.6 6.6a5 5 0 0 1-2.1-0.8zm27-1.4a6.4 6.4 0 0 1-1.3-2.2c-1.3-3.1 1-9.4 3-8.8 0.7 0.2 0.8 0.5 0.8 1.7 0 0.8-0.2 1.9-0.5 2.5-0.7 1.3-0.7 2.4 0 2.2l0.9-0.3 0.5-1c0.5-2 2.2-3.5 1.8-1.5s-2.3 6.9-3 7.7c-1.1 1-1.2 1-2.3-0.3zm157-0.3a8.6 8.6 0 0 1-1.7-1.3c0-0.2 0.4-0.5 0.9-0.7 0.7-0.4 1-0.4 1.4 0 0.6 0.5 4 0.6 4.3 0 0.3-0.8-4.4-2.8-7.2-3-1.2 0-1.4-0.2-1.5-1 0-0.8 0-1 1.3-1.2 2.4-0.4 3.4-0.2 5.9 1l2.8 1.3c0.8 0 2 2 2 3.3 0 1.6-1.2 2.3-4.2 2.5-2.2 0.2-2.5 0.1-4-0.9zm-51.1-1c-0.9-1-1-1.3-0.8-3 0.3-2.8 0.8-4.2 2.2-5l1.2-1 0.1 1c0.1 0.6 0 1.1-0.2 1.3-0.7 0.4-1.1 2.4-0.7 3.4 0.4 1.2 1 0.7 1-1 0-1.3 0-1.4 1.2-1.4 2.1 0 2.2 1.8 0.2 4.3-0.8 1-1.4 2-1.4 2.1 0 0.8-1.9 0.3-2.8-0.7zm-57-2.9c-1.6-2-2-2.8-2.1-4.4-0.3-2.2 0-5 0.4-5.4 0.8-0.8 1.3 0.3 1.3 3 0.1 2.9 1 5.4 1.9 5.7 0.7 0.2 0.5-0.7-0.4-2.4-0.7-1.5-0.9-3.2-0.2-3.2 1.5 0 3.5 5.3 3 8-0.2 1-0.4 1.2-1.2 1.2-0.7 0-1.3-0.5-2.8-2.5zm-132.6 0.4c-0.4-0.1-1-0.5-1.2-0.8-0.4-0.5-0.3-0.7 0.7-1.4a5 5 0 0 0 1.4-1.6c0.4-1 3.4-2.5 5.7-2.8 1.2-0.1 1.8 0 2.5 0.4 0.9 0.6 1 0.7 0.4 1.1a6 6 0 0 1-1.9 0.6c-0.7 0.2-1.6 0.5-2 0.8-0.7 0.5-0.6 0.5 0.5 0.5a7 7 0 0 1 1.9 0.3c0.6 0.2 0.6 0.3 0 1-1.2 1.8-5.7 2.9-8 2zm149.2-0.6c-4-2-4-4.3-0.1-8.5 0.7-0.8 1.6-1.5 2-1.5 1 0 5.2 1.7 5.8 2.4 0.3 0.3 0.6 1.6 0.7 2.7 0.1 2 0 2.2-1 3.3a7.5 7.5 0 0 1-4.8 2.5c-0.4 0-1.6-0.4-2.6-0.9zm-75.9 0.3c-0.7 0-1.2-0.4-1.8-1.5-1-1.6-1-2.5-0.3-4.6 1-2.7 2-4.5 2.7-4.5 1 0 1.1 0.5 0.5 2.5a14 14 0 0 0-0.5 3.4c0 1.4 0 1.5 0.8 1.4 1.2-0.2 1.7-2 1.4-5.3l-0.2-2.7h2.3l-0.2 2.7c-0.5 5-1 7.1-1.9 8-0.5 0.5-1 0.9-1.3 0.8-0.2 0-0.9 0-1.5-0.2zm-28.3-2.1a10.7 10.7 0 0 1-2.5-2.7c0-0.5 1.2-1.9 1.7-1.9l1.1 0.7c2 1.6 2.4 0.3 0.7-1.7-0.6-0.7-1-1.4-1-1.7s-0.3-0.4-0.6-0.4-0.5-0.2-0.4-0.5c0.2-0.8 3.8 0.3 3.8 1.2 0 0.2 0.4 0.5 0.9 0.7 1.8 0.7 2 4 0.6 6.7-0.5 1-1.1 1.7-1.3 1.7s-1.6-1-3-2.1zm123-1.3c0-0.9-0.3-1.3-1.4-2.2-0.8-0.6-1.6-1-1.7-1s-0.4 0.7-0.5 1.6l-0.3 1.6-1.4-1.6c-3.1-3.2-3.2-3.4-2.9-4.8 0.3-1.1 0.5-1.3 1.5-1.4a8.9 8.9 0 0 1 5.7 2.8c1.4 2 2.2 5.3 1.4 5.8-0.2 0.1-0.3-0.2-0.3-0.8zm-42.7 0.2c-1.2-0.4-1.5-0.7-2.4-2.6-1.3-2.7-1.6-4.4-1-6 0.3-1 0.4-1.1 1.2-0.8 0.7 0.3 0.9 0.8 1.2 2.8l0.5 2.7c0.5 0.5 0.5-0.2 0.2-2.2-0.4-2.5-0.4-4 0-4 0.3 0 1.3 2.5 1.8 4.7l0.7 2.1c0.5 0.5 0.4 2.4-0.1 3.1l-0.6 0.6zm88.7-0.6c-1.2-1.2-1.7-2.8-1.2-3.8 0.2-0.4 0.9-1.1 1.5-1.7 1-1 1.4-1 3.5-1.2 2.4-0.1 2.5 0 2.8 0.8 0.2 0.5 0.4 1.7 0.4 2.7 0 1.8 0 1.8-3.3 3.8-1.3 0.7-2.6 0.5-3.7-0.6zm-182.8-0.4c0-0.9 1.1-2.4 2-2.6 0.4-0.1 0.8-0.5 0.8-0.7 0-0.7-1.7-0.7-2.6 0-0.9 0.6-2 0.6-2 0s3.1-2.2 5.4-2.7c1.3-0.3 1.6-0.2 2.1 0.4 1.4 1.7 0.5 3.1-3 4.5-1.1 0.5-2 1-2 1.2s-0.2 0.3-0.4 0.3-0.3-0.2-0.3-0.4zm196-0.3 0.1-3.1c0.1-3-0.2-5-0.7-5-0.2 0-0.3 0.5-0.3 1 0 1.5-1.2 4.8-1.6 4.7-1-0.3 0.4-8.6 1.6-10 0.5-0.7 0.7-0.8 0.8-0.3l1.4 4.4c1.7 5.2 1.8 6.2 0.5 7.7-0.8 0.9-1.6 1.2-1.7 0.6zm-42.5-0.8c-0.2-0.3-0.4-0.6-0.4-0.9s-0.7-1-1.5-1.7c-1.1-1-1.4-1.4-1-1.9 0.1-0.3 0.5-0.5 0.8-0.4l1.1 0.3c0.6 0.2 0.7 0 0.5-0.8-0.4-1.3-1.4-2.6-2-2.7-0.6 0-0.3-0.8 0.4-1 0.7 0 3.6 2.3 4.1 3.4 0.2 0.5 0.4 2 0.4 3.5v2.6h-1c-0.5 0-1.1-0.2-1.4-0.4zm-196.5-0.8-1.4-0.9c-0.2 0 1-2 1.7-2.8 0.3-0.5 1-0.8 1.4-0.8 1 0 3.2-1 4.1-1.9 1-0.8 2-0.7 2.2 0.2 0.2 1-0.5 1.6-2 1.9-1.3 0.2-1.5 0.8-0.2 0.8a4 4 0 0 1 1.6 0.4c1.2 0.6 0.8 1.5-1.4 2.7-2.5 1.4-4.3 1.5-6 0.4zm78.9-2.2c-3.3-1-4-1.6-4.5-3.5l-0.6-2.1c-0.3-1.2 0.6-0.6 1.9 1.1 0.9 1.3 1.5 1.8 2 1.8 1.3 0 1.2-1-0.7-3.7-1.6-2.5-1.8-3-1.1-3a15 15 0 0 1 4 2.6c1.8 1.6 3.3 5.6 2.6 7-0.5 0.8-0.2 0.8-3.6-0.2zm72.1-0.3-1.5-0.8v-4c0-4.3 0.3-5 1.8-4.3l0.8 0.4-0.8 0.8c-0.6 0.6-0.7 1.2-0.6 2.2 0.1 2 0.7 1.8 1.4-0.5 0.6-2.2 1.5-3.6 1.9-3.1 0.8 0.8-0.2 9.3-1.2 9.8-0.2 0.1-1-0.1-1.8-0.5zm68.2-0.4c-0.5-1.3-0.3-3.2 0.7-6.4 1-3.4 1.8-4.6 3.5-5 1-0.1 1.2 0 1.8 1 0.5 1 0.6 1.5 0.4 3.8-0.2 2.9-0.7 3.5-2.3 3.5-0.8 0-0.8 0-0.6-2 0.2-1.5 0.2-1.9-0.2-1.8-0.7 0.3-1 1.8-0.6 3.7 0.4 2.5 0.4 2.9-0.3 3.5-0.8 0.8-2.1 0.7-2.4-0.3zm45 0.1c0-0.2-1-0.3-2.1-0.3-2.4 0-4.6-0.8-4.6-1.6 0-0.3-0.5-0.6-1.3-0.7-1.4-0.3-1.8-0.9-1.2-2 1.2-2.3 5.6-2.8 8.9-1 1.6 0.7 1.9 1 2 2v1l-2.6-0.1c-1.7-0.1-2.6 0-2.6 0.2 0 0.5 0.8 0.8 2.2 0.8 0.6 0 1.3 0.2 1.6 0.4 0.5 0.5 0.5 1.7 0 1.7a0.4 0.4 0 0 1-0.3-0.4zm-245-0.2c-0.5-0.1-0.9-0.4-0.9-0.6 0-1 3.4-6.8 3.8-6.7 0.7 0.3 0.5 1.3-0.4 2.7-1.2 1.7-0.8 1.6 1-0.1 1.4-1.3 1.6-1.4 2.4-1 0.5 0.2 1 0.6 1 0.9 0 0.8-4.7 5-5.5 5l-1.3-0.2zm80.6-0.3c-2.5-0.7-4-1.4-5-2.5l-0.8-1 1.8-1.7c1.8-1.6 2-1.7 3.8-1.7 2.2 0 4.7 0.8 5.9 1.9l0.8 0.7-1.2 0.4c-0.8 0.2-1.4 0.2-1.7 0-0.7-0.4-3.3-0.2-3.3 0.2 0 0.6 1 1 3.4 1.6 1.3 0.4 2.4 0.9 2.5 1.1 0.6 1.4-2.9 2-6.2 1zm-36.6-0.7-1-1.7a6 6 0 0 1-0.4-2.8c0.1-2.5 0.3-2.9 0.6-1 0.6 3.4 1.7 2.7 1.7-1.2 0-2.4 0-3 0.6-3.5 0.4-0.4 0.9-0.5 1.1-0.4 0.6 0.4 1.4 2 1.8 4 0.3 1.4 0.3 1.7-0.4 2.6-0.4 0.5-0.7 1.2-0.7 1.6l-0.3 2c-0.4 1-0.6 1.3-1.4 1.3s-1.2-0.3-1.6-1zm184-0.8c-0.8-0.3-0.4-1.7 0.8-2.7 1-0.7 1.3-1.2 1.3-2.1 0-0.7-0.2-1.3-0.4-1.4-0.1-0.1-1 0.6-1.7 1.7-1.6 2-2 2.3-2.3 1.4-0.4-1-0.3-3.3 0.1-3.3 0.2 0 1.2-0.8 2.1-1.6 2.5-2.3 5.3-3.3 6.3-2.3 0.3 0.3 0.4 1.1 0.4 2a3 3 0 0 1-1 2.4 3 3 0 0 0-1 1.8c0 1.3-0.4 1.9-2.1 3.1-1.6 1.3-1.7 1.3-2.5 1zm-87.8-1c-0.7-0.3-0.5-2 0.3-3.6 1.6-2.6 2.8-3.8 5.1-4.5 1.2-0.3 2.4-0.5 2.7-0.4 0.6 0.2-2.4 2.3-3.7 2.6-0.6 0.1-1 0.4-1 0.8 0 0.7 0.7 0.7 1.6 0l1.5-0.5c1-0.2 1.2-0.1 1.2 0.3 0 0.9-3.9 4.2-5.6 4.9l-1.7 0.6zm53.5-0.7c-0.3-0.8-0.2-1.1 1-2.5 1.5-1.6 2.2-3.5 1.6-4-0.6-0.6-1-0.2-2 1.6-0.4 1-1 1.6-1.3 1.6-1 0-1.1-0.7-0.4-1.8 0.4-0.5 0.8-1.1 0.8-1.3s0.4-0.5 0.9-0.7 1.4-1.3 2-2.4c1.6-2.4 2.2-2.7 3.2-1.6 0.5 0.7 0.6 1.2 0.4 2.4-0.4 3.4-3.8 9.6-5.2 9.6-0.4 0-0.8-0.4-1-1zm-128.4-1.6a5 5 0 0 1-2.5-1.8c-1.2-1.5-1.2-2 0-1.3 0.4 0.3 0.8 0.4 1 0.2 0.3-0.3-1-2.6-1.5-2.8-0.7-0.3-0.7-1.8 0-2.4 0.7-0.5 2.6 0.3 3.6 1.6a8 8 0 0 1 1.8 5.3c-0.1 1.6-0.4 1.7-2.4 1.2zm91.1 0c-1.4-0.3-2-0.8-3.2-2.6a7 7 0 0 0-1.4-1.7c-0.4-0.3-0.3-0.5 0.3-1.2 0.6-0.6 1.2-0.8 2.4-0.8 1.8 0 6.6 1.2 7.4 1.8 1 0.8 0.4 1.1-1.7 0.9-1.2-0.2-2.1-0.1-2.1 0 0 0.5 1.8 1.4 3.3 1.7 1.5 0.2 2 1.1 1 1.8-0.6 0.5-4 0.6-6 0.1zm-181.4-0.2c0-1.7 1.3-7.2 2-8 0.3-0.4 1-1.3 1.2-2 0.7-1.1 1.7-1.4 1.7-0.4 0 0.3-0.4 1.2-1 1.9s-1.2 1.8-1.3 2.4c-0.4 1.8 0.4 1.1 1.7-1.4 1.2-2.4 2-3.1 2.9-2.7 1.4 0.5 0 5.6-2 7.1-0.5 0.4-1.1 1.2-1.4 1.8s-0.9 1.2-1.2 1.3c-0.7 0.3-2.6 0.3-2.6 0zm143.6-2.3c0.1-0.7 0.4-0.8 1.7-0.8 1.7 0 2.4-0.7 2-1.8-0.2-0.5-0.5-0.5-1.7-0.4-3 0.5-3.9 0.3-3.1-0.6 0.6-0.7 3.1-1.3 5.8-1.3 2.6 0 3.3 0.6 3.6 2.8 0.2 1.2 0.1 1.4-0.8 2.1-1 0.7-1.6 0.8-4.3 0.8-3.2 0-3.3 0-3.2-0.8zm-111.4-2c-3.6-3.4-3.8-5-0.6-4.5 1.7 0.3 4 1.6 5.6 3.2 2 2 1.6 2.5-1.1 1.2-1.5-0.8-2.6-0.6-1.5 0.2 0.8 0.6 1.3 2.3 0.6 2.3-0.2 0-1.6-1-3-2.4zm129.8 0.8c-1-1.5-0.9-6.5 0.2-8.5 0.9-1.7 2-2.6 2.4-1.7 0.1 0.2-0.2 1.6-0.6 3-0.8 2.5-0.8 3 0.2 2.7 0.3-0.1 0.5-0.6 0.5-1.3 0-1.5 0.7-2.7 1.1-2 1 1.4-0.2 5.7-2 8-1 1-1 1-1.8-0.2zm73-0.5c-0.6-2.2 0.3-4.9 2.3-7.3 1.3-1.5 1.9-1.9 2.7-1.9 1.2 0 3 1.4 3 2.4 0 0.3-0.4 1.7-1 3.2-0.6 1.4-1 2.8-1 3.1s-0.5 0.7-1 1c-0.7 0.3-1 0.2-1.2-0.2-0.5-0.7-0.4-1.4 0.3-2.8l1-2.4c0.2-1.1 0.2-1.2-0.3-0.8-0.3 0.3-0.8 1.3-1.2 2.3-1.3 4.4-1.6 4.8-2.4 4.8-0.7 0-1-0.3-1.3-1.4zm-140.5 0c-1.2-0.5-1.3-1.3-0.5-5 0.7-3 2-4.8 3.6-4.9 1.8 0 1.8 0.8 0.1 2.7-1.5 1.8-1.8 3-0.8 3 0.4 0 1-0.7 1.5-2 1-2 1.2-2.2 2.3-1.4 1.2 1 0.5 2.7-2.3 5.5a20.2 20.2 0 0 1-2.8 2.4l-1.1-0.4zm9.6-1.1c-0.6-0.6-0.5-3 0.2-5.7 0.5-2 1-2.7 2.6-4.6 1.7-1.8 2.1-2.1 2.7-1.8 1 0.6 0.9 1-0.8 2.2-2 1.6-2.8 3-2.3 4.2 0.2 0.4 0.5 0.8 0.7 0.8 0.4 0 1.8-1.9 1.8-2.4l0.5-1c0.5-0.6 0.5-0.6 1.4 0 0.5 0.3 1 0.8 1 1.1 0 0.9-1.5 4-2 4a8 8 0 0 0-2 1.4 9.8 9.8 0 0 1-3.2 2.2zm-26-0.3c0-0.2-0.5-0.4-0.9-0.4-0.3 0-0.7-0.1-0.7-0.3s-0.3-0.4-0.8-0.4c-1.3 0-2.6-0.7-2.9-1.5-0.1-0.4-0.5-1-0.9-1.4-0.8-0.9-0.8-1.6-0.1-3.2 1.2-3 6.4-7 8.4-6.4 1.4 0.4 4 2.5 4.5 3.4 0.2 0.5 0.6 1 0.9 1.2 0.6 0.2 0.6 2.7 0 4.3a19 19 0 0 1-2 3.2c-1.4 1.8-1.4 1.8-3.3 1.8-1 0-2-0.1-2.2-0.3zm-91.3-1.6c-0.1-0.3 0.2-1.6 0.7-3 1-2.2 1-2.4 3-3.3l2.8-1.1c0.7-0.2 4.4 0.4 5.1 0.8 0.6 0.3-0.9 1.5-1.9 1.5-0.9 0-1 0-0.8 1s0 1.2-1.7 2.5c-2.7 2-6.7 2.8-7.2 1.6zm5.6-2.6c0.5-0.2 1.3-0.9 1.7-1.5l0.8-1.1-1.9 0.2c-2 0.2-3.1 1-3.1 2.2 0 0.6 1.3 0.7 2.5 0.2zm272.4 2.8c-1.3-0.6-1.6-1.5-1-3.4 0.9-2.5 2.7-4 4.8-4 3.2 0 4.2 1 4.2 4.5 0 2 0 2.1-1.2 2.7-1.3 0.6-5.5 0.7-6.8 0.2zm-216.8-0.4c-0.4-0.2-0.6-0.8-0.6-1.4 0-0.8 0.2-1.2 1.4-1.7a6 6 0 0 0 2-1.6c0.3-0.5 0.8-1 1.2-1 0.7 0 1.3 0.9 0.7 1-1 0.4-0.3 0.8 0.7 0.5 1.6-0.5 4.9 0 4.9 0.6s-2.7 2.5-4.7 3.3c-1.7 0.7-4.7 0.8-5.6 0.3zm-12-2.7c-0.1-1.9 0.6-3 2.3-3.6 1.5-0.6 1.7-0.5 1.4 0.5-0.1 0.7 0 0.9 0.5 0.9l1.1-0.3c0.3-0.2 1-0.2 1.4 0 0.7 0 1 0.4 1 1 0 0.7-0.5 1-2.3 2a9.3 9.3 0 0 1-3.8 1.2h-1.6zm111.7 0c-2-1.3-4.4-3.5-4.4-4.2h3.9c0-0.5-2-3.7-2.2-3.7s-0.3-0.3-0.2-0.8c0.1-0.9 1-0.9 2.4 0a12 12 0 0 1 3.2 6c0.3 1.8 0.1 4-0.3 4a21 21 0 0 1-2.4-1.3zm83.5 0.2c-1.5-2.3-1.4-7.3 0-10.2 1-1.8 2-2.3 2-0.9 0 0.5 0 1-0.3 1-0.5 0-1 2-1 4 0 2.2 0.5 2.4 1.3 0.7 0.4-0.7 0.4-1 0-1.5-0.3-0.4-0.3-0.8 0-1.8 0.4-1.2 0.6-1.4 1.2-1.2 0.7 0.2 0.7 0.4 0.6 4-0.1 3.5-0.2 3.7-1.4 5.3-0.6 1-1.3 1.7-1.5 1.7s-0.6-0.5-1-1.1zm-47.8 0.3c-0.9-0.4-1-0.5-0.4-1l1.7-2c1.6-2.5 2.8-3.6 3.6-3.6 1.3 0 1.4 0.6 0.2 2-0.6 0.8-1 1.6-1 1.8 0 0.6 1.6 0.5 2.8-0.2 0.7-0.4 1-0.5 1.4-0.2 0.3 0.3 0.2 0.6-0.5 1.3-2.4 2.2-2.7 2.4-4.8 2.3-1 0-2.4-0.2-3-0.4zm29.4 0c-2.3-1-4.4-2.2-5-3.3-1.2-2.1-1.1-2.4 0.8-3.6l2-1.1c0.2 0 0.8-0.2 1.3-0.5 1-0.5 2-0.4 4.2 0.5 1 0.5 1.1 0.7 1.5 3.2 0.3 2.5 0 3.3-2 4.3-1.5 0.8-1.8 0.8-2.8 0.4zm38.9-1.1c-1.4-0.6-1.7-1.4-1.2-2.4 0.2-0.5 0.6-1.7 0.8-2.9a9 9 0 0 1 1-2.8c0.8-1 2.7-1.5 3.3-1 0.5 0.5 0 1.8-0.8 2-0.7 0.2-1.6 2.7-1.3 3.5 0.2 0.7 1.3 0.7 2 0.1 1.5-1.2 2.4-3 2.6-5.1 0.3-2.2 0.3-2.2 1-1.6 0.5 0.5 0.6 1 0.6 3.5 0 2.4 0 3-0.7 3.6-0.4 0.4-0.8 0.8-1 0.8l-2.2 1.4c-2 1.5-2.4 1.6-4.1 0.9zm-227-2.1c0-0.7 0.3-1.9 0.6-2.7 0.6-1.8 0.7-3 0.1-2.7-0.5 0.2-0.9 0.8-1.3 2.6-0.3 1-0.6 1.4-0.9 1.3-0.4-0.1-0.3-0.6 0.2-2.4 0.8-2.5 1.6-3.4 3.6-3.4 1.4 0 1.4 0 1.1 1.2-0.6 3.1-2.3 7.3-3 7.3-0.2 0-0.3-0.5-0.3-1.2zm150.3-0.2c-2-0.4-2.7-0.9-4.5-3-1.5-1.7-1.5-1.8-1.3-3.5 0.1-1 0.5-2.6 0.8-3.5 0.4-1.4 0.8-1.8 1.8-2.2a7 7 0 0 0 2.2-1.6c0.9-1 1-1.1 2.4-0.7 3 1 5.9 4.5 7 8.7 0.6 2.6 0.4 3.5-1.5 5-1.2 1-1.6 1.1-3.5 1-1.2 0-2.7 0-3.4-0.2zm-17.5-1.3a6.3 6.3 0 0 1-1.1-1.5l-1.6-1.2c-1.5-1-3.3-3.2-3-3.7 0.2 0 0.8 0.2 1.5 0.6 1.5 1 1.6 1 1.6 0 0-0.4-0.6-1.4-1.4-2.1-1.2-1.2-1.4-1.5-1-1.8 1-0.7 2.3-0.3 3.6 1 2.3 2.4 3.7 6.4 3 8.8l-0.4 1.2zm63.3 0.7c-0.4-0.4-0.3-1.5 0.3-2.6 0.4-0.7 1-1 2.2-1.4 1-0.2 2-0.6 2.6-1 1.4-0.7 1.7-0.5 1.7 1 0 2-0.5 3-1.8 3.5-1.5 0.5-4.6 0.9-5 0.5zm-131.8-2.6c-0.8-2-1-4-0.3-5.4 0.5-1.2 1.3-1.2 1.3-0.1 0 1 0.7 1.7 1.8 1.4 0.7-0.2 0.7-0.4 0.7-2-0.1-2 0.5-3.4 1.5-3.4 0.4 0 0.6 0.5 0.8 2.8l0.3 2.9-1.7 2.5c-2.6 3.7-3.3 3.9-4.4 1.3zm156.3-0.1-3-1.5c-1.3-0.6-2.2-1.3-2.5-2-0.7-1.3-0.7-1.3 0.4-1 0.6 0 1.5 0.6 2.1 1.2 0.7 0.6 1.3 1 1.4 0.8 0.4-0.3-1-1.8-3.3-3.3-1.7-1.2-2.5-2.3-2-2.8 0.4-0.5 2.6 1 5.2 3.7 2 2 2.7 3 3 4 0.2 1.5 0 1.6-1.3 0.9zm-259.1-2c0.5-3.8 1.7-6.4 3-6.4 1 0 1.2 0.7 0.3 1.3-0.4 0.3-0.7 0.9-0.7 1.3 0 0.5 0.2 0.6 1 0.5 0.7 0 1-0.3 1-1 0.2-1.3 0.7-1.5 1.4-0.5 1 1.2 0.8 1.9-1 4-1.5 1.6-3.1 2.6-4.5 2.6-0.7 0-0.8-0.2-0.5-1.7zm13.7 0.3c-1-0.6-1.2-1-1.2-2.2 0-0.5-0.3-1-0.6-1.2-0.6-0.2-0.7-2-0.1-2.4 1-0.6 3.4-0.2 5.2 0.9 1 0.6 1.8 1.2 1.8 1.4 0 0.1 0.9 0.9 2 1.6 1 0.7 1.8 1.4 1.7 1.6-0.4 0.7-2.7 0.4-3.7-0.5-0.8-0.8-4-2.7-4.4-2.7-0.7 0 0.7 1.4 2 2 1.7 0.8 1.8 1.4 0 1.7-1.7 0.3-1.9 0.2-2.7-0.2zm266-1.1a8.4 8.4 0 0 0-2.1-1.8l-2-1.2c-0.6-0.6-0.7-0.8-0.3-1.4 0.2-0.5 0.5-0.8 0.6-0.8 0.2 0 1.2 0.9 2.4 2 1.1 1 2.2 1.9 2.4 1.9s0.2-0.5 0.2-1c0-1.2-0.8-1.9-2.2-1.9-0.8 0-1-0.1-1-0.8 0-0.6 0.3-1 0.9-1.3 0.8-0.4 1-0.2 3.5 2.4 1.5 1.5 2.7 3 2.7 3.2 0 0.9-1.4 1.8-2.7 1.8-1 0-1.5-0.2-2.4-1.1zm-164.2 0.4-2.3-0.9c-2.3-0.7-3.1-1.4-2.7-2.3 0.3-0.5 0.7-0.6 1.6-0.4 0.8 0.1 1.3 0 1.3-0.2 0-0.5 2-2.4 3.3-3.1 1.2-0.7 2.7-0.2 2.7 0.9 0 0.7-1.6 1.4-2.9 1.4-0.8 0-1.8 1.2-1.5 2s1.8 1 3.4 0.2c2.2-1 3.6-1.2 3.9-0.6 0.2 0.7-1.4 1.9-3 2.2a3 3 0 0 0-1.4 0.7c-0.5 0.6-1.7 0.6-2.4 0.1zm108-2.4-1.3-0.4c-0.7 0-0.8 0-0.4-1.4 0.4-1.5 0.6-1.7 1.3-1 0.3 0.3 1 0.6 1.4 0.8 0.6 0 1.2 0.3 1.5 0.4 0.4 0.2 0.6 0 0.6-0.3 0-0.4-0.3-0.6-0.8-0.6-0.4 0-1.2-0.3-1.7-0.7s-1.1-0.7-1.4-0.7c-0.8 0-1.5-1-1.2-1.4 0.3-0.5 2.8-0.5 4.1 0.1a4 4 0 0 1 2.6 3c0.2 1 0.1 1-1.5 1.8-2 0.8-2.5 0.9-3.3 0.4zm-44.8-1.6a11 11 0 0 1-4.9-3c-2-2.2-1.9-2.4 1.6-2.6 3.7-0.3 5.2 0 7 1.5 1.7 1.3 1.8 1.8 0.8 2.6-0.5 0.6-0.7 0.6-1 0.2-0.2-0.5-2.2-1.4-3-1.4-0.5 0-0.2 0.9 0.5 1.7 1.1 1.1 0.7 1.5-1 1zm-157.2-2.2c-0.8-0.5-1.7-1-2-1l-1.6-0.5c-0.9-0.4-1-0.7-1-1.4 0.2-0.6 0-1-0.4-1-0.4-0.2-0.4-0.4-0.1-0.8 0.5-0.6 3.8-0.6 6.4 0 3.2 1 5.5 2.8 5.5 4.5 0 0.6-0.8 0.3-1.7-0.6a14 14 0 0 0-5.4-2.2c-1.2 0-0.6 0.9 1.1 2 1.7 0.9 2.1 1.6 1 1.7zm32.7-1.9-1.3-2-0.2 1.5c-0.2 0.8-0.3 1.6-0.5 1.7-0.6 0.7-1.6-4.9-1-5.8 0.4-0.6 1.4-0.1 3.6 1.9 1.5 1.4 1.6 1.6 1.5 3.1-0.1 1-0.3 1.6-0.5 1.6s-0.9-0.9-1.6-2zm214.1 0.1c-0.4-0.2-0.9-0.6-1-0.9 0-0.3-0.8-1.6-1.7-3s-1.6-2.7-1.6-3.2c0-0.8 0.7-1.3 1.3-0.9 0.4 0.3 1.2 2 1.2 2.9 0 1 0.8 1.5 1.7 1 1-0.5 0.9-1.5-0.7-3.3a8.9 8.9 0 0 1-1.4-2c0-0.3 1-0.7 2-0.7 0.7 0 0.9 0.3 1.2 1.5 0.2 0.9 0.7 2.1 1 2.8 0.5 1 0.7 2.1 0.7 3.6 0 2 0 2.3-0.7 2.5-1 0.3-1 0.3-2-0.3zm-264.7-0.5c-1.2-0.4-2.3-0.8-2.3-1 0-0.7 2.7-3.2 4-4 2-1 7.2-1.8 7.2-1.2l-0.4 0.9c-0.3 0.5-0.7 0.7-1.8 0.7a5 5 0 0 0-2.2 0.5c-0.4 0.2-1.3 0.6-2 0.7-0.9 0.1-1.4 0.4-1.4 0.7 0 0.8 1.1 0.7 3.6-0.3 1.2-0.5 2.5-1 2.8-1 1.7 0 0.8 2.5-1.3 3.5-0.7 0.3-1.2 0.7-1.2 0.9 0 0.4-2.4 0.2-5-0.4zm56 0.2c-1.7-0.6-2-1-2.8-3-0.9-2.3-0.8-2.7 1.2-4.1 1.6-1.2 2-1.3 3.1-1.1 0.8 0.1 1.8 0.4 2.2 0.6a10 10 0 0 1 3.1 4.7c0 0.7-1.8 2.6-3 3-1.2 0.5-2.2 0.4-3.8-0.1zm15 0.2c-0.8-0.1-1.8-1.3-1.8-2.1a17 17 0 0 1 5.6-3.7c1.3-0.3 1.3 0.6 0 2-0.6 0.8-1 1.4-0.8 1.5 0.6 0.2 4.8-1.6 5.5-2.4 1-1 1.7-0.9 1.7 0.3 0 1-0.3 1.2-2.4 2.3a23 23 0 0 1-6.8 2.3zm-44-1.2-1.1-2.1c-0.4-1-1-1.7-1.1-1.7s-0.2 0.7-0.1 1.6c0.1 1.6 0.1 1.6-0.6 1.2-0.4-0.3-0.8-0.7-0.8-1s-0.3-1-0.6-1.6c-1.2-2-1.3-2.6-0.3-3s3.8 0.8 5 2c0.6 0.8 2 4.3 1.7 4.7-0.3 0.5-1.8 0.4-2.1-0.1zm249-0.5c-1.4-0.8-2.2-1.6-2.2-2.2 0-0.3-0.4-0.8-0.9-1.2-1-0.8-1.1-1.6-0.3-2 0.4 0 1 0.3 1.6 1 1.3 1.4 2 1.4 2 0 0-0.7-0.3-1.2-1.3-2-1.4-1.1-2-2.6-1-2.6 0.5 0 1.8 0.9 3.3 2.2a11 11 0 0 1 2.6 5.4c0 1.9-1.6 2.5-3.7 1.4zm-235-0.3c0-0.2-0.6-0.6-1-0.9-1.1-0.6-1-2.2 0.2-3.8 0.6-0.7 1.1-1.8 1.2-2.3 0.3-1.2 0.9-1.5 2.1-1 1 0.4 1 0.5 1 3s-0.1 2.9-1.1 4.1c-1.1 1.5-1.9 1.7-2.3 1zm-8.7-0.5c-1.3-0.6-1.5-1.2-1.6-5.2l-0.1-3.8 0.9-0.2c0.9 0 1 0 1.1 1.8 0.2 1 0.2 2.2 0 2.5-0.1 0.4 0 0.6 0.3 0.6 0.4 0 0.7-0.5 0.8-1.6 0.4-2.4 1-2 1.8 1 0.6 3 0.7 4.2 0.1 4.8-0.5 0.5-2.2 0.5-3.3 0zm220.7 0c-3-0.5-3.4-0.7-3.9-2.3-0.4-1.5-0.4-1.6 1-3.6l1.3-2 2 0.2c1.7 0.2 2.3 0.4 3.1 1.1 1.5 1.4 2.2 3.1 2 4.6-0.4 1.9-2.3 2.6-5.5 2zm-35.5-2.2c0.2-0.2 0-0.5-0.2-0.7-0.7-0.4 0-1.1 0.9-0.8 0.8 0.3 0.7 1-0.2 1.5-0.5 0.3-0.6 0.3-0.5 0zm4.4-3c-1.8-1.6-3.5-4.2-3.5-5.5 0-0.8 0.2-1 1.3-1 1-0.2 1.9 0 4.2 1.3l3.3 1.8c0.3 0.2 0.7 0.8 1 1.4l0.4 1.2h-1.2c-0.7 0-1.2-0.2-1.2-0.3 0-0.4-1.6-1.2-2.2-1.2-0.2 0-0.2 0.3 0 0.7 0.6 1 0.5 2.9 0 2.9-0.3 0-1.2-0.6-2-1.3zm-9-0.4c-0.6-0.5-1-1.7-1.7-4.5-1.1-4.9-1.1-5.3-0.1-5.5 1.4-0.3 1.7 0 1.7 2.2s0.2 2.5 1.1 1.4c1.3-1.6 2.6-0.5 2.3 2-0.1 1.6-1.8 5-2.4 5l-1-0.6zm-190.2-3c0.1-2.5 0.1-2.6 2-4.4 1.3-1.4 2-1.9 2.8-1.9 1.6 0 1.6 1 0 1.6-1.2 0.4-1.4 0.6-1.4 1.8s0 1.3 0.7 0.8c0.7-0.7 3.2-1.2 3.2-0.7 0 1.2-4.3 4.7-6.5 5.2l-1 0.3zm-14.5 1c-0.7-1.2 3.9-5.1 6.4-5.5l1.4-0.3-1 1c-1.4 1.1-0.7 1.2 1.5 0.2 1.2-0.6 2-0.7 3.1-0.5 0.8 0.1 1.5 0.3 1.5 0.5 0 0.6-2.3 2.1-4.6 3-4.2 1.8-7.8 2.4-8.3 1.6zm-5-1.7a4 4 0 0 1-0.2-1.2c0-0.4-0.3-0.8-0.5-1s-0.6-1.2-0.8-2.1c-0.3-2.2-1-3.6-1.9-3.6-0.5 0-0.6 0.2-0.4 1.3 0.1 0.7 0.5 1.7 0.9 2.3s0.5 1.2 0.5 1.6c-0.1 0.7-0.2 0.7-1 0.3s-1-0.6-1-3.2c0-3 0.5-6.2 1.2-6.5 0.8-0.2 2.5 4.2 3.1 8.3 0.6 3.7 0.6 5.2 0 3.8zm33.9-0.2c-2.6-0.7-4.5-1.6-5-2.2-0.8-1.3 0.2-5 2-7.5 0.9-1 6-1.2 8.2-0.3 2.3 0.8 2.6 1.3 2.6 3.5 0 1.2 0.3 2.3 0.6 2.8 0.7 1.1 0.2 2-2.2 3.3-2.2 1.3-3 1.3-6.2 0.4zm209.7-1.2c-0.4-0.5-1-0.9-1.1-0.9-0.5 0-0.5-1 0-1.3 0.3-0.1 2-0.2 3.8-0.1 3.3 0 3.3 0 3.2-0.8s-0.3-0.8-3-0.7c-1.5 0-3.5 0.2-4.3 0.3-1.4 0.2-1.5 0.1-1.4-0.4 0-0.5 0.7-0.9 2.4-1.3 3.1-0.8 5.6-0.8 7.5 0l2.2 0.9c1.5 0.2 1 1.2-1.3 2.4-1.2 0.6-2.7 1.5-3.2 2-1.5 1.1-3.8 1-4.8-0.1zm-157.9-1.2c-0.7-0.7-1-0.8-1.2-0.4-0.5 0.7-1 0.2-2-2-0.9-2-1.2-3.6-0.6-3.6 0.1 0 1.2 0.9 2.3 2 1.4 1.5 2.1 2.5 2.3 3.5l0.3 1.4s-0.6-0.3-1-0.9zm116.7 0.3c-1-0.2-1-0.3-1-1.4a7 7 0 0 1 2-3.9c1.1-1 1.3-0.4 0.4 1.5-0.2 0.7-0.4 1.5-0.3 1.9 0.3 0.6 0.3 0.6 1.3 0.1 1.1-0.6 1-0.2-0.2 1-0.9 0.8-1.3 1-2.2 0.8zm-158.5-0.6c-1-0.9-1.8-3.8-1.2-4.7 0.3-0.4 0.4-1 0.4-1.2 0-0.4 0.4-0.5 1.4-0.5 1.1 0 1.4 0.2 2.3 1.3l1 1.8c0 0.2-0.7 0.4-1.5 0.4-1.5 0-1.7 0.3-0.9 1s0.7 1.7-0.1 2.1c-0.5 0.3-0.9 0.3-1.4-0.2zm70.5-2.7c-1.1-1-1.4-1.5-1.7-3.4a7.7 7.7 0 0 1-0.3-2.4c0.7-0.6 5.2 3 5.2 4.1 0 0.2 0 0.6 0.2 1s0 0.5-0.7 0.3c-0.8-0.2-0.8-0.1-0.7 0.7 0.3 1.2-0.4 1.1-2-0.3zm78.9 0.9-1.1-0.2 1.1-0.5c1.2-0.5 2.1-1.4 1.8-1.7 0 0-0.4 0-0.7 0.3-0.8 0.9-3.7 1.1-4.7 0.5-0.5-0.3-0.9-0.7-0.9-1l2.5-1.2c2.2-0.8 3-1 5.4-0.8 2 0.2 3 0.4 3.4 0.8 0.5 0.5 0.5 0.7 0 0.8l-2 1.8c-1.7 1.6-2.4 1.7-4.8 1.2zm-90.3-1.2a5 5 0 0 1-0.6-2.5c0-1.6 0-1.7 0.8-1.5l1.9 0.9 3 1.4c1.6 0.6 2 0.9 1.8 1.5-0.2 0.8-0.7 0.8-2.4 0-1.3-0.6-2.1-0.3-1 0.5 0.6 0.4 0.5 0.5-1.2 0.5-1.4 0-1.9-0.2-2.3-0.8zm178 0.5c-2.6-0.8-6-3.2-6-4.2 0-0.8 1.6-0.2 3.2 1.1 2.1 2 5 2.2 4.8 0.3-0.1-1-0.2-1-2.2-1-1-0.1-2-0.3-2-0.5s-0.4-0.5-1-0.8c-1.2-0.7-0.6-1 2.2-1l2.3-0.1 1.6 1.6c1.7 1.7 2 2.8 1.2 4.2-0.2 0.5-0.7 0.7-1.8 0.7a11 11 0 0 1-2.4-0.3zm-42.6-2.2c0-0.6 0.7-1.7 1.3-2.4 0.6-0.8 1.1-2 1.3-2.8 0.1-1.3 0-1.5-0.6-1.5-0.5 0-1 0.5-1.5 1.4-0.7 1.2-1 1.4-2 1.4-1.2 0-1.4-0.2-0.8-1.3l0.5-1.2c0.1-0.3 0.8-1 1.5-1.4a30 30 0 0 1 6.7-2.8c0.8 0 0.9 0.7 0.1 1.7-0.4 0.6-0.8 1.8-0.9 3-0.2 1.8-0.3 2.1-2.6 4.5a14.9 14.9 0 0 1-2.9 2.5c-0.2 0-0.3-0.4-0.1-1zm-164.4-0.2c-0.6-2.9-1-3.6-1.6-4.2l-0.7-0.7 0.2 2c0.2 1.8 0.2 2-0.5 2.4-0.6 0.3-0.8 0.2-1.6-1.6-0.5-1-0.9-2.2-0.9-2.7 0-1.1 1.1-4.9 1.4-4.9 0.4 0 3.4 3.7 4.2 5.1 0.3 0.6 0.6 2.1 0.8 3.3 0.1 2 0 2.2-0.5 2.2-0.4 0-0.7-0.3-0.8-1zm-70-1c-1.6-2.5-2.2-5.6-1.5-6.8 0.4-0.6 2.3 0.4 4.6 2.7 1.7 1.6 2.1 2.3 2.4 3.5v1.7c-0.4 0.4-2-1-3.1-2.6-0.6-0.8-1.3-1.5-1.6-1.5-0.6 0-0.6 0.3 0.4 2l1 2c0 1.1-1.2 0.5-2.2-1zm48 0.1c-0.6-0.2-1-0.5-1-0.6 0-0.2-0.5-0.9-1-1.5-1-1.2-1.2-1.5-1.7-3.6l-0.2-1 2 0.2c4.4 0.5 8.1 2.5 8.8 4.7 0.3 1.1-0.7 1-3.6-0.3-1.2-0.6-2.4-1-2.5-0.9-0.3 0.3 0.5 1.2 1.7 1.7l1.1 0.4-0.8 0.7c-0.9 0.7-1 0.7-2.7 0.2zm-41.2-1.1c-1.2-0.6-1.9-2-1.9-4.4 0-1.3 0.2-1.7 1-2.4 0.7-0.5 1.2-1.1 1.2-1.4s0.3-0.5 0.7-0.6c1-0.3 4.2 0.7 5 1.5l1.6 1c0.8 0.4 0.8 0.6 0.7 2.7-0.2 3.3-0.9 3.8-4.4 4-1.8 0-3.1-0.1-3.9-0.4zm53.3-1.3c0.3-0.6 0.6-1.3 0.6-1.6 0-0.8-1.2-0.7-2 0.2-0.3 0.4-0.7 0.7-0.9 0.7-1.2 0 1.2-3.7 3.1-4.8 2-1.3 2.2-1.2 2.2 1.2 0 3-1.2 5.2-3 5.3-0.4 0-0.4-0.2 0-1zm42-0.5c-1-1-1-2 0-2.8 1.9-1.6 2.6-1.9 3.6-1.3 1.8 1 1.9 1.6 0.2 3.2-1.6 1.5-2.8 1.8-3.7 0.9zm149.7-2c-0.4-1.9-2.8-5.4-4.1-6-1-0.3-1.1-0.2-1.1 0.4 0 0.5 0.7 1.6 1.7 2.6l1.6 1.8-1.5 0.3c-1.6 0.3-1.7 0.3-2.8-1a12 12 0 0 1-2.9-6.1c0-1 0.2-1.2 0.9-1.4 1.2-0.3 3.1 0.1 4.2 1 0.4 0.3 1 0.7 1.2 0.7 0.9 0 4.4 5.8 4.8 7.9 0.2 1.2 0.2 1.2-0.8 1.2s-1-0.1-1.2-1.3zm-29.5 0.8c-0.5-0.4 0.7-1.6 2-2 0.8-0.2 3.2-2.8 3.2-3.4 0-0.8-2-0.3-3.1 1-1.2 1.1-3.1 1.8-3.9 1.3-0.2-0.1 0.3-0.9 1.4-1.8 3-2.8 3.4-3 6.6-3 3.8 0 4.1 0.5 2.4 2.8-0.7 1-1.6 1.8-1.9 2l-2 1.6c-1.4 1.4-3.7 2.1-4.7 1.5zm-187.1-2.5c-1.8-0.5-2.2-1-1.5-2 0.3-0.5 8-2 8.7-1.8 1 0.4 0.2 1-1.2 1-1.8 0-2.5 0.4-1.5 1 1 0.5 1 1.7-0.1 2-2 0.3-2.6 0.3-4.3-0.2zm58.5 0c0-0.2 0.4-0.6 1-0.8s0.8-0.5 0.8-0.7c0-0.3-1-0.7-1.9-0.7a3 3 0 0 1-1.5-0.5c-0.6-0.5-0.2-0.5 4.3-0.4 4.6 0 5 0.1 5 0.8 0 0.5-0.3 0.9-1.9 1.5-2.2 1-5.8 1.5-5.8 0.8zm121.3-0.3c-0.5-0.4-0.3-3.5 0.3-4.2 0.2-0.4 0.6-1.7 0.8-2.9l0.5-2.5 1.7-1c1.4-0.6 1.5-0.6 2 0.1 0.7 1 1.1 3 1.1 5.2 0 2.7-0.3 2.9-3.5 1.5-0.5-0.2-0.7 0.2-1.2 2-0.5 1.9-1 2.5-1.7 1.8zm-143.8-0.7c-1.5-0.2-3.6-1.8-3.6-2.7 0-1 2.5-1.7 6.5-1.7 4.2 0 4.5 0.1 4.5 2.2 0 1.3-0.1 1.4-2.8 0.4-2.4-0.8-4-0.9-4-0.1 0 0.3 0.4 0.5 1.2 0.5 1.2 0 2.4 0.7 2.4 1.4 0 0.4-1.7 0.4-4.2 0zm196.6 0c-0.7-0.5-1.2-1-1.2-1.5 0-0.1 1-0.3 2-0.3 1.8 0 2.4-0.1 3.2-0.8 0.6-0.5 1.4-1 1.8-1s0.9-0.2 1.1-0.4c0.7-0.8-1.2-1.2-2.4-0.5-0.5 0.3-1.5 0.7-2.3 0.8-1.2 0.2-1.3 0.2-1.3-0.5 0-0.6 0.4-1 1.7-1.5 1.4-0.7 2-0.7 5-0.5 3.5 0.2 5 0.8 5 2 0 0.5-0.7 1-2.6 2l-3.6 1.7a11 11 0 0 1-6.4 0.5zm-127.3-0.3v-1.4c0.2-0.7 0.6-1.2 1.5-1.6 1.8-0.8 2.4-0.8 1.8 0-0.3 0.4-0.3 0.5 0.2 0.5 0.3 0 0.5 0.2 0.4 0.4-0.2 0.6-3.7 2.5-4 2zm-149.7-3.7c-1.6-0.6-1.2-2.5 0.5-2.5 1 0 3.6-1.3 5.2-2.5 0.7-0.6 1.1-0.7 1.9-0.4 0.5 0.2 1 0.5 1 0.7 0.3 0.7-1.8 1.6-4 1.8s-2.7 0.6-1.3 1.2c1.2 0.4 2.9 0.4 3.1 0 0.2-0.2 0.7-0.4 1.1-0.4 1.4 0 1.1 1.3-0.4 2-1 0.5-6 0.6-7.1 0.1zm22.3-0.6c-2.2-1.2-4.7-4.2-4.7-5.7 0-2 1.4-1.7 5.4 0.9 2.2 1.4 5.5 4.6 5.5 5.4 0 0.9-1.3 0.3-3.3-1.6-2-2-4.3-3.3-4.6-2.9-0.4 0.4 0.2 1.2 1 1.7 1 0.5 3.3 3.2 2.8 3.1-0.2 0-1.1-0.4-2-1zm194.4 0.2c-1.4-0.2-2-0.5-2.6-1.5-1.2-1.9-1-3.4 1-5.8 1.2-1.3 2-1.4 4-0.4 3.3 1.4 4.3 4.2 2.5 6.8-1 1.5-1.5 1.5-4.9 1zm-172-1.3c0-0.2 0.2-0.5 0.4-0.6s0.7-1 1-1.8c0.7-1.4 2.3-3 2.7-2.5 0.2 0.2 0 0.6-0.3 1-1.4 1.5-0.1 1.4 2-0.2 1.7-1.4 2.3-1.5 2.3-0.6 0 1-3.8 4.2-5.3 4.7-1.5 0.4-2.8 0.4-2.8 0zm224.8-0.7-0.3-1 2.3-0.4c2.4-0.3 5.7-2 5.7-2.8 0-0.6-0.5-0.6-3.2 0.3a8 8 0 0 1-2.6 0.6c-0.8-0.7 2.7-3.1 4.5-3.1a6 6 0 0 0 1.8-0.3c0.8-0.4 1-0.3 1.6 1 0.6 1 0.7 1.6 0.4 2.1-0.5 0.8-2.6 2.5-3.2 2.5l-2.9 1c-3 1.4-3.6 1.4-4 0.1zm-257.6-0.4c0-0.3 0.3-0.7 0.7-0.8 1.1-0.3 2.1-2.3 2.1-4.4 0-1.6 0-1.9-0.7-1.9-1 0-1.5 1.3-1.2 3.2 0.2 1.2 0 1.8-0.2 2-1.1 0.7-1.5-3.3-0.4-4.4 0.3-0.3 0.8-1.5 1-2.6 0.5-1.8 1.6-3.5 2.1-3 0.2 0.2 0.3 2 0.3 4 0 4-0.5 6.1-1.6 7.4-1 1-2 1.3-2 0.5zm45.5 0c-1-0.3-1.4-0.6-1.5-1.4-0.2-1.7 0.4-2.3 2.7-3 3.5-1 5.2-0.3 5.2 2 0 1.2-1 2-3.2 2.4l-1.9 0.3-1.3-0.4zm182.6 0c-0.3-0.2-0.2-1.7 0.2-2.5a11 11 0 0 1 2.7-2.7c2-1.7 2.5-1.9 4-1.8h1.6l-1.5 0.7c-1.5 0.7-4 3-3.6 3.3 0.5 0.5 4-0.6 4.8-1.5 0.5-0.4 1-0.7 1.2-0.6 0.7 0.4 0.2 1.5-1 2.5a11 11 0 0 0-1.6 1.3c-0.1 0.2-1.2 0.5-2.3 0.6l-3.2 0.6c-0.6 0.2-1.2 0.3-1.3 0.2zm-106.1-4.2c-1-0.5-0.9-5.3 0-6.5 0.5-0.5 0.8-1.2 0.8-1.5s0.3-1 0.8-1.5l0.8-1 1.3 1.6c1.6 1.8 2 3.9 1.3 5.3-0.5 0.9-1 0.8-2.4-0.3-1-1-1.3-0.6-0.7 1.6 0.5 1.8 0.5 2 0 2.3-0.9 0.5-1.1 0.5-1.9 0zm122 0.2c-1.1-0.2-1.2-0.6 0-3.3 1-2.7 2.1-4.3 2.8-4 0.6 0.2 0.3 1.3-0.6 2-0.7 0.7-0.9 1.6-0.4 1.6 0.2 0 0.5-0.1 0.7-0.4 1.2-1.1 1.6 2.1 0.5 3.5-0.7 0.8-1 0.9-3 0.6zm-225.1-0.7c-0.7-0.4-0.7-0.5 0.5-1.7 0.9-0.9 1.1-1.4 0.9-1.6-0.3-0.3-0.7-0.1-1.5 0.5-1.1 1-2.2 1.2-2.2 0.4a18 18 0 0 1 6-4c0.5 0 1.2-0.3 1.7-0.5 0.4-0.1 1.5-0.3 2.3-0.3h1.4l-3.7 3.4c-4.3 4.2-4.6 4.4-5.4 3.7zm-5.6-1.7c0-0.8-1.7-4.5-2.5-5.5s-1.1-0.5-0.9 1.7v2c-0.8 0-1.6-1-1.9-2.2l-0.7-2.8c-0.3-1.2-0.3-1.5 0.3-2 0.7-0.8 0.8-0.8 1.8-0.1 2.7 1.7 5.2 6 4.7 8.3-0.2 1.3-0.8 1.7-0.8 0.6zm198 0a7 7 0 0 1-3.4-3.6l-0.6-1.2h2.3c2.4 0 5.8 0.8 7 1.6 0.9 0.5 2 2.5 2 3.3 0 0.2-0.3 0.5-0.6 0.6-0.6 0.1-1-0.2-2-1.2-1.4-1.5-2.9-2.3-4.1-2.1-0.8 0.1-0.8 0.1 0.3 1.2a9 9 0 0 1 1.5 1.6c0.3 0.5 0.2 0.7-0.4 0.6-0.5 0-1.4-0.3-2-0.6zm-27.3-1.8c-0.4-0.2-0.6-0.6-0.6-0.8s-0.7-0.6-1.4-0.8c-1.3-0.4-2.3-0.2-5.7 1-0.3 0.1-0.3-0.1 0.2-1 1-1.5 2.4-1.9 6.6-1.7 3.2 0.1 3.6 0.2 4.2 1 0.9 1.2 0.8 1.3-0.7 2.1-1.7 0.9-1.8 0.9-2.6 0.2zm55.8 0.3c-1-0.4-1.9-1.4-2.9-3.5-0.5-1.1-1.2-2.5-1.6-3-0.4-0.6-0.5-1.3-0.3-2.2 0.3-1.7 0.8-1.6 1 0.2l0.7 2.4c1.7 3.2 2.3 3.2 2.5 0.3v-2.5l1.3 1.9c0.7 1 1.4 1.8 1.5 1.8 0.4 0 0.3 1.4-0.1 2.9-0.4 1.3-1 1.8-2 1.5zm-247.8-2.9c-0.7-0.1-1.3-0.5-1.5-0.9s-0.4-0.7-0.3-0.8l1.1-0.5c0.6-0.2 1.9-1 2.9-1.6 1.4-1 2.2-1.2 4.3-1.4 1.6-0.1 2.6-0.1 2.6 0.1s-1.1 0.4-2.5 0.6c-2.3 0.2-2.5 0.3-2.5 1.1 0 0.9 0.1 0.9 1.8 0.6 2.2-0.2 2.3 0.2 0.4 1.4l-1.6 1.2c-0.2 0.4-2.3 0.5-4.7 0.2zm72.4-1.4a5 5 0 0 1-2.8-3.3c-0.2-1-0.1-1.1 1-1.7l1.3-0.7 1.1 1.3a9 9 0 0 0 2.2 1.8 6 6 0 0 1 1.8 1.3c0.6 0.7 0.6 0.7-0.7 0.7-0.7 0-1.2-0.2-1.2-0.4 0-0.1-0.2-0.3-0.4-0.3-0.3 0-0.3 0.3-0.2 0.9 0.2 1-0.4 1.1-2.1 0.4zm-31.9-1a3 3 0 0 1-0.7-1.8c0-1-2.2-3.9-3.4-4.4-0.8-0.4-0.9-0.4-0.9 0.3 0 0.4 0.4 1.2 0.8 1.7a12 12 0 0 1 1.6 4c-0.3 0.5-2.4-1-3-2a21 21 0 0 1-0.6-8 32 32 0 0 1 5.5 5.1c1 1.3 1.4 2 1.6 3.6 0.1 1 0.2 2 0 2 0 0.2-0.4-0.1-0.9-0.6zm137.6 0.4c0-0.2 0.1-0.4 0.3-0.4 0.7 0 2.5-1.4 2.5-2s-2.4-0.6-2.7 0c-0.3 0.7-2.5 1.2-3 0.7s0.2-1 3-2c3.4-1.3 4.2-1.4 5.3-0.7 1.2 0.8 1.2 2-0.3 3.3-1 1-1.5 1.2-3.2 1.3-1.3 0.2-2 0.1-2-0.2zm-19.8-0.8c0-1.7 2.1-4.7 2.6-3.8 0.2 0.2 0 0.7-0.3 1-0.7 0.9-0.7 1.6 0 1.3 1.4-0.6 2.6-0.6 2.6 0 0 0.7-1.5 1.6-3.3 1.8-1.3 0.2-1.6 0.1-1.6-0.3zm103-1.9-2.3-2.3 1.9 0.2c1.8 0.3 1.8 0.3 1.8-0.6 0-1-1.8-2.3-3.7-2.7-0.7-0.1-1.1-0.5-1.4-1.3l-0.5-1.1 1.7 0.4c2.6 0.7 4 1.5 5.2 2.7 1.8 2 2.7 3.9 2.5 5.5 0 1.3-0.1 1.4-1.5 1.5-1.3 0-1.5 0-3.7-2.3zm-215.5 0.3c-1.6-1.4-2-1.9-2.2-3.3-0.3-2-0.1-3 0.5-3 0.7 0 3.8 1.8 5.5 3.1a7 7 0 0 1 1.8 2.3c0.5 1.3 0.5 2 0 1.2a8.3 8.3 0 0 0-2.5-1.7c-1.8-0.9-2-1-2-0.5 0 0.4 0.2 1 0.5 1.3s0.5 1 0.4 1.4c0 0.9-0.1 0.9-2-0.8zm78.2 1.6c-0.5-0.5-0.3-1 0.8-2.2 0.6-0.7 1-1.4 1-1.6-0.1-0.2-0.9-0.5-1.7-0.5-1.6-0.1-1.6-0.2-0.7-0.6 0.4-0.3 1.5-1.3 2.3-2.3 2.1-2.9 2.4-2.8 2.2 0.7-0.1 1.7-0.5 3.7-1 4.8-0.5 1.4-0.8 1.7-1.6 1.8zm-99.1-0.7a7 7 0 0 1-5-6c-0.2-1.1 0-1.3 1.6-2.6 3-2.2 5.6-2.3 7.9-0.3 1.2 1 1.2 1.1 1.2 3.6a14 14 0 0 1-0.6 4c-0.6 1.6-0.7 1.7-2.2 1.7-0.9 0-2.2-0.1-3-0.4zm52.1-0.3a7.6 7.6 0 0 1-3.6-5.3l-0.2-1.7 1.3 0.9c0.7 0.5 2 1 3 1 3.3 0.5 3.5 0.6 3.9 1.8 0.5 1.5 0.5 2.7-0.1 2.7-0.3 0-1.4-0.6-2.4-1.4-1.8-1.4-3.4-1.8-3-1 0 0.3 0.8 1 1.6 1.7 2.6 2 2.2 2.9-0.5 1.3zm200 0.3c-1-0.7-1-1 0-2.1 0.5-0.6 0.9-1.4 0.9-1.8 0-1-2.3-3.7-3.2-3.7-0.6 0-0.7 0.1-0.2 1.2 0.7 1.6 1 4 0.7 4.2-0.2 0.1-0.9-0.4-1.5-1.2-1.1-1.5-1.1-1.6-1-4.2 0-1.6 0.3-3 0.6-3.3 0.4-0.5 0.5-0.5 1.7 0.3a5 5 0 0 0 1.9 1c1 0 2 3.4 2.2 7 0 2.7 0 3-0.7 3-0.4 0.1-1 0-1.5-0.4zm-87.8-0.1-1.4-1.1c-0.6-0.7-0.7-1-0.3-2.8 0.5-2.5 2.2-4.3 4.1-4.3 2.5 0 6.2 2.7 6.2 4.5 0 0.2-0.7 1.1-1.5 2-1.5 1.6-1.6 1.7-4 1.8-1.3 0.1-2.7 0-3.1-0.1zm18.8-0.8c1.3-1 2.8-3 2.4-3.4-0.2-0.2-2.4 2.3-2.4 2.7s-1.1 0.5-1.5 0.1c-0.3-0.3 0.9-2.1 1.8-2.5 0.4-0.2 0.8-0.6 0.8-0.8 0-0.4 1.8-1.2 3.6-1.5l1.4-0.3-0.6 1.2c-1 2-3.4 5-4.3 5.3l-1.8 0.3c-0.8 0-0.8 0 0.6-1zm-40.5-0.6-2.4-0.8c-2-0.5-3.8-1.9-4.1-3.4-0.4-1.5 0.3-5.4 1.1-6.4 1.7-2.3 4.6-3 8.2-2.2 1.5 0.4 2 0.7 2.8 2l2 2.8c0.8 1.2 0.9 1.6 0.8 3.5-0.2 2.2-0.6 2.7-3 3.9-1.3 0.6-4.7 1-5.4 0.6zm-56.5-1.7c-1-0.4-5.3-3.4-5.3-3.7 0-1 1.3-2.5 3-3.8l1.9-1.5 2 1.1c1.8 1.1 3 2.5 3 3.6a9 9 0 0 1-2.5 4.2c-0.7 0.3-1.2 0.4-2 0zm18.5-1.1 0.3-1.4 2-1.3c2.3-1.5 4.6-1.8 4-0.6-0.3 0.4-0.8 0.7-1.3 0.7-1.3 0-1 0.6 0.6 1.1 2.6 0.9 2 2.3-0.8 2-1-0.2-2.2 0-3.1 0.3l-1.7 0.5zm-41.2 0.4a25 25 0 0 1-3.5-1l-1.3-0.5 0.2-1.7a6 6 0 0 1 0.4-1.9c0.2-0.2 8 1 9.7 1.4 1.7 0.5 1.9 1.7 0.3 2-1 0.2-1 0.3-0.8 1.2 0.2 1 0.2 1-1.4 1-0.8 0-2.5-0.2-3.6-0.5zm-77.6-0.9c-1.3-1.1-3-4-3-5.2 0-2.3 1.6-2.5 3-0.4a7 7 0 0 0 2.9 2.4c2.2 1.1 3 2 3.4 3.2 0.3 1-0.3 1-1.7 0-0.6-0.5-1.6-1-2.1-1.3l-1-0.4 0.2 1.4c0.2 0.8 0.1 1.4 0 1.4l-1.7-1zm172.7-0.5c-0.4-0.5-1-0.9-1.2-0.9s-1.2-0.5-2.1-1.2c-1.7-1.3-2.6-3.2-2-3.9 0.2-0.2 1.4-0.3 2.6-0.3 2.2 0.1 2.5 0.2 4.3 1.6 2 1.5 2.8 2.7 2.4 3.7-0.1 0.5-0.3 0.4-1-0.4-1.2-1.6-4.1-2.6-4.1-1.4 0 0.3 0.5 1.1 1.2 1.8s1.3 1.4 1.3 1.6c0 0.6-0.7 0.3-1.4-0.6zm-84.3-0.7c-0.8-0.7-1.7-1.2-2.3-1.2-1 0-1 0-0.5-2.4l0.5-2 2.4 1.4c3.7 1.9 4.8 2.8 4.8 4 0 1.4-0.7 1.4-2 0-1.3-1.5-2.2-1.3-1 0.2 1.2 1.7 0 1.7-2 0zm54.9-0.9c0-0.4 0.3-0.8 0.5-0.9 0.1 0 0.3-0.4 0.3-0.7 0-0.8-1-0.6-1.4 0.3-0.3 0.6-0.3 0.7-0.4 0.2 0-1.5 4.8-5.2 6.8-5.2 2.1 0-1.6 5.6-4.1 6.2l-1.5 0.5c-0.3 0.3-0.4 0.2-0.2-0.4zm-82-1.2c-0.3-0.9 0.1-2 1.4-3.5 1.2-1.5 2.2-1.5 1.9-0.1-0.2 0.5 0.1 1 1.2 2l1.5 1.2-2.1 0.5c-2.8 0.5-3.7 0.5-3.9-0.1zm191-0.4a19 19 0 0 1-0.5-1.7c-0.1-0.5-0.4-1-0.7-1.3s-0.5-0.6-0.5-0.9-0.2-0.8-0.4-1.1c-0.5-0.9 0.1-4.5 1-5.4 0.4-0.4 0.7-0.4 2 0.4a7 7 0 0 1 3.8 4.5c0.6 2 0.2 3.3-0.9 3.3-0.6 0-1-0.4-1.5-1.8-0.6-1.3-1-1.8-1.5-1.8-0.6 0-0.7 0.2-0.5 1l1 2.6c1.2 2.3 1.2 3.1 0 3.1-0.6 0-1-0.2-1.2-0.9zm-138-1.8c-0.8-1-1.6-1.8-1.9-2-0.2-0.1-0.4-0.8-0.4-1.4 0-1.6 2.6-4.1 4.1-4 2.3 0 2.9 0.4 4.5 2.7a15 15 0 0 1 1.6 2.6c0 0.2-0.3 0.8-0.7 1.3-0.5 0.8-1.4 1.2-3 1.8l-2.6 0.7c-0.2 0-1-0.8-1.7-1.7zm-105.7-0.1c-0.3-0.6-0.4-1.6-0.3-2.7 0.2-1.2 0.1-1.9-0.3-2.4-0.4-0.6-0.5-0.6-0.7 0.8-0.2 0.8-0.4 1.5-0.6 1.5-0.5 0-1.8-3.3-1.6-4.1 0.3-1 2.7-3.7 3.3-3.7 0.9 0 2.2 5.4 2.2 8.8 0 1.8 0 2-0.8 2.4-0.7 0.3-0.9 0.3-1.2-0.6zm18.9-1c-1-0.2-0.7-0.7 1-1.6 3.7-1.8 4.5-3.5 1-2-2.5 1.1-3.7 1.4-3.7 1 0-0.1 0.1-0.3 0.3-0.3s1.6-1 3.2-2.1c2.6-1.9 5.5-3.2 7-3.2 0.7 0 0.5 2-0.3 2.5-1.3 0.7-5.6 4.6-5.8 5.3s-1.2 0.9-2.7 0.5zm65.5-2.4c0.3-1.8 0.6-2.2 1.8-3 1.5-1 2-0.8 1.5 0.7-0.9 2.3 0.3 2.5 2.5 0.2 2.2-2.1 3.2-2 2 0.1a8.7 8.7 0 0 1-6.9 4h-1.3zm11.2 1.8c-0.3-0.2-0.4-0.9-0.4-2 0-1.4 0.1-1.8 0.9-2.3l2-1.6c1.2-1 1.3-1 1.3-0.3 0 0.9 0.6 1 1.4 0.2 0.4-0.4 1-0.5 1.4-0.3 0.7 0.2 0.7 0.3 0.2 1.2-0.3 0.6-1.2 1.5-2 2.2a6 6 0 0 0-1.5 1.7c-0.3 1-2.2 1.6-3.3 1.2zm-87.5-3.9c-1.2-1.4-2.4-2.6-2.6-2.6s0-0.2 0.3-0.4 1.8-0.4 3.3-0.4c2.6 0 2.8 0 5 1.3 3.5 2.1 3.2 3.4-0.3 2.1-0.9-0.3-1.9-0.5-2.3-0.5s-1.1-0.4-1.7-1c-1-1-1.5-1-1.1 0 0.1 0.4 1.4 1.2 2.8 1.9 3.2 1.5 3.4 2.3 0.7 2.3h-1.9zm221.8 0.9c0-0.3 0.6-1.1 1.4-2 1.5-1.5 2-3 1.8-4.9 0-1 0-1-1.2 0.7a12 12 0 0 0-1.6 2.8c-0.3 0.7-0.6 1.3-0.8 1.3-0.7 0-0.3-2.7 0.7-4.7a7.7 7.7 0 0 1 3-3.5c1-0.7 2.2-1.3 2.6-1.3 0.6 0 0.6 0.2 0.4 2.2-0.4 4.3-1.7 7.3-3.7 8.7-1.2 0.9-2.4 1.2-2.6 0.7zm-102.2-3.3c0-0.5 0.1-1 0.3-1l0.9-1.9c0.6-1.7 0.2-1.5-0.9 0.5-0.8 1.5-1.7 1.5-1.7 0 0-0.9 0.4-1.6 1.8-3 1-1.2 1.9-1.8 2.1-1.7 0.3 0.2 0.4 1.1 0.3 2.9-0.2 2.6-0.8 4-2 4.7-0.7 0.3-0.8 0.3-0.8-0.5zm93.7 0c-0.8-1.3-1-2.7-0.4-3.2 0.8-0.8 0.7-3 0-3.3-1-0.3-1.6 1-1.4 2.5 0.2 1.3 0.1 1.4-0.6 1.3s-0.8-0.4-0.9-2.4c0-1.9 0-2.3 0.8-3.4 0.6-0.7 1.4-1.6 2-2l1-0.7 0.9 2c1.7 3.7 2 6.8 0.6 9-0.7 1.3-1.3 1.3-2 0.3zm-10.4-0.8 0.7-1.1c0.7-1 0.8-2.5 0.2-2.6-0.2 0-0.6 0.7-1 1.6-0.3 1-0.7 1.8-1 1.8l-0.9-0.1c-0.3 0-0.5-0.4-0.5-0.9 0-1 2.5-5.3 3.8-6.7l1-1 0.5 0.9c0.4 0.5 0.5 1.6 0.5 3.6 0 3.4-0.6 4.7-2.3 4.7-0.6 0-1 0-1-0.2zm-141-0.7c-0.7-0.9-2.4-4.2-2.4-4.9 0-0.5 1-1.2 1.7-1.2s3.8 3 4.2 4.1c0.7 1.7 0.3 1.9-1 0.5-1.5-1.4-2.2-1.4-2-0.1l0.5 1.6v0.6c-0.3 0-0.7-0.3-1-0.6zm-51.4-1.8c-1.3-0.5-3-2-3.4-3-0.3-0.5-0.6-1.8-0.7-2.7-0.2-1.7-0.2-1.7 1-2.3l1.6-0.6c0.2 0 0.6-0.3 0.9-0.7 0.7-0.8 2-0.9 4.4-0.1 1.5 0.4 2 0.8 2.7 2 1 1.6 0.9 3.3-0.2 5.4-1 1.8-4.2 2.8-6.3 2zm16.2 0a5 5 0 0 1-1.2-2c-0.8-2.1-1.6-2.1-1.6 0 0 1.6 0 1.6-1.2 1.6-1.1 0-1.3-0.2-2-1.5a7.5 7.5 0 0 1-0.8-3.9c0-2.4 0.4-3.5 1.4-3.5 0.3 0 2.1 1.6 4 3.5 3.6 3.2 3.8 3.5 3.6 4.5-0.1 1.4-1 1.8-2.1 1.1zm25-0.3c-0.5-0.5-0.3-3.7 0.3-4.8 0.9-1.7 2.4-3.5 2.9-3.5 1 0 0.8 1.2-0.2 2.3-1.4 1.4-1.8 2.6-1 3 0.5 0 1-0.2 1.7-1 0.8-1 1-1 1.8-0.7 0.7 0.2 1 0.6 1 1.3 0 1.2-0.7 1.7-3.7 2.8-2.3 0.9-2.5 1-2.8 0.6zm139.8-0.1c-1.7-0.4-2.8-1.1-3-2.2l-0.6-1.3c-0.2-0.2-0.1-1.2 0.2-2.5l0.6-2.4c0-0.3 4.2 0.2 5.1 0.7 1.7 0.7 2.8 4.6 2 7.2-0.1 0.7-0.4 0.8-1.6 0.8zm-57.2-2.9c-0.5-0.5 0-1.3 2.3-3.8 2.6-2.7 4.1-3.7 5.8-3.7 1 0 1 0.4 0.2 2.3l-0.9 2.4c-0.3 1.4-1 1.2-1-0.4s-0.2-2-1.7-1.6c-0.8 0.2-1.2 0.6-2 2.1-0.9 1.8-2.2 3.2-2.7 2.7zm-88-0.8a9.2 9.2 0 0 1-2.9-3c-0.8-1.2-1.6-2.3-1.8-2.3s-0.3-0.2-0.3-0.5c0-0.8 0.8-0.7 5 0.6l3.8 1.2v1.1c0 1.4-0.7 1.5-2.6 0.4-1.1-0.6-1.3-0.7-1.3-0.1 0 0.3 0.3 0.8 0.5 1 0.4 0.3 1.2 2.4 0.9 2.3l-1.4-0.7zm79 0.5c-1.2-0.4-1-1 0.2-1.3 1.9-0.6 1.5-1.4-0.7-1.8-1.5-0.3-1.8-0.5-2-1.2 0-0.7 0-0.8 1.8-0.8 2.4 0 6.5 1.9 7 3.2 0.2 0.8 0.1 1-1 1.4a11 11 0 0 1-5.3 0.5zm-95.2-1.4a7.7 7.7 0 0 1-1.7-2.3c-0.5-1-1-1.7-1.3-1.7s-0.7-1-1-2.7l-0.7-3c0-0.6 1.4-0.2 3.4 1 2.9 1.7 4 2.9 4 4 0 1.5-0.8 1.3-2.8-0.6-1.4-1.3-1.8-1.5-1.8-1 0 0.4 1 1.6 2 2.6 2 1.9 2.4 3 1.5 3.9-0.5 0.5-0.7 0.5-1.6-0.2zm33.4-0.4c-1-0.3-1.5-0.9-2-1.9-0.5-1.2-0.5-1.4 0-2.1l1.4-2c0.7-1 1-1.1 2-1 2.3 0.4 2.7 0.6 3.5 1.7 0.7 0.9 0.8 1.3 0.6 2.9l-0.2 1.8-2 0.6c-1.8 0.5-2.3 0.5-3.3 0zm157.8-0.4c-2.4-0.5-3.1-0.8-3.7-1.5-2.4-3-2.5-3.1-2.3-4.4 0.3-1.5 2-4 2.6-4 0.3 0 0.6-0.2 0.7-0.5 0.2-0.3 1.2-0.7 2.2-0.9 1.7-0.4 1.9-0.4 2.8 0.3 0.5 0.4 1 0.7 1.3 0.7 1 0 1.2 0.8 1.6 3.5 0.3 2.8 0.3 3-0.5 4.2-0.5 0.7-1 1.8-1 2.3-0.2 0.5-0.4 1-0.6 1zm-25-0.3c-0.4-0.5 0-1.1 1.5-2.2 1.6-1.2 2-1.7 2.4-3.3 0.3-1.3-0.5-1.3-1.6 0-0.9 1.2-2.4 2-2.7 1.8-0.4-0.5 0.8-2.3 2.8-4 1.8-1.7 3.6-2.6 4-2.2 0.1 0.1 0 1-0.2 2-1 4-3.3 7.6-5 7.9h-1.1zm-121-1c-1.2-0.7-2.6-2-2.6-2.4 0-0.1 0.6-0.2 1.4-0.2h1.4c0-0.2-1-1-2-1.7s-2.2-1.7-2.3-2c-0.3-0.8 2.2-0.3 4.6 1l2.4 1c0.6 0 3 2.8 3 3.5 0 0.8-0.2 1-2.7 1.2-1.6 0.1-2.4 0-3.2-0.4zm20-0.5c-0.5-0.5-0.7-1.2-0.7-2.4 0-2.1-0.3-2.9-1-2.9-0.3 0-0.4 0.5-0.4 2 0 2-0.4 3-1.3 3-0.8 0-0.6-2.8 0.2-3.2 0.4-0.2 0.7-1 0.9-2.2 0.2-2.1 0.4-2.5 1.3-2.9 1-0.3 1.8 1.3 2.1 4l0.5 3.8c0.2 1.2 0.1 1.5-0.3 1.5s-1-0.3-1.3-0.7zm-11.5-0.4c-1-1-1.2-4.8-0.4-5.1 0.3-0.1 0.6-0.4 0.6-0.7l0.4-1.4c0.4-1 0.5-1 0.6 1 0.2 2.2 0.2 2.2 1.3 2.2h1v-2.3c0-1.5 0.2-2.3 0.5-2.4 0.3 0 0.4 0.7 0.4 3.2v3.3l-1.4 1.5c-1.5 1.6-2 1.8-3 0.7zm69.5-1c-0.8-2-2.2-4.2-2.9-4.2-0.5 0-0.6 1.9-0.1 4 0.3 1.3 0.3 1.3-0.6 1.2-1.4-0.2-2-2.3-1.5-4.8 0.6-3.5 2-4.5 3.6-2.7l2 2.2c1 1 1.1 1.3 1.1 3.6 0 3-0.6 3.3-1.6 0.8zm-155.4 0.4a10 10 0 0 1-3-1.7l-1.3-1 1.4-0.6c3.3-1.2 3.8-1.3 8-0.8 2.8 0.3 4 0.5 4.3 1 1 1.3 0.5 1.4-2.9 0.5-1.9-0.5-4-0.5-5.3 0l-1 0.6 1.1 0.2 1.2 0.5c0 0.2 0.5 0.3 1 0.3 0.8 0 1.3 0.1 1.7 0.7l0.5 0.8h-2c-1.2 0-2.8-0.3-3.7-0.5zm159.5-2c0-0.3 0.3-0.7 0.7-0.9 0.5-0.1 0.7-0.4 0.6-1 0-0.6-0.4-0.7-2-0.8-1.2-0.1-1.8-0.3-1.8-0.6 0-0.9 2-2.2 4.1-2.8 2.8-0.7 4-1 4-0.8l-0.4 2.2c-0.6 3.6-1 4.4-2.3 5-1.7 0.7-3 0.6-3-0.2zm-110.1-1.2c-2-0.6-2.5-1.2-2.3-2.6 0.2-0.9 0.7-1.3 2.8-2.4 2.8-1.4 4.2-1.4 5.7-0.3 0.7 0.6 0.7 0.6-0.2 1.3-0.5 0.4-1.3 0.6-2.1 0.6s-1.6 0.1-2 0.3c-1 0.4-0.5 0.8 1.2 0.8 2 0 2.6 0.5 2.3 1.9-0.2 0.9-0.3 1-2 0.9-1 0-2.5-0.3-3.4-0.5zm160.8-1.1c-0.5-0.2-0.7-0.5-0.6-1.5s0.3-1.3 1-1.4c0.4 0 1 0 1.3 0.3 0.6 0.5 1.2 0.2 1.2-0.7 0-1-0.9-1.3-2.3-0.8-1 0.3-1.3 0.3-1.7-0.3-1-1-0.7-1.7 0.6-1.7 2.4 0 5 0.7 6 1.6 1.4 1.4 1.2 2.3-0.7 3.6-1.6 1-3 1.3-4.8 0.9zm-28.9-1.4c-2.3-1-2.8-3-1.2-5.4 0.8-1 1.1-1.3 2.2-1.3 1.2 0 3.3 1 3.3 1.5 0 0.2 0.2 0.9 0.6 1.6l0.5 1.2-1.3 1.4c-1.4 1.4-2.4 1.6-4 1zm12-0.2 1.4-3.1c1.7-3.2 1.8-3.9 0.7-3.7-0.7 0.1-1 0.5-1.3 2.2-0.4 1.5-0.7 2-1.1 2-0.8 0-1.1-2-0.5-3.7 0.4-1.2 4-5.1 4.7-5.1 0.4 0 0.4 0.8 0.3 4.4l-0.2 4.5-1.5 1.5c-1.6 1.6-2.5 2-2.5 1zm-151.3-0.6c-0.5-0.3-0.6-1-0.6-4 0-3.2 0-3.5-0.7-3.7-1.7-0.6-1.8 1-0.4 4.3 0.8 1.6 0.8 2 0.4 2.7-0.5 0.8-0.5 0.9-1.1 0.3-1.5-1.3-1.8-2.8-1.5-6.4 0.2-3.2 0.3-3.5 1-4 0.8-0.4 1-0.3 1.8 0.6 1.4 1.6 2 4 1.8 7.5 0 3-0.1 3.2-0.7 2.7zm-26.8-1c-1.7-0.5-3-1.2-3-1.4 0-0.8 2.2-2.6 3.7-3 1.3-0.4 1.7-0.4 3.3 0.2 3.5 1.4 3.5 1.3 0.4 1.4-1.6 0.1-3 0.3-3 0.4 0 0.7 1.1 1.1 3.1 1.1 2.5 0 3.3 0.3 3.3 1 0 1.8-3.2 2-7.8 0.4zm99.6-0.3c-0.2-0.2-0.4-0.9-0.6-1.4s-0.5-1.2-1-1.6c-0.7-0.6-0.7-0.6-0.4 1.3 0.2 1.7 0.1 1.8-0.6 1.7-0.7 0-0.8-0.2-0.7-3 0.2-3.5 0.5-4.7 1.2-5.2 1.8-1 4.6 5 3.5 7.7-0.4 1-0.8 1.2-1.4 0.5zm5-2c-2-1.6-3-3-3-4.3 0-0.6 0.2-0.7 1.4-0.5 3 0.5 4.9 1.3 6.3 2.6 1.3 1.2 2.3 2.8 2.3 3.6s-1.5 0.2-2.8-1a5.4 5.4 0 0 0-1.8-1.5c-0.3 0-0.4 0.4-0.2 1.4v1.4c-0.2 0-1.2-0.7-2.2-1.6zm20.6-0.7c-0.3-0.4 0-2.1 0.5-2.7 0.3-0.4 0-3.3-0.4-3.3l-0.9 0.7c-0.3 0.4-0.8 0.7-1 0.7-0.8 0 2-5.3 2.7-5.3 0.3 0 1 0.3 1.5 0.8 1 0.7 1 0.8 0.7 3a7.4 7.4 0 0 1-0.7 2.9c-0.2 0.3-0.6 1-0.7 1.6-0.4 1.6-1.2 2.4-1.7 1.6zm-108.7-0.8-0.5-3c-0.2-1.5-0.6-3.1-1-3.7-0.6-1.2-1.7-1.4-1.4-0.2l0.4 2.6c0.3 2.1-0.1 2.6-1.2 1.5-0.7-0.7-0.7-1-0.5-4.3 0.3-5 1-5.7 3-2.9a17 17 0 0 1 2.7 8c0.2 2.3 0.1 2.4-0.6 2.4-0.4 0-0.8-0.2-0.9-0.4zm142.6 0c-1.2-0.4-1.5-1.5-1.2-4 0.5-3.7 1.7-6.3 3.4-7.1 2-1 3.1 2 3.2 7.7 0 1.9-0.3 2.2-1.6 1.7-0.8-0.3-0.9-0.5-0.9-2.4 0-2.3-0.4-3.1-1.2-2.8-0.6 0.2-0.6 0.7-0.5 3.8v3.5zm-21.2-0.3c-0.2-0.2 0-1 0.3-1.7 0.4-0.8 0.5-1.6 0.4-1.7-0.3-0.3-1.2 0.3-1.4 1 0 0.3-0.3 0.6-0.6 0.6-1.9 0 0.9-6 3.5-7.5 1.3-0.7 1.3-0.7 1.6 3.4 0.4 4 0.1 5-1.6 5.7-1.6 0.6-2 0.7-2.2 0.2zm-23.5-0.8c-4-1.8-4.8-6-1.5-7.6 2-1 3.1-1 5.2 0.3 3.5 2 4.1 3.5 2.5 5.9-1 1.2-1.3 1.5-3 1.7-1.5 0.3-2 0.3-3.2-0.3zm-72 0.2c-1.6-0.2-2.9-1-3.2-1.7-0.1-0.5-0.9-1.2-1.6-1.5-0.8-0.4-1.6-1-1.9-1.3-0.4-0.5-0.4-0.7 0.6-1.6 1-1 1.2-1 3-0.6 1 0.2 2.9 0.8 4 1.3 1.3 0.6 2.5 1 2.7 1 0.5 0 1.5 2.5 1.2 2.8-0.1 0.1-1-0.2-2-0.6s-1.9-0.7-2-0.6c0 0.1 0 0.7 0.2 1.3 0.5 1.3 0.3 1.7-1 1.5zm106.3-0.8a5 5 0 0 1-3-1.5c-0.9-1-1-1.4-1-3.8 0-3.6 1.2-5 4.3-5 1.7 0 3.2 0.8 5 2.5 1.5 1.2 1.5 2.2 0.2 4a4 4 0 0 0-0.7 1.9c0 2.2-0.7 2.5-4.8 1.9zm-65.3-1c-0.3-0.2-0.4-1-0.4-2.2 0-1.5 0-2.2-0.6-3-1-1.4-1.9-1-1.9 1 0 1.3-0.5 1.4-1.3 0.2-1-1.3-0.8-3.2 0.6-4.8 0.9-1 1.1-1.2 2-0.9 2 0.7 3 3 3 7.4 0 2.6-0.3 3-1.4 2.3zm-20.2-1a16.4 16.4 0 0 1-4.5-1.9c-0.7 0-1.5-1.8-1.8-4.2-0.6-3.9 0-5.8 2-6.6 2.5-1 7.4-0.1 10.7 2 1.5 0.9 1.7 1.2 2.1 3 1 4.1-1.5 8.7-4.7 8.6-0.4 0-2.1-0.4-3.8-1zm107 0.3c0-0.9 0.7-2.2 1.1-2.2 0.5 0 1.3-1.7 1.3-2.8 0-0.7-0.7-1-1.8-1-0.6 0-0.7 0.2-0.7 2.2s0 2.4-0.7 2.7c-1.2 0.6-1.6 0.2-1.9-1.8-0.2-1.6-0.1-2 0.5-2.6 0.4-0.4 0.7-1 0.7-1.1 0-0.2 0.7-0.8 1.5-1.2 0.8-0.5 2-1.4 2.6-2 1-0.7 1.3-0.9 1.6-0.5 0.5 0.8 0.7 5.8 0.3 6.8-0.7 2-4.6 4.8-4.6 3.5zm-121-2.7c-1.5-1.1-1.6-1.3-1.8-3.2-0.2-2.3-0.2-2.3 1.9-3 1.2-0.4 1.5-0.4 2.3 0.1 2 1.4 4.3 5.8 3.4 6.7-0.4 0.3-0.8 0-2-1.1-1.1-1.2-1.5-1.4-1.6-1 0 0.4 0 0.9 0.3 1 0.6 0.6 0.5 1-0.3 1.3-0.5 0.3-1 0.2-2.2-0.8zm84.7-2.5c-0.2-0.5-0.3-1.8-0.3-2.8 0-1.8-0.6-3-1.5-3-0.1 0-0.3 1-0.3 2.3s-0.1 2.3-0.3 2.3-0.8-0.6-1.4-1.4c-1-1.3-1.1-1.6-1.1-4 0-3.6 1-5.3 2.7-4.2 0.7 0.4 3.9 6.1 4.2 7.4 0.1 0.8 0 1.6-0.5 2.7a5 5 0 0 1-1 1.6l-0.5-1zm-108.6-2.4-1.7-1.8-2.2-2.6c-1.2-1.3-1.3-1.7-1.3-3.2v-1.8l1.5-0.3c0.8-0.1 1.6-0.2 1.7 0l2 1.7c3.3 2.5 4 4.1 2.4 4.9-0.7 0.3-1 0.2-2.3-1.4-1.8-2.1-2.7-2.3-2.4-0.4 0.3 1.7 1.2 2.8 3 3.8s2.1 1.7 0.9 1.9c-0.5 0-1.1-0.3-1.6-0.8zm12-0.6c-2.9-0.5-4.9-3.2-4.9-6.4 0-3.4 1.5-4.5 5.5-4.5 3.2 0 4 0.4 4.8 2.3 0.7 1.5 0.7 2 0.4 3.5l-0.6 3.1c0 0.8-0.3 1.6-0.6 1.9-0.4 0.5-2.4 0.6-4.6 0.1zm77-0.4c-0.2-0.5-0.2-1-0.1-1 0-0.2 1.1-0.3 2.4-0.3 1.6 0 2.2-0.2 2.4-0.6 0.4-1-1.3-1.4-3.1-0.7-2.2 0.8-2.4 0.5-0.5-0.7 2.2-1.4 3.7-2 4.7-1.7 0.8 0.2 3.3 2.1 3.3 2.5 0 0.2-0.7 0.6-1.7 1s-1.8 1.2-2 1.6c-0.2 0.6-0.5 0.7-2.6 0.7-2.3 0-2.5-0.1-2.8-0.8zm-26-0.1a5 5 0 0 0-2.2-0.5c-1.3 0-2.9-1.4-2.9-2.5 0-0.6 0.4-0.7 3.6-1 3.2-0.2 3.8-0.2 4.7 0.4 0.6 0.3 1.5 0.6 2 0.6 1.2 0 1.8 1 1 1.4-1 0.7-3.2 0.8-3.8 0.2-0.8-0.7-2.5-0.7-2.5-0.1 0 0.2 0.3 0.6 0.7 0.8 0.8 0.3 1.4 1.2 0.8 1.2zm-13.3-1.5a16.4 16.4 0 0 1-4.7-9c-0.2-1.5-0.1-2 0.2-2 0.2 0 0.5 0.2 0.6 0.5s1 0.9 2.1 1.4c1.7 0.8 2 1.1 2.8 2.9 1 2.2 1 2.6 0 2.2-0.6-0.2-0.9-0.6-0.9-1.2 0-0.4-0.2-1-0.5-1-0.8-0.3-0.7 1.6 0.1 2.6 0.7 1 2.3 4.5 2 4.8zm19.6-2.3a9 9 0 0 1-1.8-2.7c0-0.6 1.6-2.5 2.1-2.5l2 0.4c3.3 0.7 4.2 3.2 2.2 5.7-1.6 1.9-2.3 1.7-4.5-0.9zm59.5 1.3c-0.3-0.4-0.3-0.9 0-2l0.6-3.2c0.2-1.6 0.2-1.7-0.6-1.6s-0.9 0.3-1 2.9c-0.2 2.1-0.3 2.8-0.9 3.2-0.5 0.4-0.8 0.4-1.3 0-0.6-0.3-0.6-0.6-0.5-2a13 13 0 0 1 3.6-7.1c2-2 2.9-2.4 3.6-1.5 0.6 0.7 0 5.2-1.2 9-1 2.8-1.4 3.3-2.3 2.3zm-101.3-1.3c-0.2-0.5 0-1 0.3-1.4 0.8-0.8 0.5-3.2-0.3-3.4-0.5 0-0.6 0.2-0.6 1.4 0 2-0.6 2.8-1.7 2.6-0.6-0.2-0.8-0.5-0.8-1.4 0-0.6 0.3-1.4 0.5-1.6 0.3-0.2 0.6-0.7 0.6-1 0-1 1.4-2.6 2.7-3.1l1.3-0.5v4.3c-0.1 3.8-0.2 4.4-0.7 4.6-1 0.4-1.1 0.3-1.3-0.5zm85.1-0.1c-2.8-1-3.5-1.9-3.5-3.9 0-1.3 0.1-1.5 1-2 1.1-0.4 1.4-0.3 6.1 0.5 2.5 0.4 2.8 0.5 2.7 1.2 0 0.5-0.5 0.8-1.4 1-1.6 0.4-1.6 1-0.1 1.2 2.2 0.2 2.6 0.4 2.4 1.2a4 4 0 0 1-0.6 1.2c-0.6 0.8-4 0.5-6.6-0.4zm-33.9-0.7c0-0.3 0.4-0.5 0.7-0.5 0.6 0 0.8-0.4 1-2.1 0.2-1.9 0.4-2.3 1.4-3.2 1.2-1 3.9-2 4.3-1.6 0.5 0.5 0.2 4.3-0.5 5.6-0.5 1.2-2 2.3-3 2.3-0.6 0-0.4-1 0.6-2.2 1-1.1 1-2 0.3-2.2-0.8-0.3-1.5 0.4-2.4 2.5-0.7 1.4-1.1 2-1.6 2-0.4 0-0.8-0.3-0.8-0.6zm-41-3.3c1-1.8 1-2.9-0.2-2.9-0.5 0-0.8 0.3-1 1.3-0.2 1.3-0.4 1.4-1.3 0.7-0.7-0.4-0.7-0.5 0-1.7a9 9 0 0 1 1.4-1.7c0.3-0.3 0.9-1 1.3-1.8 0.3-0.8 0.8-1.4 0.9-1.4s0.6 1.3 1 2.8c0.8 2.6 0.8 3 0.4 4-0.6 1.4-1.8 2.4-2.8 2.4-0.6 0-0.5-0.2 0.3-1.7zm54.8 1.6 1.4-1.7a8 8 0 0 0 1.4-2c0-0.2-0.7-0.2-1.8-0.1-2 0.3-2 0.3 0.2-2.6 1.7-2 2.3-2.4 4.8-2.8 2-0.2 2-0.2 1.3 2.1-0.4 1.7-4.7 6.4-6.3 7zm-34-1.7c-0.1-0.3 0-1.4 0.2-2.5 0.3-1.5 0.3-2 0-2.5-0.3-0.3-0.6-0.5-0.8-0.5-0.4 0-1.4 2-1.4 2.8 0 0.3-0.3 1-0.7 1.3-0.7 0.6-0.7 0.6-0.5-1.3 0.4-3.7 1.6-6.8 2.8-7.3 1-0.5 1.2-0.3 2 2.7 0.7 2.8 0.8 6.3 0.2 7.2-0.6 0.7-1.5 0.8-1.8 0zm10.6-4.9c-3-2.9-3.4-3.8-1.6-4.4 0.8-0.3 1.5-0.3 2.9 0.1 2.6 0.8 4.1 1.5 4.1 2l0.7 1c0.7 0.7 1.3 2.4 1 2.7-0.6 0.6-2-0.3-2.7-1.6s-1.5-1.8-3-1.8c-0.9 0-0.2 1.5 1.4 2.9 0.6 0.6 1.2 1.2 1.2 1.4 0 0.9-1.5 0-4-2.3zm-45.2 0.9c-0.1-0.4-1.2-1.6-2.4-2.8-2-1.9-2.2-2-2.3-1.2 0 0.5 0.2 1.2 0.8 1.8 0.9 0.9 1.1 1.8 0.7 2.2s-2.3-0.8-3.8-2.1c-1.3-1.3-1.3-1.4-1.3-3.7-0.1-2.5-0.1-2.5 0.8-2.3l2.8 1.4c1 0.7 2.2 1.2 2.5 1.2 1 0 1.9 1.6 2.7 4.5 0.3 1.2-0.1 2-0.5 0.9z" fill="#009c3d"/>
</svg>
