<svg width="600pt" height="600pt" preserveAspectRatio="xMidYMid" version="1.0" viewBox="0 0 600 600" xmlns="http://www.w3.org/2000/svg">
	<g transform="translate(-423.49 -32.178)">
		<path d="m423.49 332.18v-300h600v600h-600zm159.59 234.01 0.21783-6.0126h-89.311v-90.75h-12.75v51.25c0 28.188 0.14063 51.391 0.3125 51.562 0.17187 0.17187 23.038 0.23379 50.812 0.1376l50.5-0.17491zm61.682-142.15c2.6961-1.3942 4.4754-4.6543 4.4754-8.2001v-2.6622h-4.875c-3.8333 0-4.875 0.24038-4.875 1.125 0 0.83333 0.875 1.125 3.375 1.125 3.1577 0 3.375 0.12899 3.375 2.0034 0 3.1097-1.9798 4.7466-5.7412 4.7466-5.3507 0-7.5824-3.3911-6.8-10.332 0.73619-6.5314 6.8436-9.1612 10.984-4.7294 2.3639 2.5306 4.5711 2.1396 3.1293-0.55438-1.3785-2.5757-3.9508-3.8838-7.6374-3.8838-5.8876 0-9.6843 4.4302-9.6843 11.3 0 8.4256 7.3798 13.628 14.275 10.062zm86.744-1.4328c3.8803-4.5111 1.5074-9.0777-5.2846-10.17-4.8317-0.77717-6.4838-1.7448-6.4838-3.7976 0-3.8657 6.2806-5.1048 9.3093-1.8367 0.95573 1.0312 2.1209 1.875 2.5892 1.875 1.4645 0 0.93217-2.2375-0.98942-4.1591-1.5155-1.5155-2.5821-1.8409-6.0341-1.8409s-4.5186 0.32539-6.0341 1.8409c-1.912 1.912-2.364 4.7803-1.1196 7.1055 0.82915 1.5493 3.6437 2.7535 7.7831 3.33 3.5512 0.49458 4.9956 1.6262 4.9956 3.914 0 2.2006-2.0055 3.3096-5.9856 3.3096-2.6409 0-3.2678-0.3227-4.3618-2.2453-1.5243-2.6788-3.1526-2.9424-3.1526-0.51048 0 1.7107 2.2753 4.3734 4.5 5.2663 0.61875 0.24834 2.7926 0.33464 4.8309 0.19178 2.9033-0.20349 4.0809-0.69573 5.4375-2.2729zm17.029 1.5262c4.4915-1.8767 5.098-7.9233 1.0484-10.452-0.94654-0.59096-3.4085-1.2858-5.471-1.544-3.4026-0.42603-5.625-1.8497-5.625-3.6033 0-0.33366 0.675-1.2816 1.5-2.1066 2.1879-2.1879 6.2476-2.0003 8.116 0.375 1.4915 1.8961 3.884 2.5536 3.884 1.0673 0-0.44423-0.98654-1.7942-2.1923-3-1.8316-1.8316-2.8022-2.1923-5.8989-2.1923-5.0727 0-7.6588 2.026-7.6588 6 0 3.5231 2.6533 6 6.4273 6 5.4804 0 8.0684 2.4937 5.9474 5.7307-0.92984 1.4191-1.818 1.7693-4.4874 1.7693-3.2618 0-3.865-0.34003-5.9874-3.375-1.3485-1.9284-3.0453-0.5522-2.2824 1.8512 1.2085 3.8076 7.6587 5.5775 12.68 3.4794zm27.971-1.5262c3.8803-4.5111 1.5074-9.0777-5.2846-10.17-4.8317-0.77717-6.4838-1.7448-6.4838-3.7976 0-3.8657 6.2806-5.1048 9.3093-1.8367 0.95573 1.0312 2.1209 1.875 2.5892 1.875 1.4645 0 0.93217-2.2375-0.98942-4.1591-1.5155-1.5155-2.5821-1.8409-6.0341-1.8409s-4.5186 0.32539-6.0341 1.8409c-1.912 1.912-2.364 4.7803-1.1196 7.1055 0.82915 1.5493 3.6437 2.7535 7.7831 3.33 3.5512 0.49458 4.9956 1.6262 4.9956 3.914 0 2.2006-2.0055 3.3096-5.9856 3.3096-2.6409 0-3.2678-0.3227-4.3618-2.2453-1.5243-2.6788-3.1526-2.9424-3.1526-0.51048 0 1.7107 2.2753 4.3734 4.5 5.2663 0.61875 0.24834 2.7926 0.33464 4.8309 0.19178 2.9033-0.20349 4.0809-0.69573 5.4375-2.2729zm76.832 0.60509c2.4623-2.2284 3.1607-3.9817 1.7948-4.5058-0.73251-0.28108-1.7465 0.28394-2.7118 1.5111-1.1861 1.5078-2.2089 1.9601-4.4329 1.9601-4.9615 0-7.755-5.4825-6.0396-11.853 1.5201-5.6453 6.722-7.2057 10.442-3.1324 1.1376 1.2454 2.2998 2.033 2.5827 1.75 1.0139-1.0139 0.48151-2.6166-1.47-4.4253-2.3672-2.1938-7.925-2.5443-10.603-0.66866-5.5521 3.8888-5.7316 14.418-0.32682 19.164 2.3284 2.0444 3.0639 2.2874 5.9412 1.9631 1.8061-0.20357 3.9764-0.9969 4.8229-1.7629zm-241.78 0.27791c-0.19998-0.60478-2.2185-1.0157-5.6875-1.1579l-5.3775-0.22035v-9.7172c0-9.2171-0.0772-9.7171-1.5-9.7171-1.431 0-1.5 0.5-1.5 10.875v10.875h7.1875c5.4153 0 7.1111-0.23115 6.8775-0.9375zm16.685-0.1875c0-0.9-1.125-1.125-5.625-1.125h-5.625v-6.6815l5.0548-0.22176c4.1122-0.18042 5.1014-0.4665 5.305-1.5343 0.21924-1.1499-0.40704-1.3125-5.0547-1.3125h-5.305v-6.6843l5.4296-0.22035c4.4702-0.18142 5.4738-0.45227 5.68-1.5329 0.22441-1.176-0.49605-1.3125-6.9295-1.3125h-7.18v21.75h7.125c5.8333 0 7.125-0.20395 7.125-1.125zm26.363-1.5296 0.95991-2.6546 5.2505 0.2171c5.2151 0.21564 5.2552 0.23353 5.9471 2.6546 0.52331 1.831 1.1209 2.4375 2.4019 2.4375 1.6525 0 1.5723-0.33072-2.5901-10.688-5.7573-14.325-6.0136-14.351-11.268-1.1585-2.1843 5.484-4.1409 10.393-4.3478 10.908-0.22754 0.56682 0.22927 0.9375 1.1554 0.9375 1.073 0 1.8192-0.79504 2.4916-2.6546zm4.2183-10.503 1.9473-4.9081 1.7234 4.7206c0.94784 2.5963 1.729 4.805 1.7358 4.9081 7e-3 0.10312-1.645 0.1875-3.6707 0.1875h-3.6831zm27.734 12.221c-0.19998-0.60478-2.2185-1.0157-5.6875-1.1579l-5.3775-0.22035v-9.7172c0-9.2171-0.0772-9.7171-1.5-9.7171-1.431 0-1.5 0.5-1.5 10.875v10.875h7.1875c5.4153 0 7.1111-0.23115 6.8775-0.9375zm12.935-1.6875 0.86633-2.625h10.267l0.86632 2.625c0.59052 1.7893 1.3254 2.625 2.3082 2.625 0.79301 0 1.4418-0.1674 1.4418-0.37201s-1.8912-5.0984-4.2026-10.875c-3.2114-8.0258-4.5191-10.503-5.5448-10.503-0.7382 0-1.5208 0.42187-1.7392 0.9375-2.9678 7.0091-8.0135 19.728-8.0135 20.199 0 0.33734 0.64883 0.61335 1.4418 0.61335 0.9828 0 1.7176-0.83572 2.3082-2.625zm3.9884-10.124c0.90012-2.4746 1.8053-4.4993 2.0116-4.4993s1.1115 2.0247 2.0116 4.4993l1.6366 4.4993h-7.2963zm55.095 2.0712c-0.18468-9.4766-0.35578-10.706-1.5206-10.93-1.2015-0.23055-1.3125 0.67267-1.3125 10.678 0 10.479 0.0627 10.93 1.5206 10.93 1.466 0 1.5131-0.38337 1.3125-10.678zm31.082 1.1156 0.2099-9.5625 3.5625-0.22859c2.5012-0.1605 3.5625-0.55151 3.5625-1.3125 0-0.88238-1.6037-1.0839-8.625-1.0839-7.0213 0-8.625 0.20153-8.625 1.0839 0 0.75576 1.0487 1.1531 3.464 1.3125l3.464 0.22859-0.12682 9.5625c-0.12117 9.1367-0.0593 9.5625 1.3886 9.5625 1.4303 0 1.5272-0.53692 1.7253-9.5625zm11.412 6.9375c1.0949-2.6205 1.1052-2.625 6-2.625s4.9051 5e-3 6 2.625c0.74602 1.7855 1.5868 2.625 2.629 2.625 1.7505 0 1.9727 0.75062-4.1064-13.875-4.4257-10.648-4.9154-10.534-10.099 2.348-2.2688 5.6378-4.2375 10.538-4.375 10.889s0.4486 0.6382 1.3024 0.6382c1.0653 0 1.8966-0.8237 2.6492-2.625zm2.6733-6.1105c0-0.26702 0.73034-2.4885 1.623-4.9367l1.623-4.4512 1.381 3.6242c2.5331 6.6479 2.6098 6.2492-1.2014 6.2492-1.884 0-3.4255-0.21847-3.4255-0.4855zm18.009 0.298 9e-3 -8.4375 5.4287 8.4362c4.2712 6.6376 5.7884 8.4365 7.1162 8.4375 1.6725 1e-3 1.6875-0.0956 1.6875-10.874 0-10.375-0.069-10.875-1.5-10.875-1.4131 0-1.5018 0.51048-1.5314 8.8125-0.031 8.6994-0.0479 8.7835-1.3125 6.5528-3.9269-6.9265-10.253-15.365-11.519-15.365-1.2861 0-1.3874 0.79414-1.3874 10.875 0 10.375 0.069 10.875 1.5 10.875 1.4106 0 1.5005-0.50295 1.5088-8.4375zm50.991 7.3125c0-0.9-1.125-1.125-5.625-1.125h-5.625v-6.6815l5.0548-0.22176c4.1122-0.18042 5.1014-0.4665 5.305-1.5343 0.21924-1.1499-0.40704-1.3125-5.0547-1.3125h-5.305v-6.6843l5.4296-0.22035c4.517-0.18332 5.4726-0.44582 5.6856-1.5618 0.23345-1.2232-0.36101-1.3224-6.742-1.125l-6.9981 0.21645-0.41618 21.375h7.1456c5.8516 0 7.1456-0.20372 7.1456-1.125zm-284.45-30.58c1.3887-1.3887 2.0122-2.9563 2.2786-5.7287l0.36675-3.8168h-4.9704c-3.9182 0-4.9704 0.23817-4.9704 1.125 0 0.83333 0.875 1.125 3.375 1.125 3.2092 0 3.375 0.10486 3.375 2.1338 0 5.5872-8.947 6.7948-11.648 1.5722-2.2305-4.3134-0.81651-11.602 2.6062-13.434 2.6102-1.397 5.3383-0.88079 7.4838 1.416 2.3639 2.5306 4.5711 2.1396 3.1293-0.55438-2.1985-4.108-9.2906-5.3224-13.186-2.2579-5.6593 4.4516-5.2731 15.761 0.66569 19.496 3.2792 2.0625 8.8802 1.538 11.495-1.0763zm228.75 0.97501c5.9297-3.6155 3.0728-11.27-4.2063-11.27-4.0822 0-6.0861-1.2199-6.0861-3.705 0-1.4492 0.51307-2.5168 1.4507-3.0186 3.0202-1.6163 8.2993-0.42367 8.2993 1.875 0 0.60423 0.675 1.0986 1.5 1.0986 2.0522 0 1.8946-1.9236-0.34091-4.1591-1.5155-1.5155-2.5821-1.8409-6.0341-1.8409s-4.5186 0.32539-6.0341 1.8409c-4.2281 4.2281-1.3287 9.5667 5.6441 10.393 4.7745 0.56547 6.4066 1.854 5.7354 4.5281-0.87041 3.468-7.2932 4.0516-9.997 0.90835-0.90834-1.0559-2.174-1.9199-2.8125-1.9199-1.3796 0-1.4014 0.15164-0.35398 2.4506 1.8901 4.1484 8.683 5.5956 13.235 2.8199zm-220.29-3.3955c0-3.7849 0.13995-4.125 1.6974-4.125 1.1669 0 2.7042 1.2891 4.919 4.125 1.9346 2.477 3.8033 4.125 4.6776 4.125 1.9731 0 1.8666-0.37147-1.169-4.076-2.8684-3.5006-3.1315-4.174-1.6307-4.174 1.3658 0 3.9547-2.9885 4.4879-5.1807 0.65759-2.7035-1.2145-6.4229-3.7645-7.4792-1.2193-0.50504-4.3826-0.8163-7.0298-0.6917l-4.8129 0.22654-0.20809 10.688c-0.20063 10.304-0.15355 10.688 1.3125 10.688 1.3431 0 1.5206-0.48138 1.5206-4.125zm0-10.5v-4.125l3.9375 0.0115c2.1656 6e-3 4.3139 0.25945 4.7739 0.5625 1.609 1.06 1.9575 3.9316 0.70849 5.8377-1.0357 1.5807-1.7801 1.8383-5.3122 1.8383h-4.1077zm29.815 13.688c-0.19998-0.60478-2.2185-1.0157-5.6875-1.1579l-5.3775-0.22035v-6.6158l5.0548-0.22176c4.1122-0.18042 5.1014-0.4665 5.305-1.5343 0.21924-1.1499-0.40704-1.3125-5.0547-1.3125h-5.305v-6.6843l5.4375-0.22035c4.2354-0.17164 5.4375-0.46907 5.4375-1.3454 0-0.90338-1.3667-1.1675-6.9375-1.3406l-6.9375-0.21565v21.806h7.1875c5.4153 0 7.1111-0.23115 6.8775-0.9375zm5.3329-1.6875 0.94922-2.625h10.186l0.69603 2.4375c0.49397 1.7299 1.2093 2.5111 2.4641 2.691 1.235 0.17707 1.65-0.049 1.3766-0.75-6.4849-16.626-8.5284-20.92-9.859-20.718-1.0544 0.16004-2.5219 2.934-5.7675 10.902-4.184 10.272-4.288 10.688-2.6739 10.688 1.2385 0 1.9286-0.68916 2.6286-2.625zm2.3646-5.5776c7e-3 -0.23229 0.79393-2.5631 1.7491-5.1796l1.7366-4.7572 1.6259 4.4592c2.2365 6.1338 2.1948 6.2788-1.7491 6.0746-1.8562-0.0961-3.3694-0.36476-3.3626-0.59706zm23.987-1.3598-9.7e-4 -9.5625h3.1721c2.4451 0 3.2325-0.30654 3.4358-1.3376 0.24253-1.2301-0.41938-1.3205-8.2336-1.125-6.9587 0.17412-8.4973 0.41633-8.4973 1.3376 0 0.81002 0.99743 1.189 3.5625 1.3536l3.5625 0.2286v9.3339c0 8.8339 0.0804 9.3339 1.5 9.3339 1.4216 0 1.5-0.49968 1.499-9.5625zm22.501 8.4375c0-0.89664-1.1037-1.1248-5.4375-1.124l-5.4375 9.7e-4v-6.3769l5.25-0.375c4-0.28571 5.25-0.64286 5.25-1.5s-1.25-1.2143-5.25-1.5l-5.25-0.375v-6.3769l5.4375 9.7e-4c4.9378 8.8e-4 5.4375-0.13687 5.4375-1.499 0-1.3889-0.5-1.5-6.75-1.5h-6.75v21.75h6.75c5.5 0 6.75-0.20833 6.75-1.125zm6-3c0-3.7849 0.13995-4.125 1.6974-4.125 1.1669 0 2.7042 1.2891 4.919 4.125 1.9346 2.477 3.8033 4.125 4.6776 4.125 1.9731 0 1.8666-0.37147-1.169-4.076-2.8684-3.5006-3.1315-4.174-1.6307-4.174 1.2834 0 3.942-2.9082 4.5776-5.0074 0.75699-2.5002-1.3065-6.5971-3.8542-7.6524-1.2193-0.50504-4.3826-0.8163-7.0298-0.6917l-4.8129 0.22654-0.20809 10.688c-0.20063 10.304-0.15355 10.688 1.3125 10.688 1.3431 0 1.5206-0.48138 1.5206-4.125zm0-10.5v-4.125h4.0714c5.8918 0 8.013 2.6542 5.261 6.5831-0.96335 1.3754-1.8815 1.6669-5.25 1.6669h-4.0825zm38.196 12.649c1.9239-2.4458 1.993-5.5661 0.17314-7.8135-1.213-1.498-1.2587-1.9515-0.37537-3.7222 1.317-2.6399 0.13685-6.2102-2.441-7.3847-1.0301-0.46936-4.0508-0.85338-6.7127-0.85338h-4.8397v21.75h6.3206c5.9349 0 6.4154-0.12058 7.875-1.9761zm-11.946-4.0239v-3.75h4.35c4.7981 0 6.15 0.82433 6.15 3.75s-1.3519 3.75-6.15 3.75h-4.35zm0-9.75v-3h4.0332c4.6052 0 6.1494 1.1743 5.4113 4.1153-0.43926 1.7502-0.7933 1.8847-4.9588 1.8847h-4.4857zm18.648 13.125 0.94922-2.625h10.102l0.94921 2.625c0.66291 1.8332 1.4112 2.625 2.4809 2.625 1.1486 0 1.407-0.32823 1.0332-1.3125-5.5068-14.5-8.3469-20.482-9.629-20.281-1.0183 0.15996-2.5558 3.0692-5.7633 10.906-4.171 10.19-4.2976 10.688-2.7228 10.688 1.2068 0 1.9073-0.70701 2.6009-2.625zm2.3646-5.5715c7e-3 -0.23566 0.79287-2.5663 1.7467-5.1792l1.7343-4.7507 1.5554 4.0007c0.85548 2.2004 1.8002 4.61 2.0994 5.3547 0.48694 1.2119 0.14053 1.3356-3.3021 1.1785-2.1154-0.0965-3.8406-0.36831-3.8337-0.60396zm17.988 5.4324c0-2.5723 2.2542-6.2358 3.8369-6.2358 0.31649 0 2.1336 2.025 4.0381 4.5 2.1283 2.7659 4.0238 4.5 4.9188 4.5 0.80089 0 1.4562-0.18677 1.4562-0.41504s-1.8562-2.7415-4.125-5.585-4.125-5.4526-4.125-5.7981c0-0.34549 1.8562-2.4614 4.125-4.7019 4.4667-4.4112 4.8958-5.25 2.6855-5.25-0.84276 0-3.7964 2.5614-7.125 6.1788l-5.6855 6.1788v-6.2338c0-5.5329-0.14757-6.2055-1.3125-5.9819-1.1648 0.22352-1.3359 1.4534-1.5206 10.93-0.20062 10.295-0.1535 10.678 1.3125 10.678 1.2524 0 1.5206-0.48752 1.5206-2.7642zm30.75 1.6392c0-0.9-1.125-1.125-5.625-1.125h-5.625v-6.75h5.25c4.75 0 5.25-0.14286 5.25-1.5s-0.5-1.5-5.25-1.5h-5.25v-6.6843l5.4375-0.22035c4.2354-0.17164 5.4375-0.46907 5.4375-1.3454 0-0.90338-1.3667-1.1675-6.9375-1.3406l-6.9375-0.21565v21.806h7.125c5.8333 0 7.125-0.20395 7.125-1.125zm6-3c0-3.6286 0.18099-4.125 1.5039-4.125 0.93667 0 2.7047 1.5548 4.6875 4.1221 2.2327 2.891 3.7028 4.123 4.9221 4.125l1.7386 3e-3 -1.5394-2.0625c-0.84664-1.1344-2.2478-2.9906-3.1136-4.125-1.3445-1.7615-1.396-2.0625-0.35262-2.0625 0.6719 0 2.05-0.82841 3.0626-1.8409 2.4548-2.4547 2.4711-6.3429 0.0385-9.1709-1.6481-1.916-2.3225-2.1191-7.875-2.3712l-6.0726-0.27577v10.954c0 10.454 0.0685 10.954 1.5 10.954 1.3182 0 1.5-0.5 1.5-4.125zm0-10.5v-4.125h3.975c4.4696 0 5.775 0.86943 5.775 3.8464 0 3.0905-1.8051 4.4036-6.0536 4.4036h-3.6964zm37.5 10.159v-4.4657l5.0548-0.22176c4.1122-0.18042 5.1014-0.4665 5.305-1.5343 0.21924-1.1499-0.40704-1.3125-5.0547-1.3125h-5.305v-6.75h5.1698c3.7433 0 5.2811-0.29019 5.5733-1.0517 0.66004-1.72-0.17393-1.9483-7.1181-1.9483h-6.625v10.875c0 10.375 0.069 10.875 1.5 10.875 1.3321 0 1.5-0.5 1.5-4.4657zm16.5-6.4643c0-10.005-0.11102-10.909-1.3125-10.678-1.1648 0.22352-1.3359 1.4534-1.5206 10.93-0.20062 10.295-0.1535 10.678 1.3125 10.678 1.4579 0 1.5206-0.45066 1.5206-10.93zm18 9.805c0-0.9-1.125-1.125-5.625-1.125h-5.625v-6.75h5.25c4.75 0 5.25-0.14286 5.25-1.5s-0.5-1.5-5.25-1.5h-5.25v-6.6843l5.4296-0.22035c4.517-0.18332 5.4726-0.44582 5.6856-1.5618 0.23345-1.2232-0.36101-1.3224-6.742-1.125l-6.9981 0.21645-0.41618 21.375h7.1456c5.8516 0 7.1456-0.20372 7.1456-1.125zm17.065 0.1875c-0.19998-0.60478-2.2185-1.0157-5.6875-1.1579l-5.3775-0.22035v-9.7172c0-9.2171-0.0772-9.7171-1.5-9.7171-1.431 0-1.5 0.5-1.5 10.875v10.875h7.1875c5.4153 0 7.1111-0.23115 6.8775-0.9375zm15.876-0.66872c3.8407-3.5781 4.765-9.3401 2.3512-14.657-1.9116-4.2104-4.7579-5.6215-10.76-5.3347l-4.6571 0.2225-0.41618 21.375h5.8792c4.9721 0 6.1452-0.24782 7.6032-1.6062zm-10.441-8.8938v-8.25h3.3137c4.3732 0 5.5262 0.51483 6.8391 3.0536 2.0158 3.898 0.90694 11.193-1.9323 12.712-0.75449 0.40379-2.9127 0.73417-4.7961 0.73417h-3.4243zm-252.24-21.06c7.3341-1.0125 15.252-3.5963 23.492-7.6663l6.375-3.1488 0.375-20.285c0.41298-22.34 0.55794-23.038 5.2883-25.484l2.2742-1.176-0.21877 22.857c-0.20892 21.828-0.28931 22.952-1.7862 24.973-2.0541 2.773-4.7133 4.0123-9.7178 4.5288-3.7169 0.38362-4.0897 0.58846-4.0897 2.2472v1.8251l33.188-0.30634c36.051-0.33277 36.646-0.39599 45.415-4.8218 7.2596-3.6641 13.524-11.026 15.194-17.857 0.37821-1.5467 0.57382-0.25731 0.6258 4.125 0.1222 10.304-2.8373 13.977-11.926 14.801-4.1099 0.37267-4.4958 0.55967-4.4958 2.1785v1.7708h105.75v-1.875c0-1.5805-0.35101-1.875-2.2348-1.875-5.4434 0-9.7652-3.3558-9.7652-7.5826 0-0.83159 2.4244-7.0643 5.3876-13.85l5.3876-12.339 44.922 0.39658 4.832 11.115c5.5865 12.851 6.2025 15.406 4.3831 18.183-1.4741 2.2498-5.3455 4.0769-8.6384 4.0769-1.9257 0-2.2741 0.28725-2.2741 1.875v1.875h46.5v-1.875c0-1.5741-0.35325-1.875-2.2012-1.875-2.912 0-6.0135-1.2233-8.208-3.2375-2.5143-2.3076-4.6187-6.8918-28.216-61.464-20.044-46.355-21.084-48.557-22.85-48.37-1.6914 0.17942-3.7309 4.4837-23.725 50.071-12.031 27.431-22.42 50.613-23.086 51.515s-3.482 2.7583-6.2565 4.125l-5.0446 2.4848h-38.239l-0.96584-1.875c-0.76249-1.4803-0.92546-11.277-0.77409-46.534 0.17675-41.167 0.2949-44.816 1.5113-46.672 1.7753-2.7084 5.1413-4.3341 10.015-4.8371 3.6283-0.37447 4.0406-0.59764 4.0406-2.1871v-1.7701h-50.25v1.7701c0 1.5864 0.41351 1.8128 3.9848 2.1813 5.3218 0.54925 9.1026 2.2219 10.769 4.7643 1.2685 1.9349 1.3834 4.5567 1.5385 35.125 0.15661 30.858 0.0899 32.812-1.0124 29.659-0.64903-1.8562-2.4936-5.1288-4.0991-7.2723-4.0339-5.3858-8.5428-8.3648-16.713-11.042-1.0961-0.35918-0.40902-0.95966 3.1104-2.7184 5.2152-2.6061 10.101-7.5542 12.426-12.586 1.2811-2.772 1.6207-4.9211 1.6207-10.257 0-5.8749-0.27229-7.3045-2.1003-11.027-3.816-7.7709-12.433-13.826-23.968-16.842-3.7772-0.98764-9.9354-1.288-31.869-1.5542-22.779-0.27653-27.188-0.50205-27.188-1.3908 0-0.60428-0.73612-1.0607-1.7106-1.0607-1.3298 0-1.9559 0.69411-2.8125 3.1177-1.7853 5.0515-2.4174 5.1258-13.261 1.5588-12.58-4.1384-18.029-4.9833-28.68-4.448-14.672 0.73734-26.752 5.3195-38.084 14.445-14.609 11.765-22.722 28.458-22.691 46.688 0.0332 19.526 10.717 36.473 29.677 47.076 12.879 7.2023 32.966 10.251 51.07 7.7521zm-24.357-7.4062c-8.264-2.2412-14.057-5.6428-20.453-12.009-6.3797-6.3503-9.3744-11.143-12.435-19.9-1.9643-5.6198-2.0985-6.784-2.1177-18.375-0.0233-14.073 0.81879-18.374 5.4337-27.75 3.6735-7.4634 12.051-16.048 18.921-19.39 22.587-10.986 51.55-0.7497 59.634 21.077 1.0668 2.8802 1.6608 3.5625 3.1015 3.5625 1.6269 0 1.7488-0.24479 1.4011-2.8125-0.51843-3.8286-1.8869-21.471-1.8869-24.326 0-2.2331 0.0874-2.2931 2.718-1.8662 2.8217 0.4579 5.0485 2.0318 6.539 4.6218 0.57138 0.9929 0.99619 8.4932 1.243 21.947l0.375 20.438-41.625-0.0018v1.7705c0 1.56 0.43591 1.8222 3.6656 2.2047 5.4564 0.64623 8.796 2.3099 10.344 5.1532 1.2074 2.2173 1.3598 4.5509 1.3623 20.861l3e-3 18.364-3.8584 2.3086c-5.8713 3.5129-11.064 4.9279-19.392 5.2846-5.8879 0.2522-8.6765 2e-3 -12.974-1.1633zm83.661-1.6474-2.8125-0.78545v-45.572l1.9645-0.49306c3.1015-0.77842 13.899 0.31682 19.169 1.9443 12.068 3.7274 18.109 11.554 17.998 23.317-0.0619 6.5798-2.2046 11.658-6.6468 15.753-5.4027 4.9801-9.0236 6.2336-18.609 6.4425-4.5375 0.0989-9.5156-0.17369-11.062-0.60568zm148.69-37.266c0-0.6217 17.335-40.329 18.515-42.41 0.41405-0.73019 3.6239 5.8094 9.9852 20.343 5.1562 11.781 9.4875 21.707 9.625 22.057 0.1375 0.35086-8.3844 0.63792-18.938 0.63792-10.553 0-19.188-0.2831-19.188-0.62912zm-147.56-16.724-3.9375-0.76118v-43.251l6.2858-0.5236c17.544-1.4614 29.203 7.651 29.286 22.889 0.0359 6.5485-1.5692 10.805-5.869 15.565-5.1475 5.6977-15.326 8.1003-25.766 6.0821zm272.2-154.21c0.13222-27.122 0.11771-50.241-0.0322-51.375l-0.27266-2.0625h-101.83v11.988l89.625 0.3868 0.18389 45c0.10113 24.75 0.18551 45.084 0.1875 45.188 2e-3 0.10312 2.6798 0.1875 5.9507 0.1875h5.9471z" fill="#fefefe"/>
		<path d="m741.35 424.67c0.5414-0.21665 1.1883-0.19 1.4375 0.0592 0.24922 0.24922-0.19375 0.42649-0.98438 0.39392-0.8737-0.036-1.0514-0.21371-0.45312-0.45313zm-127.19-10.925-0.1652-11.062h7.18c6.4335 0 7.154 0.13646 6.9295 1.3125-0.21077 1.1046-1.1403 1.3215-5.8675 1.3693l-5.617 0.0568 5.4375-0.27713c7.5646-0.38553 6.8542-1.7114-0.9169-1.7114h-6.3544l-0.2304 10.688-0.23039 10.688zm13.394 9.5c0.036-0.87371 0.21371-1.0514 0.45313-0.45313 0.21665 0.54141 0.19001 1.1883-0.0592 1.4375-0.24922 0.24921-0.42648-0.19375-0.39392-0.98438zm45.237-8.9375c1e-3 -5.775 0.1189-8.0384 0.26163-5.0297 0.14272 3.0087 0.14176 7.7337-2e-3 10.5-0.1439 2.7663-0.26067 0.30469-0.2595-5.4703zm85.368-0.13251c-0.14501-9.414-0.3142-10.672-1.4763-10.976-1.2301-0.32145-1.2286-0.34845 0.0235-0.42999 0.73482-0.0478 1.5045 0.3519 1.7103 0.88834 0.20585 0.53643 0.26896 5.5146 0.14024 11.062l-0.23403 10.087zm28.625 1.2575c0-5.1562 0.11983-7.2656 0.26628-4.6875 0.14645 2.5781 0.14645 6.7969 0 9.375-0.14645 2.5781-0.26628 0.46875-0.26628-4.6875zm32.126-1.6875c-0.1569-10.507-0.0921-11.062 1.2905-11.062 0.80066 0 1.6449 0.30603 1.876 0.68006 0.23116 0.37403-0.24568 0.5059-1.0596 0.29304-1.4149-0.37001-1.4901 0.0861-1.7108 10.382l-0.23089 10.769zm16.335 0.24249c0-9.317-0.14174-10.482-1.3125-10.788-0.98768-0.2581-0.89487-0.36452 0.375-0.42999 1.6764-0.0864 1.6875-0.0156 1.6875 10.788 0 5.9812-0.16875 10.875-0.375 10.875s-0.375-4.7002-0.375-10.445zm23.594-0.42999 0.0309-10.5 6.9981-0.21645c6.381-0.19736 6.9755-0.0982 6.742 1.125-0.21759 1.1401-1.0992 1.35-5.8731 1.3982l-5.617 0.0568 5.4375-0.27713c7.5646-0.38553 6.8542-1.7114-0.9169-1.7114h-6.3544l-0.23898 10.312-0.23897 10.312zm13.215 9.6875c0.036-0.87371 0.21371-1.0514 0.45313-0.45313 0.21665 0.54141 0.19001 1.1883-0.0592 1.4375-0.24922 0.24921-0.42648-0.19375-0.39392-0.98438zm-238.65-0.875c-0.93291-1.1895-0.90638-1.2161 0.28316-0.28317 1.2493 0.97978 1.6466 1.5957 1.0293 1.5957-0.15574 0-0.74637-0.59063-1.3125-1.3125zm12.096 1.0293c0-0.15574 0.59063-0.74636 1.3125-1.3125 1.1896-0.9329 1.2161-0.90637 0.28317 0.28317-0.97978 1.2493-1.5957 1.6466-1.5957 1.0293zm91.404-1.0293c-0.93291-1.1895-0.90638-1.2161 0.28316-0.28317 1.2493 0.97978 1.6466 1.5957 1.0293 1.5957-0.15574 0-0.74637-0.59063-1.3125-1.3125zm-97.967 0.0455c0.72188-0.18865 1.9031-0.18865 2.625 0 0.72188 0.18864 0.13125 0.34299-1.3125 0.34299s-2.0344-0.15435-1.3125-0.34299zm84.75 0c0.72188-0.18865 1.9031-0.18865 2.625 0 0.72188 0.18864 0.13125 0.34299-1.3125 0.34299s-2.0344-0.15435-1.3125-0.34299zm18.75 0c0.72188-0.18865 1.9031-0.18865 2.625 0 0.72188 0.18864 0.13125 0.34299-1.3125 0.34299s-2.0344-0.15435-1.3125-0.34299zm26.25 0c0.72188-0.18865 1.9031-0.18865 2.625 0 0.72188 0.18864 0.13125 0.34299-1.3125 0.34299s-2.0344-0.15435-1.3125-0.34299zm78 0c0.72188-0.18865 1.9031-0.18865 2.625 0 0.72188 0.18864 0.13125 0.34299-1.3125 0.34299s-2.0344-0.15435-1.3125-0.34299zm-246.65-9.233c0-5.1562 0.11983-7.2656 0.26628-4.6875 0.14645 2.5781 0.14645 6.7969 0 9.375-0.14645 2.5781-0.26628 0.46875-0.26628-4.6875zm243.37 7.6875c-0.93291-1.1895-0.90638-1.2161 0.28316-0.28317 0.72188 0.56614 1.3125 1.1568 1.3125 1.3125 0 0.61728-0.61589 0.21998-1.5957-1.0293zm7.5957 1.0293c0-0.15574 0.59063-0.74636 1.3125-1.3125 1.1896-0.9329 1.2161-0.90637 0.28317 0.28317-0.97978 1.2493-1.5957 1.6466-1.5957 1.0293zm-190.12-2.7168-5.25-0.48512 5.0182-0.13244c2.76-0.0728 5.2268 0.20506 5.4818 0.61756s0.35924 0.6904 0.23177 0.61756c-0.12747-0.0728-2.5943-0.35074-5.4818-0.61756zm141.12-0.1875c0.19121-0.30938 2.5016-0.5625 5.1341-0.5625s4.9429 0.25312 5.1341 0.5625c0.19121 0.30938-2.1192 0.5625-5.1341 0.5625s-5.3253-0.25312-5.1341-0.5625zm-155.59-1.6875c0.0153-1.2375 0.18338-1.653 0.37354-0.92323 0.19015 0.72973 0.17765 1.7422-0.0278 2.25-0.20545 0.50778-0.36103-0.0893-0.34575-1.3268zm2.3081-1.125c0-1.8562 0.14626-2.6156 0.32502-1.6875 0.17877 0.92813 0.17877 2.4469 0 3.375-0.17876 0.92812-0.32502 0.16875-0.32502-1.6875zm53.592 2.4587c1.3314-0.16568 3.6939-0.16841 5.25-6e-3 1.5561 0.16236 0.46672 0.29792-2.4208 0.30124-2.8875 3e-3 -4.1606-0.12951-2.8292-0.29519zm34.704-0.2087c-0.67597-0.43684-0.76847-0.73161-0.23176-0.73852 0.49128-6e-3 1.1018 0.32602 1.3568 0.73852 0.57548 0.93114 0.31585 0.93114-1.125 0zm-19.641-0.51234c0.5414-0.21665 1.1883-0.19 1.4375 0.0592 0.24922 0.24922-0.19375 0.42649-0.98438 0.39392-0.8737-0.036-1.0514-0.21371-0.45312-0.45313zm45 0c0.5414-0.21665 1.1883-0.19 1.4375 0.0592 0.24922 0.24922-0.19375 0.42649-0.98438 0.39392-0.8737-0.036-1.0514-0.21371-0.45312-0.45313zm-104.86-1.41c2.676-0.59068 7.5-0.69359 7.5-0.16 0 0.32028-1.9406 0.54317-4.3125 0.49532-2.3719-0.0478-3.8062-0.19875-3.1875-0.33532zm45.938-0.11487c1.1344-0.17184 2.9906-0.17184 4.125 0 1.1344 0.17184 0.20625 0.31244-2.0625 0.31244s-3.1969-0.1406-2.0625-0.31244zm99.562-0.0253c0-0.30938 1.8562-0.5625 4.125-0.5625s4.125 0.25312 4.125 0.5625-1.8562 0.5625-4.125 0.5625-4.125-0.25312-4.125-0.5625zm-183.95-1.4788c1.3314-0.16568 3.6939-0.16841 5.25-6e-3 1.5561 0.16236 0.46672 0.29792-2.4208 0.30124-2.8875 3e-3 -4.1606-0.12951-2.8292-0.29519zm13.85-1.3337c0.0153-1.2375 0.18338-1.653 0.37354-0.92323 0.19015 0.72973 0.17765 1.7422-0.0278 2.25-0.20545 0.50778-0.36103-0.0893-0.34575-1.3268zm98.008 0.5625c-0.93291-1.1895-0.90638-1.2161 0.28316-0.28317 0.72188 0.56614 1.3125 1.1568 1.3125 1.3125 0 0.61728-0.61589 0.21998-1.5957-1.0293zm45 0c-0.93291-1.1895-0.90638-1.2161 0.28316-0.28317 1.2493 0.97978 1.6466 1.5957 1.0293 1.5957-0.15574 0-0.74637-0.59063-1.3125-1.3125zm62.464-0.1875c0-1.0312 0.17023-1.4531 0.37829-0.9375 0.20806 0.51562 0.20806 1.3594 0 1.875-0.20806 0.51562-0.37829 0.0937-0.37829-0.9375zm25.177 0.9587c1.3314-0.16568 3.6939-0.16841 5.25-6e-3 1.5561 0.16236 0.46672 0.29792-2.4208 0.30124-2.8875 3e-3 -4.1606-0.12951-2.8292-0.29519zm-116.94-2.221c0.5414-0.21665 1.1883-0.19 1.4375 0.0592 0.24922 0.24922-0.19375 0.42649-0.98438 0.39392-0.8737-0.036-1.0514-0.21371-0.45312-0.45313zm-5.25-0.75c0.5414-0.21665 1.1883-0.19 1.4375 0.0592 0.24922 0.24922-0.19375 0.42649-0.98438 0.39392-0.8737-0.036-1.0514-0.21371-0.45312-0.45313zm-24.435-3.2377c0-1.4438 0.15434-2.0344 0.34299-1.3125 0.18864 0.72187 0.18864 1.9031 0 2.625-0.18865 0.72187-0.34299 0.13125-0.34299-1.3125zm45 0c0-1.4438 0.15434-2.0344 0.34299-1.3125 0.18864 0.72187 0.18864 1.9031 0 2.625-0.18865 0.72187-0.34299 0.13125-0.34299-1.3125zm-14.52-2.8125c-0.93291-1.1895-0.90638-1.2161 0.28316-0.28317 1.2493 0.97978 1.6466 1.5957 1.0293 1.5957-0.15574 0-0.74637-0.59063-1.3125-1.3125zm94.221-0.9375c0.74662-0.825 1.5262-1.5 1.7325-1.5s-0.23586 0.675-0.98248 1.5c-0.74661 0.825-1.5262 1.5-1.7325 1.5s0.23587-0.675 0.98248-1.5zm-124.12 0.46683c0-0.15574 0.59063-0.74636 1.3125-1.3125 1.1896-0.9329 1.2161-0.90637 0.28317 0.28317-0.97978 1.2493-1.5957 1.6466-1.5957 1.0293zm12.654-1.0293c-0.93291-1.1895-0.90638-1.2161 0.28316-0.28317 0.72188 0.56614 1.3125 1.1568 1.3125 1.3125 0 0.61728-0.61589 0.21998-1.5957-1.0293zm32.346 1.0293c0-0.15574 0.59063-0.74636 1.3125-1.3125 1.1896-0.9329 1.2161-0.90637 0.28317 0.28317-0.97978 1.2493-1.5957 1.6466-1.5957 1.0293zm12.654-1.0293c-0.93291-1.1895-0.90638-1.2161 0.28316-0.28317 0.72188 0.56614 1.3125 1.1568 1.3125 1.3125 0 0.61728-0.61589 0.21998-1.5957-1.0293zm21.096-0.16294c0-0.41008-3.6679-0.82944-8.4375-0.96468l-8.4375-0.23925 8.8125-0.16031c7.4046-0.13471 8.8125 0.0194 8.8125 0.96468 0 0.61875-0.16875 1.125-0.375 1.125s-0.375-0.32645-0.375-0.72544zm-198.19-1.2713c0.51563-0.20806 1.3594-0.20806 1.875 0 0.51563 0.20806 0.0937 0.37829-0.9375 0.37829-1.0312 0-1.4531-0.17023-0.9375-0.37829zm75 0c0.51563-0.20806 1.3594-0.20806 1.875 0 0.51563 0.20806 0.0937 0.37829-0.9375 0.37829-1.0312 0-1.4531-0.17023-0.9375-0.37829zm-78.968-19.378 0.0309-10.5 10.5-0.0984-10.084 0.53829-0.23877 10.28-0.23878 10.28zm63.7 1.125c0-5.5688 0.11807-7.8469 0.26238-5.0625 0.1443 2.7844 0.1443 7.3406 0 10.125-0.14431 2.7844-0.26238 0.50625-0.26238-5.0625zm26.3-1.125 0.0309-10.5 10.5-0.0984-10.084 0.53829-0.23877 10.28-0.23878 10.28zm65.25 9e-3c0.0258-8.7739 0.21498-10.504 1.1559-10.572 0.61875-0.0449 0.71225 0.0583 0.20778 0.22922-0.64695 0.21922-0.98754 3.3344-1.1559 10.572l-0.23866 10.261zm19.321 0.14999-0.1652-11.091 6.9375 0.21565c5.5708 0.17316 6.9375 0.43726 6.9375 1.3406 0 0.89495-1.1502 1.1366-5.625 1.1818l-5.625 0.0568 5.4375-0.27713c7.5646-0.38553 6.8542-1.7114-0.9169-1.7114h-6.3544l-0.2304 10.688-0.23039 10.688zm13.394 9.5281c0.036-0.87371 0.21371-1.0514 0.45313-0.45313 0.21665 0.54141 0.19001 1.1883-0.0592 1.4375-0.24922 0.24922-0.42648-0.19375-0.39392-0.98437zm6.1732-2.9375c4e-3 -2.475 0.14422-3.3971 0.31114-2.0491s0.16348 3.373-8e-3 4.5c-0.17113 1.127-0.3077 0.0241-0.30349-2.4509zm37.589-0.75 0.0535-4.5 5.0625-0.22177c2.7844-0.12197 5.0625-0.52842 5.0625-0.90323s-2.2781-0.78126-5.0625-0.90323l-5.0625-0.22177v-7.5l11.25-0.1136-10.875 0.55425v6.6843h5.305c4.6477 0 5.274 0.16262 5.0547 1.3125-0.20336 1.0666-1.1907 1.3539-5.2701 1.5335l-5.0198 0.22097-0.27595 4.279-0.27596 4.279zm14.273-5.9906c0.0258-8.7739 0.21498-10.504 1.1559-10.572 0.61875-0.0449 0.71225 0.0583 0.20778 0.22922-0.64695 0.21922-0.98754 3.3344-1.1559 10.572l-0.23866 10.261zm6.75-9e-3 0.0309-10.5 6.9981-0.21645c6.381-0.19736 6.9755-0.0982 6.742 1.125-0.21759 1.1401-1.0992 1.35-5.8731 1.3982l-5.617 0.0568 5.4375-0.27713c7.5646-0.38553 6.8542-1.7114-0.9169-1.7114h-6.3544l-0.23898 10.312-0.23897 10.312zm13.215 9.6875c0.036-0.87371 0.21371-1.0514 0.45313-0.45313 0.21665 0.54141 0.19001 1.1883-0.0592 1.4375-0.24922 0.24922-0.42648-0.19375-0.39392-0.98437zm3.9867-8.9375c1e-3 -5.775 0.1189-8.0384 0.26163-5.0297 0.14272 3.0087 0.14176 7.7337-2e-3 10.5-0.1439 2.7663-0.26067 0.30469-0.2595-5.4703zm16.548-0.75 0.0309-10.5 9.75-0.1026-9.3342 0.54519-0.47754 20.557zm-305.69 8.8125c-0.93291-1.1895-0.90638-1.2161 0.28316-0.28317 1.2493 0.97978 1.6466 1.5957 1.0293 1.5957-0.15574 0-0.74637-0.59063-1.3125-1.3125zm234.71 0.0502c0.5414-0.21665 1.1883-0.19 1.4375 0.0592 0.24922 0.24922-0.19375 0.42649-0.98438 0.39392-0.8737-0.036-1.0514-0.21371-0.45312-0.45313zm3 0c0.5414-0.21665 1.1883-0.19 1.4375 0.0592 0.24922 0.24922-0.19375 0.42649-0.98438 0.39392-0.8737-0.036-1.0514-0.21371-0.45312-0.45313zm72.338-0.0258c1.14-0.17239 2.8275-0.16778 3.75 0.0102 0.92245 0.17802-0.0103 0.31907-2.0728 0.31344-2.0625-6e-3 -2.8172-0.15129-1.6772-0.32368zm-299.45-0.49498c0-0.15574 0.59063-0.74636 1.3125-1.3125 1.1896-0.9329 1.2161-0.90637 0.28317 0.28317-0.97978 1.2493-1.5957 1.6466-1.5957 1.0293zm29.564-3.4668 0.0613-3.375 10.5-0.1196-10.046 0.56139-0.2885 3.1541-0.28849 3.1541zm191.59 2.4375c-0.93291-1.1895-0.90638-1.2161 0.28316-0.28317 0.72188 0.56614 1.3125 1.1568 1.3125 1.3125 0 0.61728-0.61589 0.21998-1.5957-1.0293zm-136.97-2.0625c8e-3 -1.65 0.16191-2.2367 0.34131-1.3038 0.17939 0.93294 0.17258 2.2829-0.0151 3-0.18772 0.71707-0.33449-0.0462-0.32617-1.6962zm56.12 0.6875c0.036-0.87371 0.21371-1.0514 0.45313-0.45313 0.21665 0.54141 0.19001 1.1883-0.0592 1.4375-0.24922 0.24922-0.42648-0.19375-0.39392-0.98437zm93.865-1.0625c0-1.4438 0.15434-2.0344 0.34299-1.3125 0.18864 0.72187 0.18864 1.9031 0 2.625-0.18865 0.72187-0.34299 0.13125-0.34299-1.3125zm-127.77 0.1875c-0.93291-1.1895-0.90638-1.2161 0.28316-0.28317 1.2493 0.97978 1.6466 1.5957 1.0293 1.5957-0.15574 0-0.74637-0.59063-1.3125-1.3125zm-104.01-1.3126c0.0153-1.2375 0.18338-1.653 0.37354-0.92323 0.19015 0.72973 0.17765 1.7422-0.0278 2.25-0.20545 0.50778-0.36103-0.0893-0.34575-1.3268zm2.3081-1.125c0-1.8562 0.14626-2.6156 0.32502-1.6875 0.17877 0.92813 0.17877 2.4469 0 3.375-0.17876 0.92813-0.32502 0.16875-0.32502-1.6875zm-18.145-0.4375c0.036-0.87371 0.21371-1.0514 0.45313-0.45313 0.21665 0.54141 0.19001 1.1883-0.0592 1.4375-0.24922 0.24922-0.42648-0.19375-0.39392-0.98437zm182.37 0.0536c1.092-1.192 1.4623-1.2597 2.25-0.4114 0.75927 0.81769 0.75392 0.90838-0.0275 0.46579-0.53369-0.30228-1.5462-0.11715-2.25 0.4114-1.1521 0.86521-1.1494 0.81879 0.0275-0.46579zm4.9722-0.17857c-0.93291-1.1895-0.90638-1.2161 0.28316-0.28317 1.2493 0.97978 1.6466 1.5957 1.0293 1.5957-0.15574 0-0.74637-0.59063-1.3125-1.3125zm137.55-1.6875c0-1.8562 0.14626-2.6156 0.32502-1.6875 0.17877 0.92813 0.17877 2.4469 0 3.375-0.17876 0.92813-0.32502 0.16875-0.32502-1.6875zm-222.39 0.96141c2.9906-0.15242 5.4375-0.58442 5.4375-0.96s-2.1951-0.8077-4.878-0.96027l-4.878-0.2774 5.0655 0.0556c3.9779 0.0437 5.0655 0.29717 5.0655 1.1806 0 0.89495-1.1502 1.1366-5.625 1.1818l-5.625 0.0568zm49.592-0.77391c-0.93291-1.1895-0.90638-1.2161 0.28316-0.28317 0.72188 0.56614 1.3125 1.1568 1.3125 1.3125 0 0.61728-0.61589 0.21998-1.5957-1.0293zm49.783 0.76615c1.5469-0.16181 4.0781-0.16181 5.625 0 1.5469 0.16181 0.28125 0.2942-2.8125 0.2942s-4.3594-0.13239-2.8125-0.2942zm24.562 0.26318c0-0.15574 0.59063-0.74636 1.3125-1.3125 1.1896-0.9329 1.2161-0.90637 0.28317 0.28317-0.97978 1.2493-1.5957 1.6466-1.5957 1.0293zm14.859-0.22917c0.5414-0.21665 1.1883-0.19 1.4375 0.0592 0.24922 0.24922-0.19375 0.42649-0.98438 0.39392-0.8737-0.036-1.0514-0.21371-0.45312-0.45313zm38.578-0.034c1.5469-0.16181 4.0781-0.16181 5.625 0 1.5469 0.16181 0.28125 0.2942-2.8125 0.2942s-4.3594-0.13239-2.8125-0.2942zm-277.63-1.3912c0.036-0.87371 0.21371-1.0514 0.45313-0.45313 0.21665 0.54141 0.19001 1.1883-0.0592 1.4375-0.24922 0.24922-0.42648-0.19375-0.39392-0.98437zm141.14 0.64931c1.14-0.17239 2.8275-0.16778 3.75 0.0102 0.92245 0.17802-0.0103 0.31907-2.0728 0.31344-2.0625-6e-3 -2.8172-0.15129-1.6772-0.32368zm72.694-4.5243-0.14182-4.6875 8.625 0.27747-7.8024 0.5484-0.26949 4.2746-0.26948 4.2746zm-173.09 2.5164c-0.22079-0.57537-0.29457-2.3472-0.16396-3.9375l0.23747-2.8914 5.4375-0.22036c2.9906-0.12119 5.4375-0.5304 5.4375-0.90935s-3.1219-0.80726-6.9375-0.95179l-6.9375-0.26278 7.125 0.0471c5.8124 0.0385 7.125 0.2544 7.125 1.1721 0 0.87629-1.2021 1.1737-5.4375 1.3454l-5.4375 0.22035v6.6186l10.875 0.51766-5.461 0.14903c-4.0841 0.11145-5.5622-0.11475-5.8625-0.89711zm158.89 0.49978c1.5469-0.16181 4.0781-0.16181 5.625 0 1.5469 0.16181 0.28125 0.2942-2.8125 0.2942s-4.3594-0.13239-2.8125-0.2942zm40.172 0.034c0.5414-0.21665 1.1883-0.19 1.4375 0.0592 0.24922 0.24922-0.19375 0.42649-0.98438 0.39392-0.8737-0.036-1.0514-0.21371-0.45312-0.45313zm37.828-0.034c1.5469-0.16181 4.0781-0.16181 5.625 0 1.5469 0.16181 0.28125 0.2942-2.8125 0.2942s-4.3594-0.13239-2.8125-0.2942zm-279.88-1.3912c0.036-0.87371 0.21371-1.0514 0.45313-0.45313 0.21665 0.54141 0.19001 1.1883-0.0592 1.4375-0.24922 0.24922-0.42648-0.19375-0.39392-0.98437zm143.02 0.64395c1.348-0.16692 3.373-0.16348 4.5 8e-3 1.127 0.17113 0.0241 0.3077-2.4509 0.30349-2.475-4e-3 -3.3971-0.14423-2.0491-0.31115zm-45.387-2.8314c8e-3 -1.65 0.16191-2.2367 0.34131-1.3038 0.17939 0.93294 0.17258 2.2829-0.0151 3-0.18772 0.71707-0.33449-0.0462-0.32617-1.6962zm29.87 0.6875c0.036-0.87371 0.21371-1.0514 0.45313-0.45313 0.21665 0.54141 0.19001 1.1883-0.0592 1.4375-0.24922 0.24922-0.42648-0.19375-0.39392-0.98437zm57.316-0.3125c0.74662-0.825 1.5262-1.5 1.7325-1.5s-0.23586 0.675-0.98248 1.5c-0.74661 0.825-1.5262 1.5-1.7325 1.5s0.23587-0.675 0.98248-1.5zm41.684 0.3125c0.036-0.87371 0.21371-1.0514 0.45313-0.45313 0.21665 0.54141 0.19001 1.1883-0.0592 1.4375-0.24922 0.24922-0.42648-0.19375-0.39392-0.98437zm7.5-0.75c0.036-0.87371 0.21371-1.0514 0.45313-0.45313 0.21665 0.54141 0.19001 1.1883-0.0592 1.4375-0.24922 0.24922-0.42648-0.19375-0.39392-0.98437zm-42.548-3.0558c1.9312-2.1407 2.0033-2.4026 0.75-2.7255-1.1345-0.29232-1.0798-0.37305 0.30101-0.44424 2.3124-0.11922 2.1186 0.74277-0.75 3.3352l-2.4375 2.2028zm-188.51-0.63174c0.96881-1.0312 1.9302-1.875 2.1365-1.875s-0.41766 0.84375-1.3865 1.875-1.9302 1.875-2.1365 1.875 0.41766-0.84375 1.3865-1.875zm318.65-0.1875c-0.93291-1.1895-0.90638-1.2161 0.28316-0.28317 0.72188 0.56614 1.3125 1.1568 1.3125 1.3125 0 0.61728-0.61589 0.21998-1.5957-1.0293zm-295.22 0.0253c1.1344-0.17184 2.9906-0.17184 4.125 0 1.1344 0.17184 0.20625 0.31244-2.0625 0.31244s-3.1969-0.1406-2.0625-0.31244zm49.647-0.27816c-1.0696-1.7306 1.206-2.2294 9.1045-1.9956l8.1859 0.24234-8.4375 0.15928c-8.483 0.16015-11.556 1.3312-4.875 1.858l3.5625 0.28091-3.5182 0.13518c-1.935 0.0744-3.745-0.23172-4.0222-0.68016zm12.237 0.2849c0.93293-0.17939 2.2829-0.17258 3 0.0151 0.71706 0.18772-0.0462 0.3345-1.6962 0.32617-1.65-8e-3 -2.2367-0.16191-1.3038-0.34131zm12.011-0.0197c1.764-0.15844 4.464-0.15621 6 5e-3 1.536 0.16116 0.0927 0.29079-3.2073 0.28806-3.3-3e-3 -4.5567-0.13458-2.7927-0.29301zm16.105 0.0129c1.1344-0.17184 2.9906-0.17184 4.125 0 1.1344 0.17184 0.20625 0.31244-2.0625 0.31244s-3.1969-0.1406-2.0625-0.31244zm26.25 0c1.1344-0.17184 2.9906-0.17184 4.125 0 1.1344 0.17184 0.20625 0.31244-2.0625 0.31244s-3.1969-0.1406-2.0625-0.31244zm89.812 0.25402c0-0.15574 0.59063-0.74636 1.3125-1.3125 1.1896-0.9329 1.2161-0.90637 0.28317 0.28317-0.97978 1.2493-1.5957 1.6466-1.5957 1.0293zm12.654-1.0293c-0.93291-1.1895-0.90638-1.2161 0.28316-0.28317 0.72188 0.56614 1.3125 1.1568 1.3125 1.3125 0 0.61728-0.61589 0.21998-1.5957-1.0293zm67.408 0.7832c0.92813-0.17876 2.4469-0.17876 3.375 0 0.92813 0.17876 0.16875 0.32503-1.6875 0.32503s-2.6156-0.14627-1.6875-0.32503zm-54.562-1.7207-7.125-0.46288 6.8932-0.14356c3.9496-0.0823 7.0912 0.17671 7.3568 0.60644 0.25494 0.4125 0.35924 0.6854 0.23177 0.60644-0.12747-0.079-3.438-0.35186-7.3568-0.60644zm-159.56-0.55128c1.9594-0.1545 5.1656-0.1545 7.125 0 1.9594 0.1545 0.35625 0.28091-3.5625 0.28091s-5.5219-0.12641-3.5625-0.28091zm42.75 5e-3c1.5469-0.16181 4.0781-0.16181 5.625 0 1.5469 0.16181 0.28125 0.2942-2.8125 0.2942s-4.3594-0.13239-2.8125-0.2942zm75 0c1.5469-0.16181 4.0781-0.16181 5.625 0 1.5469 0.16181 0.28125 0.2942-2.8125 0.2942s-4.3594-0.13239-2.8125-0.2942zm76.125 0.0496c0.51563-0.20806 1.3594-0.20806 1.875 0 0.51563 0.20806 0.0937 0.37829-0.9375 0.37829-1.0312 0-1.4531-0.17023-0.9375-0.37829zm-255.7-9.7656c0.5414-0.21665 1.1883-0.19 1.4375 0.0592 0.24922 0.24922-0.19375 0.42649-0.98438 0.39392-0.8737-0.036-1.0514-0.21371-0.45312-0.45313zm103.45-2.2344c0.51563-0.20806 1.3594-0.20806 1.875 0 0.51563 0.20806 0.0937 0.37829-0.9375 0.37829-1.0312 0-1.4531-0.17023-0.9375-0.37829zm-13.875-6.0203c0.72188-0.18865 1.9031-0.18865 2.625 0 0.72188 0.18864 0.13125 0.34299-1.3125 0.34299s-2.0344-0.15435-1.3125-0.34299zm-11.079-24.546c0.0146-19.965 0.17332-23.23 1.142-23.495 0.82127-0.224 0.87492-0.12948 0.19872 0.35009-0.69201 0.49078-0.98082 6.4327-1.142 23.495l-0.21569 22.838zm52.142 20.188c0.96881-1.0312 1.9302-1.875 2.1365-1.875s-0.41766 0.84375-1.3865 1.875-1.9302 1.875-2.1365 1.875 0.41766-0.84375 1.3865-1.875zm-174.06-6.1875-1.8182-2.0625 2.0625 1.8182c1.9277 1.6994 2.4064 2.3068 1.8182 2.3068-0.13435 0-1.0625-0.92813-2.0625-2.0625zm20.25-0.75-1.8182-2.0625 2.0625 1.8182c1.9277 1.6994 2.4064 2.3068 1.8182 2.3068-0.13435 0-1.0625-0.92813-2.0625-2.0625zm83.635-18.562c-4e-4 -11.138 0.10398-15.798 0.23195-10.357s0.1283 14.553 7.3e-4 20.25-0.23228 1.2448-0.23268-9.8927zm57.481 8.1875c0.036-0.87371 0.21371-1.0514 0.45313-0.45313 0.21665 0.54141 0.19001 1.1883-0.0592 1.4375-0.24922 0.24922-0.42648-0.19375-0.39392-0.98437zm0-3.75c0.036-0.87371 0.21371-1.0514 0.45313-0.45313 0.21665 0.54141 0.19001 1.1883-0.0592 1.4375-0.24922 0.24922-0.42648-0.19375-0.39392-0.98437zm-84-15c0.036-0.87371 0.21371-1.0514 0.45313-0.45313 0.21665 0.54141 0.19001 1.1883-0.0592 1.4375-0.24922 0.24922-0.42648-0.19375-0.39392-0.98437zm-71.87-9.6875c8e-3 -1.65 0.16191-2.2367 0.34131-1.3038 0.17939 0.93294 0.17258 2.2829-0.0151 3-0.18772 0.71707-0.33449-0.0462-0.32617-1.6962zm98.383-22.125c0-9.6938 0.10689-13.659 0.23753-8.8125s0.13064 12.778 0 17.625-0.23753 0.88125-0.23753-8.8125zm18.008-4.875c3.6e-4 -11.962 0.10391-16.751 0.23012-10.642s0.12592 15.897-6.5e-4 21.75c-0.12656 5.8529-0.22982 0.85412-0.22947-11.108zm-27.272 3.6875c0.036-0.87371 0.21371-1.0514 0.45313-0.45313 0.21665 0.54141 0.19001 1.1883-0.0592 1.4375-0.24922 0.24922-0.42648-0.19375-0.39392-0.98437zm-0.75-9c0.036-0.87371 0.21371-1.0514 0.45313-0.45313 0.21665 0.54141 0.19001 1.1883-0.0592 1.4375-0.24922 0.24922-0.42648-0.19375-0.39392-0.98437zm-91.559-6.6875c0.96881-1.0312 1.9302-1.875 2.1365-1.875s-0.41766 0.84375-1.3865 1.875-1.9302 1.875-2.1365 1.875 0.41766-0.84375 1.3865-1.875zm16.5 0.84183c0-0.15574 0.59063-0.74636 1.3125-1.3125 1.1896-0.9329 1.2161-0.90637 0.28317 0.28317-0.97978 1.2493-1.5957 1.6466-1.5957 1.0293zm74.368-3.4668c0-1.0312 0.17023-1.4531 0.37829-0.9375 0.20806 0.51562 0.20806 1.3594 0 1.875-0.20806 0.51562-0.37829 0.0937-0.37829-0.9375zm7.2859-7.3125c-0.93291-1.1895-0.90638-1.2161 0.28316-0.28317 1.2493 0.97978 1.6466 1.5957 1.0293 1.5957-0.15574 0-0.74637-0.59063-1.3125-1.3125zm-8.1543-1.9375c0-0.69485 0.58291-1.2449 1.3125-1.2385 0.74902 7e-3 0.99051 0.2518 0.5625 0.57123-0.4125 0.30786-1.0031 0.86519-1.3125 1.2385-0.30937 0.37332-0.5625 0.11627-0.5625-0.57123zm-36.141-0.26234c0.5414-0.21665 1.1883-0.19 1.4375 0.0592 0.24922 0.24922-0.19375 0.42649-0.98438 0.39392-0.8737-0.036-1.0514-0.21371-0.45312-0.45313zm84-4.5c0.5414-0.21665 1.1883-0.19 1.4375 0.0592 0.24922 0.24922-0.19375 0.42649-0.98438 0.39392-0.8737-0.036-1.0514-0.21371-0.45312-0.45313zm-98.25-2.25c0.5414-0.21665 1.1883-0.19 1.4375 0.0592 0.24922 0.24922-0.19375 0.42649-0.98438 0.39392-0.8737-0.036-1.0514-0.21371-0.45312-0.45313zm14.25 0c0.5414-0.21665 1.1883-0.19 1.4375 0.0592 0.24922 0.24922-0.19375 0.42649-0.98438 0.39392-0.8737-0.036-1.0514-0.21371-0.45312-0.45313zm240.4-148.74c0-3.5062 0.1292-4.9406 0.2871-3.1875 0.1579 1.7531 0.1579 4.6219 0 6.375-0.1579 1.7531-0.2871 0.31875-0.2871-3.1875zm101.97 1.875c4e-3 -2.475 0.14422-3.3971 0.31114-2.0491s0.16348 3.373-8e-3 4.5c-0.17113 1.127-0.3077 0.0241-0.30349-2.4509z" fill="#cfcfcf"/>
		<path d="m639.3 424.68c0.51563-0.20806 1.3594-0.20806 1.875 0 0.51563 0.20806 0.0937 0.37829-0.9375 0.37829-1.0312 0-1.4531-0.17023-0.9375-0.37829zm84.75 0c0.51563-0.20806 1.3594-0.20806 1.875 0 0.51563 0.20806 0.0937 0.37829-0.9375 0.37829-1.0312 0-1.4531-0.17023-0.9375-0.37829zm19.547-0.0156c0.5414-0.21665 1.1883-0.19 1.4375 0.0592 0.24922 0.24922-0.19375 0.42649-0.98438 0.39392-0.8737-0.036-1.0514-0.21371-0.45312-0.45313zm25.453 0.0156c0.51563-0.20806 1.3594-0.20806 1.875 0 0.51563 0.20806 0.0937 0.37829-0.9375 0.37829-1.0312 0-1.4531-0.17023-0.9375-0.37829zm78 0c0.51563-0.20806 1.3594-0.20806 1.875 0 0.51563 0.20806 0.0937 0.37829-0.9375 0.37829-1.0312 0-1.4531-0.17023-0.9375-0.37829zm-249.26-10.753c0-5.9812 0.11647-8.4281 0.25883-5.4375s0.14236 7.8844 0 10.875-0.25883 0.54375-0.25883-5.4375zm254.7 9.4668c0-0.15574 0.59063-0.74636 1.3125-1.3125 1.1896-0.9329 1.2161-0.90637 0.28317 0.28317-0.97978 1.2493-1.5957 1.6466-1.5957 1.0293zm-249.56-1.0132c1.5469-0.16181 4.0781-0.16181 5.625 0 1.5469 0.16181 0.28125 0.2942-2.8125 0.2942s-4.3594-0.13239-2.8125-0.2942zm16.108 5e-3c1.3314-0.16568 3.6939-0.16841 5.25-6e-3 1.5561 0.16236 0.46672 0.29792-2.4208 0.30124-2.8875 3e-3 -4.1606-0.12951-2.8292-0.29519zm56.031-0.43986c-0.20708-0.53964-0.26906-5.0115-0.13774-9.9375l0.23877-8.9563 0.16128 9.5296 0.16127 9.5296 10.875 0.51766-5.461 0.14903c-3.9177 0.10691-5.5674-0.12826-5.8375-0.83214zm188.47 0.43986c1.3314-0.16568 3.6939-0.16841 5.25-6e-3 1.5561 0.16236 0.46672 0.29792-2.4208 0.30124-2.8875 3e-3 -4.1606-0.12951-2.8292-0.29519zm-30.487-4.3962c0.036-0.87371 0.21371-1.0514 0.45313-0.45313 0.21665 0.54141 0.19001 1.1883-0.0592 1.4375-0.24922 0.24921-0.42648-0.19375-0.39392-0.98438zm-202.5-3c0.036-0.87371 0.21371-1.0514 0.45313-0.45313 0.21665 0.54141 0.19001 1.1883-0.0592 1.4375-0.24922 0.24922-0.42648-0.19374-0.39392-0.98437zm9.4408-0.0625c-0.275-0.275-0.49483-0.86563-0.48851-1.3125 7e-3 -0.52389 0.21067-0.49933 0.57223 0.0691 0.30841 0.48489 1.9064 1.0188 3.551 1.1864l2.9903 0.3048-3.0625 0.12607c-1.6844 0.0693-3.2875-0.0989-3.5625-0.37392zm-20.954-2.2913c1.3314-0.16568 3.6939-0.16841 5.25-6e-3 1.5561 0.16236 0.46672 0.29792-2.4208 0.30124-2.8875 3e-3 -4.1606-0.12951-2.8292-0.29519zm244.5 0c1.3314-0.16568 3.6939-0.16841 5.25-6e-3 1.5561 0.16236 0.46672 0.29792-2.4208 0.30124-2.8875 3e-3 -4.1606-0.12951-2.8292-0.29519zm-230.8-6.4919c0-0.15574 0.59063-0.74636 1.3125-1.3125 1.1896-0.9329 1.2161-0.90637 0.28317 0.28317-0.97978 1.2493-1.5957 1.6466-1.5957 1.0293zm91.359-1.7292c0.5414-0.21665 1.1883-0.19 1.4375 0.0592 0.24922 0.24922-0.19375 0.42649-0.98438 0.39392-0.8737-0.036-1.0514-0.21371-0.45312-0.45313zm19.5 0c0.5414-0.21665 1.1883-0.19 1.4375 0.0592 0.24922 0.24922-0.19375 0.42649-0.98438 0.39392-0.8737-0.036-1.0514-0.21371-0.45312-0.45313zm25.5 0c0.5414-0.21665 1.1883-0.19 1.4375 0.0592 0.24922 0.24922-0.19375 0.42649-0.98438 0.39392-0.8737-0.036-1.0514-0.21371-0.45312-0.45313zm-188.3-9.7344c0.51563-0.20806 1.3594-0.20806 1.875 0 0.51563 0.20806 0.0937 0.37829-0.9375 0.37829-1.0312 0-1.4531-0.17023-0.9375-0.37829zm229.89-0.023c0.72972-0.19016 1.7422-0.17765 2.25 0.0278 0.50777 0.20544-0.0893 0.36102-1.3268 0.34574-1.2375-0.0153-1.653-0.18338-0.92322-0.37353zm-197.91-10.355c1e-3 -5.775 0.1189-8.0384 0.26163-5.0297 0.14272 3.0087 0.14176 7.7337-2e-3 10.5-0.1439 2.7663-0.26067 0.30469-0.2595-5.4703zm210.75 0c1e-3 -5.775 0.1189-8.0384 0.26163-5.0297 0.14272 3.0087 0.14176 7.7337-2e-3 10.5-0.1439 2.7663-0.26067 0.30469-0.2595-5.4703zm-205.61 8.0786c1.5469-0.16181 4.0781-0.16181 5.625 0 1.5469 0.16181 0.28125 0.2942-2.8125 0.2942s-4.3594-0.13239-2.8125-0.2942zm54.358 5e-3c1.3314-0.16568 3.6939-0.16841 5.25-6e-3 1.5561 0.16236 0.46672 0.29792-2.4208 0.30124-2.8875 3e-3 -4.1606-0.12951-2.8292-0.29519zm42.392 4e-3c1.1344-0.17184 2.9906-0.17184 4.125 0 1.1344 0.17184 0.20625 0.31244-2.0625 0.31244s-3.1969-0.1406-2.0625-0.31244zm56.364-0.50894c-0.22079-0.57537-0.26693-2.3472-0.10254-3.9375 0.28659-2.7723 0.30409-2.746 0.42498 0.63827l0.12607 3.5296 10.875 0.51766-5.461 0.14903c-4.0841 0.11145-5.5622-0.11475-5.8625-0.89711zm80.886 0.49978c1.5469-0.16181 4.0781-0.16181 5.625 0 1.5469 0.16181 0.28125 0.2942-2.8125 0.2942s-4.3594-0.13239-2.8125-0.2942zm14.389-0.43481c-0.20708-0.53964-0.26906-5.0115-0.13774-9.9375l0.23877-8.9563 0.16128 9.5296 0.16127 9.5296 10.875 0.51766-5.461 0.14903c-3.9177 0.10691-5.5674-0.12826-5.8375-0.83214zm-142.71-3.5187c0-1.0312 0.17023-1.4531 0.37829-0.9375 0.20806 0.51562 0.20806 1.3594 0 1.875-0.20806 0.51562-0.37829 0.0937-0.37829-0.9375zm8.8065 0.52181c0.33356-0.33175 2.5963-0.49627 5.0283-0.36558l4.4218 0.23761-5.0283 0.36558c-2.7656 0.20107-4.7554 0.0941-4.4218-0.23761zm-97.612-0.31436c1.3406-0.16637 3.5344-0.16637 4.875 0 1.3406 0.16637 0.24375 0.30249-2.4375 0.30249s-3.7781-0.13612-2.4375-0.30249zm-50.991-3.7379c0.93293-0.17939 2.2829-0.17258 3 0.0151 0.71706 0.18772-0.0462 0.3345-1.6962 0.32617-1.65-8e-3 -2.2367-0.16191-1.3038-0.34131zm310.8-0.96955c0-1.0312 0.17023-1.4531 0.37829-0.9375 0.20806 0.51562 0.20806 1.3594 0 1.875-0.20806 0.51562-0.37829 0.0937-0.37829-0.9375zm-322.56-0.4375c0.036-0.87371 0.21371-1.0514 0.45313-0.45313 0.21665 0.54141 0.19001 1.1883-0.0592 1.4375-0.24922 0.24922-0.42648-0.19375-0.39392-0.98437zm26.389 0.64931c1.14-0.17239 2.8275-0.16778 3.75 0.0102 0.92245 0.17802-0.0103 0.31907-2.0728 0.31344-2.0625-6e-3 -2.8172-0.15129-1.6772-0.32368zm90 0c1.14-0.17239 2.8275-0.16778 3.75 0.0102 0.92245 0.17802-0.0103 0.31907-2.0728 0.31344-2.0625-6e-3 -2.8172-0.15129-1.6772-0.32368zm102 0c1.14-0.17239 2.8275-0.16778 3.75 0.0102 0.92245 0.17802-0.0103 0.31907-2.0728 0.31344-2.0625-6e-3 -2.8172-0.15129-1.6772-0.32368zm-19.483-5.0868c6e-3 -2.0625 0.15129-2.8172 0.32368-1.6772 0.17239 1.14 0.16778 2.8276-0.0102 3.75-0.17802 0.92246-0.31907-0.0103-0.31344-2.0728zm-133.86-6.1373c0.5414-0.21665 1.1883-0.19 1.4375 0.0592 0.24922 0.24922-0.19375 0.42649-0.98438 0.39392-0.8737-0.036-1.0514-0.21371-0.45312-0.45313zm-26.25-9.75c0.5414-0.21665 1.1883-0.19 1.4375 0.0592 0.24922 0.24922-0.19375 0.42649-0.98438 0.39392-0.8737-0.036-1.0514-0.21371-0.45312-0.45313zm12.703 0.0156c0.51563-0.20806 1.3594-0.20806 1.875 0 0.51563 0.20806 0.0937 0.37829-0.9375 0.37829-1.0312 0-1.4531-0.17023-0.9375-0.37829zm44.2-2.3146c7.9133-0.12139 21.076-0.12156 29.25-3.9e-4s1.6997 0.22049-14.388 0.2207-22.775-0.0989-14.862-0.22031zm81.425-5.5e-4c10.209-0.11787 26.916-0.11787 37.125 0 10.209 0.11788 1.8562 0.21432-18.562 0.21432s-28.772-0.0964-18.562-0.21432zm75.027 7e-3c2.3869-0.14929 6.0994-0.1479 8.25 3e-3 2.1506 0.15098 0.19761 0.27312-4.3399 0.27143-4.5375-2e-3 -6.297-0.12522-3.9101-0.27451zm54.794-0.60229c-0.24426-0.63654-0.23367-1.3678 0.0235-1.625 0.25721-0.25721 0.46765 0.0899 0.46765 0.77135 0 1.1201 2.1778 1.2592 22.688 1.4489l22.688 0.20991-22.711 0.17609c-19.885 0.15417-22.766 0.0321-23.155-0.98127zm-147.4-2.3551c0.5414-0.21665 1.1883-0.19 1.4375 0.0592 0.24922 0.24922-0.19375 0.42649-0.98438 0.39392-0.8737-0.036-1.0514-0.21371-0.45312-0.45313zm182.69-3.4252-1.4287-1.6875 1.6875 1.4287c0.92813 0.78581 1.6875 1.5452 1.6875 1.6875 0 0.60019-0.60359 0.15709-1.9463-1.4287zm-211.99 0.44079c0.51563-0.20806 1.3594-0.20806 1.875 0 0.51563 0.20806 0.0937 0.37829-0.9375 0.37829-1.0312 0-1.4531-0.17023-0.9375-0.37829zm41.438 0.21354c0-0.15574 0.59063-0.74636 1.3125-1.3125 1.1896-0.9329 1.2161-0.90637 0.28317 0.28317-0.97978 1.2493-1.5957 1.6466-1.5957 1.0293zm33.226-1.7764c4.0433-0.13511 10.456-0.13452 14.25 1e-3 3.7942 0.13584 0.48604 0.24639-7.3515 0.24567s-10.942-0.11186-6.8985-0.24698zm-116.15-18.94c0-9.6938 0.10689-13.659 0.23753-8.8125s0.13064 12.778 0 17.625-0.23753 0.88125-0.23753-8.8125zm59.302 13.5c0.74662-0.825 1.5262-1.5 1.7325-1.5s-0.23586 0.675-0.98248 1.5c-0.74661 0.825-1.5262 1.5-1.7325 1.5s0.23587-0.675 0.98248-1.5zm-51.316-1.9375c0.036-0.87371 0.21371-1.0514 0.45313-0.45313 0.21665 0.54141 0.19001 1.1883-0.0592 1.4375-0.24922 0.24922-0.42648-0.19375-0.39392-0.98437zm78.316-10.062c0.25494-0.4125 0.61236-0.75 0.79427-0.75 0.1819 0 0.33073 0.3375 0.33073 0.75s-0.35741 0.75-0.79426 0.75c-0.43684 0-0.58568-0.3375-0.33074-0.75zm0-9.75c0.25494-0.4125 0.61236-0.75 0.79427-0.75 0.1819 0 0.33073 0.3375 0.33073 0.75s-0.35741 0.75-0.79426 0.75c-0.43684 0-0.58568-0.3375-0.33074-0.75zm110.62-2.25-22.875-0.40814 22.643-0.17093c14.474-0.10926 22.81 0.0997 23.107 0.57907 0.25494 0.4125 0.35924 0.67308 0.23177 0.57907-0.12747-0.094-10.526-0.35459-23.107-0.57907zm-119.35-12.562c-0.93291-1.1895-0.90638-1.2161 0.28316-0.28317 1.2493 0.97978 1.6466 1.5957 1.0293 1.5957-0.15574 0-0.74637-0.59063-1.3125-1.3125zm-167.79-2.4375c0-1.0312 0.17023-1.4531 0.37829-0.9375 0.20806 0.51562 0.20806 1.3594 0 1.875-0.20806 0.51562-0.37829 0.0937-0.37829-0.9375zm-0.0592-7.9375c0.036-0.87371 0.21371-1.0514 0.45313-0.45313 0.21665 0.54141 0.19001 1.1883-0.0592 1.4375-0.24922 0.24922-0.42648-0.19375-0.39392-0.98437zm67.299-0.12357c5.9031-0.12687 15.353-0.12656 21 6.9e-4s0.81712 0.23105-10.733 0.23067c-11.55-3.7e-4 -16.17-0.10449-10.267-0.23136zm78.142-5.7221c0-0.15574 0.59063-0.74636 1.3125-1.3125 1.1896-0.9329 1.2161-0.90637 0.28317 0.28317-0.97978 1.2493-1.5957 1.6466-1.5957 1.0293zm26.309-14.404c0.036-0.87371 0.21371-1.0514 0.45313-0.45313 0.21665 0.54141 0.19001 1.1883-0.0592 1.4375-0.24922 0.24922-0.42648-0.19375-0.39392-0.98437zm0-3.75c0.036-0.87371 0.21371-1.0514 0.45313-0.45313 0.21665 0.54141 0.19001 1.1883-0.0592 1.4375-0.24922 0.24922-0.42648-0.19375-0.39392-0.98437zm-84.75-21c0.036-0.87371 0.21371-1.0514 0.45313-0.45313 0.21665 0.54141 0.19001 1.1883-0.0592 1.4375-0.24922 0.24922-0.42648-0.19375-0.39392-0.98437zm11.801-6.8739c6.7291-0.12443 17.529-0.12418 24 5.4e-4 6.4709 0.12473 0.96527 0.22653-12.235 0.22623s-18.494-0.10234-11.765-0.22677zm73.78 3.7e-4c6.883-0.12365 18.358-0.12387 25.5-4.9e-4 7.142 0.12338 1.5105 0.22455-12.514 0.22482s-19.868-0.10068-12.986-0.22433zm-125.19-2.2087c0.72972-0.19016 1.7422-0.17765 2.25 0.0278 0.50777 0.20544-0.0893 0.36102-1.3268 0.34574-1.2375-0.0153-1.653-0.18338-0.92322-0.37353z" fill="#9bb2c9"/>
		<path d="m481.39 570.3c0.0153-1.2375 0.18338-1.653 0.37354-0.92323 0.19015 0.72973 0.17765 1.7422-0.0278 2.25-0.20545 0.50778-0.36103-0.0893-0.34575-1.3268zm101.37-4.125c0-3.5062 0.1292-4.9406 0.2871-3.1875s0.1579 4.6219 0 6.375-0.2871 0.31875-0.2871-3.1875zm-101.16-51c0-25.369 0.0943-35.747 0.20959-23.062 0.11527 12.684 0.11527 33.441 0 46.125-0.11527 12.684-0.20959 2.3062-0.20959-23.062zm12 0c0-24.956 0.0945-35.166 0.20991-22.688 0.11546 12.478 0.11546 32.897 0 45.375-0.11545 12.478-0.20991 2.2688-0.20991-22.688zm104.65-101.25c0-13.397 1.3746-14.17 1.6651-0.9375l0.2099 9.5625 5.4375 0.22036c7.6056 0.30822 6.8427 1.6546-0.9375 1.6546h-6.375zm16.5 0v-10.5h6.375c3.75 0 6.375 0.30882 6.375 0.75 0 0.42857-2.25 0.75-5.25 0.75h-5.25v8.25h5.25c3 0 5.25 0.32143 5.25 0.75s-2.25 0.75-5.25 0.75h-5.25v8.3731l5.2517-0.24905c3.8348-0.18185 5.2512 4e-3 5.25 0.68846-1e-3 0.67634-1.7776 0.9375-6.3767 0.9375h-6.375zm20.413 9.3295c-2.4719-1.7314-3.9968-5.2184-4.0181-9.1885-0.0235-4.3686 0.87084-6.7304 3.4614-9.141 2.8241-2.6279 8.4416-2.6563 11.209-0.0568 1.9384 1.821 2.5705 3.8068 1.2118 3.8068-0.39799 0-1.0659-0.6395-1.4842-1.4211-0.4183-0.78161-1.8351-1.7957-3.1484-2.2535-7.7941-2.717-12.936 9.4975-6.6464 15.787 1.5629 1.5629 2.8672 2.1372 4.8539 2.1372 3.5251 0 6.6009-2.8632 6.2595-5.8268-0.21068-1.8289-0.57717-2.0728-3.4234-2.2788-4.6486-0.3363-3.9028-1.6443 0.9375-1.6443h4.125v3.4327c0 2.794-0.40788 3.8406-2.1923 5.625-1.8209 1.8209-2.8091 2.1923-5.8331 2.1923-2.0854 0-4.3548-0.50008-5.312-1.1705zm20.129-9.495c2.3796-5.866 4.6431-10.771 5.03-10.9 1.3227-0.44089 1.7285 0.42049 9.7184 20.628 0.20387 0.51562-0.13504 0.9375-0.75313 0.9375s-1.664-1.35-2.3242-3l-1.2004-3h-4.7892c-5.1148 0-6.0083 0.51276-6.8689 3.9417-0.31688 1.2626-1.0235 2.0583-1.8278 2.0583-1.107 0-0.63723-1.6615 3.0153-10.665zm9.3329 1.853c-0.29489-0.72187-1.215-3.2804-2.0446-5.6857s-1.7511-4.0927-2.0477-3.75c-0.5557 0.64211-3.782 9.3968-3.782 10.263 0 0.26703 1.8924 0.4855 4.2052 0.4855 3.7092 0 4.142-0.15481 3.6691-1.3125zm8.6257-1.6875c0-13.397 1.3746-14.17 1.6651-0.9375l0.2099 9.5625 5.4375 0.22036c7.6056 0.30822 6.8427 1.6546-0.9375 1.6546h-6.375zm23.768 7.3125c5.2958-13.441 7.5004-18.188 8.4468-18.188 0.66861 0 2.6638 3.9757 5.3636 10.688 3.1156 7.7456 4.0045 10.688 3.2292 10.688-0.58839 0-1.61-1.35-2.2702-3l-1.2004-3h-10.174l-1.2004 3c-0.6602 1.65-1.7066 3-2.3254 3-0.97947 0-0.96253-0.41235 0.13091-3.1875zm12.232-4.8525c0-1.0505-3.3805-10.696-3.75-10.699-0.20625-2e-3 -1.2733 2.526-2.3712 5.6177l-1.9962 5.6214h4.0587c2.2323 0 4.0587-0.243 4.0587-0.54001zm10.773 7.1628c-0.88106-0.42662-1.9779-1.6009-2.4375-2.6095-1.0749-2.3592-1.0572-2.5133 0.28944-2.5133 0.61875 0 1.125 0.3375 1.125 0.75s0.675 1.425 1.5 2.25c1.9714 1.9714 5.981 1.9458 8.5239-0.0544 3.8162-3.0018 1.8398-6.1704-4.3501-6.9742-5.3637-0.69658-7.1737-2.1152-7.1737-5.6224 0-4.1181 2.0393-5.724 7.2687-5.724 3.5747 0 4.3474 0.27462 5.9213 2.1043 0.99554 1.1574 1.8101 2.423 1.8101 2.8125 0 1.3268-2.1472 0.71362-2.6103-0.74548-1.0966-3.4552-8.3032-3.4779-10.147-0.0319-1.2113 2.2633 0.82273 5.2341 3.5875 5.2398 3.0633 6e-3 7.3827 1.3707 8.464 2.6736 1.6781 2.022 1.1597 5.6345-1.0856 7.5659-2.2268 1.9154-7.6273 2.3598-10.685 0.87911zm18.203-0.67725c-1.0869-0.85493-1.9762-2.2049-1.9762-3 0-1.9708 0.5437-1.825 3 0.80444 3.6957 3.9563 10.5 2.4602 10.5-2.3086 0-2.556-1.333-3.3329-6.9916-4.0751-5.5468-0.72756-8.0156-4.3988-5.7743-8.5867 0.80639-1.5068 4.4707-3.0296 7.29-3.0296 2.5935 0 6.0383 1.9776 6.6162 3.7983 0.80391 2.5329-0.32046 2.689-2.219 0.30801-1.4648-1.837-2.2812-2.1965-4.8364-2.1295-3.7731 0.0989-5.3349 1.2959-5.3349 4.0886 0 2.5654 1.2454 3.3255 6.6441 4.0548 2.3433 0.31656 4.6105 1.1344 5.4375 1.9614 2.0058 2.0058 1.8122 5.5928-0.42251 7.8275-2.4737 2.4737-8.9546 2.6292-11.933 0.28647zm17.524-8.9456c0-8.8333 0.17857-10.5 1.125-10.5s1.125 1.6667 1.125 10.5-0.17857 10.5-1.125 10.5-1.125-1.6667-1.125-10.5zm9.2731 9.6228c-0.88106-0.42662-1.9779-1.6009-2.4375-2.6095-1.0749-2.3592-1.0572-2.5133 0.28944-2.5133 0.61875 0 1.125 0.3375 1.125 0.75s0.675 1.425 1.5 2.25c1.9714 1.9714 5.981 1.9458 8.5239-0.0544 3.8162-3.0018 1.8398-6.1704-4.3501-6.9742-5.3637-0.69658-7.1737-2.1152-7.1737-5.6224 0-4.1181 2.0393-5.724 7.2687-5.724 3.5747 0 4.3474 0.27462 5.9213 2.1043 0.99554 1.1574 1.8101 2.423 1.8101 2.8125 0 1.3268-2.1472 0.71362-2.6103-0.74548-1.0966-3.4552-8.3032-3.4779-10.147-0.0319-1.2113 2.2633 0.82273 5.2341 3.5875 5.2398 3.0633 6e-3 7.3827 1.3707 8.464 2.6736 1.6781 2.022 1.1597 5.6345-1.0856 7.5659-2.2268 1.9154-7.6273 2.3598-10.685 0.87911zm22.227-8.8728v-9.75h-3.3307c-1.8319 0-3.5393-0.3375-3.7943-0.75-0.29834-0.48273 2.4922-0.75 7.8307-0.75 5.0295 0 8.2943 0.29521 8.2943 0.75 0 0.4125-1.5188 0.75-3.375 0.75h-3.375v9.75c0 8.1667-0.18269 9.75-1.125 9.75-0.9423 0-1.125-1.5833-1.125-9.75zm10.499 9.1875c-3e-3 -1.7048 8.608-21.188 9.3651-21.188 0.71127 0 9.3861 19.729 9.3861 21.346 0 0.22199-0.45505 0.40363-1.0112 0.40363s-1.5415-1.35-2.1897-3l-1.1784-3h-9.9821l-1.2568 2.9924c-0.69125 1.6458-1.6787 2.9958-2.1943 3-0.51562 4e-3 -0.93801-0.24549-0.93865-0.55487zm13.309-7.875c-0.19422-0.51563-1.1222-3.055-2.0623-5.643-0.94004-2.588-1.796-4.613-1.9021-4.5-0.3988 0.42458-4.0929 9.8652-4.0929 10.46 0 0.34138 1.8924 0.62069 4.2052 0.62069 3.0525 0 4.1084-0.25698 3.8521-0.9375zm8.4426-2.0625c0-8.4548 0.20269-10.5 1.0406-10.5 1.0143 0 11.709 15.098 11.709 16.53 0 0.39599 0.29296 0.71997 0.65101 0.71997s0.47973-3.8812 0.27039-8.625c-0.33749-7.6476-0.24127-8.625 0.84899-8.625 1.0809 0 1.2296 1.2696 1.2296 10.5 0 8.5389-0.19765 10.5-1.0582 10.5-0.58203 0-3.5352-3.8695-6.5625-8.5988s-5.6754-8.6106-5.8846-8.625c-0.20919-0.0144-0.25714 3.8551-0.10655 8.5988 0.23927 7.5375 0.12174 8.625-0.93215 8.625-1.0505 0-1.206-1.3534-1.206-10.5zm23.515 9.401c-4.8915-3.4261-5.3538-13.388-0.84475-18.202 3.0865-3.295 9.661-2.8536 12.235 0.82126 2.2743 3.247 0.48059 3.8428-2.1971 0.72976-2.4918-2.8969-6.0297-2.7418-8.8251 0.38683-1.745 1.953-2.1326 3.0731-2.1326 6.1622 0 8.2801 6.1156 12.654 10.943 7.8259 1.8706-1.8706 3.3068-2.4202 3.3068-1.2653 0 0.33533-0.94659 1.5166-2.1035 2.625-1.642 1.5732-2.8395 2.0153-5.4581 2.0153-1.845 0-4.0607-0.49457-4.9237-1.099zm16.235-9.401v-10.5h6.375c3.75 0 6.375 0.30882 6.375 0.75 0 0.42857-2.25 0.75-5.25 0.75h-5.25v8.25h5.25c3 0 5.25 0.32143 5.25 0.75s-2.25 0.75-5.25 0.75h-5.25v8.3731l5.2517-0.24905c3.8348-0.18185 5.2512 4e-3 5.25 0.68846-1e-3 0.67634-1.7776 0.9375-6.3767 0.9375h-6.375zm-282.92-20.975c-2.769-2.1781-3.8054-5.3689-3.43-10.56 0.28067-3.8803 0.6762-4.8858 2.7297-6.9392 2.0485-2.0485 2.9416-2.4015 6.0766-2.4015 2.8574 0 4.1058 0.4046 5.6106 1.8182 1.7788 1.6711 2.5973 3.8068 1.4589 3.8068-0.26208 0-1.2585-0.84375-2.2142-1.875-2.4562-2.6502-7.1838-2.6273-9.6621 0.0469-3.5526 3.8333-3.0913 11.44 0.88326 14.566 4.1957 3.3003 11.132 0.47147 10.58-4.3151-0.21572-1.8727-0.50908-2.0482-3.4244-2.0482-2.0513 0-3.1881-0.33436-3.1875-0.9375 6.6e-4 -0.63625 1.3265-0.9375 4.126-0.9375h4.125v3.4327c0 2.794-0.40788 3.8406-2.1923 5.625-1.8316 1.8316-2.8022 2.1923-5.8989 2.1923-2.5496 0-4.2917-0.46027-5.5812-1.4746zm18.172-9.0254v-10.5h5.6591c5.0084 0 5.8708 0.21166 7.5 1.8409 3.0877 3.0877 2.046 8.3294-2.0399 10.264l-2.2319 1.057 3.1202 3.9188c2.5094 3.1517 2.8508 3.915 1.7439 3.8995-0.78477-0.011-2.6657-1.7703-4.3763-4.0934-2.3447-3.1843-3.4505-4.081-5.0625-4.1057-2.0038-0.0307-2.0625 0.0858-2.0625 4.0934 0 3.1667-0.26136 4.125-1.125 4.125-0.94643 0-1.125-1.6667-1.125-10.5zm11.58-0.71227c1.5369-1.2755 1.4969-5.1839-0.0708-6.9162-0.90757-1.0029-2.3189-1.3716-5.25-1.3716h-4.0088v9.9358l4.0795-0.33831c2.2437-0.18607 4.6062-0.77544 5.25-1.3097zm7.0225 0.71106-0.22704-10.501 6.5625 1e-3c3.8742 7.1e-4 6.5625 0.30845 6.5625 0.75121 0 0.43379-2.3881 0.75-5.6642 0.75h-5.6642l0.2267 3.9375 0.22669 3.9375 5.0625 0.22177c6.7117 0.29401 6.5253 1.6532-0.22669 1.6532h-5.2892l0.2267 3.9375 0.22669 3.9375 5.4375 0.22036c7.5831 0.30731 6.8519 1.6546-0.89796 1.6546h-6.3355zm15.148 10.263c0-0.18931 6.3245-15.835 8.0135-19.824 0.21833-0.51563 0.95147-0.93191 1.6292-0.92508 0.88042 9e-3 2.431 3.0068 5.4309 10.5 3.3413 8.346 3.9539 10.486 3 10.48-0.68417-4e-3 -1.738-1.292-2.4554-3l-1.2568-2.9924h-9.8735l-1.2004 3c-0.6602 1.65-1.67 3-2.2439 3s-1.0436-0.10726-1.0436-0.23835zm13.5-7.8242c-2.1e-4 -0.30938-0.68871-2.4188-1.53-4.6875s-1.717-4.6312-1.9459-5.25c-0.24713-0.66784-1.3016 1.1558-2.595 4.4878-1.1983 3.087-2.1787 5.7027-2.1787 5.8125 0 0.10983 1.8562 0.1997 4.125 0.1997s4.1248-0.25312 4.1246-0.5625zm13.5-1.6875v-9.75h-3.375c-1.8562 0-3.375-0.3375-3.375-0.75 0-0.45455 3.25-0.75 8.25-0.75s8.25 0.29545 8.25 0.75c0 0.4125-1.6875 0.75-3.75 0.75h-3.75v9.75c0 8.1667-0.18269 9.75-1.125 9.75-0.9423 0-1.125-1.5833-1.125-9.75zm12-0.75v-10.5h6.75c4 0 6.75 0.30556 6.75 0.75 0 0.43333-2.375 0.75-5.625 0.75h-5.625v8.25h5.25c3 0 5.25 0.32143 5.25 0.75 0 0.4291-2.2631 0.75-5.2892 0.75h-5.2892l0.2267 3.9375 0.22669 3.9375 5.4375 0.22036c7.817 0.31679 6.7558 1.6546-1.3125 1.6546h-6.75zm17.25 0v-10.5h5.6591c5.0084 0 5.8708 0.21166 7.5 1.8409 3.0877 3.0877 2.046 8.3294-2.0399 10.264l-2.2319 1.057 3.1202 3.9188c2.5094 3.1517 2.8508 3.915 1.7439 3.8995-0.78477-0.011-2.6657-1.7703-4.3763-4.0934-2.3447-3.1843-3.4505-4.081-5.0625-4.1057-2.0038-0.0307-2.0625 0.0858-2.0625 4.0934 0 3.1667-0.26136 4.125-1.125 4.125-0.94643 0-1.125-1.6667-1.125-10.5zm11.58-0.71227c1.5369-1.2755 1.4969-5.1839-0.0708-6.9162-0.90757-1.0029-2.3189-1.3716-5.25-1.3716h-4.0088v9.9358l4.0795-0.33831c2.2437-0.18607 4.6062-0.77544 5.25-1.3097zm14.67 0.71227v-10.5h5.625c4.625 0 5.8917 0.26667 7.125 1.5 1.7556 1.7556 1.9697 5.4231 0.4079 6.985-0.95614 0.95614-0.90945 1.2574 0.375 2.4198 1.4854 1.3442 2.0197 5.8583 0.89312 7.5454-1.169 1.7507-4.0293 2.5498-9.1267 2.5498h-5.2993zm12.476 7.114c2.7624-3.7777-0.0987-7.114-6.1008-7.114h-4.125v9.1803l4.6008-0.33279c3.361-0.24311 4.8768-0.71025 5.625-1.7335zm-1.3758-9.514c0.495-0.495 0.9-1.7775 0.9-2.85 0-2.8783-1.3424-3.75-5.775-3.75h-3.975v7.5h3.975c2.1862 0 4.38-0.405 4.875-0.9zm6.3524 11.962c4.7645-12.308 8.423-20.06 9.4601-20.047 0.85215 0.0109 2.4705 3.1309 5.4462 10.5 2.9905 7.4057 3.9283 10.485 3.1934 10.485-0.5722 0-1.635-1.2656-2.3617-2.8125-1.3152-2.7994-1.345-2.8135-6.3733-3.0341l-5.052-0.2216-1.214 3.0341c-0.6677 1.6688-1.7197 3.0341-2.3378 3.0341-0.6181 0-0.96049-0.42188-0.76088-0.9375zm13.298-7.2847c0-0.39723-0.62161-2.3379-1.3814-4.3125-0.75975-1.9746-1.6269-4.2653-1.927-5.0903-0.43306-1.1906-0.99843-0.33973-2.7409 4.125-1.2074 3.0938-2.1965 5.7094-2.198 5.8125-2e-3 0.10312 1.8535 0.1875 4.1222 0.1875s4.125-0.32501 4.125-0.72223zm8.25-2.2778c0-8.704 0.18724-10.5 1.0947-10.5 0.85029 0 1.1433 1.3407 1.3125 6.0056l0.21783 6.0056 5.2024-6.0056c3.2934-3.8018 5.7574-6.0056 6.7147-6.0056 1.322 0 1.1844 0.35391-1.0935 2.8125-1.4332 1.5469-3.3472 3.6665-4.2533 4.7104l-1.6475 1.8979 4.5145 5.7896c3.4126 4.3766 4.1848 5.7851 3.1636 5.771-0.77269-0.0107-2.9171-2.0972-5.0103-4.875-2.0127-2.671-3.8944-4.8563-4.1818-4.8563-1.6595 0-3.7839 3.7116-3.7839 6.6108 0 2.2904-0.30418 3.1392-1.125 3.1392-0.94643 0-1.125-1.6667-1.125-10.5zm19.5 0v-10.5h6.375c7.7802 0 8.5431 1.3464 0.9375 1.6546l-5.4375 0.22036v7.5l5.4375 0.22036c2.9906 0.12119 5.4375 0.52828 5.4375 0.90464s-2.4469 0.78345-5.4375 0.90464l-5.4375 0.22036v7.5l5.4375 0.22036c7.6056 0.30822 6.8427 1.6546-0.9375 1.6546h-6.375zm16.5 0v-10.5h5.8586c7.8372 0 9.7191 1.6133 9.1866 7.875-0.1276 1.5005-2.8393 4.4314-4.6622 5.039-0.67126 0.22375-0.26574 1.2245 1.3238 3.2668 3.2344 4.1557 3.5516 4.8192 2.3037 4.8192-0.59293 0-2.5101-1.8562-4.2605-4.125-2.5517-3.3075-3.6102-4.125-5.3412-4.125-2.1167 0-2.1588 0.0804-2.1588 4.125 0 3.1667-0.26136 4.125-1.125 4.125-0.94643 0-1.125-1.6667-1.125-10.5zm11.659-1.0909c3.9466-3.9466 1.2993-7.9091-5.2841-7.9091h-4.125v4.375c0 2.4062 0.225 4.6 0.5 4.875s1.9778 0.5 3.7841 0.5c2.4868 0 3.731-0.44692 5.125-1.8409zm8.1818 9.75c-2.0626-2.0626-2.4235-4.1591-0.71591-4.1591 0.61875 0 1.125 0.48711 1.125 1.0825 0 1.641 3.0285 3.4175 5.826 3.4175 3.194 0 6.2692-2.8489 5.6464-5.2308-0.50119-1.9166-2.2505-2.7529-7.0734-3.3819-4.0841-0.5326-6.1489-2.4428-6.1489-5.6887 0-3.6556 2.518-5.5736 7.3171-5.5736 4.3628 0 7.1829 1.6652 7.1829 4.2412 0 1.8608-0.51122 1.745-2.4993-0.56624-2.9563-3.4369-10.251-2.0046-10.251 2.0127 0 2.1951 1.9259 3.4514 6.1379 4.004 5.6749 0.74446 7.3621 2.0384 7.3621 5.6462 0 4.1196-2.5443 6.0372-8.0102 6.0372-3.3084 0-4.398-0.34002-5.8989-1.8409zm18.261-8.6603-0.22704-10.501 6.5625 1e-3c3.8742 7.1e-4 6.5625 0.30845 6.5625 0.75121 0 0.43379-2.3881 0.75-5.6642 0.75h-5.6642l0.2267 3.9375 0.22669 3.9375 5.0625 0.22177c6.69 0.29306 6.5357 1.6532-0.1875 1.6532h-5.25v4.875c0 2.6812-0.31971 4.875-0.71046 4.875-0.40265 0-0.80883-4.5498-0.9375-10.501zm16.648 1e-3c0-8.8333 0.17857-10.5 1.125-10.5s1.125 1.6667 1.125 10.5-0.17857 10.5-1.125 10.5-1.125-1.6667-1.125-10.5zm6.75 0v-10.5h6.375c3.75 0 6.375 0.30882 6.375 0.75 0 0.42857-2.25 0.75-5.25 0.75h-5.25v8.25h5.25c3 0 5.25 0.32143 5.25 0.75s-2.25 0.75-5.25 0.75h-5.25v8.25h5.25c3 0 5.25 0.32143 5.25 0.75 0 0.44118-2.625 0.75-6.375 0.75h-6.375zm17.25 0c0-13.397 1.3746-14.17 1.6651-0.9375l0.2099 9.5625 5.4375 0.22036c7.6056 0.30822 6.8427 1.6546-0.9375 1.6546h-6.375zm16.5 0v-10.5h5.0831c3.3924 0 5.639 0.38935 6.7543 1.1705 5.7225 4.0082 5.0452 16.795-1.0116 19.098-1.0579 0.40222-3.9265 0.73131-6.3746 0.73131h-4.4512zm10.756 7.4598c2.6141-2.0562 3.7997-6.5401 2.755-10.42-1.0648-3.9544-3.8228-6.0402-7.987-6.0402h-3.2739v18h3.2739c2.1667 0 3.936-0.52087 5.2319-1.5402z" fill="#979797"/>
		<path d="m614.93 363.13c1.5469-0.16181 4.0781-0.16181 5.625 0 1.5469 0.16181 0.28125 0.2942-2.8125 0.2942s-4.3594-0.13239-2.8125-0.2942zm193.53-2.2587c2.3869-0.14929 6.0994-0.1479 8.25 3e-3 2.1506 0.15098 0.19761 0.27312-4.3399 0.27143-4.5375-2e-3 -6.297-0.12522-3.9101-0.27451zm-154.15-2.9416c0.51563-0.20806 1.3594-0.20806 1.875 0 0.51563 0.20806 0.0937 0.37829-0.9375 0.37829-1.0312 0-1.4531-0.17023-0.9375-0.37829zm79.547-0.0156c0.5414-0.21665 1.1883-0.19 1.4375 0.0592 0.24922 0.24922-0.19375 0.42649-0.98438 0.39392-0.8737-0.036-1.0514-0.21371-0.45312-0.45313zm100.5 0c0.5414-0.21665 1.1883-0.19 1.4375 0.0592 0.24922 0.24922-0.19375 0.42649-0.98438 0.39392-0.8737-0.036-1.0514-0.21371-0.45312-0.45313zm45.703 0.0156c0.51563-0.20806 1.3594-0.20806 1.875 0 0.51563 0.20806 0.0937 0.37829-0.9375 0.37829-1.0312 0-1.4531-0.17023-0.9375-0.37829zm42.797-0.0156c0.5414-0.21665 1.1883-0.19 1.4375 0.0592 0.24922 0.24922-0.19375 0.42649-0.98438 0.39392-0.8737-0.036-1.0514-0.21371-0.45312-0.45313zm-307.17-0.77485c1.1344-0.17184 2.9906-0.17184 4.125 0 1.1344 0.17184 0.20625 0.31244-2.0625 0.31244s-3.1969-0.1406-2.0625-0.31244zm182.62-3.7095c0.51563-0.20806 1.3594-0.20806 1.875 0 0.51563 0.20806 0.0937 0.37829-0.9375 0.37829-1.0312 0-1.4531-0.17023-0.9375-0.37829zm17.438-5.7865c0-0.15574 0.59063-0.74636 1.3125-1.3125 1.1896-0.9329 1.2161-0.90637 0.28317 0.28317-0.97978 1.2493-1.5957 1.6466-1.5957 1.0293zm-67.998-5.7169c0-3.0938 0.13239-4.3594 0.29419-2.8125 0.16181 1.5469 0.16181 4.0781 0 5.625-0.1618 1.5469-0.29419 0.28125-0.29419-2.8125zm-0.6525-10.555c0.0139-2.4438 0.27847-4.4436 0.58784-4.444 0.75031-1e-3 0.72634 8.0594-0.0253 8.5239-0.32332 0.19982-0.57644-1.6361-0.5625-4.0799zm0.74354-37.07c1.8e-4 -17.325 0.0986-24.305 0.21863-15.512 0.12007 8.7934 0.11991 22.968-3.4e-4 31.5-0.12024 8.5316-0.21848 1.337-0.21829-15.988zm-87.284 21.688c0.036-0.87371 0.21371-1.0514 0.45313-0.45313 0.21665 0.54141 0.19001 1.1883-0.0592 1.4375-0.24922 0.24922-0.42648-0.19375-0.39392-0.98437zm-110.25-3.75c0.036-0.87371 0.21371-1.0514 0.45313-0.45313 0.21665 0.54141 0.19001 1.1883-0.0592 1.4375-0.24922 0.24922-0.42648-0.19375-0.39392-0.98437zm0.0592-7.8125c0-1.0312 0.17023-1.4531 0.37829-0.9375 0.20806 0.51562 0.20806 1.3594 0 1.875-0.20806 0.51562-0.37829 0.0937-0.37829-0.9375zm79.241-0.51234c0.5414-0.21665 1.1883-0.19 1.4375 0.0592 0.24922 0.24922-0.19375 0.42649-0.98438 0.39392-0.8737-0.036-1.0514-0.21371-0.45312-0.45313zm69-3c0.5414-0.21665 1.1883-0.19 1.4375 0.0592 0.24922 0.24922-0.19375 0.42649-0.98438 0.39392-0.8737-0.036-1.0514-0.21371-0.45312-0.45313zm-127.99-2.4877c0-1.0312 0.17023-1.4531 0.37829-0.9375 0.20806 0.51562 0.20806 1.3594 0 1.875-0.20806 0.51562-0.37829 0.0937-0.37829-0.9375zm88.441-22.188c0.036-0.87371 0.21371-1.0514 0.45313-0.45313 0.21665 0.54141 0.19001 1.1883-0.0592 1.4375-0.24922 0.24922-0.42648-0.19375-0.39392-0.98437zm-13.655-12.125c-0.93291-1.1895-0.90638-1.2161 0.28316-0.28317 1.2493 0.97978 1.6466 1.5957 1.0293 1.5957-0.15574 0-0.74637-0.59063-1.3125-1.3125zm71.289-2.25-1.8182-2.0625 2.0625 1.8182c1.9277 1.6994 2.4064 2.3068 1.8182 2.3068-0.13435 0-1.0625-0.92813-2.0625-2.0625zm18.711-0.75c-0.93291-1.1895-0.90638-1.2161 0.28316-0.28317 0.72188 0.56614 1.3125 1.1568 1.3125 1.3125 0 0.61728-0.61589 0.21998-1.5957-1.0293zm9-5.25c-0.93291-1.1895-0.90638-1.2161 0.28316-0.28317 1.2493 0.97978 1.6466 1.5957 1.0293 1.5957-0.15574 0-0.74637-0.59063-1.3125-1.3125zm-130.58-2.968c0.93293-0.17939 2.2829-0.17258 3 0.0151 0.71706 0.18772-0.0462 0.3345-1.6962 0.32617-1.65-8e-3 -2.2367-0.16191-1.3038-0.34131zm118.49-0.71626c0.51563-0.20806 1.3594-0.20806 1.875 0 0.51563 0.20806 0.0937 0.37829-0.9375 0.37829-1.0312 0-1.4531-0.17023-0.9375-0.37829zm46.547-0.0156c0.5414-0.21665 1.1883-0.19 1.4375 0.0592 0.24922 0.24922-0.19375 0.42649-0.98438 0.39392-0.8737-0.036-1.0514-0.21371-0.45312-0.45313zm-122.11-3.8077c0-0.451-0.59062-0.97435-1.3125-1.163-1.1833-0.30922-1.1876-0.35155-0.0443-0.42999 1.3531-0.0928 2.5559 1.2138 1.8069 1.9629-0.24756 0.24755-0.45011 0.0811-0.45011-0.36991zm-44.802-1.4682c1.14-0.17239 2.8275-0.16778 3.75 0.0102 0.92245 0.17802-0.0103 0.31907-2.0728 0.31344-2.0625-6e-3 -2.8172-0.15129-1.6772-0.32368z" fill="#6f90b1"/>
		<path d="m481.47 564.68c0-2.2688 0.1406-3.1969 0.31244-2.0625 0.17185 1.1344 0.17185 2.9906 0 4.125-0.17184 1.1344-0.31244 0.20625-0.31244-2.0625zm3.3576-95.05c1.764-0.15844 4.464-0.15621 6 5e-3 1.536 0.16116 0.0927 0.29079-3.2073 0.28806-3.3-3e-3 -4.5567-0.13458-2.7927-0.29301zm143.28-107.21c0.5414-0.21665 1.1883-0.19 1.4375 0.0592 0.24922 0.24922-0.19375 0.42649-0.98438 0.39392-0.8737-0.036-1.0514-0.21371-0.45312-0.45313zm24.95-2.9252c0.036-0.87371 0.21371-1.0514 0.45313-0.45313 0.21665 0.54141 0.19001 1.1883-0.0592 1.4375-0.24922 0.24922-0.42648-0.19375-0.39392-0.98437zm62.05 0.67516c0.5414-0.21665 1.1883-0.19 1.4375 0.0592 0.24922 0.24922-0.19375 0.42649-0.98438 0.39392-0.8737-0.036-1.0514-0.21371-0.45312-0.45313zm15.95-0.67516c0.036-0.87371 0.21371-1.0514 0.45313-0.45313 0.21665 0.54141 0.19001 1.1883-0.0592 1.4375-0.24922 0.24922-0.42648-0.19375-0.39392-0.98437zm5.1908-6.5957c0-0.15574 0.59063-0.74636 1.3125-1.3125 1.1896-0.9329 1.2161-0.90637 0.28317 0.28317-0.97978 1.2493-1.5957 1.6466-1.5957 1.0293zm154.62-2.7168c0-1.0312 0.17023-1.4531 0.37829-0.9375 0.20806 0.51562 0.20806 1.3594 0 1.875-0.20806 0.51562-0.37829 0.0937-0.37829-0.9375zm-247.3-17.625c5.6e-4 -9.075 0.10886-12.684 0.24066-8.0209s0.13134 12.088-1e-3 16.5c-0.13236 4.4115-0.2402 0.59593-0.23963-8.4791zm121.53-26.625c0-23.719 0.0949-33.422 0.21096-21.562 0.11603 11.859 0.11603 31.266 0 43.125-0.11603 11.859-0.21096 2.1562-0.21096-21.562zm-197.7 39.938c-0.93291-1.1895-0.90638-1.2161 0.28316-0.28317 0.72188 0.56614 1.3125 1.1568 1.3125 1.3125 0 0.61728-0.61589 0.21998-1.5957-1.0293zm179.53-14.812c8e-3 -1.65 0.16191-2.2367 0.34131-1.3038 0.17939 0.93294 0.17258 2.2829-0.0151 3-0.18772 0.71707-0.33449-0.0462-0.32617-1.6962zm101.29-13.686c5.6965-0.12757 14.809-0.12724 20.25 7.4e-4 5.441 0.12797 0.78016 0.23234-10.357 0.23194s-15.589-0.1051-9.8927-0.23268zm-127.79-2.2515-1.8182-2.0625 2.0625 1.8182c1.9277 1.6994 2.4064 2.3068 1.8182 2.3068-0.13435 0-1.0625-0.92813-2.0625-2.0625zm-170-6.5625c8e-3 -1.65 0.16191-2.2367 0.34131-1.3038 0.17939 0.93294 0.17258 2.2829-0.0151 3-0.18772 0.71707-0.33449-0.0462-0.32617-1.6962zm140.26-2.3947c0.72972-0.19016 1.7422-0.17765 2.25 0.0278 0.50777 0.20544-0.0893 0.36102-1.3268 0.34574-1.2375-0.0153-1.653-0.18338-0.92322-0.37353zm5.25 0c0.72972-0.19016 1.7422-0.17765 2.25 0.0278 0.50777 0.20544-0.0893 0.36102-1.3268 0.34574-1.2375-0.0153-1.653-0.18338-0.92322-0.37353zm-68.393-3.6678c0.036-0.87371 0.21371-1.0514 0.45313-0.45313 0.21665 0.54141 0.19001 1.1883-0.0592 1.4375-0.24922 0.24922-0.42648-0.19375-0.39392-0.98437zm68.003-1.5592c0.51563-0.20806 1.3594-0.20806 1.875 0 0.51563 0.20806 0.0937 0.37829-0.9375 0.37829-1.0312 0-1.4531-0.17023-0.9375-0.37829zm39.188-4.2865c0-0.15574 0.59063-0.74636 1.3125-1.3125 1.1896-0.9329 1.2161-0.90637 0.28317 0.28317-0.97978 1.2493-1.5957 1.6466-1.5957 1.0293zm-76.641-14.479c0.5414-0.21665 1.1883-0.19 1.4375 0.0592 0.24922 0.24922-0.19375 0.42649-0.98438 0.39392-0.8737-0.036-1.0514-0.21371-0.45312-0.45313zm65.58-3.6127c8e-3 -1.65 0.16191-2.2367 0.34131-1.3038 0.17939 0.93294 0.17258 2.2829-0.0151 3-0.18772 0.71707-0.33449-0.0462-0.32617-1.6962zm-64.63-0.0625c0.036-0.87371 0.21371-1.0514 0.45313-0.45313 0.21665 0.54141 0.19001 1.1883-0.0592 1.4375-0.24922 0.24922-0.42648-0.19375-0.39392-0.98437zm-0.69079-9.3125c0-1.0312 0.17023-1.4531 0.37829-0.9375 0.20806 0.51562 0.20806 1.3594 0 1.875-0.20806 0.51562-0.37829 0.0937-0.37829-0.9375zm-93.118-0.28317c0-0.15574 0.59063-0.74636 1.3125-1.3125 1.1896-0.9329 1.2161-0.90637 0.28317 0.28317-0.97978 1.2493-1.5957 1.6466-1.5957 1.0293zm4.5-4.5c0-0.15574 0.59063-0.74636 1.3125-1.3125 1.1896-0.9329 1.2161-0.90637 0.28317 0.28317-0.97978 1.2493-1.5957 1.6466-1.5957 1.0293zm87.868-4.2168c0-1.0312 0.17023-1.4531 0.37829-0.9375 0.20806 0.51562 0.20806 1.3594 0 1.875-0.20806 0.51562-0.37829 0.0937-0.37829-0.9375zm38.319-5.7872c1.1344-0.17184 2.9906-0.17184 4.125 0 1.1344 0.17184 0.20625 0.31244-2.0625 0.31244s-3.1969-0.1406-2.0625-0.31244zm-85.078-1.4752c0.5414-0.21665 1.1883-0.19 1.4375 0.0592 0.24922 0.24922-0.19375 0.42649-0.98438 0.39392-0.8737-0.036-1.0514-0.21371-0.45312-0.45313zm7.4531 0.0156c0.51563-0.20806 1.3594-0.20806 1.875 0 0.51563 0.20806 0.0937 0.37829-0.9375 0.37829-1.0312 0-1.4531-0.17023-0.9375-0.37829zm117.05-0.76563c0.5414-0.21665 1.1883-0.19 1.4375 0.0592 0.24922 0.24922-0.19375 0.42649-0.98438 0.39392-0.8737-0.036-1.0514-0.21371-0.45312-0.45313zm41.25 0c0.5414-0.21665 1.1883-0.19 1.4375 0.0592 0.24922 0.24922-0.19375 0.42649-0.98438 0.39392-0.8737-0.036-1.0514-0.21371-0.45312-0.45313zm-45.55-1.4252c0.036-0.87371 0.21371-1.0514 0.45313-0.45313 0.21665 0.54141 0.19001 1.1883-0.0592 1.4375-0.24922 0.24922-0.42648-0.19375-0.39392-0.98437zm49.5 0c0.036-0.87371 0.21371-1.0514 0.45313-0.45313 0.21665 0.54141 0.19001 1.1883-0.0592 1.4375-0.24922 0.24922-0.42648-0.19375-0.39392-0.98437zm-72.95-0.82484c0.5414-0.21665 1.1883-0.19 1.4375 0.0592 0.24922 0.24922-0.19375 0.42649-0.98438 0.39392-0.8737-0.036-1.0514-0.21371-0.45312-0.45313zm155.2-5.2344c0.51563-0.20806 1.3594-0.20806 1.875 0 0.51563 0.20806 0.0937 0.37829-0.9375 0.37829-1.0312 0-1.4531-0.17023-0.9375-0.37829zm91.875-50.3c1.5469-0.16181 4.0781-0.16181 5.625 0 1.5469 0.16181 0.28125 0.2942-2.8125 0.2942s-4.3594-0.13239-2.8125-0.2942z" fill="#306190"/>
		<path d="m603.12 362.15c-6.5631-1.0089-16.529-4.2397-22.163-7.1845-6.2579-3.2713-14.402-9.7527-18.551-14.763-4.0253-4.8617-8.7669-14.356-10.376-20.777-1.8171-7.2516-1.1099-20.88 1.4985-28.875 6.4569-19.792 22.564-35.037 43.215-40.901 7.0175-1.9927 20.73-2.7407 28.379-1.5481 3.0272 0.47201 9.5721 2.2328 14.544 3.9129 10.457 3.5334 11.931 3.3632 13.881-1.6028 1.1286-2.8732 3.1954-4.1181 3.1954-1.9247 0 0.89036 4.4418 1.1111 27.562 1.3699 25.149 0.28148 28.065 0.44695 33.303 1.8895 11.118 3.0619 18.493 8.3112 22.155 15.768 1.8342 3.7351 2.1041 5.1532 2.1008 11.036-4e-3 7.8614-1.6352 12.358-6.2207 17.151-2.5703 2.687-10.552 7.2216-12.713 7.2229-2.1251 1e-3 -0.7323 1.3709 1.875 1.8436 7.8314 1.42 16.16 7.8093 19.79 15.182 1.5236 3.0944 1.7717 4.7052 1.7671 11.475-5e-3 7.1628-0.19467 8.2355-2.0995 11.861-3.8194 7.2689-11.148 12.776-20.869 15.682-5.8168 1.7389-69.651 2.4122-69.651 0.73465 0-0.74096 1.243-1.2488 3.9285-1.6051 5.8448-0.77533 8.5228-2.3316 10.288-5.9786 1.4386-2.9718 1.5332-4.5395 1.5332-25.43 0-12.245-0.25312-22.262-0.5625-22.26-1.3187 7e-3 -5.4621 3.0873-6.7092 4.9886-1.1936 1.8196-1.3975 4.4547-1.7282 22.34l-0.375 20.277-8.1736 3.6301c-12.431 5.5209-17.429 6.6024-31.951 6.9132-6.8062 0.14565-14.4-0.0465-16.875-0.42697zm28.725-6.7764c2.5985-0.88583 6.311-2.6717 8.25-3.9685l3.5254-2.3579v-17.998c0-19.727-0.33908-21.677-4.2534-24.465-1.1992-0.8539-4.1921-1.9349-6.651-2.4021-2.6707-0.50755-4.4706-1.2335-4.4706-1.803 0-0.74809 4.4416-0.9534 20.625-0.9534h20.625v-19.899c0-21.283-0.26072-23.073-3.8408-26.368-0.98129-0.90297-3.2185-1.964-4.9717-2.3578l-3.1875-0.716 3e-3 3.1078c2e-3 3.03 1.1133 17.163 1.8505 23.545 0.32358 2.8012 0.18814 3.1875-1.1174 3.1875-0.81711 0-1.4857-0.49702-1.4857-1.1045 0-2.354-4.1649-9.7286-7.6447-13.536-13.078-14.31-35.316-18.509-52.941-9.9968-10.52 5.0806-20.327 17.557-23.786 30.262-1.7093 6.2775-2.305 20.749-1.15 27.937 3.2709 20.356 18.038 36.785 36.94 41.098 6.4176 1.4644 17.492 0.89731 23.681-1.2126zm77.944-1.0089c4.899-1.3042 8.3079-3.3876 11.717-7.1606 4.2594-4.7146 5.2294-7.2264 5.5944-14.487 0.31289-6.2234 0.19948-6.8504-2.0746-11.47-4.1863-8.5036-12.03-13.158-24.837-14.738-3.5377-0.43638-8.0095-0.55688-9.9375-0.26776l-3.5054 0.52567v46.945l3.1875 0.76649c4.7279 1.1369 15.387 1.0755 19.856-0.11439zm1.305-55.518c4.6979-2.2985 8.9316-6.6996 11.138-11.579 2.3883-5.2807 2.1697-13.598-0.50084-19.057-2.4532-5.0141-6.7286-9.0349-12.396-11.658-3.6103-1.6709-5.2372-1.9497-11.34-1.9435-3.9188 4e-3 -8.0531 0.25205-9.1875 0.5512l-2.0625 0.54393v44.051l4.3125 0.7862c7.0788 1.2905 15.367 0.58931 20.036-1.6951zm20.651 60.801c0-0.69558 1.401-1.1866 4.3315-1.5182 4.8924-0.55352 8.4499-2.4097 10.44-5.4474 1.2668-1.9334 1.3532-4.9746 1.3532-47.606 0-44.831-0.0241-45.573-1.5484-47.658-2.0096-2.7482-5.9722-4.6824-10.753-5.2486-2.5029-0.29643-3.8236-0.80534-3.8236-1.4734 0-0.83977 4.3173-1.0205 24.375-1.0205 20.265 0 24.375 0.17511 24.375 1.0386 0 0.69525-1.3511 1.2074-4.0872 1.5492-2.2479 0.28086-5.2011 1.2605-6.5625 2.1769-4.8947 3.2948-4.7254 1.4536-4.7254 51.364v45.254l1.8512 1.4991c1.7597 1.425 2.7603 1.4861 20.25 1.2361 17.223-0.24618 18.636-0.37157 22.108-1.9628 5.7052-2.6148 8.3862-5.0325 10.353-9.3365 0.99123-2.1688 11.028-24.969 22.304-50.667 17.401-39.656 20.715-46.69 21.914-46.5 1.094 0.1733 5.8574 10.458 21.119 45.599 10.838 24.956 21.178 48.75 22.977 52.875 4.1362 9.4841 7.7711 13.486 12.954 14.264 2.2666 0.33989 3.5452 0.90665 3.5452 1.5715 0 0.86335-3.819 1.0398-22.5 1.0398s-22.5-0.17649-22.5-1.0398c0-0.65957 1.2517-1.2275 3.4226-1.5531 2.1831-0.32738 4.2881-1.2867 5.8125-2.649 3.6894-3.2971 3.2621-6.2828-2.9272-20.456l-5.163-11.823-45.648 0.39616-4.7706 10.862c-6.2225 14.168-6.701 15.806-5.4777 18.76 1.098 2.6508 3.7223 4.2412 8.1727 4.9529 1.87 0.29903 3.0787 0.89636 3.0787 1.5215 0 0.86232-8.4494 1.0291-52.125 1.0291-43.65 0-52.125-0.16715-52.125-1.0281zm145.9-43.129c-1.138-3.5855-19.149-43.963-19.679-44.118-0.62126-0.18111-19.725 43.044-19.725 44.631 0 0.66992 4.9989 0.89427 19.926 0.89427 19.144 0 19.908-0.0552 19.479-1.4068z" fill="#09437c"/>
		<path d="m481.99 521.18v-51h11.25v90h89.25v12h-100.5zm469.5-372v-45h-89.25v-12h101.25v102h-12z" fill="#292929"/>
	</g>
</svg>
