<?xml version="1.0" encoding="UTF-8"?>
<svg version="1.1" xmlns="http://www.w3.org/2000/svg" width="1834" height="667">
<path d="M0 0 C115.83 0 231.66 0 351 0 C351 34.65 351 69.3 351 105 C280.71 105 210.42 105 138 105 C138 121.17 138 137.34 138 154 C201.69 154 265.38 154 331 154 C331 188.65 331 223.3 331 259 C267.31 259 203.62 259 138 259 C138 275.5 138 292 138 309 C209.94 309 281.88 309 356 309 C356 343.65 356 378.3 356 414 C238.52 414 121.04 414 0 414 C0 277.38 0 140.76 0 0 Z " fill="#232220" transform="translate(1468,83)"/>
<path d="M0 0 C123.09 0 246.18 0 373 0 C373 35.97 373 71.94 373 109 C334.06 109 295.12 109 255 109 C255 209.65 255 310.3 255 414 C209.46 414 163.92 414 117 414 C117 313.35 117 212.7 117 109 C78.39 109 39.78 109 0 109 C0 73.03 0 37.06 0 0 Z " fill="#232220" transform="translate(946,83)"/>
<path d="M0 0 C8.60875952 1.49235491 16.93430491 3.87888683 25.3125 6.3125 C26.84462573 6.75426118 28.37685541 7.19566201 29.90917969 7.63673401 C34.06936301 8.83533105 38.22807493 10.03896105 42.38653564 11.24351883 C46.80763684 12.52323011 51.23006572 13.79833729 55.65234375 15.07397461 C63.18824312 17.24841034 70.7232962 19.42575745 78.2578125 21.60498047 C89.06156584 24.72966701 99.86715175 27.84797961 110.67314148 30.96492195 C142.59945925 40.17429229 174.52535071 49.38578623 206.43017578 58.66940308 C208.45051117 59.25717462 210.47101463 59.84436881 212.49169922 60.43093872 C215.15129235 61.20330021 217.81015241 61.97812608 220.46875 62.75390625 C221.59899597 63.08152954 221.59899597 63.08152954 222.7520752 63.41577148 C227.77008431 64.88504215 227.77008431 64.88504215 230 66 C230 182.16 230 298.32 230 418 C226.62555293 416.65022117 224.20128695 415.63624004 221.26953125 413.7421875 C220.56248047 413.28972656 219.85542969 412.83726562 219.12695312 412.37109375 C218.36318359 411.87738281 217.59941406 411.38367188 216.8125 410.875 C208.92531327 405.83267857 200.98146761 400.89166026 193 396 C184.71587863 390.91744543 176.46531123 385.78948218 168.26171875 380.578125 C161.54634337 376.32238456 154.77622835 372.15799575 148 368 C139.59640117 362.84309423 131.22447778 357.64285387 122.89916992 352.3605957 C117.22679639 348.76491654 111.5264892 345.21663456 105.8125 341.6875 C98.25758636 337.02102376 90.71631217 332.33348167 83.1875 327.625 C81.68352661 326.68454834 81.68352661 326.68454834 80.14916992 325.72509766 C75.11766406 322.57794086 70.08761656 319.42846657 65.05859375 316.27734375 C53.52481819 309.05448776 41.95771079 301.88930511 30.35986328 294.76977539 C23.29200163 290.42566507 16.26311194 286.02568988 9.26049805 281.57739258 C2.5455782 277.32182017 -4.2241768 273.15774714 -11 269 C-19.3881601 263.85256828 -27.74585315 258.6636053 -36.0546875 253.38916016 C-43.08160904 248.93317534 -50.15538354 244.55430284 -57.23754883 240.18676758 C-58.07697021 239.66880615 -58.9163916 239.15084473 -59.78125 238.6171875 C-60.52439453 238.15940918 -61.26753906 237.70163086 -62.03320312 237.22998047 C-63.7076293 236.18284056 -65.35678914 235.09547391 -67 234 C-63.75040818 220.08107631 -59.70237431 206.39427449 -55.69470215 192.67926025 C-53.4696601 185.06448629 -51.25693127 177.44612596 -49.04296875 169.828125 C-48.80577244 169.01230579 -48.56857613 168.19648659 -48.32419205 167.35594559 C-42.20613008 146.31035688 -36.16697008 125.24214873 -30.12471771 104.17469788 C-20.15852263 69.42762058 -10.14653278 34.69490323 0 0 Z " fill="#219B8D" transform="translate(67,80)"/>
<path d="M0 0 C45.54 0 91.08 0 138 0 C138 136.62 138 273.24 138 414 C92.46 414 46.92 414 0 414 C0 277.38 0 140.76 0 0 Z " fill="#232220" transform="translate(659,83)"/>
<path d="M0 0 C2.59988312 2.33086803 4.02051407 4.67222312 5.57130432 7.78857422 C6.06582596 8.77493866 6.5603476 9.7613031 7.06985474 10.77755737 C7.60440277 11.85901031 8.13895081 12.94046326 8.68969727 14.0546875 C9.25928665 15.19503448 9.82887604 16.33538147 10.41572571 17.51028442 C11.65511469 19.99176796 12.89067111 22.47510911 14.12329292 24.95996094 C16.08203039 28.90856824 18.04913792 32.85296827 20.01731873 36.796875 C23.14071557 43.05817144 26.25833466 49.32232476 29.37359422 55.58767319 C34.92166845 66.74544847 40.47909458 77.89856541 46.03914875 89.05037498 C47.98355098 92.95083874 49.92534396 96.85258666 51.86496466 100.75543022 C60.71052896 118.55932917 60.71052896 118.55932917 69.98184299 136.14404297 C72.0659977 140.02277141 73.748417 143.75251837 75 148 C74.61255615 148.4125 74.2251123 148.825 73.82592773 149.25 C64.6856725 158.95790734 64.6856725 158.95790734 55.828125 168.921875 C52.79772718 172.3666862 49.66305985 175.71528301 46.54467773 179.08032227 C42.75070287 183.17748351 39.00430511 187.31436483 35.27734375 191.47265625 C32.70190225 194.33082203 30.10314236 197.16710261 27.5 200 C24.14706883 203.64927171 20.81001643 207.31169598 17.5 211 C13.72462783 215.20684327 9.91019552 219.37674853 6.0859375 223.5390625 C3.20577393 226.67667086 0.34468386 229.83020941 -2.5 233 C-6.27537217 237.20684327 -10.08980448 241.37674853 -13.9140625 245.5390625 C-16.79422607 248.67667086 -19.65531614 251.83020941 -22.5 255 C-26.27537217 259.20684327 -30.08980448 263.37674853 -33.9140625 267.5390625 C-36.79422607 270.67667086 -39.65531614 273.83020941 -42.5 277 C-46.27537217 281.20684327 -50.08980448 285.37674853 -53.9140625 289.5390625 C-56.79422607 292.67667086 -59.65531614 295.83020941 -62.5 299 C-66.27537217 303.20684327 -70.08980448 307.37674853 -73.9140625 311.5390625 C-76.79422607 314.67667086 -79.65531614 317.83020941 -82.5 321 C-85.81001774 324.68830548 -89.14719583 328.35061053 -92.5 332 C-99.33433427 339.44225282 -106.12612743 346.91625111 -112.6875 354.6015625 C-113.3371875 355.29378906 -113.3371875 355.29378906 -114 356 C-114.33 356 -114.66 356 -115 356 C-115.62816931 327.33819934 -116.09235969 298.67926491 -116.31640625 270.01171875 C-116.32200325 269.30458606 -116.32760026 268.59745338 -116.33336687 267.86889243 C-116.46346536 251.38504103 -116.56567456 234.90115688 -116.63893867 218.41695631 C-116.66668027 212.23281536 -116.69669545 206.04868522 -116.72713137 199.86455703 C-116.73825052 197.57663545 -116.74884694 195.2887118 -116.75944138 193.00078773 C-116.84458247 175.16902928 -117.07963237 157.35542016 -117.64120293 139.53100395 C-117.80990682 133.9060496 -117.9323416 128.27989821 -118.05201435 122.65371037 C-118.14575293 118.48833673 -118.27465251 114.33072268 -118.49075317 110.16976929 C-119.69252344 86.71924195 -119.69252344 86.71924195 -115.19946289 80.51287842 C-110.80711014 76.31338932 -105.91225874 73.65781843 -100.40600586 71.18563843 C-96.55547632 69.2881635 -93.33340555 66.67615732 -90 64 C-83.51337026 59.04118613 -76.83031605 54.42626494 -70.06640625 49.85546875 C-64.93467138 46.37054669 -59.93223217 42.76119918 -55 39 C-48.51212927 34.05250904 -41.84185599 29.43299934 -35.08178711 24.86645508 C-29.11542598 20.81579211 -23.33805993 16.5624159 -17.6015625 12.19433594 C-11.89665552 7.86898979 -6.01885911 3.87578049 0 0 Z " fill="#F0654A" transform="translate(488,0)"/>
<path d="M0 0 C2.32421875 2.16796875 2.32421875 2.16796875 4.6875 5.1875 C5.33477051 6.00226807 5.33477051 6.00226807 5.99511719 6.83349609 C7.3464767 8.54354979 8.6747637 10.26965241 10 12 C10.78503906 13.00933594 11.57007813 14.01867187 12.37890625 15.05859375 C14.01001418 17.16801668 15.63415904 19.28133956 17.25 21.40234375 C20.3890593 25.51889688 23.56914213 29.60320839 26.75 33.6875 C27.63896973 34.82952881 27.63896973 34.82952881 28.54589844 35.99462891 C29.75900417 37.55298309 30.97222107 39.11125075 32.18554688 40.66943359 C33.96287063 42.95230934 35.73942812 45.23577866 37.515625 47.51953125 C38.09183594 48.26033936 38.66804687 49.00114746 39.26171875 49.7644043 C40.41577121 51.24862598 41.56942053 52.73316121 42.72265625 54.21801758 C45.77846645 58.15116606 48.84353066 62.0766429 51.921875 65.9921875 C52.56253906 66.80945313 53.20320312 67.62671875 53.86328125 68.46875 C55.09221357 70.03608397 56.32385214 71.60130098 57.55859375 73.1640625 C58.38810547 74.22367188 58.38810547 74.22367188 59.234375 75.3046875 C59.72131836 75.92327637 60.20826172 76.54186523 60.70996094 77.17919922 C62.0325186 79.04589775 63.03227521 80.93030289 64 83 C53.27336603 88.67035219 42.52384118 94.29482493 31.75 99.875 C24.12191123 103.82593956 16.49430226 107.77766909 8.87719727 111.74975586 C6.98000438 112.73900069 5.08207089 113.72682666 3.18334961 114.71313477 C-1.4056624 117.1014305 -5.97322577 119.52079349 -10.51171875 122.00390625 C-11.38505859 122.47731445 -12.25839844 122.95072266 -13.15820312 123.43847656 C-14.79921527 124.32994532 -16.43501776 125.23109766 -18.06445312 126.14355469 C-18.78955078 126.53575195 -19.51464844 126.92794922 -20.26171875 127.33203125 C-21.20470825 127.85373901 -21.20470825 127.85373901 -22.16674805 128.38598633 C-24.56586403 129.18952564 -25.65267453 128.91726778 -28 128 C-30.04858398 126.67163086 -30.04858398 126.67163086 -32.24609375 124.96484375 C-33.48564819 124.01049438 -33.48564819 124.01049438 -34.75024414 123.03686523 C-35.63703857 122.34407471 -36.52383301 121.65128418 -37.4375 120.9375 C-39.34103471 119.46860599 -41.24468371 117.99986007 -43.1484375 116.53125 C-44.12135742 115.77714844 -45.09427734 115.02304687 -46.09667969 114.24609375 C-50.56789295 110.78703203 -55.06454737 107.3616742 -59.5625 103.9375 C-60.4277832 103.27758057 -61.29306641 102.61766113 -62.18457031 101.93774414 C-68.16123361 97.38396332 -74.16815114 92.87214084 -80.1875 88.375 C-87.35465767 83.01909057 -94.44266198 77.57173567 -101.49072266 72.06030273 C-106.95085225 67.79710404 -112.46814281 63.61792366 -118.02124023 59.47680664 C-122.98253632 55.77419032 -127.90270088 52.02056889 -132.8125 48.25 C-139.13646768 43.39625411 -145.5143261 38.63662648 -152 34 C-151.67 33.34 -151.34 32.68 -151 32 C-148.92820835 31.32779121 -148.92820835 31.32779121 -146.14149475 30.72341919 C-145.08912125 30.49085419 -144.03674774 30.25828918 -142.95248413 30.01867676 C-141.78746368 29.77033081 -140.62244324 29.52198486 -139.42211914 29.26611328 C-137.59258446 28.86566299 -137.59258446 28.86566299 -135.72608948 28.4571228 C-132.36681496 27.72357833 -129.00605937 26.99764458 -125.64445043 26.2749238 C-122.11477822 25.5141817 -118.58722172 24.74375454 -115.05943298 23.97433472 C-108.35333521 22.51324981 -101.64540182 21.06078086 -94.93676227 19.6114167 C-86.63399467 17.81722522 -78.33359278 16.01218552 -70.03320312 14.20703125 C-61.53255435 12.35866484 -53.03169101 10.5113227 -44.52931213 8.67092896 C-43.87501813 8.52924085 -43.22072412 8.38755275 -42.54660302 8.24157107 C-39.39438511 7.5589664 -36.24202709 6.87702354 -33.08941746 6.19622993 C-27.83131621 5.05859048 -22.57649231 3.91140235 -17.33224487 2.71136475 C-16.49460067 2.52051237 -15.65695646 2.32966 -14.7939291 2.13302422 C-13.30292748 1.79145515 -11.81292567 1.44547056 -10.32430363 1.09367561 C-6.83428011 0.29407162 -3.58047144 -0.3866132 0 0 Z " fill="#287C9B" transform="translate(544,350)"/>
<path d="M0 0 C3.12226702 2.87978139 5.15061858 5.69506564 7.1796875 9.41796875 C7.77160889 10.49481934 8.36353027 11.57166992 8.97338867 12.68115234 C9.60092041 13.83824707 10.22845215 14.9953418 10.875 16.1875 C11.53997997 17.40098746 12.20576404 18.6140346 12.87231445 19.82666016 C14.24464264 22.32402241 15.61419866 24.82287339 16.98193359 27.32275391 C20.01560594 32.85960948 23.10005178 38.36799875 26.1875 43.875 C27.0544751 45.42320435 27.0544751 45.42320435 27.93896484 47.00268555 C32.06632481 54.3628139 36.24259481 61.69391651 40.44189453 69.01318359 C45.14448365 77.22188228 49.76216811 85.4775669 54.36914062 93.74023438 C54.92923828 94.74376953 55.48933594 95.74730469 56.06640625 96.78125 C56.56084229 97.66876953 57.05527832 98.55628906 57.56469727 99.47070312 C58.55160462 101.20983566 59.60647548 102.91157039 60.71411133 104.57641602 C62.55024728 108.03708082 61.85562242 109.7077011 60.87207031 113.35107422 C59.11559289 118.68639898 57.0134293 123.87097904 54.875 129.0625 C53.26625 133.001875 51.6575 136.94125 50 141 C33.17 138.525 33.17 138.525 16 136 C12.57271535 110.98581323 9.54275711 85.93157235 6.57128906 60.85961914 C5.87990628 55.02685127 5.18382429 49.19465436 4.48656845 43.36258602 C3.9457833 38.83417382 3.40770501 34.30544312 2.87042999 29.77661324 C2.61456807 27.62312643 2.35779892 25.4697472 2.10009003 23.31648064 C1.74328594 20.33232402 1.39020167 17.34775005 1.03808594 14.36303711 C0.93216125 13.48372025 0.82623657 12.60440338 0.71710205 11.69844055 C0.25805554 7.77609888 -0.13410571 3.95785304 0 0 Z " fill="#FCD189" transform="translate(362,401)"/>
<path d="M0 0 C8 0 8 0 10.37695312 1.92773438 C11.00537109 2.80751953 11.63378906 3.68730469 12.28125 4.59375 C12.97734375 5.54121094 13.6734375 6.48867188 14.390625 7.46484375 C15.43476562 8.96724609 15.43476562 8.96724609 16.5 10.5 C17.22703125 11.50160156 17.9540625 12.50320313 18.703125 13.53515625 C20.4920699 16.00672486 22.24919059 18.501272 24 21 C24.33 14.07 24.66 7.14 25 0 C27.31 0 29.62 0 32 0 C32 11.88 32 23.76 32 36 C24 36 24 36 21.71484375 34.1640625 C21.12832031 33.32617188 20.54179688 32.48828125 19.9375 31.625 C19.28652344 30.72265625 18.63554688 29.8203125 17.96484375 28.890625 C16.99224609 27.45976563 16.99224609 27.45976563 16 26 C14.98099609 24.56914063 14.98099609 24.56914063 13.94140625 23.109375 C12.27064044 20.75618371 10.63211205 18.38016341 9 16 C8.67 22.6 8.34 29.2 8 36 C5.36 36 2.72 36 0 36 C0 24.12 0 12.24 0 0 Z " fill="#232220" transform="translate(1184,630)"/>
<path d="M0 0 C8 0 8 0 10.37695312 1.92773438 C11.00537109 2.80751953 11.63378906 3.68730469 12.28125 4.59375 C12.97734375 5.54121094 13.6734375 6.48867188 14.390625 7.46484375 C15.43476563 8.96724609 15.43476563 8.96724609 16.5 10.5 C17.22703125 11.50160156 17.9540625 12.50320313 18.703125 13.53515625 C20.4920699 16.00672486 22.24919059 18.501272 24 21 C24.33 14.07 24.66 7.14 25 0 C27.31 0 29.62 0 32 0 C32 11.88 32 23.76 32 36 C24 36 24 36 21.71484375 34.1640625 C21.12832031 33.32617188 20.54179687 32.48828125 19.9375 31.625 C19.28652344 30.72265625 18.63554687 29.8203125 17.96484375 28.890625 C16.99224609 27.45976563 16.99224609 27.45976563 16 26 C14.98099609 24.56914063 14.98099609 24.56914063 13.94140625 23.109375 C12.27064044 20.75618371 10.63211205 18.38016341 9 16 C8.67 22.6 8.34 29.2 8 36 C5.36 36 2.72 36 0 36 C0 24.12 0 12.24 0 0 Z " fill="#232220" transform="translate(273,630)"/>
<path d="M0 0 C8 0 8 0 10.37695312 1.92773438 C11.00537109 2.80751953 11.63378906 3.68730469 12.28125 4.59375 C12.97734375 5.54121094 13.6734375 6.48867188 14.390625 7.46484375 C15.43476562 8.96724609 15.43476562 8.96724609 16.5 10.5 C17.22703125 11.50160156 17.9540625 12.50320313 18.703125 13.53515625 C20.4920699 16.00672486 22.24919059 18.501272 24 21 C24.33 14.07 24.66 7.14 25 0 C27.31 0 29.62 0 32 0 C32 11.88 32 23.76 32 36 C24 36 24 36 22.0378418 34.59472656 C21.37522339 33.62744629 21.37522339 33.62744629 20.69921875 32.640625 C20.19712891 31.93679688 19.69503906 31.23296875 19.17773438 30.5078125 C18.68595703 29.76273438 18.19417969 29.01765625 17.6875 28.25 C17.17638672 27.52039063 16.66527344 26.79078125 16.13867188 26.0390625 C15.18535455 24.67540963 14.24281863 23.30410459 13.31518555 21.92285156 C11.93615404 19.90665476 10.46561928 17.95415904 9 16 C8.67 22.6 8.34 29.2 8 36 C5.36 36 2.72 36 0 36 C0 24.12 0 12.24 0 0 Z " fill="#232220" transform="translate(1498,630)"/>
<path d="M0 0 C8 0 8 0 10.16162109 1.6965332 C10.69352051 2.47343506 11.22541992 3.25033691 11.7734375 4.05078125 C12.37027344 4.89447266 12.96710937 5.73816406 13.58203125 6.60742188 C14.17371094 7.50009766 14.76539063 8.39277344 15.375 9.3125 C15.98988281 10.19357422 16.60476563 11.07464844 17.23828125 11.98242188 C18.85252118 14.30487867 20.43473173 16.64437332 22 19 C22.66 19.99 23.32 20.98 24 22 C24.33 14.74 24.66 7.48 25 0 C27.31 0 29.62 0 32 0 C32 11.88 32 23.76 32 36 C24 36 24 36 21.82250977 34.37939453 C21.28424561 33.63802246 20.74598145 32.89665039 20.19140625 32.1328125 C19.59005859 31.32972656 18.98871094 30.52664063 18.36914062 29.69921875 C17.47485352 28.42498047 17.47485352 28.42498047 16.5625 27.125 C15.62760742 25.86236328 15.62760742 25.86236328 14.67382812 24.57421875 C10.33915285 18.6783057 10.33915285 18.6783057 9 16 C8.67 22.6 8.34 29.2 8 36 C5.36 36 2.72 36 0 36 C0 24.12 0 12.24 0 0 Z " fill="#232220" transform="translate(965,630)"/>
<path d="M0 0 C8 0 8 0 10.16162109 1.60473633 C10.69352051 2.33974365 11.22541992 3.07475098 11.7734375 3.83203125 C12.66869141 5.02989258 12.66869141 5.02989258 13.58203125 6.25195312 C14.17371094 7.09693359 14.76539063 7.94191406 15.375 8.8125 C15.98988281 9.64587891 16.60476562 10.47925781 17.23828125 11.33789062 C19.56851282 14.51200256 21.81577158 17.72365737 24 21 C24.33 14.07 24.66 7.14 25 0 C27.31 0 29.62 0 32 0 C32 11.88 32 23.76 32 36 C24 36 24 36 21.82250977 34.27172852 C21.28424561 33.48209717 20.74598145 32.69246582 20.19140625 31.87890625 C19.59005859 31.02619141 18.98871094 30.17347656 18.36914062 29.29492188 C17.47485352 27.94237305 17.47485352 27.94237305 16.5625 26.5625 C15.93923828 25.66466797 15.31597656 24.76683594 14.67382812 23.84179688 C13.52742535 22.18893107 12.39218769 20.52822758 11.27172852 18.85766602 C10.13216796 17.07082178 10.13216796 17.07082178 9 16 C8.67 22.6 8.34 29.2 8 36 C5.36 36 2.72 36 0 36 C0 24.12 0 12.24 0 0 Z " fill="#232220" transform="translate(172,630)"/>
<path d="M0 0 C4.66643291 2.69254137 7.90033466 6.20100399 9.625 11.375 C10.36921256 18.2437159 9.66384049 23.67310754 5.625 29.375 C1.2059007 33.91353441 -3.61250691 35.12386426 -9.8125 35.6875 C-15.94010005 35.14999122 -20.50060404 33.7259275 -24.75 29.125 C-28.24707136 24.57976011 -29.68106321 20.11145662 -29.25 14.375 C-28.28152488 8.63094066 -25.98525464 4.6237689 -21.3125 1 C-14.78036453 -2.61352175 -6.87659662 -3.1566853 0 0 Z M-19.125 10.1875 C-20.75314633 13.03675608 -21.24350809 15.08770231 -21.375 18.375 C-19.84057149 22.49372916 -18.27885102 25.25576659 -14.375 27.375 C-10.68926938 28.4967441 -8.8981814 28.5633453 -5.25 27.25 C-2.08736486 25.18741187 -0.29843605 23.63004562 1.625 20.375 C2.25530076 16.04168225 1.92727045 13.94715478 -0.125 10.0625 C-3.13419229 6.46818698 -4.69200882 5.55404161 -9.3125 5.0625 C-13.66572701 5.50670684 -16.11573927 7.07076567 -19.125 10.1875 Z " fill="#232220" transform="translate(703.375,631.625)"/>
<path d="M0 0 C3.34125 -0.061875 6.6825 -0.12375 10.125 -0.1875 C11.68758545 -0.22846802 11.68758545 -0.22846802 13.28173828 -0.27026367 C18.59090995 -0.31774905 22.48711716 -0.12808857 27 3 C29.25160642 5.2468562 29.91953318 6.47065456 30.3984375 9.62109375 C30.31897016 19.17041905 30.31897016 19.17041905 27 23 C26.34 23.33 25.68 23.66 25 24 C26.56641751 28.30764815 28.68336156 32.06171464 31 36 C27.87276503 36.49054666 25.10480755 36.69572611 22 36 C19.65111994 33.65111994 18.22835245 31.07396744 17 28 C17 27.34 17 26.68 17 26 C14.03 26 11.06 26 8 26 C8 29.3 8 32.6 8 36 C5.36 36 2.72 36 0 36 C0 24.12 0 12.24 0 0 Z M8 7 C8 10.96 8 14.92 8 19 C15.20067469 19.62470799 15.20067469 19.62470799 21.75 17.375 C23.2515692 14.98623412 23.2515692 14.98623412 22.9375 11.875 C22.23305313 8.70825068 22.23305313 8.70825068 19 7 C16.25481679 6.75812349 16.25481679 6.75812349 13.3125 6.875 C11.559375 6.91625 9.80625 6.9575 8 7 Z " fill="#232220" transform="translate(1640,630)"/>
<path d="M0 0 C3.155625 -0.061875 6.31125 -0.12375 9.5625 -0.1875 C10.5429126 -0.21481201 11.5233252 -0.24212402 12.53344727 -0.27026367 C18.15431848 -0.32326388 22.04205887 0.29922681 27 3 C30.51158952 6.73814368 30.44295477 10.72011741 30.296875 15.62109375 C29.91420138 18.6875179 28.98109196 20.63792881 27 23 C26.34 23.33 25.68 23.66 25 24 C26.56641751 28.30764815 28.68336156 32.06171464 31 36 C27.84502379 36.56789572 25.12887544 36.78350752 22 36 C20.17295923 33.82310036 18.93072657 31.55032691 17.55078125 29.0703125 C16.17324491 26.84774452 16.17324491 26.84774452 13.85546875 26.1796875 C11.39814865 25.86582625 11.39814865 25.86582625 8 26 C8 29.3 8 32.6 8 36 C5.36 36 2.72 36 0 36 C0 24.12 0 12.24 0 0 Z M8 7 C8 10.96 8 14.92 8 19 C10.6296875 19.061875 10.6296875 19.061875 13.3125 19.125 C14.79169922 19.15980469 14.79169922 19.15980469 16.30078125 19.1953125 C19.22406527 19.20682639 19.22406527 19.20682639 22 17 C22.97868153 14.13923862 23.22135111 12.61297231 22.1875 9.75 C21.10600632 7.84925076 21.10600632 7.84925076 19 7 C15.32984725 6.8622315 11.67388652 6.95728039 8 7 Z " fill="#232220" transform="translate(1408,630)"/>
<path d="M0 0 C3.17625 -0.061875 6.3525 -0.12375 9.625 -0.1875 C11.1092749 -0.22846802 11.1092749 -0.22846802 12.62353516 -0.27026367 C18.73231763 -0.327684 22.96543426 0.48863525 27.8125 4.5 C30.66599762 8.10441805 30.48791854 12.62585311 30 17 C28.38433073 20.46214844 26.73618508 22.26381492 24 25 C27.465 30.445 27.465 30.445 31 36 C27.7 36 24.4 36 21 36 C20.34 34.535625 19.68 33.07125 19 31.5625 C17.16543336 28.07889529 17.16543336 28.07889529 13.88671875 26.1796875 C11.44522138 25.86396731 11.44522138 25.86396731 8 26 C8 29.3 8 32.6 8 36 C5.36 36 2.72 36 0 36 C0 24.12 0 12.24 0 0 Z M8 7 C8 10.96 8 14.92 8 19 C9.5675 19.061875 11.135 19.12375 12.75 19.1875 C13.63171875 19.22230469 14.5134375 19.25710938 15.421875 19.29296875 C18.50090515 18.94307896 19.80558744 18.15918117 22 16 C22.66666667 13 22.66666667 13 22 10 C19.80558744 7.84081883 18.50090515 7.05692104 15.421875 6.70703125 C14.09929687 6.75923828 14.09929687 6.75923828 12.75 6.8125 C10.39875 6.9053125 10.39875 6.9053125 8 7 Z " fill="#232220" transform="translate(1274,630)"/>
<path d="M0 0 C3.34125 -0.061875 6.6825 -0.12375 10.125 -0.1875 C11.68758545 -0.22846802 11.68758545 -0.22846802 13.28173828 -0.27026367 C18.61704568 -0.31798281 22.40926431 -0.04577656 27 3 C30.46161054 6.8077716 30.44368744 10.69553624 30.296875 15.62109375 C29.91420138 18.6875179 28.98109196 20.63792881 27 23 C26.34 23.33 25.68 23.66 25 24 C26.56641751 28.30764815 28.68336156 32.06171464 31 36 C27.84502379 36.56789572 25.12887544 36.78350752 22 36 C20.17295923 33.82310036 18.93072657 31.55032691 17.55078125 29.0703125 C16.17324491 26.84774452 16.17324491 26.84774452 13.85546875 26.1796875 C11.39814865 25.86582625 11.39814865 25.86582625 8 26 C8 29.3 8 32.6 8 36 C5.36 36 2.72 36 0 36 C0 24.12 0 12.24 0 0 Z M8 7 C8 10.96 8 14.92 8 19 C15.20067469 19.62470799 15.20067469 19.62470799 21.75 17.375 C23.2515692 14.98623412 23.2515692 14.98623412 22.9375 11.875 C22.23305313 8.70825068 22.23305313 8.70825068 19 7 C16.25481679 6.75812349 16.25481679 6.75812349 13.3125 6.875 C11.559375 6.91625 9.80625 6.9575 8 7 Z " fill="#232220" transform="translate(728,630)"/>
<path d="M0 0 C3.17625 -0.061875 6.3525 -0.12375 9.625 -0.1875 C11.1092749 -0.22846802 11.1092749 -0.22846802 12.62353516 -0.27026367 C18.79114643 -0.32823697 22.80791745 0.56826329 27.8203125 4.38671875 C30.26239647 7.72638988 30.1124086 11.99075994 30 16 C28.59205352 19.87185282 26.9176017 22.18893994 24 25 C24.433125 25.62648438 24.86625 26.25296875 25.3125 26.8984375 C25.869375 27.71570313 26.42625 28.53296875 27 29.375 C27.556875 30.18710937 28.11375 30.99921875 28.6875 31.8359375 C30 34 30 34 30 36 C27.03 36 24.06 36 21 36 C20.74347656 35.36191406 20.48695313 34.72382812 20.22265625 34.06640625 C19.00079225 31.4293193 17.85505853 29.24470553 16 27 C12.78976134 25.87265867 10.4668174 25.94825646 7 26 C7 29.3 7 32.6 7 36 C4.69 36 2.38 36 0 36 C0 24.12 0 12.24 0 0 Z M7 7 C7 10.96 7 14.92 7 19 C8.7325 19.061875 10.465 19.12375 12.25 19.1875 C13.22453125 19.22230469 14.1990625 19.25710938 15.203125 19.29296875 C18.42111304 18.955889 19.73070281 18.27459928 22 16 C22.66666667 13 22.66666667 13 22 10 C19.73070281 7.72540072 18.42111304 7.044111 15.203125 6.70703125 C14.22859375 6.74183594 13.2540625 6.77664063 12.25 6.8125 C10.5175 6.874375 8.785 6.93625 7 7 Z " fill="#232220" transform="translate(126,630)"/>
<path d="M0 0 C2.64 0 5.28 0 8 0 C8.33 4.95 8.66 9.9 9 15 C9.84304687 14.08476563 10.68609375 13.16953125 11.5546875 12.2265625 C12.66143634 11.02602139 13.76820838 9.82550167 14.875 8.625 C15.70837891 7.72007812 15.70837891 7.72007812 16.55859375 6.796875 C17.09355469 6.21679688 17.62851562 5.63671875 18.1796875 5.0390625 C18.67194824 4.50490723 19.16420898 3.97075195 19.67138672 3.42041016 C22.85882825 0.01274113 22.85882825 0.01274113 25.1640625 -0.1953125 C26.38222656 -0.16050781 26.38222656 -0.16050781 27.625 -0.125 C28.85089844 -0.09792969 28.85089844 -0.09792969 30.1015625 -0.0703125 C31.04128906 -0.03550781 31.04128906 -0.03550781 32 0 C30.38462556 3.89917968 27.72075127 6.71293772 24.875 9.75 C24.40707031 10.25660156 23.93914063 10.76320313 23.45703125 11.28515625 C22.30873459 12.52719141 21.15491328 13.76411494 20 15 C22.94384297 20.50370641 26.40068304 25.55608002 30.00170898 30.64331055 C33 34.9002207 33 34.9002207 33 36 C29.42166359 36.80680654 26.55206083 37.00502137 23 36 C20.15265277 33.07129999 18.01186128 30.04521255 15.8125 26.625 C14.9153125 25.325625 14.9153125 25.325625 14 24 C11.93335676 23.79780821 11.93335676 23.79780821 10.41796875 25.20703125 C8.6554843 27.43562729 8.51614215 28.87723828 8.3125 31.6875 C8.24675781 32.49574219 8.18101563 33.30398438 8.11328125 34.13671875 C8.07589844 34.75160156 8.03851563 35.36648438 8 36 C5.36 36 2.72 36 0 36 C0 24.12 0 12.24 0 0 Z " fill="#232220" transform="translate(35,630)"/>
<path d="M0 0 C8.91 0 17.82 0 27 0 C27 2.31 27 4.62 27 7 C20.73 7 14.46 7 8 7 C8 9.64 8 12.28 8 15 C13.61 15 19.22 15 25 15 C25 17.31 25 19.62 25 22 C19.39 22 13.78 22 8 22 C8 24.64 8 27.28 8 30 C14.6 30 21.2 30 28 30 C28 31.98 28 33.96 28 36 C18.76 36 9.52 36 0 36 C0 24.12 0 12.24 0 0 Z " fill="#232220" transform="translate(1548,630)"/>
<path d="M0 0 C8.91 0 17.82 0 27 0 C27 2.31 27 4.62 27 7 C20.73 7 14.46 7 8 7 C8 9.64 8 12.28 8 15 C13.61 15 19.22 15 25 15 C25 17.31 25 19.62 25 22 C19.39 22 13.78 22 8 22 C8 24.64 8 27.28 8 30 C14.6 30 21.2 30 28 30 C28 31.98 28 33.96 28 36 C18.76 36 9.52 36 0 36 C0 24.12 0 12.24 0 0 Z " fill="#232220" transform="translate(1320,630)"/>
<path d="M0 0 C8.91 0 17.82 0 27 0 C27 2.31 27 4.62 27 7 C20.73 7 14.46 7 8 7 C8 9.64 8 12.28 8 15 C13.61 15 19.22 15 25 15 C25 17.31 25 19.62 25 22 C19.39 22 13.78 22 8 22 C8 24.64 8 27.28 8 30 C14.6 30 21.2 30 28 30 C28 31.98 28 33.96 28 36 C18.76 36 9.52 36 0 36 C0 24.12 0 12.24 0 0 Z " fill="#232220" transform="translate(921,630)"/>
<path d="M0 0 C8.91 0 17.82 0 27 0 C27 2.31 27 4.62 27 7 C20.73 7 14.46 7 8 7 C8 9.64 8 12.28 8 15 C13.61 15 19.22 15 25 15 C25 17.31 25 19.62 25 22 C19.39 22 13.78 22 8 22 C8 24.64 8 27.28 8 30 C14.6 30 21.2 30 28 30 C28 31.98 28 33.96 28 36 C18.76 36 9.52 36 0 36 C0 24.12 0 12.24 0 0 Z " fill="#232220" transform="translate(82,630)"/>
<path d="M0 0 C2.31 0 4.62 0 7 0 C7 4.95 7 9.9 7 15 C12.61 15 18.22 15 24 15 C24 10.05 24 5.1 24 0 C26.64 0 29.28 0 32 0 C32 11.88 32 23.76 32 36 C29.36 36 26.72 36 24 36 C24 31.38 24 26.76 24 22 C18.39 22 12.78 22 7 22 C7 26.62 7 31.24 7 36 C4.69 36 2.38 36 0 36 C0 24.12 0 12.24 0 0 Z " fill="#232220" transform="translate(1729,630)"/>
<path d="M0 0 C8.91 0 17.82 0 27 0 C27 2.31 27 4.62 27 7 C20.73 7 14.46 7 8 7 C8 9.64 8 12.28 8 15 C13.61 15 19.22 15 25 15 C25 17.31 25 19.62 25 22 C19.39 22 13.78 22 8 22 C8 24.64 8 27.28 8 30 C14.27 30 20.54 30 27 30 C27 31.98 27 33.96 27 36 C18.09 36 9.18 36 0 36 C0 24.12 0 12.24 0 0 Z " fill="#232220" transform="translate(569,630)"/>
<path d="M0 0 C2.97 0 5.94 0 9 0 C10.65645311 3.84011644 12.31040225 7.68129912 13.9621582 11.5234375 C14.52301442 12.82711017 15.08452348 14.13050219 15.64672852 15.43359375 C18.58102481 22.23594464 21.49074607 29.0269154 24 36 C21.03 36 18.06 36 15 36 C14.01 34.02 13.02 32.04 12 30 C6.72 30 1.44 30 -4 30 C-4.99 31.98 -5.98 33.96 -7 36 C-9.64 36 -12.28 36 -15 36 C-12.54933568 28.02889185 -9.24006872 20.52991078 -5.8125 12.9375 C-5.24765492 11.67791007 -4.68319889 10.4181456 -4.11914062 9.15820312 C-2.74989682 6.10373617 -1.37676603 3.05108191 0 0 Z M4 10 C3.3490741 11.24735567 2.70448331 12.49801832 2.0625 13.75 C1.52302734 14.79414062 1.52302734 14.79414062 0.97265625 15.859375 C-0.18922956 18.24545543 -0.18922956 18.24545543 -1 22 C2.3 22 5.6 22 9 22 C8.54625 20.576875 8.0925 19.15375 7.625 17.6875 C7.36976563 16.88699219 7.11453125 16.08648438 6.8515625 15.26171875 C6.01168189 12.77275472 6.01168189 12.77275472 4 10 Z " fill="#232220" transform="translate(847,630)"/>
<path d="M0 0 C2.05078125 0.03255208 4.1015625 0.06510417 6.15234375 0.09765625 C10.15106431 8.45748143 13.97600819 16.87613241 17.58984375 25.41015625 C17.94369141 26.2400708 18.29753906 27.06998535 18.66210938 27.92504883 C18.98759766 28.70001709 19.31308594 29.47498535 19.6484375 30.2734375 C20.08434204 31.3085144 20.08434204 31.3085144 20.52905273 32.36450195 C21.15234375 34.09765625 21.15234375 34.09765625 21.15234375 36.09765625 C18.51234375 36.09765625 15.87234375 36.09765625 13.15234375 36.09765625 C12.16234375 34.11765625 11.17234375 32.13765625 10.15234375 30.09765625 C4.54234375 29.76765625 -1.06765625 29.43765625 -6.84765625 29.09765625 C-7.34265625 31.57265625 -7.34265625 31.57265625 -7.84765625 34.09765625 C-8.17765625 34.75765625 -8.50765625 35.41765625 -8.84765625 36.09765625 C-11.81765625 36.09765625 -14.78765625 36.09765625 -17.84765625 36.09765625 C-17.57091064 35.46375977 -17.29416504 34.82986328 -17.0090332 34.17675781 C-15.72505654 31.23416654 -14.44236582 28.29101795 -13.16015625 25.34765625 C-12.70261963 24.29755371 -12.24508301 23.24745117 -11.77368164 22.16552734 C-9.00911774 15.80757177 -6.28953222 9.43809015 -3.6875 3.01171875 C-2.42220516 0.12802353 -2.42220516 0.12802353 0 0 Z M1.15234375 10.09765625 C0.48147255 11.72092495 -0.18422654 13.34633203 -0.84765625 14.97265625 C-1.21890625 15.87757813 -1.59015625 16.7825 -1.97265625 17.71484375 C-2.96255851 19.98749483 -2.96255851 19.98749483 -2.84765625 22.09765625 C0.45234375 22.09765625 3.75234375 22.09765625 7.15234375 22.09765625 C6.5362002 20.28212647 5.90916147 18.47029095 5.27734375 16.66015625 C4.92929687 15.65082031 4.58125 14.64148438 4.22265625 13.6015625 C3.41179282 10.95793874 3.41179282 10.95793874 1.15234375 10.09765625 Z " fill="#232220" transform="translate(426.84765625,629.90234375)"/>
<path d="M0 0 C1.8984375 0.828125 1.8984375 0.828125 4.5859375 2.328125 C3.8359375 5.265625 3.8359375 5.265625 2.5859375 8.328125 C0.7734375 9.328125 0.7734375 9.328125 -1.4140625 9.328125 C-3.08374222 8.6690409 -4.75014205 8.00161661 -6.4140625 7.328125 C-9.62276483 7.16054743 -9.62276483 7.16054743 -12.4140625 7.328125 C-12.4140625 8.648125 -12.4140625 9.968125 -12.4140625 11.328125 C-11.52203125 11.63105469 -10.63 11.93398438 -9.7109375 12.24609375 C-8.54046875 12.66503906 -7.37 13.08398438 -6.1640625 13.515625 C-5.00390625 13.92167969 -3.84375 14.32773437 -2.6484375 14.74609375 C0.92710609 16.49500094 2.4855438 17.97664934 4.5859375 21.328125 C5.3500905 24.11069594 5.239213 26.5218807 4.5859375 29.328125 C1.53198701 33.45994037 -1.38000343 35.39589184 -6.4140625 36.328125 C-13.49115399 36.41377815 -18.57948995 35.3474972 -24.4140625 31.328125 C-23.5390625 25.578125 -23.5390625 25.578125 -22.4140625 23.328125 C-18.4140625 25.328125 -18.4140625 25.328125 -16.5703125 26.390625 C-14.08801453 27.46988499 -12.35561257 27.53228824 -9.6640625 27.453125 C-8.46523437 27.42605469 -8.46523437 27.42605469 -7.2421875 27.3984375 C-6.63890625 27.37523437 -6.035625 27.35203125 -5.4140625 27.328125 C-5.4140625 26.008125 -5.4140625 24.688125 -5.4140625 23.328125 C-6.30609375 23.01359375 -7.198125 22.6990625 -8.1171875 22.375 C-9.28765625 21.94703125 -10.458125 21.5190625 -11.6640625 21.078125 C-12.82421875 20.66046875 -13.984375 20.2428125 -15.1796875 19.8125 C-18.43358485 18.31916547 -20.24718418 17.15608484 -22.4140625 14.328125 C-23.21304475 11.24791065 -23.07285517 8.43386187 -22.4140625 5.328125 C-16.74199704 -1.83658927 -8.62303747 -2.39993923 0 0 Z " fill="#232220" transform="translate(1708.4140625,630.671875)"/>
<path d="M0 0 C2.64 0 5.28 0 8 0 C8.01458252 0.74161377 8.02916504 1.48322754 8.04418945 2.24731445 C8.11859457 5.60290631 8.21528006 8.95749494 8.3125 12.3125 C8.33505859 13.47974609 8.35761719 14.64699219 8.38085938 15.84960938 C8.41630859 16.96787109 8.45175781 18.08613281 8.48828125 19.23828125 C8.51446533 20.26993408 8.54064941 21.30158691 8.56762695 22.36450195 C9.05631584 25.34326907 9.58003866 26.25540998 12 28 C15.18561327 28.88112708 17.16823848 29.29224053 20.3125 28.1875 C22.15097822 27.09312675 22.15097822 27.09312675 23 25 C23.15344209 23.11527141 23.24959571 21.22572126 23.31640625 19.3359375 C23.35830078 18.21445312 23.40019531 17.09296875 23.44335938 15.9375 C23.48267578 14.761875 23.52199219 13.58625 23.5625 12.375 C23.60568359 11.19164062 23.64886719 10.00828125 23.69335938 8.7890625 C23.79967426 5.85949672 23.90170642 2.92984412 24 0 C26.64 0 29.28 0 32 0 C32.11651725 4.37477474 32.18736 8.74914827 32.25 13.125 C32.28351563 14.3625 32.31703125 15.6 32.3515625 16.875 C32.47372711 28.23630909 32.47372711 28.23630909 28 33 C24.3636177 36.29547146 21.56351961 36.87972926 16.75 37.25 C10.99007991 36.86600533 6.64692869 35.68915763 2.5625 31.5 C0.0879122 27.54065952 -0.1199891 24.59776585 -0.09765625 20.01953125 C-0.09443359 18.85615234 -0.09121094 17.69277344 -0.08789062 16.49414062 C-0.07951172 15.27919922 -0.07113281 14.06425781 -0.0625 12.8125 C-0.05798828 11.58595703 -0.05347656 10.35941406 -0.04882812 9.09570312 C-0.03703065 6.06375332 -0.02056921 3.03190094 0 0 Z " fill="#232220" transform="translate(1591,630)"/>
<path d="M0 0 C8.91 0 17.82 0 27 0 C27 2.31 27 4.62 27 7 C20.4 7 13.8 7 7 7 C7 9.64 7 12.28 7 15 C12.94 15 18.88 15 25 15 C25 17.31 25 19.62 25 22 C19.06 22 13.12 22 7 22 C7 24.64 7 27.28 7 30 C13.6 30 20.2 30 27 30 C27 31.98 27 33.96 27 36 C18.09 36 9.18 36 0 36 C0 24.12 0 12.24 0 0 Z " fill="#232220" transform="translate(1455,630)"/>
<path d="M0 0 C3.17625 -0.061875 6.3525 -0.12375 9.625 -0.1875 C11.1092749 -0.22846802 11.1092749 -0.22846802 12.62353516 -0.27026367 C18.72422649 -0.32760795 23.10257777 0.4023111 27.8125 4.625 C29.65351454 8.30702907 30.12101956 11.89957271 30 16 C28.51216314 20.22858897 26.86411644 22.70568086 23 25 C19.71480525 26.09506492 17.26336585 26.09960608 13.8125 26.0625 C12.18248047 26.04896484 12.18248047 26.04896484 10.51953125 26.03515625 C9.68808594 26.02355469 8.85664062 26.01195312 8 26 C8 29.3 8 32.6 8 36 C5.36 36 2.72 36 0 36 C0 24.12 0 12.24 0 0 Z M8 7 C8 10.96 8 14.92 8 19 C9.5675 19.061875 11.135 19.12375 12.75 19.1875 C13.63171875 19.22230469 14.5134375 19.25710938 15.421875 19.29296875 C18.50090515 18.94307896 19.80558744 18.15918117 22 16 C22.66666667 13 22.66666667 13 22 10 C19.80558744 7.84081883 18.50090515 7.05692104 15.421875 6.70703125 C14.09929687 6.75923828 14.09929687 6.75923828 12.75 6.8125 C10.39875 6.9053125 10.39875 6.9053125 8 7 Z " fill="#232220" transform="translate(1804,630)"/>
<path d="M0 0 C8.58 0 17.16 0 26 0 C26 2.31 26 4.62 26 7 C19.73 7 13.46 7 7 7 C7 9.64 7 12.28 7 15 C12.94 15 18.88 15 25 15 C25 17.31 25 19.62 25 22 C19.06 22 13.12 22 7 22 C7 24.64 7 27.28 7 30 C13.6 30 20.2 30 27 30 C27 31.98 27 33.96 27 36 C18.09 36 9.18 36 0 36 C0 24.12 0 12.24 0 0 Z " fill="#232220" transform="translate(1141,630)"/>
<path d="M0 0 C3.17625 -0.061875 6.3525 -0.12375 9.625 -0.1875 C11.1092749 -0.22846802 11.1092749 -0.22846802 12.62353516 -0.27026367 C17.82654348 -0.31917006 21.5651546 -0.03616339 26 3 C28.35215435 5.31237161 28.93367172 6.56557964 29.43359375 9.83984375 C29.44410792 18.17757793 29.44410792 18.17757793 27.3125 22.125 C22.96540345 25.64967288 19.20706984 26.24630923 13.6875 26.125 C12.61886719 26.10695313 11.55023437 26.08890625 10.44921875 26.0703125 C9.64097656 26.04710937 8.83273437 26.02390625 8 26 C8 29.3 8 32.6 8 36 C5.36 36 2.72 36 0 36 C0 24.12 0 12.24 0 0 Z M8 7 C8 10.96 8 14.92 8 19 C14.66939214 19.583394 14.66939214 19.583394 20.6875 17.375 C22.26101354 14.99621956 22.26101354 14.99621956 21.9375 11.875 C21.23305313 8.70825068 21.23305313 8.70825068 18 7 C15.48415109 6.75849227 15.48415109 6.75849227 12.8125 6.875 C11.224375 6.91625 9.63625 6.9575 8 7 Z " fill="#232220" transform="translate(1364,630)"/>
<path d="M0 0 C2.97 0 5.94 0 9 0 C11.97 7.92 14.94 15.84 18 24 C19.79003911 21.31494133 20.82112709 19.105065 21.9453125 16.11328125 C22.47705078 14.7065918 22.47705078 14.7065918 23.01953125 13.27148438 C23.38433594 12.29501953 23.74914062 11.31855469 24.125 10.3125 C24.49753906 9.32443359 24.87007812 8.33636719 25.25390625 7.31835938 C26.17265019 4.8801543 27.08787234 2.44068627 28 0 C30.64 0 33.28 0 36 0 C35.39451018 4.68705593 34.06579277 8.8028665 32.27734375 13.1484375 C32.01240616 13.80582916 31.74746857 14.46322083 31.47450256 15.14053345 C30.63451863 17.22104354 29.78616677 19.29801877 28.9375 21.375 C28.36337408 22.79274283 27.78980069 24.21070954 27.21679688 25.62890625 C25.81757872 29.08854987 24.41083966 32.54507671 23 36 C20.03 36 17.06 36 14 36 C10.45966626 28.40983111 7.22351258 20.74222452 4.1875 12.9375 C3.78080078 11.90689453 3.37410156 10.87628906 2.95507812 9.81445312 C2.57158203 8.83283203 2.18808594 7.85121094 1.79296875 6.83984375 C1.27512817 5.51521118 1.27512817 5.51521118 0.74682617 4.16381836 C0 2 0 2 0 0 Z " fill="#232220" transform="translate(519,630)"/>
<path d="M0 0 C8.25 0 16.5 0 25 0 C25 2.31 25 4.62 25 7 C19.06 7 13.12 7 7 7 C7 9.97 7 12.94 7 16 C12.28 16 17.56 16 23 16 C23 17.98 23 19.96 23 22 C17.72 22 12.44 22 7 22 C7 26.62 7 31.24 7 36 C4.69 36 2.38 36 0 36 C0 24.12 0 12.24 0 0 Z " fill="#232220" transform="translate(638,630)"/>
<path d="M0 0 C9.9 0 19.8 0 30 0 C30 2.31 30 4.62 30 7 C26.37 7 22.74 7 19 7 C19 16.57 19 26.14 19 36 C16.36 36 13.72 36 11 36 C11 26.43 11 16.86 11 7 C7.37 7 3.74 7 0 7 C0 4.69 0 2.38 0 0 Z " fill="#232220" transform="translate(1230,630)"/>
<path d="M0 0 C9.9 0 19.8 0 30 0 C30 2.31 30 4.62 30 7 C26.37 7 22.74 7 19 7 C19 16.57 19 26.14 19 36 C16.36 36 13.72 36 11 36 C11 26.43 11 16.86 11 7 C7.37 7 3.74 7 0 7 C0 4.69 0 2.38 0 0 Z " fill="#232220" transform="translate(1011,630)"/>
<path d="M0 0 C9.9 0 19.8 0 30 0 C30 2.31 30 4.62 30 7 C26.37 7 22.74 7 19 7 C19 16.57 19 26.14 19 36 C16.36 36 13.72 36 11 36 C11 26.43 11 16.86 11 7 C7.37 7 3.74 7 0 7 C0 4.69 0 2.38 0 0 Z " fill="#232220" transform="translate(796,630)"/>
<path d="M0 0 C9.9 0 19.8 0 30 0 C30 2.31 30 4.62 30 7 C26.37 7 22.74 7 19 7 C19 16.57 19 26.14 19 36 C16.36 36 13.72 36 11 36 C11 26.43 11 16.86 11 7 C7.37 7 3.74 7 0 7 C0 4.69 0 2.38 0 0 Z " fill="#232220" transform="translate(454,630)"/>
<path d="M0 0 C9.57 0 19.14 0 29 0 C29 2.31 29 4.62 29 7 C25.37 7 21.74 7 18 7 C18 16.57 18 26.14 18 36 C15.69 36 13.38 36 11 36 C11 26.43 11 16.86 11 7 C7.37 7 3.74 7 0 7 C0 4.69 0 2.38 0 0 Z " fill="#232220" transform="translate(345,630)"/>
<path d="M0 0 C2.64 0 5.28 0 8 0 C8 9.57 8 19.14 8 29 C12.95 29 17.9 29 23 29 C23 31.31 23 33.62 23 36 C15.41 36 7.82 36 0 36 C0 24.12 0 12.24 0 0 Z " fill="#232220" transform="translate(884,630)"/>
<path d="M0 0 C2.64 0 5.28 0 8 0 C8 11.88 8 23.76 8 36 C5.36 36 2.72 36 0 36 C0 24.12 0 12.24 0 0 Z " fill="#232220" transform="translate(498,630)"/>
<path d="M0 0 C2.64 0 5.28 0 8 0 C8 11.88 8 23.76 8 36 C5.36 36 2.72 36 0 36 C0 24.12 0 12.24 0 0 Z " fill="#232220" transform="translate(388,630)"/>
<path d="M0 0 C2.64 0 5.28 0 8 0 C8 11.88 8 23.76 8 36 C5.36 36 2.72 36 0 36 C0 24.12 0 12.24 0 0 Z " fill="#232220" transform="translate(323,630)"/>
<path d="M0 0 C2.64 0 5.28 0 8 0 C8 11.88 8 23.76 8 36 C5.36 36 2.72 36 0 36 C0 24.12 0 12.24 0 0 Z " fill="#232220" transform="translate(247,630)"/>
<path d="M0 0 C2.31 0 4.62 0 7 0 C7 11.88 7 23.76 7 36 C4.69 36 2.38 36 0 36 C0 24.12 0 12.24 0 0 Z " fill="#232220" transform="translate(1779,630)"/>
<path d="M0 0 C1.65 0 3.3 0 5 0 C5 2.97 5 5.94 5 9 C7.97 9 10.94 9 14 9 C14 10.65 14 12.3 14 14 C11.03 14 8.06 14 5 14 C5 16.97 5 19.94 5 23 C3.35 23 1.7 23 0 23 C0 20.03 0 17.06 0 14 C-2.97 14 -5.94 14 -9 14 C-9 12.35 -9 10.7 -9 9 C-6.03 9 -3.06 9 0 9 C0 6.03 0 3.06 0 0 Z " fill="#232220" transform="translate(1086,638)"/>
</svg>
