<?xml version="1.0" encoding="UTF-8"?>
<svg version="1.1" xmlns="http://www.w3.org/2000/svg" width="1164" height="593">
<path d="M0 0 C27.02108434 0 27.02108434 0 37.8125 0.75 C39.1018042 0.83797852 40.3911084 0.92595703 41.71948242 1.01660156 C121.1761283 6.68577319 197.8012759 28.27208327 269 64 C270.04978027 64.52625977 271.09956055 65.05251953 272.18115234 65.59472656 C309.63038562 84.48425176 344.79502241 108.15678111 377 135 C377.57975586 135.48065918 378.15951172 135.96131836 378.75683594 136.45654297 C386.21849366 142.65036028 393.44268014 149.06073313 400.546875 155.66015625 C401.93686077 156.94178291 403.34308836 158.20572705 404.75 159.46875 C411.29192748 165.35648474 417.57911401 171.47387592 423.8125 177.6875 C425.01338257 178.88149414 425.01338257 178.88149414 426.23852539 180.09960938 C430.47345023 184.34556382 434.54944 188.66966873 438.46069336 193.21557617 C440.54477933 195.63152929 442.71008001 197.96899233 444.875 200.3125 C449.79577302 205.7149752 454.4270049 211.30237581 459 217 C459.92389449 218.13198786 460.8484029 219.26347487 461.7734375 220.39453125 C486.55901792 250.83643508 507.73744037 284.29663853 526 319 C526.54914062 320.04091797 527.09828125 321.08183594 527.6640625 322.15429688 C561.3960933 386.5763146 581.61400027 457.60712436 589.25 529.8125 C589.33326538 530.59888855 589.41653076 531.3852771 589.50231934 532.19549561 C591.62657727 552.54148645 592 572.4211547 592 593 C396.64 593 201.28 593 0 593 C0 397.31 0 201.62 0 0 Z M119 137 C119 169.67 119 202.34 119 236 C121.97 236 124.94 236 128 236 C128.01458252 234.71424072 128.02916504 233.42848145 128.04418945 232.10375977 C128.10247569 227.30075262 128.17970561 222.4981995 128.26245117 217.69555664 C128.29555845 215.62304086 128.32363388 213.55043799 128.34643555 211.4777832 C128.38024376 208.48611589 128.43257168 205.49523651 128.48828125 202.50390625 C128.49467117 201.58791153 128.5010611 200.67191681 128.50764465 199.72816467 C128.66849337 192.57532746 130.0254922 186.41741734 133.625 180.1875 C139.33517722 174.92812625 145.68614448 173.30194074 153.3515625 173.61328125 C158.79244379 174.40774622 162.56627688 176.52854732 166.375 180.4375 C168.99673271 184.57177081 170.24128626 188.074582 170.31884766 192.97387695 C170.33871735 193.93449539 170.35858704 194.89511383 170.37905884 195.88484192 C170.39061005 196.9089769 170.40216125 197.93311188 170.4140625 198.98828125 C170.43342865 200.04661667 170.4527948 201.10495209 170.4727478 202.19535828 C170.53241248 205.56765748 170.57887693 208.93999106 170.625 212.3125 C170.66319181 214.60222823 170.70224424 216.89194228 170.7421875 219.18164062 C170.83810344 224.78764491 170.92218328 230.39371645 171 236 C174.3 236 177.6 236 181 236 C181.0745815 229.48960834 181.12880554 222.9794696 181.16479492 216.46875 C181.17981037 214.25744286 181.20022891 212.04616515 181.22631836 209.83496094 C181.26302154 206.64250391 181.2797993 203.45044325 181.29296875 200.2578125 C181.30845261 199.28135773 181.32393646 198.30490295 181.33988953 197.29885864 C181.34231698 187.22642421 179.23911914 178.3371659 172 171 C165.27712302 165.52983302 157.68061231 163.25167135 149 164 C139.65936851 165.47652594 135.84573299 169.58076392 128 176 C128 163.13 128 150.26 128 137 C125.03 137 122.06 137 119 137 Z M79 140 C79 148.25 79 156.5 79 165 C74.38 165 69.76 165 65 165 C65 167.97 65 170.94 65 174 C69.62 174 74.24 174 79 174 C79 194.46 79 214.92 79 236 C82.3 236 85.6 236 89 236 C89 215.54 89 195.08 89 174 C94.61 174 100.22 174 106 174 C106 171.03 106 168.06 106 165 C100.39 165 94.78 165 89 165 C89 156.75 89 148.5 89 140 C85.7 140 82.4 140 79 140 Z M201.25 175.75 C193.27686091 185.36145535 192.14007373 195.91258568 193 208 C195.18533501 218.06502867 200.53704505 225.85290646 208.91796875 231.75 C217.28491464 236.7733071 227.0344262 238.33428035 236.58984375 236.50390625 C245.50857568 234.07152481 252.80220424 229.79669365 258 222 C259.39205064 218.75381554 259.39205064 218.75381554 260 216 C256.54653985 215.49969994 253.4380426 215.32854675 250 216 C247.8858134 217.82492163 246.38119211 219.80440152 244.6875 222.01953125 C241.17746538 226.13894688 237.12717739 226.78701266 231.91796875 227.30859375 C223.97055749 227.61390757 217.3232021 226.83862341 211.22265625 221.421875 C206.42752128 216.21639841 204.38763378 210.93816889 203 204 C222.8 204 242.6 204 263 204 C263 191.31974437 261.10852669 182.65402514 252.37109375 173.24609375 C244.77236498 166.21153973 235.62230176 163.63092317 225.42578125 163.78515625 C215.8732746 164.63119146 207.75545894 168.80255659 201.25 175.75 Z M63.1875 277.5 C62.465625 278.325 61.74375 279.15 61 280 C60.319375 280.721875 59.63875 281.44375 58.9375 282.1875 C53.25630013 290.43440303 51.04744177 300.09876097 52 310 C54.41668819 321.51724545 59.27478696 330.21989505 69 337 C77.46004025 341.63762378 87.67312615 342.43606086 97.01171875 340.31640625 C108.12282638 336.58171038 114.66123523 330.38940844 120 320.06640625 C124.34063566 310.02868628 123.56356343 299.13144495 120 289 C115.48424231 279.75812324 108.17499843 273.13656718 98.49609375 269.71875 C85.77089194 266.05452914 73.11115874 268.67897 63.1875 277.5 Z M151 277.8125 C150.34 278.534375 149.68 279.25625 149 280 C148.67 276.7 148.34 273.4 148 270 C144.7 270 141.4 270 138 270 C138 302.34 138 334.68 138 368 C141.3 368 144.6 368 148 368 C148.33 355.46 148.66 342.92 149 330 C152.96 333.465 152.96 333.465 157 337 C165.52737419 341.43423458 173.51131845 342.44859601 182.95703125 340.33984375 C191.85710551 337.46443514 199.43954139 332.37777241 204.00390625 324.0703125 C204.33261719 323.38710938 204.66132813 322.70390625 205 322 C205.31839844 321.35804688 205.63679688 320.71609375 205.96484375 320.0546875 C209.58518944 311.27910301 209.34192391 299.91318565 206.375 291 C202.29814628 281.4920929 195.72731565 274.18408381 186.0625 270.1875 C173.17906318 265.97657123 160.74022151 268.23552242 151 277.8125 Z M225 279 C217.99875439 287.00142356 215.18979995 297.47760851 215.62109375 308.0234375 C216.94138493 318.39520945 221.05743139 327.04604884 229.13671875 333.78125 C238.50306176 340.45047853 247.57084483 342.13526207 259 341 C267.27819024 339.13107185 274.84248536 335.45567911 279.82421875 328.42578125 C282.63082277 324.46911252 282.63082277 324.46911252 284 320 C280.2739301 319.65309004 276.71393806 319.47174756 273 320 C270.57064776 322.68565179 270.57064776 322.68565179 269 326 C261.14252393 331.93319622 253.42396599 331.64992869 244 331 C237.53496326 329.40060194 233.72639641 325.33552213 230 320 C228.02 314.555 228.02 314.555 226 309 C245.8 309 265.6 309 286 309 C286 296.33779947 285.03665871 287.44576677 276.3203125 278.22265625 C261.5989582 264.24032576 239.49073963 265.15329325 225 279 Z M312 276 C311.01 277.32 310.02 278.64 309 280 C308.67 276.7 308.34 273.4 308 270 C304.7 270 301.4 270 298 270 C298 293.1 298 316.2 298 340 C301.3 340 304.6 340 308 340 C308.0093457 338.618125 308.01869141 337.23625 308.02832031 335.8125 C308.0683434 330.66097371 308.13413701 325.51003688 308.20751953 320.35888672 C308.23565772 318.13402914 308.25690765 315.90907293 308.27099609 313.68408203 C308.29252432 310.47637697 308.33922678 307.26984897 308.390625 304.0625 C308.39185364 303.07572266 308.39308228 302.08894531 308.39434814 301.07226562 C308.53757849 294.24168507 309.72977433 288.71434509 314.34063721 283.47729492 C319.36741423 278.85887188 325.24736462 277.52420709 331.95703125 277.7578125 C338.36179407 278.51707693 342.51500166 280.91349349 346.7734375 285.6953125 C350.27727177 292.27895014 350.31983786 299.99170081 350.4140625 307.28515625 C350.43342865 308.22685165 350.4527948 309.16854706 350.4727478 310.13877869 C350.53198873 313.11326358 350.57870474 316.08778836 350.625 319.0625 C350.66323096 321.09311478 350.70228558 323.12371424 350.7421875 325.15429688 C350.83764389 330.10273841 350.92187698 335.0512557 351 340 C353.97 340 356.94 340 360 340 C360.09940099 333.20479525 360.17172033 326.41002038 360.21972656 319.61425781 C360.23975417 317.30591451 360.26698439 314.99762138 360.30175781 312.68945312 C360.35066594 309.35794643 360.37305811 306.02711462 360.390625 302.6953125 C360.42159271 301.165009 360.42159271 301.165009 360.45318604 299.60379028 C360.4557729 291.21052807 358.43993227 284.69475457 353.8125 277.6875 C341.63479297 266.05102439 324.88339654 264.98719887 312 276 Z M113 359 C112.67 371.87 112.34 384.74 112 398 C110.35 396.35 108.7 394.7 107 393 C100.14199386 387.60559273 93.23601783 385.63635111 84.5625 386.125 C74.57042508 387.3652994 66.55852898 391.23990846 60 399 C53.2958535 409.98578629 51.10380122 420.64903115 53.68359375 433.37109375 C56.92550549 443.93084776 62.23890122 450.77781215 72 456 C80.55065695 460.10493495 89.76102137 460.32592527 98.75 457.4375 C104.18114522 455.2540062 107.84450368 452.07709073 112 448 C112.495 452.95 112.495 452.95 113 458 C116.3 458 119.6 458 123 458 C123 425.33 123 392.66 123 359 C119.7 359 116.4 359 113 359 Z M145.25390625 396.6640625 C136.49139299 406.23508696 135.27725013 416.39047696 135.82519531 428.91455078 C136.54508685 437.50297749 140.91935636 445.04676032 147 451 C156.2690607 458.04630063 165.48781685 460.09979913 177 459 C186.22202201 457.26065661 192.9900165 453.21625018 199 446 C205.53283778 435.51552715 207.83334042 425.04521571 205.3515625 412.80078125 C202.06575921 401.83406172 196.03384912 394.46287341 186 389 C172.16612762 382.54419289 155.9887079 386.43358039 145.25390625 396.6640625 Z M223.59765625 396.3125 C215.77987655 404.56991034 213.41408141 414.69601218 213.71484375 425.82421875 C214.76139591 437.47965585 219.91126534 445.83657861 228.7265625 453.3046875 C236.5474741 459.13677622 245.5453508 459.63818882 255 459 C264.50963933 457.36898628 272.12298318 452.95332564 277.875 445.1875 C284.45389311 434.88412911 285.89855666 423.77412059 283.30859375 411.8046875 C279.91093105 401.59748325 273.63557246 394.01377115 264.09765625 389 C250.12624674 383.05715096 234.65628487 386.2363008 223.59765625 396.3125 Z M316.33984375 394.63671875 C313.33827504 397.90793193 311.27912685 400.39440702 311 405 C310.34 405 309.68 405 309 405 C309 399.39 309 393.78 309 388 C306.03 388 303.06 388 300 388 C300 411.1 300 434.2 300 458 C302.97 458 305.94 458 309 458 C309.01458252 457.03288086 309.02916504 456.06576172 309.04418945 455.06933594 C309.10289852 451.42348303 309.1801141 447.77820188 309.26245117 444.1328125 C309.29536379 442.56585078 309.32349616 440.99878007 309.34643555 439.43164062 C309.54164284 426.43997255 309.80476401 413.17522713 319 403 C324.38801092 398.27245494 330.03353189 397.06432152 337 396 C337 392.7 337 389.4 337 386 C329.25869853 386 321.81850734 389.23540099 316.33984375 394.63671875 Z M56 505 C56 515.89 56 526.78 56 538 C56.99 538 57.98 538 59 538 C59 528.76 59 519.52 59 510 C59.66 510 60.32 510 61 510 C61.23332031 510.69738281 61.46664062 511.39476562 61.70703125 512.11328125 C63.24421448 515.54524019 65.35042985 518.27900097 67.6875 521.1875 C71.54646105 526.05760654 75.10331166 531.01252019 78.4296875 536.26953125 C78.94789062 536.84058594 79.46609375 537.41164063 80 538 C81.32 538 82.64 538 84 538 C84 527.11 84 516.22 84 505 C83.01 505 82.02 505 81 505 C80.67 514.24 80.34 523.48 80 533 C78.55625 530.97875 77.1125 528.9575 75.625 526.875 C75.1403125 526.20049805 74.655625 525.52599609 74.15625 524.83105469 C71.81144577 521.56584331 69.50225469 518.28296706 67.25 514.953125 C66.58943604 513.99043701 66.58943604 513.99043701 65.91552734 513.00830078 C65.06646636 511.76924358 64.22789236 510.52292336 63.40087891 509.26904297 C62.1296315 507.36424921 62.1296315 507.36424921 60 505 C58.68 505 57.36 505 56 505 Z M104 505 C104 515.89 104 526.78 104 538 C111.59 538 119.18 538 127 538 C127 537.01 127 536.02 127 535 C120.07 535 113.14 535 106 535 C106 531.04 106 527.08 106 523 C112.27 523 118.54 523 125 523 C125 522.01 125 521.02 125 520 C118.73 520 112.46 520 106 520 C106 516.04 106 512.08 106 508 C112.93 508 119.86 508 127 508 C127 507.01 127 506.02 127 505 C119.41 505 111.82 505 104 505 Z M141 505 C141 505.99 141 506.98 141 508 C144.96 508 148.92 508 153 508 C153 517.9 153 527.8 153 538 C153.99 538 154.98 538 156 538 C156 528.1 156 518.2 156 508 C159.96 508 163.92 508 168 508 C168 507.01 168 506.02 168 505 C159.09 505 150.18 505 141 505 Z M180 505 C184.64293425 521.61023626 184.64293425 521.61023626 190 538 C191.32 538 192.64 538 194 538 C196.97 529.09 199.94 520.18 203 511 C205.77447468 517.9361867 208.17955558 524.54936445 210.06640625 531.71289062 C210.68338217 533.98925979 210.68338217 533.98925979 212 537 C214.04315171 538.08287047 214.04315171 538.08287047 216 538 C218.83481205 531.51328302 221.09480913 524.86109062 223.25 518.125 C223.65532959 516.87626099 223.65532959 516.87626099 224.06884766 515.60229492 C224.31940918 514.80799072 224.5699707 514.01368652 224.828125 513.1953125 C225.1669873 512.12821045 225.1669873 512.12821045 225.51269531 511.03955078 C226.15492431 508.70107733 226.15492431 508.70107733 226 505 C225.01 505.33 224.02 505.66 223 506 C221.82782416 508.58950713 221.82782416 508.58950713 220.95703125 511.78515625 C220.60576172 512.95498047 220.25449219 514.12480469 219.89257812 515.33007812 C219.53615234 516.56177734 219.17972656 517.79347656 218.8125 519.0625 C218.26045898 520.91584961 218.26045898 520.91584961 217.69726562 522.80664062 C216.78712837 525.86801139 215.88861754 528.93232673 215 532 C213.05877581 529.08816371 212.13784964 526.75892873 211.0546875 523.45703125 C210.52294922 521.84731445 210.52294922 521.84731445 209.98046875 520.20507812 C209.61566406 519.08552734 209.25085938 517.96597656 208.875 516.8125 C208.50246094 515.68134766 208.12992188 514.55019531 207.74609375 513.38476562 C206.82667503 510.59114719 205.91148559 507.79621484 205 505 C203.04840693 505.0339278 203.04840693 505.0339278 201 506 C199.60090564 508.66737713 199.60090564 508.66737713 198.640625 512.00390625 C198.28516602 513.09775635 197.92970703 514.19160645 197.56347656 515.31860352 C197.1300293 516.71908936 196.69658203 518.1195752 196.25 519.5625 C194.8475 523.996875 193.445 528.43125 192 533 C189.03 523.76 186.06 514.52 183 505 C182.01 505 181.02 505 180 505 Z M242.5625 512.0625 C240.07863343 516.73216915 239.46290514 520.76829823 240 526 C241.73631242 530.91955186 244.48767583 534.3710807 249 537 C253.57369502 538.86335723 257.50639767 539.50378379 262.25 537.9375 C266.766661 535.89510548 269.80751905 533.04425306 272.3125 528.75 C273.75501934 522.97992264 273.94401559 518.00060559 271 512.6875 C268.10094662 508.58460243 264.77554291 506.46376794 260 505 C252.75029674 503.96432811 247.06054468 506.41111053 242.5625 512.0625 Z M290 505 C290 515.89 290 526.78 290 538 C290.99 538 291.98 538 293 538 C293 533.71 293 529.42 293 525 C301.54627185 524.73568231 301.54627185 524.73568231 306 526 C308.47162729 528.68747145 309.94347877 531.25501199 311.53515625 534.53125 C312.75281221 537.1630918 312.75281221 537.1630918 315.18359375 537.84375 C315.78300781 537.8953125 316.38242187 537.946875 317 538 C316.50628906 537.24074219 316.01257813 536.48148438 315.50390625 535.69921875 C314.54291016 534.20841797 314.54291016 534.20841797 313.5625 532.6875 C312.92441406 531.70136719 312.28632813 530.71523438 311.62890625 529.69921875 C310 527 310 527 309 524 C309.763125 523.938125 310.52625 523.87625 311.3125 523.8125 C314.12991668 523.21180677 314.12991668 523.21180677 315.875 520.9375 C317.37736901 517.01464759 317.36500288 513.97848399 316 510 C312.66321498 506.38514956 310.96832419 505.99366484 306 505 C300.72 505 295.44 505 290 505 Z M335 505 C335 515.89 335 526.78 335 538 C335.66 538 336.32 538 337 538 C337.01417969 537.26394531 337.02835937 536.52789063 337.04296875 535.76953125 C337.43262411 527.79739314 337.43262411 527.79739314 340.3125 523.75 C343 522 343 522 344.99316406 522.17944336 C347.44921154 523.18367396 348.27478253 524.22260859 349.796875 526.37890625 C350.52197266 527.38920898 350.52197266 527.38920898 351.26171875 528.41992188 C351.75285156 529.12697266 352.24398438 529.83402344 352.75 530.5625 C353.25660156 531.27341797 353.76320313 531.98433594 354.28515625 532.71679688 C355.53312303 534.47101432 356.76785497 536.23463359 358 538 C359.485 537.505 359.485 537.505 361 537 C356.71 531.06 352.42 525.12 348 519 C354.75 511.125 354.75 511.125 357.875 508.5625 C358.47054688 508.06878906 359.06609375 507.57507813 359.6796875 507.06640625 C360.11539062 506.71449219 360.55109375 506.36257813 361 506 C359.25181838 505.09442358 359.25181838 505.09442358 357 505 C354.63530049 506.82934868 354.63530049 506.82934868 352.375 509.4375 C347.57419808 514.50263179 342.52297206 518.73942156 337 523 C337 517.06 337 511.12 337 505 C336.34 505 335.68 505 335 505 Z " fill="#0D5AA5" transform="translate(0,0)"/>
<path d="M0 0 C6.17342664 5.00512224 9.43628067 12.36944837 10.3828125 20.14453125 C10.71301259 29.4231537 9.16785547 38.02340109 2.6875 45 C-4.30262133 51.11086079 -10.24390046 51.55029288 -19.39453125 51.3515625 C-26.6519913 50.64390117 -31.33381335 47.57350072 -36 42 C-41.55635921 33.49651783 -42.06303259 24.89204392 -41 15 C-39.06698978 8.04809777 -35.08224493 2.8474326 -29 -1 C-19.82656859 -6.12231945 -8.91251644 -5.27859058 0 0 Z " fill="#0D5AA5" transform="translate(104,399)"/>
<path d="M0 0 C5.2429419 4.39453857 9.26817295 10.10151861 10.30029297 17.01000977 C10.43716054 19.14148407 10.4672807 21.23943575 10.4375 23.375 C10.43137695 24.12233398 10.42525391 24.86966797 10.41894531 25.63964844 C10.25394399 31.47054132 9.21660412 36.05137827 6 41 C5.46375 41.9075 4.9275 42.815 4.375 43.75 C-1.5597539 49.37239843 -7.48274497 51.33519876 -15.625 51.5625 C-24.17373298 51.22708694 -28.91145287 49.43346193 -34.8125 43.3125 C-40.27189569 36.54434507 -41.59269827 29.65570215 -41.3515625 21.0625 C-40.46308134 13.32284186 -37.72657858 6.33613004 -32 1 C-21.63915756 -5.41090051 -10.84803842 -5.8500751 0 0 Z " fill="#0D5AA5" transform="translate(188,281)"/>
<path d="M0 0 C5.58830642 5.12131703 8.30791138 12.87898595 8.953125 20.26171875 C9.12740261 29.04821512 7.7303617 36.01189238 2 42.875 C-3.96345832 48.95665299 -8.19051963 50.09287029 -16.5625 50.4375 C-23.46156209 50.26706862 -28.79969503 49.32830643 -34.25 44.9375 C-41.06185656 37.32926773 -42.73904333 29.23951299 -42.56640625 19.2265625 C-41.83142179 11.58635369 -38.70666217 5.26726305 -33.25 -0.0625 C-22.93160171 -7.43956177 -10.4552856 -6.63508509 0 0 Z " fill="#0D5AA5" transform="translate(104.25,282.0625)"/>
<path d="M0 0 C6.33960968 5.38628492 9.57615927 11.26887787 10.3125 19.48828125 C10.6184967 29.00286618 9.0874463 35.65634295 4.375 43.8125 C-2.7686367 50.39216538 -9.92765651 51.78052523 -19.50390625 51.4140625 C-26.01177725 50.64329789 -29.89357275 48.4496449 -34.3125 43.6875 C-39.98385298 36.3671395 -41.17109932 29.17520118 -41 20 C-39.77844115 11.5145287 -36.82136461 5.07370632 -30.125 -0.3125 C-20.34568181 -5.59333182 -9.60159947 -5.73518358 0 0 Z " fill="#0D5AA5" transform="translate(186,399)"/>
<path d="M0 0 C6.16163921 6.5039525 9.11186161 14.37816866 9.31640625 23.2578125 C8.97716548 31.29679079 7.03830956 38.20612967 1.5390625 44.2578125 C-4.9960885 50.1651324 -11.28126859 51.00758613 -19.9453125 50.74609375 C-26.35885766 50.12054263 -31.08907945 48.08036181 -35.62109375 43.47265625 C-42.42990041 34.96572994 -42.54582763 25.79217957 -41.75 15.375 C-40.35819166 8.56570982 -37.33996585 4.05031462 -31.8828125 -0.21875 C-21.7898678 -6.87343882 -10.23043563 -6.04525742 0 0 Z " fill="#0D5AA5" transform="translate(265.75,399.625)"/>
<path d="M0 0 C1.54300781 -0.03867187 1.54300781 -0.03867187 3.1171875 -0.078125 C6.4998189 0.29088933 8.36435854 1.31449492 11.125 3.25 C11.455 2.26 11.785 1.27 12.125 0.25 C14.105 0.25 16.085 0.25 18.125 0.25 C18.22413284 5.97911572 18.2965934 11.70772839 18.34472656 17.4375 C18.36479906 19.38517966 18.39206332 21.33279937 18.42675781 23.28027344 C18.47546852 26.08543721 18.49801241 28.88980187 18.515625 31.6953125 C18.53627014 32.56116974 18.55691528 33.42702698 18.57818604 34.31912231 C18.58020417 39.7992328 17.79053617 42.90905641 14.125 47.25 C8.61721367 51.48675872 1.7473229 50.86583385 -4.875 50.25 C-9.64045187 48.66151604 -12.13979391 46.45800937 -14.875 42.25 C-14.875 41.26 -14.875 40.27 -14.875 39.25 C-11.625 39 -11.625 39 -7.875 39.25 C-6.52067325 40.56200404 -5.18766518 41.89631404 -3.875 43.25 C1.0304444 44.52178188 4.54244245 44.48799322 9.125 42.25 C11.32719927 39.34710096 11.323128 36.81630408 11.125 33.25 C10.34125 33.745 9.5575 34.24 8.75 34.75 C3.5759798 36.89097387 -1.56161029 37.41943166 -6.93359375 35.5234375 C-11.8680103 32.91297197 -15.11579661 29.52761018 -16.875 24.25 C-17.36319183 17.74390504 -17.77962405 11.77033056 -13.875 6.25 C-9.42195205 1.24032105 -6.60754955 0.09886608 0 0 Z M-6.875 8.25 C-9.63981412 11.45136372 -10.76499703 13.4937296 -11.375 17.6875 C-10.68388967 22.61166108 -9.09353263 26.42763391 -5.125 29.6875 C-0.91762926 30.73934269 3.09299331 31.42550494 6.94140625 29.19921875 C9.89935907 26.78296332 11.93978055 24.93822972 12.36328125 21.078125 C12.52976723 15.29492776 12.23907993 11.69765398 8.125 7.25 C2.58290649 4.20184857 -1.63095452 4.97247158 -6.875 8.25 Z " fill="#0D5AA5" transform="translate(855.875,469.75)"/>
<path d="M0 0 C6.95909657 -0.30047913 12.81780929 1.19244476 18.76171875 4.83984375 C24.53194252 10.77035151 25.95292245 14.68197335 27.01171875 23.15234375 C10.51171875 23.15234375 -5.98828125 23.15234375 -22.98828125 23.15234375 C-20.88090852 13.66916647 -18.98452773 8.53148368 -10.92578125 3.21484375 C-7.21034648 1.12578797 -4.24017676 0.32488584 0 0 Z " fill="#0D5AA5" transform="translate(248.98828125,276.84765625)"/>
<path d="M0 0 C2.31 0 4.62 0 7 0 C7.33 0.66 7.66 1.32 8 2 C8.99 1.34 9.98 0.68 11 0 C16.26218697 -0.70053882 20.63333532 -0.85751509 25.1875 2 C26.0846875 2.99 26.0846875 2.99 27 4 C29.49361571 2.79618552 31.68143083 1.54571278 34 0 C38.34615406 -0.64817054 42.9666809 -1.00465176 46.984375 0.98046875 C49.81613843 3.25849627 51.7005233 5.6424651 53 9 C53.22705078 11.93261719 53.22705078 11.93261719 53.1953125 15.296875 C53.18886719 16.50214844 53.18242188 17.70742188 53.17578125 18.94921875 C53.15902344 20.20347656 53.14226563 21.45773437 53.125 22.75 C53.11597656 24.01972656 53.10695313 25.28945313 53.09765625 26.59765625 C53.07409005 29.73196093 53.04118832 32.86588541 53 36 C51.02 36 49.04 36 47 36 C46.98541748 35.29915283 46.97083496 34.59830566 46.95581055 33.8762207 C46.88114513 30.68776991 46.78454525 27.50034487 46.6875 24.3125 C46.65366211 22.65831055 46.65366211 22.65831055 46.61914062 20.97070312 C46.58369141 19.90400391 46.54824219 18.83730469 46.51171875 17.73828125 C46.48553467 16.75899658 46.45935059 15.77971191 46.43237305 14.77075195 C45.92758279 11.53593284 44.95379861 9.61326716 43 7 C39.33750793 5.72608971 37.71764868 5.66509728 34.1875 7.3125 C31.91084374 8.81578588 31.91084374 8.81578588 31 11 C30.84655791 12.88472859 30.75040429 14.77427874 30.68359375 16.6640625 C30.64169922 17.78554688 30.59980469 18.90703125 30.55664062 20.0625 C30.51732422 21.238125 30.47800781 22.41375 30.4375 23.625 C30.39431641 24.80835938 30.35113281 25.99171875 30.30664062 27.2109375 C30.20032574 30.14050328 30.09829358 33.07015588 30 36 C28.02 36 26.04 36 24 36 C23.98018066 35.36497559 23.96036133 34.72995117 23.93994141 34.07568359 C23.84418878 31.17506674 23.73471454 28.27512095 23.625 25.375 C23.5940625 24.37597656 23.563125 23.37695312 23.53125 22.34765625 C23.3291271 17.26089655 23.1223485 12.71719063 21 8 C18.48340922 5.93280043 17.20324463 5.98755645 13.9375 6.1875 C10.80702549 7.05337593 9.89089523 7.44354252 8 10 C7.4939264 12.8028729 7.4939264 12.8028729 7.48828125 15.98046875 C7.45283203 17.14384766 7.41738281 18.30722656 7.38085938 19.50585938 C7.35830078 20.72080078 7.33574219 21.93574219 7.3125 23.1875 C7.27833984 24.41404297 7.24417969 25.64058594 7.20898438 26.90429688 C7.1264059 29.93610678 7.05728631 32.96762379 7 36 C4.69 36 2.38 36 0 36 C0 24.12 0 12.24 0 0 Z " fill="#0D5AA5" transform="translate(738,470)"/>
<path d="M0 0 C6.35555459 5.17312583 9.67058919 11.02353515 11 19 C-5.5 19 -22 19 -39 19 C-37.16458522 10.74063351 -35.92345093 5.67929595 -29.19140625 0.6484375 C-20.27886625 -4.67991975 -9.16423571 -4.66250589 0 0 Z " fill="#0D5AA5" transform="translate(242,176)"/>
<path d="M0 0 C1.98 0 3.96 0 6 0 C6.33 5.61 6.66 11.22 7 17 C8.32 16.01 9.64 15.02 11 14 C15.8478806 12.71697632 20.01021908 12.7079335 24.8125 14.125 C30.01659649 17.18623323 33.12434509 20.24854491 35 26 C35.66360562 32.40336329 35.93014691 38.62879922 32 44 C27.52125459 48.37125552 24.44394336 50.15742624 18.1875 50.25 C17.14980469 50.27578125 16.11210938 50.3015625 15.04296875 50.328125 C11.63848364 49.96101749 9.77607715 48.9499248 7 47 C6.67 47.99 6.34 48.98 6 50 C4.02 50 2.04 50 0 50 C0 33.5 0 17 0 0 Z M8 23 C5.2587652 27.39720257 5.20047129 31.97326008 6 37 C7.68287927 40.12177233 9.7827407 42.39137035 13 44 C17.50728651 44.54016597 20.94994123 44.60322525 24.9375 42.3125 C28.07841269 38.79087062 28.86551566 36.23277309 29.375 31.5625 C28.92157117 27.25492613 27.77283283 25.29742282 25 22 C22.25981924 19.8366994 20.51347849 19.07647552 17.0625 18.5625 C13.13707473 19.12327504 11.05202395 20.50288949 8 23 Z " fill="#0D5AA5" transform="translate(1089,456)"/>
<path d="M0 0 C4.74312735 2.73641963 7.3730783 5.87060754 9.5625 10.875 C10.25 13.875 10.25 13.875 10.25 19.875 C0.68 19.875 -8.89 19.875 -18.75 19.875 C-16.26066199 25.70920965 -16.26066199 25.70920965 -11.75 28.875 C-8.64416565 29.39943732 -5.84566397 29.49971057 -2.75 28.875 C-1.04319053 27.24946717 0.62660195 25.58384005 2.25 23.875 C6.0625 23.5625 6.0625 23.5625 9.25 23.875 C7.6759214 28.8834319 4.91217534 32.23673825 0.421875 35 C-4.78035281 37.09586156 -10.91265834 36.48744722 -16.125 34.75 C-20.72460955 31.46456461 -24.33296622 27.41431385 -25.75 21.875 C-26.56426676 15.36086592 -25.58647506 10.26014389 -21.75 4.875 C-15.47518192 -1.72748482 -8.47004104 -2.54101231 0 0 Z M-17.75 9.875 C-18.08 11.195 -18.41 12.515 -18.75 13.875 C-11.49 13.875 -4.23 13.875 3.25 13.875 C1.2623675 8.90591874 0.6852009 7.47827009 -3.75 4.875 C-10.39838978 3.92523003 -13.18988938 4.98122275 -17.75 9.875 Z " fill="#0D5AA5" transform="translate(707.75,470.125)"/>
<path d="M0 0 C4.07166495 2.90833211 7.01178079 6.03534238 8.625 10.875 C8.625 13.845 8.625 16.815 8.625 19.875 C-0.615 20.205 -9.855 20.535 -19.375 20.875 C-16.17725844 26.45829507 -16.17725844 26.45829507 -11.375 28.875 C-8.27961098 29.03593877 -5.36497656 28.69566535 -2.375 27.875 C-1.34354629 26.56584721 -0.33957834 25.23417857 0.625 23.875 C4.3125 23.625 4.3125 23.625 7.625 23.875 C7.54214489 26.69207371 7.04824261 28.40943313 5.140625 30.5078125 C0.10327136 34.96393303 -3.43613869 36.22196656 -10.29296875 36.08203125 C-16.67314494 35.44760472 -20.33331849 32.32154216 -24.2109375 27.59375 C-27.51332852 22.71773641 -26.99457217 16.49387866 -26.375 10.875 C-24.55272048 5.80040098 -21.32885929 1.89084976 -16.46484375 -0.50390625 C-10.9478203 -2.14354499 -5.40752943 -1.80250981 0 0 Z M-18.375 8.875 C-18.705 10.525 -19.035 12.175 -19.375 13.875 C-12.115 13.875 -4.855 13.875 2.625 13.875 C0.13566199 8.04079035 0.13566199 8.04079035 -4.375 4.875 C-10.13075706 4.00029771 -14.3695646 4.24371532 -18.375 8.875 Z " fill="#0D5AA5" transform="translate(959.375,470.125)"/>
<path d="M0 0 C3.18998439 3.0322773 5.60019296 5.80057889 7 10 C7 12.64 7 15.28 7 18 C-2.57 18 -12.14 18 -22 18 C-18.20881593 25.61286287 -18.20881593 25.61286287 -15 27 C-10.46718154 27.54322579 -7.09130278 27.83146879 -3.375 25 C-2.59125 24.34 -1.8075 23.68 -1 23 C2.8125 22.75 2.8125 22.75 6 23 C4.56314642 28.02898754 2.05763331 29.95677502 -2 33 C-7.00744161 35.50372081 -14.29094949 34.55932562 -19.4375 32.875 C-24.45973049 29.2001972 -27.60300879 25.49298 -28.84375 19.27734375 C-29.2419534 13.47352914 -28.37905024 7.27501083 -24.875 2.5 C-17.44850316 -3.95782334 -8.68502874 -4.89519801 0 0 Z M-20 7 C-20.66 8.65 -21.32 10.3 -22 12 C-14.74 12 -7.48 12 0 12 C-1.72832443 7.20020265 -1.72832443 7.20020265 -5 4 C-10.97212735 2.10029473 -15.30394593 2.64755964 -20 7 Z " fill="#0D5AA5" transform="translate(1157,472)"/>
<path d="M0 0 C0.845625 0.06703125 1.69125 0.1340625 2.5625 0.203125 C5.34628293 0.82769168 6.85689881 1.90455175 9 3.75 C9.33 2.76 9.66 1.77 10 0.75 C11.98 0.75 13.96 0.75 16 0.75 C16 12.63 16 24.51 16 36.75 C14.02 36.75 12.04 36.75 10 36.75 C9.67 35.76 9.34 34.77 9 33.75 C8.29617188 34.23597656 7.59234375 34.72195313 6.8671875 35.22265625 C1.682843 37.98434385 -4.60633536 37.76447626 -10.1953125 36.09375 C-13.78659954 34.29033313 -16.54375491 31.67414772 -18.3359375 28.06640625 C-20.07043566 22.01606856 -20.23978677 15.1035216 -18.046875 9.171875 C-15.36929616 4.5962656 -12.28832672 1.79025622 -7.16015625 0.16796875 C-4.65438293 -0.31687347 -2.54011727 -0.2323278 0 0 Z M-11.3125 10.875 C-13.66287761 14.87934704 -13.68497411 18.21101493 -13 22.75 C-11.39107843 26.45051962 -9.50919338 28.74474664 -6 30.75 C-2.34706076 31.86176412 -0.51011872 31.92344036 3.125 30.6875 C6.597311 28.34746433 8.15334906 26.51432692 10 22.75 C10.93615834 17.48016485 10.0939481 13.18465895 7 8.75 C-0.32621501 3.97203369 -5.09587952 5.16242983 -11.3125 10.875 Z " fill="#0D5AA5" transform="translate(816,469.25)"/>
<path d="M0 0 C3.19556529 1.26491126 4.53559295 2.48755084 6.8125 5 C8.98516212 10.48883063 9.02333458 16.54399702 6.75 22 C3.18586658 26.07329534 0.15806525 27.83712715 -5.3125 28.25 C-10.74249192 27.88186495 -13.68116251 26.42295624 -17.375 22.4375 C-19.5515628 17.83323254 -19.68816246 14.01015837 -19 9 C-15.3367221 0.13101141 -8.79537371 -1.08617567 0 0 Z " fill="#0D5AA5" transform="translate(262,508)"/>
<path d="M0 0 C5.38939635 2.59845895 8.6534245 6.306849 11.3125 11.625 C12.58100649 17.85221366 12.12039319 23.71771757 9.3125 29.4375 C4.9777574 34.24086342 0.72601883 36.81826541 -5.75 37.25 C-11.39178768 37.15683286 -15.4634401 35.26339369 -19.8125 31.6875 C-23.86243818 26.71186167 -24.47401234 21.7829559 -24.3046875 15.52734375 C-23.70373201 10.54249501 -21.94659387 6.92319731 -18.375 3.39453125 C-12.76698296 -0.77643142 -6.76451354 -1.02896826 0 0 Z M-16 11 C-18.17966021 14.66579217 -18.2714584 17.78713369 -17.6171875 22 C-16.54425791 25.47683513 -14.55676079 27.44323921 -12 30 C-8.93570224 31.53214888 -6.3834358 31.22938548 -3 31 C1.1574796 29.20472472 3.3002055 27.20475482 5 23 C5.63290308 18.84092259 5.99997224 14.84439325 3.9453125 11.0546875 C1.64270132 8.23432942 -0.32759804 6.22999634 -3.98828125 5.7265625 C-9.77433414 5.47372658 -12.38947252 6.07655344 -16 11 Z " fill="#0D5AA5" transform="translate(1046,469)"/>
<path d="M0 0 C2.31 0 4.62 0 7 0 C7 0.99 7 1.98 7 3 C7.598125 2.505 8.19625 2.01 8.8125 1.5 C13.52533296 -0.71780375 17.87710376 -0.66951214 23 0 C28.08229065 2.35963494 30.08729504 4.79656057 32 10 C32.36318263 14.46483452 32.2820571 18.8992973 32.1875 23.375 C32.16719727 25.19451172 32.16719727 25.19451172 32.14648438 27.05078125 C32.11124582 30.03431206 32.06197525 33.01692458 32 36 C30.02 36 28.04 36 26 36 C25.98541748 35.3294458 25.97083496 34.6588916 25.95581055 33.96801758 C25.881117 30.91561178 25.78452701 27.86427415 25.6875 24.8125 C25.66494141 23.75740234 25.64238281 22.70230469 25.61914062 21.61523438 C25.5659668 20.08286133 25.5659668 20.08286133 25.51171875 18.51953125 C25.48553467 17.58214111 25.45935059 16.64475098 25.43237305 15.67895508 C24.81131323 11.83090916 23.30934679 8.99329756 20.1875 6.625 C16.25149243 5.50042641 12.78365405 6.73878198 9 8 C7.96285478 11.11143567 7.79968139 13.49468096 7.68359375 16.76171875 C7.64169922 17.87998047 7.59980469 18.99824219 7.55664062 20.15039062 C7.51732422 21.31763672 7.47800781 22.48488281 7.4375 23.6875 C7.37272461 25.45577148 7.37272461 25.45577148 7.30664062 27.25976562 C7.20048824 30.17305883 7.09843758 33.08643757 7 36 C4.69 36 2.38 36 0 36 C0 24.12 0 12.24 0 0 Z " fill="#0D5AA5" transform="translate(895,470)"/>
<path d="M0 0 C1.98 0 3.96 0 6 0 C6 4.29 6 8.58 6 13 C8.64 13 11.28 13 14 13 C14 14.98 14 16.96 14 19 C11.36 19 8.72 19 6 19 C6 28.9 6 38.8 6 49 C4.02 49 2.04 49 0 49 C0 39.1 0 29.2 0 19 C-2.64 19 -5.28 19 -8 19 C-8 17.02 -8 15.04 -8 13 C-5.36 13 -2.72 13 0 13 C0 8.71 0 4.42 0 0 Z " fill="#0D5AA5" transform="translate(1004,457)"/>
<path d="M0 0 C0 2.31 0 4.62 0 7 C-0.60328125 7.12375 -1.2065625 7.2475 -1.828125 7.375 C-2.62734375 7.58125 -3.4265625 7.7875 -4.25 8 C-5.03890625 8.185625 -5.8278125 8.37125 -6.640625 8.5625 C-10.35207407 10.82378023 -11.66104608 13.94420531 -13 18 C-13.55607791 21.33914735 -13.69287356 24.61915344 -13.75 28 C-13.77964844 28.87011719 -13.80929687 29.74023438 -13.83984375 30.63671875 C-13.90975408 32.75733216 -13.95723116 34.87866563 -14 37 C-16.31 37 -18.62 37 -21 37 C-21 25.12 -21 13.24 -21 1 C-18.69 1 -16.38 1 -14 1 C-13.67 2.32 -13.34 3.64 -13 5 C-12.0925 4.360625 -11.185 3.72125 -10.25 3.0625 C-6.44916368 0.6504308 -4.41648985 0 0 0 Z " fill="#0D5AA5" transform="translate(679,469)"/>
<path d="M0 0 C2.56364483 -0.10845031 5.12266279 -0.18749744 7.6875 -0.25 C8.40873047 -0.28351563 9.12996094 -0.31703125 9.87304688 -0.3515625 C13.7225424 -0.42187292 15.60067342 -0.23959595 18.98828125 1.79296875 C21 4 21 4 21.5 7.5625 C21 11 21 11 19.6875 12.875 C15.79235542 15.47176305 11.79033248 15.11643829 7.3125 15.0625 C3.6928125 15.0315625 3.6928125 15.0315625 0 15 C0 10.05 0 5.1 0 0 Z " fill="#0D5AA5" transform="translate(293,508)"/>
<path d="M0 0 C1.98 0 3.96 0 6 0 C6 11.88 6 23.76 6 36 C4.02 36 2.04 36 0 36 C0 24.12 0 12.24 0 0 Z " fill="#0D5AA5" transform="translate(882,470)"/>
<path d="M0 0 C1.98 0 3.96 0 6 0 C6 11.88 6 23.76 6 36 C4.02 36 2.04 36 0 36 C0 24.12 0 12.24 0 0 Z " fill="#0D5AA5" transform="translate(725,470)"/>
<path d="M0 0 C2.31 0 4.62 0 7 0 C7 2.64 7 5.28 7 8 C4.69 8 2.38 8 0 8 C0 5.36 0 2.72 0 0 Z " fill="#0D5AA5" transform="translate(881,457)"/>
<path d="M0 0 C2.31 0 4.62 0 7 0 C7 2.64 7 5.28 7 8 C4.69 8 2.38 8 0 8 C0 5.36 0 2.72 0 0 Z " fill="#0D5AA5" transform="translate(724,457)"/>
</svg>
