<svg width="11in" height="8.5in" version="1.1" viewBox="0 0 792 612" xmlns="http://www.w3.org/2000/svg">
	<g transform="matrix(2.2988 0 0 2.2988 213.73 20.795)">
		<path class="UnoptimicedTransforms" d="m7.5117 46.383c0-19.434-5.6992-26.691-5.6992-32.648 0-2.8516 2.0742-4.1484 4.4062-4.1484 3.625 0 17.359 7 33.684 7 22.543 0 31.609-16.586 36.535-16.586 4.1445 0 13.73 14.77 36.793 14.77 20.469 0 28.5-7.7734 34.203-7.7734 1.8125 0 4.1445 1.5547 4.1445 4.4062 0 4.1445-3.8867 7.2539-3.8867 25.133 0 23.84 10.883 57.008 10.883 80.59 0 19.949-10.105 33.684-29.281 43.27-4.9219 2.3359-18.395 7.7773-25.391 11.402-16.582 8.293-20.211 15.289-23.063 15.289-4.1445 0-4.1445-6.2188-25.133-15.027-16.062-6.7383-20.211-7.7734-27.465-10.883-19.434-8.293-28.242-25.914-28.242-47.68 0-24.875 7.5117-50.27 7.5117-67.113z" fill="#fff"/>
		<path class="UnoptimicedTransforms" d="m7.5117 46.383c0-19.434-5.6992-26.691-5.6992-32.648 0-2.8516 2.0742-4.1484 4.4062-4.1484 3.625 0 17.359 7 33.684 7 22.543 0 31.609-16.586 36.535-16.586 4.1445 0 13.73 14.77 36.793 14.77 20.469 0 28.5-7.7734 34.203-7.7734 1.8125 0 4.1445 1.5547 4.1445 4.4062 0 4.1445-3.8867 7.2539-3.8867 25.133 0 23.84 10.883 57.008 10.883 80.59 0 19.949-10.105 33.684-29.281 43.27-4.9219 2.3359-18.395 7.7773-25.391 11.402-16.582 8.293-20.211 15.289-23.063 15.289-4.1445 0-4.1445-6.2188-25.133-15.027-16.062-6.7383-20.211-7.7734-27.465-10.883-19.434-8.293-28.242-25.914-28.242-47.68 0-24.875 7.5117-50.27 7.5117-67.113zm2.0547-0.49609c0 19.434-6.9961 44.828-6.9961 67.629 0 18.398 5.6992 36.02 27.469 45.867 7.2539 3.3672 17.875 6.7344 26.426 10.363 19.176 8.0312 21.508 14.512 24.355 14.512 2.5938 0 2.3359-4.4062 22.285-14.773 9.3281-4.9219 16.324-6.9922 24.355-10.883 18.137-8.8086 28.762-22.543 28.762-41.457 0-24.359-10.883-55.453-10.883-80.328 0-19.434 3.8867-19.953 3.8867-24.617 0-1.5547-1.0352-3.1094-3.1094-3.1094-3.3672 0-13.992 7.7734-32.648 7.7734-22.801 0-33.684-14.254-37.051-14.254-3.8867 0-12.957 16.066-38.348 16.066-16.324 0-28.242-6.7344-31.352-6.7344-1.5547 0-2.5938 1.0352-2.5938 2.8477 0 2.332 5.4414 11.402 5.4414 31.098zm-4.3984 68.426c0-26.168 6.7383-45.863 6.7383-70.219 0-17.621-5.4453-26.434-5.4453-28.766 0-0.77734 0.51953-0.77734 1.2969-0.77734 2.0742 0 14.25 6.2188 30.059 6.2188 25.391 0 35.754-15.547 38.605-15.547 2.5898 0 13.473 13.734 36.793 13.734 18.914 0 29.797-7.5156 32.391-7.5156 0.77734 0 1.293 0.51953 1.293 1.2969 0 3.6289-3.8867 7.7734-3.8867 25.395 0 21.766 10.883 55.191 10.883 79.551 0 18.137-11.918 31.352-28.5 39.387-4.9258 2.332-16.844 6.9961-23.32 10.105-15.289 7.5156-19.691 14.25-21.508 14.25-2.3281 0-5.957-6.7344-23.316-13.734-8.0352-3.3672-16.844-5.957-25.137-10.105-21.246-10.363-26.945-24.613-26.945-43.273z" fill="#fff" fill-rule="evenodd"/>
		<path d="m7.5117 46.383c0-19.434-5.6992-26.691-5.6992-32.648 0-2.8516 2.0742-4.1484 4.4062-4.1484 3.625 0 17.359 7 33.684 7 22.543 0 31.609-16.586 36.535-16.586 4.1445 0 13.73 14.77 36.793 14.77 20.469 0 28.5-7.7734 34.203-7.7734 1.8125 0 4.1445 1.5547 4.1445 4.4062 0 4.1445-3.8867 7.2539-3.8867 25.133 0 23.84 10.883 57.008 10.883 80.59 0 19.949-10.105 33.684-29.281 43.27-4.9219 2.3359-18.394 7.7773-25.391 11.402-16.582 8.293-20.211 15.289-23.062 15.289-4.1445 0-4.1445-6.2188-25.133-15.027-16.062-6.7383-20.211-7.7734-27.465-10.883-19.434-8.293-28.242-25.914-28.242-47.68 0-24.875 7.5117-50.27 7.5117-67.113zm2.0547-0.49609c0 19.434-6.9961 44.828-6.9961 67.629 0 18.398 5.6992 36.02 27.469 45.867 7.2539 3.3672 17.875 6.7344 26.426 10.363 19.176 8.0312 21.508 14.512 24.355 14.512 2.5938 0 2.3359-4.4062 22.285-14.773 9.3281-4.9219 16.324-6.9922 24.355-10.883 18.137-8.8086 28.762-22.543 28.762-41.457 0-24.359-10.883-55.453-10.883-80.328 0-19.434 3.8867-19.953 3.8867-24.617 0-1.5547-1.0352-3.1094-3.1094-3.1094-3.3672 0-13.992 7.7734-32.648 7.7734-22.801 0-33.684-14.254-37.051-14.254-3.8867 0-12.957 16.066-38.348 16.066-16.324 0-28.242-6.7344-31.352-6.7344-1.5547 0-2.5938 1.0352-2.5938 2.8477 0 2.332 5.4414 11.402 5.4414 31.098zm-4.3984 68.426c0-26.168 6.7383-45.863 6.7383-70.219 0-17.621-5.4453-26.434-5.4453-28.766 0-0.77734 0.51953-0.77734 1.2969-0.77734 2.0742 0 14.25 6.2188 30.059 6.2188 25.391 0 35.754-15.547 38.605-15.547 2.5898 0 13.473 13.734 36.793 13.734 18.914 0 29.797-7.5156 32.391-7.5156 0.77734 0 1.293 0.51953 1.293 1.2969 0 3.6289-3.8867 7.7734-3.8867 25.395 0 21.766 10.883 55.191 10.883 79.551 0 18.137-11.918 31.352-28.5 39.387-4.9258 2.332-16.844 6.9961-23.32 10.105-15.289 7.5156-19.691 14.25-21.508 14.25-2.3281 0-5.957-6.7344-23.316-13.734-8.0352-3.3672-16.844-5.957-25.137-10.105-21.246-10.363-26.945-24.613-26.945-43.273zm83.933 0.26172c-3.6289 0-6.4805 1.2969-10.363 3.8867 1.0352 2.0742 1.5547 2.8516 1.5547 6.4805v23.836l4.9219-2.0703c-1.0391-2.0742-1.0391-2.8516-1.0391-5.9609l0.26172-6.2188h1.2969c2.0703 10.105 7.2539 13.477 12.176 13.734l3.1094-1.5547c-6.7344-1.0391-10.105-3.8867-11.66-13.992 3.8867-3.1094 6.7383-6.4805 6.7383-10.883 0-4.6641-3.3711-7.2578-6.9961-7.2578zm-4.6797 16.828-0.25781-12.18c1.5508-1.0352 2.8476-1.293 3.625-1.293 2.0742 0 3.8867 2.0742 3.8867 4.6641 0 6.2188-4.1445 8.5508-7.2539 8.8086zm15.316-24.367-3.625 1.8164c1.293 2.332 1.8125 3.3672 1.8125 5.957v22.285c0 0.77734 0.25782 1.2969 0.25782 2.0742l4.6641-2.5898c-1.0352-2.5938-1.293-2.8516-1.293-5.9609v-12.957l4.9219 5.9609 4.1445-9.3281-0.25782 17.621 5.6992-3.1133c-1.0352-1.8125-1.293-2.3281-1.293-4.1445l-0.77734-19.176c0-3.625 0-4.4024 0.77734-7.2539l-4.4062 2.332-4.4062 15.289zm-31.371 14.777-8.5469 39.387 4.664-2.8516c-0.51953-1.2969-0.78125-1.8125-0.78125-2.8516l1.2969-6.2188 6.7383-3.6289 1.2969 7.2578 5.1797-2.332c-1.2969-1.5547-1.5547-1.5547-2.332-4.6641l-5.6992-25.395zm-2.8438 23.598 2.8516-13.992 2.5898 11.402zm-51.039-15.312c0-2.0742 2.5898-2.0742 4.1445-2.0742-0.25782-2.0703-0.77734-3.625-3.1094-3.625-2.5898 0-4.6641 2.332-4.6641 5.4414s2.5898 6.2188 7.5156 6.2188c5.957 0 10.105-5.1836 10.105-10.367 0-11.141-13.477-12.957-13.477-20.211 0-2.332 1.5547-3.6289 3.6289-3.6289 1.8125 0 3.3672 1.2969 3.3672 2.8516 0 0.51954 0.26172 0.51954-0.77734 3.8867h4.664c0-1.5547 0-1.5547 0.51953-9.8477-0.77734 0.51953-1.2969 0.77734-2.0742 0.77734-1.5547 0-3.3672-1.5547-5.957-1.5547-5.1836 0-8.293 4.1485-8.293 8.293 0 9.0703 13.734 13.473 13.734 20.988 0 3.1094-2.5938 5.9609-5.4414 5.9609-2.0742 0-3.8867-1.5547-3.8867-3.1094zm66.848-108.84-13.211 7.5117c1.8125 2.0742 2.5898 3.3711 2.5898 5.4414l0.26172 15.031c0 3.3672-0.26172 4.1445-1.0391 6.7344l15.027-8.5508-0.25781-4.6641c-1.5547 2.332-2.5898 3.3711-4.6641 4.6641l-4.9219 2.8516v-11.402l8.0312-4.4023c3.1094-1.8164 3.3672-1.8164 3.3672-4.4062l-11.66 5.6992-0.25781-8.2891 3.3672-1.5547c0.77735-0.51953 4.1484-0.51953 4.9258-0.51953zm42.762 71.781-5.1797 3.1094c3.1055 4.6641 3.1055 4.6641 3.3672 5.4414l3.3672 7.2539 0.26172 8.0312c0 2.5938 0 3.1094-0.51953 6.4805l5.4414-2.5938c-1.0352-2.5898-1.2969-4.1445-1.2969-6.4766v-8.0312c7.2578-11.922 7.5156-13.477 7.5156-17.105 0-2.8477-1.0391-4.1445-3.3672-5.1797l-2.332 0.51953c1.8125 1.5547 2.332 2.5898 2.332 4.9219 0 3.6289-1.8164 8.0312-5.4414 14.512l-2.8516-4.9258c-1.0391-1.5547-1.0391-2.8476-1.2969-5.957zm-70.996-55.449-5.1836 2.8516c0.77735 2.332 1.2969 3.3672 1.2969 5.6992l0.25781 21.508 4.9258-2.5898c-0.77733-3.1094-1.039-4.6641-1.039-5.9609l-0.25781-8.0352 7.2539-3.8867 0.26172 7.7773c0 1.5547-0.26172 2.5898-1.0391 6.9961l5.7031-3.3711c-0.77734-1.8125-1.0391-2.8477-1.0391-4.9219v-22.805l-4.9219 3.3711c0.77734 1.8125 1.0352 2.5898 1.0352 4.6641v5.4414l-7.5117 3.6289zm22.023 61.437 0.77734-5.6992 4.9258-2.0742 1.0352 6.2188c0 0.51953-0.25781 1.2969-0.25781 2.0742l5.6992-3.1094c-1.5547-1.5547-2.0742-2.5938-2.8516-5.9609l-4.664-22.543-1.8125 1.5547-7.5156 36.793 5.7031-3.1094c-1.0391-1.5547-1.0391-1.8125-1.0391-4.1445zm1.043-8.5547 2.332-11.402 1.8125 9.3281zm46.891-25.656c0-13.992-4.1445-17.102-8.0352-17.102-5.6992 0-8.5469 5.4414-8.5469 15.031 0 11.398 2.5898 18.395 8.0312 18.395 5.6992 0 8.5508-6.9961 8.5508-16.324zm-12.441-3.1289c0-7.5117 1.5508-10.621 3.8828-10.621 2.5938 0 4.4062 4.1445 4.4062 17.617 0 5.4453-1.5547 8.5547-3.3672 8.5547-2.8516 0-4.9219-5.1836-4.9219-15.551zm-80.844-13.98-0.25781 9.0703 1.8125-1.5547c0.51953-5.1836 1.0391-6.2188 4.1484-8.293l0.51562 21.766c0 0.77734 0 0.77734-0.77734 7l6.2187-3.1094c-1.2969-2.3359-1.8125-2.8516-1.8125-5.9609l-0.77735-21.508c2.332 0 3.1094 0.25781 5.1797 4.6641l1.8164-0.26172c-1.2969-5.1797-1.5547-6.7344-2.0742-9.8438zm13.992 67.359-4.9258-23.32-1.8125 0.77735-7.2539 36.793 4.664-2.5898c-0.51953-1.8125-0.77734-2.5898-0.77734-3.6289l1.293-6.7344 4.6641-2.0742 0.77733 2.0742c0.77735 2.0703 0.77735 3.3672 0.77735 4.1445 0 0.51953-0.25781 1.0352-0.51563 2.332l5.1797-2.5898c-1.0352-2.0742-1.5547-3.3711-2.0703-5.1836zm-8.543-1.2773 2.0703-10.363 1.8164 8.5508zm26.152-33.703-4.664 2.5898c1.0391 1.5547 1.5547 2.332 2.332 5.1836l3.6289 14.512c0.51953 1.5547 0.77734 3.1094 1.0352 7.5117l2.0742-1.293 6.4766-34.984-4.4023 2.5938c0.25781 1.5547 0.51563 2.0703 0.51563 2.8477l-2.8477 17.883zm36.004-21.258-13.211 7.7734 0.25781 6.9961 1.5547-1.2969c1.0352-5.4414 1.293-5.4414 3.3672-6.2188l0.25782 25.395c0 0.51953 0 1.8125-0.25782 3.625l5.4414-3.1055c-1.0352-2.5937-1.5547-4.1484-1.5547-5.7031l-0.51953-22.285c0.51953-0.25781 0.78125-0.51562 1.2969-0.51562 0.77734 0 1.5547 1.293 3.1094 4.6641l1.5547 0.51562c-1.2969-6.4766-1.2969-6.9961-1.2969-9.8438zm28.531-16.84-3.625 2.5938c2.0703 1.0352 2.8477 2.0742 2.8477 6.7344l-0.25781 23.582 4.4062-2.332c-1.2969-2.0742-1.5547-2.5938-1.5547-5.9609l0.25781-15.027 7.2539 14.77 1.0352-0.25781-1.0352-13.219 1.2969-10.883c0-4.9219-0.26172-7.5117-2.5938-9.0664l-2.5898 0.25781c2.332 1.2969 3.1094 2.332 3.1094 4.4062l-1.8125 13.73-3.3672-5.4414c-1.8164-2.8516-1.8164-2.8516-3.3711-3.8867zm-73.598 42.766-6.2187 3.8867c1.0391 2.0742 1.5547 3.6289 1.5547 6.4766l0.26172 23.84 11.141-6.7383c-0.25781-2.0703-0.25781-2.5898-0.25781-3.3672 0-1.0352 0-2.5898 0.25781-4.6641l-1.8125 1.8125c-1.0391 5.7031-1.5547 6.4805-4.9258 7.2578zm52.867-30.59-4.9258 3.1094c0.77735 2.332 1.0391 3.3711 1.0391 5.1836l-0.26172 25.914 5.1836-3.1133c-1.0352-2.332-1.2969-3.3672-1.2969-4.6641l0.26171-26.43" fill="#c00" fill-rule="evenodd"/>
	</g>
	<text x="433.41107" y="470.47055" fill="#cc0000" font-family="sans-serif" font-size="26.396px" letter-spacing="0px" stroke-dasharray="4.6073, 4.6073" stroke-linecap="round" stroke-width="2.3036" text-align="center" text-anchor="middle" word-spacing="1.1998px" style="line-height:1.1em;text-decoration-color:#000000;text-orientation:sideways" xml:space="preserve"><tspan x="433.41107" y="470.47055" fill="#cc0000" stroke-width="2.3036">®</tspan></text>
	<text x="395.48914" y="540.03339" font-family="'Times New Roman'" font-size="48.662px" letter-spacing="0px" stroke-dasharray="8.49368, 8.49368" stroke-linecap="round" stroke-width="4.2468" text-align="center" text-anchor="middle" word-spacing="2.2119px" style="line-height:1.1em;text-decoration-color:#000000;text-orientation:sideways" xml:space="preserve"><tspan x="395.48914" y="540.03339" fill="#000000">SERVICE EXTENSION</tspan><tspan x="395.48917" y="594.76343" fill="#9b0000">GOLDEN STATE DIVISION</tspan></text>
</svg>
