<svg version="1.1" viewBox="0 0 1028 1028" xmlns="http://www.w3.org/2000/svg">
	<path d="m492.78 939.85c-65.572-4.5514-132.76-28.203-193.09-67.978-12.217-8.0536-32.975-28.133-42.74-41.342-17.369-23.494-25.417-49.5-20.327-65.685 3.8924-12.375 15.901-25.429 23.391-25.429 3.8824 0 9.9537 3.127 13.356 6.8788 1.4642 1.6146 3.9659 5.9575 5.5591 9.6509 10.098 23.408 31.635 50.363 53.766 67.296 49.829 38.118 114.06 52.123 174.24 37.993 5.133-1.2051 8.94-2.5825 8.46-3.0608-0.47999-0.47838-5.6466-3.8956-11.482-7.594-12.602-7.9881-31.252-21.71-44.147-32.483-12.476-10.422-37.983-36.145-44.727-45.102-12.225-16.239-18.14-33.822-15.794-46.95 3.417-19.12 15.869-25.945 34.983-19.173 10.269 3.6383 14.667 5.8947 34.981 17.951 34.611 20.542 66.861 36.362 92.772 45.508 4.8564 1.7141 15.924 4.6189 24.594 6.4552 15.592 3.302 16.074 3.3383 44.175 3.3266 24.575-0.0107 30.016-0.3098 40.293-2.217 19.547-3.628 35.878-8.9212 72.316-23.44 19.037-7.5849 39.261-15.274 44.943-17.087 8.7177-2.7816 26.042-7.1494 28.661-7.2257 1.5186-0.043-4.6084 14.208-11.983 27.872-55.87 103.53-146.25 167.97-252.75 180.21-17.084 1.9631-44.014 2.7009-59.457 1.6288zm-60.901-92.638c-33.509-4.0955-66.206-20.801-96.101-49.097-24.368-23.067-44.652-53.921-54.206-82.458-4.4413-13.266-4.993-19.1-2.3012-24.336 4.2906-8.3457 11.486-12.857 20.503-12.857 11.684 0 18.52 5.6568 24.212 20.037 9.3346 23.581 25.565 49.062 47.12 73.98 23.239 26.863 55.897 56.536 75.645 68.719 3.4682 2.1408 6.306 4.2302 6.306 4.6434 0 1.6581-12.299 2.4514-21.179 1.3662zm-207.14-68.305c0-0.44242-2.6276-5.2078-5.8389-10.589-32.833-55.022-43.13-116.68-32.345-193.68 2.5695-18.346 5.0876-33.243 6.2694-37.089 0.5063-1.6474 0.92326-4.2045 0.92675-5.6821 3e-3 -1.4778 0.63345-3.8886 1.3998-5.3573 0.76638-1.4687 2.2109-5.4206 3.2099-8.7816 4.0894-13.759 9.7008-29.551 10.964-30.855 0.52295-0.5398 0.95059-1.5876 0.95059-2.3285 0-3.5426 27.32-57.986 40.073-79.859 17.346-29.749 40.11-62.029 63.801-90.474 14.203-17.053 41.21-46.276 48.264-52.223 4.8752-4.1108 5.2335-4.237 8.904-3.1374 2.1034 0.63023 6.3312 3.0163 9.3953 5.3025 3.0642 2.2862 6.5825 4.1567 7.8184 4.1567 2.3518 0 11.992-12.678 24.747-32.544 3.2833-5.114 10.44-15.949 15.904-24.078s12.492-19.083 15.617-24.343c3.1252-5.26 7.3094-12.214 9.2981-15.453 3.2271-5.256 27.967-41.48 35.456-51.913 1.6016-2.2315 4.2632-6.1492 5.9146-8.7065 4.2921-6.6458 16.467-22.053 18.238-23.081 2.8603-1.6588 6.4461 0.40966 15.394 8.8799 23.467 22.214 32.552 31.295 44.664 44.646 7.2004 7.9376 16.812 18.405 21.357 23.261 9.0705 9.6895 28.96 33.071 44.052 51.786 5.3192 6.5964 14.152 17.289 19.629 23.762 9.1387 10.801 24.39 29.231 47.641 57.572 10.266 12.512 26.193 35.099 28.29 40.118 1.3973 3.3442 1.3918 3.3553-1.9512 3.931-48.893 8.4203-86.286 16.682-124.49 27.506-30.45 8.627-71.999 22.652-85.706 28.928-3.6055 1.6514-6.9889 3.0024-7.5188 3.0024-2.1309 0-33.772 14.217-52.708 23.682-129.28 64.622-210.49 156.61-231.76 262.5-4.5689 22.751-5.3502 31.916-5.3502 62.764 0 16.052-0.11597 29.186-0.25825 29.186-0.14229 0-0.25826-0.36187-0.25826-0.80461zm146.03-28.327c-0.47785-0.74029-1.3343-2.1262-1.9026-3.0798-0.56843-0.95365-4.2012-6.0676-8.0729-11.365-15.621-21.372-25.481-49.869-21.465-62.04 1.594-4.8296 7.5929-10.667 13.139-12.785 8.9921-3.4341 17.953 0.50255 22.762 10 3.9677 7.8362 4.0223 13.249 0.35006 34.724-3.3938 19.848-3.3818 19.561-1.7636 42.063 0.23033 3.2055-1.6107 4.704-3.0471 2.4799zm400.51-45.36c-99.091-5.9376-171.6-28.112-207.28-63.393-59.457-58.791-14.916-145.32 118.43-230.07 24.518-15.582 70.27-41.169 73.61-41.169 3.3328 0 24.277 32.605 37.166 57.857 48.924 95.854 66.281 210.25 40.441 266.5-5.6219 12.238-3.654 11.437-27.659 11.262-11.418-0.0832-27.037-0.52778-34.708-0.98726zm-49.609-136.01c-0.0215-117.57-0.0483-118.38-5.0256-128.13-11.057-21.672-34.04-3.9044-43.966 33.988-5.1276 19.575-5.2298 21.73-5.2298 110.34v83.102l11.365 2.8643c6.2507 1.5753 15.781 3.6518 21.179 4.6143 5.3981 0.96251 11.674 2.0857 13.947 2.4959 2.2729 0.41019 4.9462 0.80412 5.9403 0.87521 1.7116 0.12241 1.8071-5.7556 1.7901-110.16zm-82.125 16.184c-5e-3 -68.268-0.14819-74.243-1.8817-79.983-5.0254-16.629-15.06-22.245-26.15-14.636-9.5258 6.5352-14.923 15.882-19.079 33.04-1.7861 7.3749-1.955 12.599-1.955 60.477v52.404l9.5564 5.7041c12.475 7.4458 35.639 17.689 38.484 17.019 0.67693-0.15946 1.0303-25.682 1.0248-74.023z" fill="#1a5fb4" stroke-width="5.3691"/>
</svg>
