<svg width="250mm" height="251mm" version="1.1" viewBox="0 0 250 251" xmlns="http://www.w3.org/2000/svg">
	<g transform="matrix(.89584 0 0 .89584 13.019 15.099)" stroke-width=".19242">
		<path d="m121.05 158.72c-12.213-0.84771-24.726-5.2529-35.963-12.661-2.2754-1.5-6.1416-5.2398-7.9604-7.7-3.235-4.3758-4.7339-9.2195-3.7859-12.234 0.72496-2.3048 2.9616-4.7363 4.3567-4.7363 0.7231 0 1.8539 0.58242 2.4876 1.2812 0.27272 0.30073 0.73865 1.1096 1.0354 1.7975 1.8807 4.3598 5.892 9.3803 10.014 12.534 9.2808 7.0995 21.244 9.708 32.453 7.0763 0.95603-0.22446 1.6651-0.48099 1.5757-0.57008-0.0894-0.0891-1.0517-0.72557-2.1385-1.4144-2.3472-1.4878-5.8208-4.0436-8.2225-6.0501-2.3236-1.9412-7.0745-6.732-8.3305-8.4003-2.2769-3.0245-3.3786-6.2994-2.9416-8.7446 0.63642-3.5612 2.9556-4.8323 6.5156-3.5711 1.9127 0.67765 2.7317 1.0979 6.5152 3.3435 6.4464 3.826 12.453 6.7725 17.279 8.4759 0.90452 0.31926 2.9658 0.86028 4.5806 1.2023 2.904 0.61501 2.9938 0.62177 8.2277 0.61959 4.5771-2e-3 5.5905-0.0577 7.5046-0.41292 3.6406-0.67572 6.6823-1.6616 13.469-4.3658 3.5456-1.4127 7.3125-2.8448 8.3708-3.1825 1.6237-0.51808 4.8504-1.3316 5.3381-1.3458 0.28284-8e-3 -0.85833 2.6462-2.2318 5.1913-10.406 19.283-27.239 31.285-47.075 33.564-3.182 0.36563-8.1978 0.50304-11.074 0.30336zm-11.343-17.254c-6.2412-0.76279-12.331-3.8742-17.899-9.1445-4.5386-4.2962-8.3165-10.043-10.096-15.358-0.82721-2.4709-0.92996-3.5574-0.42861-4.5326 0.79914-1.5544 2.1392-2.3947 3.8188-2.3947 2.1762 0 3.4494 1.0536 4.5096 3.7319 1.7386 4.392 4.7616 9.138 8.7763 13.779 4.3284 5.0033 10.411 10.53 14.089 12.799 0.64597 0.39873 1.1745 0.78789 1.1745 0.86484 0 0.30882-2.2908 0.45658-3.9447 0.25446zm-38.581-12.722c0-0.0824-0.48939-0.96997-1.0875-1.9723-6.1152-10.248-8.033-21.732-6.0243-36.074 0.47857-3.417 0.94757-6.1915 1.1677-6.9079 0.0943-0.30684 0.17196-0.78309 0.17261-1.0583 5.8e-4 -0.27525 0.11798-0.72427 0.26072-0.99781 0.14274-0.27355 0.41178-1.0096 0.59785-1.6356 0.76166-2.5626 1.8068-5.504 2.042-5.7468 0.0974-0.10054 0.17705-0.2957 0.17705-0.43369 0-0.65982 5.0885-10.8 7.4637-14.874 3.2308-5.5408 7.4706-11.553 11.883-16.851 2.6454-3.1762 7.6754-8.619 8.9892-9.7267 0.90801-0.76565 0.97475-0.78916 1.6584-0.58434 0.39176 0.11738 1.1792 0.56179 1.7499 0.9876 0.57071 0.4258 1.226 0.77419 1.4562 0.77419 0.43802 0 2.2336-2.3613 4.6091-6.0614 0.61153-0.9525 1.9445-2.9705 2.9622-4.4845s2.3266-3.5542 2.9087-4.5339c0.58208-0.97968 1.3614-2.2748 1.7318-2.8782 0.60105-0.97895 5.209-7.7257 6.6037-9.669 0.29831-0.41562 0.79403-1.1453 1.1016-1.6216 0.79941-1.2378 3.067-4.1075 3.3968-4.2988 0.53274-0.30896 1.2006 0.07627 2.8672 1.6539 4.3708 4.1374 6.0628 5.8287 8.3187 8.3154 1.3411 1.4784 3.1312 3.4279 3.9778 4.3324 1.6894 1.8047 5.3939 6.1595 8.2048 9.6453 0.99072 1.2286 2.6359 3.2202 3.6559 4.4258 1.7021 2.0118 4.5426 5.4444 8.8732 10.723 1.912 2.3304 4.8785 6.5373 5.2691 7.4721 0.26025 0.62286 0.25922 0.62493-0.36341 0.73216-9.1064 1.5683-16.071 3.1071-23.186 5.123-5.6714 1.6068-13.41 4.219-15.963 5.3879-0.67154 0.30757-1.3017 0.55921-1.4004 0.55921-0.39688 0-6.2901 2.6479-9.817 4.4109-24.078 12.036-39.204 29.169-43.165 48.891-0.85096 4.2374-0.99648 5.9445-0.99648 11.69 0 2.9898-0.0216 5.436-0.0481 5.436s-0.0481-0.0674-0.0481-0.14986zm27.198-5.276c-0.089-0.13788-0.24851-0.39601-0.35437-0.57362-0.10587-0.17762-0.78248-1.1301-1.5036-2.1167-2.9095-3.9805-4.7459-9.2882-3.9979-11.555 0.29688-0.89953 1.4142-1.9867 2.4472-2.3812 1.6748-0.63961 3.3437 0.0936 4.2394 1.8626 0.73899 1.4595 0.74916 2.4676 0.0652 6.4674-0.63211 3.6968-0.62987 3.6433-0.32847 7.8344 0.0429 0.59703-0.3 0.87613-0.56753 0.46189zm74.595-8.4484c-18.456-1.1059-31.96-5.236-38.606-11.807-11.074-10.95-2.7781-27.067 22.057-42.851 4.5665-2.9021 13.088-7.6678 13.71-7.6678 0.62074 0 4.5217 6.0727 6.9222 10.776 9.1123 17.853 12.345 39.159 7.5322 49.636-1.0471 2.2794-0.68057 2.1301-5.1515 2.0975-2.1267-0.0155-5.0357-0.0983-6.4645-0.18388zm-9.2397-25.332c-4e-3 -21.898-9e-3 -22.048-0.93603-23.864-2.0593-4.0365-6.3401-0.72721-8.1888 6.3303-0.95503 3.6458-0.97406 4.0472-0.97406 20.552v15.478l2.1167 0.53348c1.1642 0.29341 2.9393 0.68015 3.9447 0.85942s2.1744 0.38846 2.5977 0.46487c0.42334 0.0764 0.92124 0.14977 1.1064 0.16301 0.31878 0.0228 0.33657-1.072 0.33341-20.517zm-15.296 3.0144c-1e-3 -12.715-0.0276-13.828-0.35047-14.897-0.936-3.0971-2.8049-4.1431-4.8705-2.726-1.7742 1.2172-2.7795 2.9581-3.5535 6.1537-0.33267 1.3736-0.36412 2.3466-0.36412 11.264v9.7603l1.7799 1.0624c2.3235 1.3868 6.6378 3.2947 7.1678 3.1698 0.12608-0.0297 0.1919-4.7833 0.19088-13.787z"/>
		<path d="m181.27 246.05c-0.23012-0.24495-0.41839-0.63916-0.41839-0.87603 0-0.66686-0.55176-3.0375-1.1032-4.74-1.1666-3.6017-5.2676-10.624-8.6528-14.817-2.8428-3.5209-7.0196-7.2928-10.297-9.2988-2.7582-1.6882-4.3435-2.3202-8.4256-3.359l-2.4053-0.61211-134.03-0.1068 0.42027-0.81619c0.23115-0.4489 0.56913-1.2924 0.75108-1.8745l0.33081-1.0583 65.013-0.0987c69.878-0.10608 67.318-0.13729 71.594 0.87299 2.38 0.56237 3.9216 1.1557 6.073 2.3374 9.1514 5.0264 15.706 12.814 19.002 22.577 0.33947 1.0054 1.0338 3.0403 1.543 4.522 0.50916 1.4817 0.99815 2.9876 1.0866 3.3466 0.13785 0.55918 0.69048-1.3974 3.8588-13.662 2.0338-7.8731 3.7519-14.659 3.8179-15.079s0.33509-1.5029 0.59798-2.4053c0.39329-1.3501 2.4918-9.8158 2.8632-11.551 0.057-0.26611-0.33962 0.2035-0.88757 1.051-2.335 3.6114-4.6407 5.2396-6.8364 4.8277-0.84187-0.15793-2.1072-1.3758-2.2889-2.203-0.0721-0.32827-0.1826-0.59686-0.24555-0.59686-0.063 0-0.73957 0.60613-1.5036 1.347-1.537 1.4903-2.15 1.6843-2.9545 0.93487-1.0825-1.0085-1.2394-2.9684-0.46752-5.8417 0.0569-0.21167-0.34492 0.33416-0.89286 1.213-2.0312 3.2576-4.2434 5.0638-6.2238 5.0816-1.6339 0.0147-2.7236-0.82473-3.117-2.401-0.13255-0.53107-0.13574-0.52915-1.5238 0.91401-1.2402 1.2894-1.4682 1.4462-2.1038 1.4462-1.1593 0-2.0377-1.2514-2.0412-2.9079-9.6e-4 -0.43872 0.64526-4.2578 1.6692-9.8653l0.31203-1.7088 1.1736-0.53485c0.64549-0.29416 1.2006-0.46175 1.2336-0.37242 0.033 0.0893-0.51904 2.3112-1.2267 4.9376-1.3479 5.0026-1.6703 7.1003-1.2478 8.1201 0.32441 0.78318 0.81567 0.84443 1.7826 0.22223 1.3783-0.88687 1.6387-1.2949 1.8625-2.919 0.5556-4.0312 3.3301-8.1661 6.5298-9.7316 1.4153-0.69244 3.3859-0.73975 4.5763-0.10987l0.79123 0.41866 1.9667-9.8521c1.0817-5.4187 2.0538-10.266 2.1602-10.771 0.16461-0.78146 0.29883-0.97232 0.89816-1.2772 1.3472-0.68525 2.1286-0.96173 2.046-0.72384-0.0432 0.1242-1.6929 7.2397-3.6661 15.812-3.7358 16.23-4.0788 18.114-3.468 19.046 0.53498 0.81648 1.331 0.60416 2.7621-0.73668 0.48084-0.45052 0.62538-0.74575 0.62538-1.2775 0-0.97283 0.49488-2.7763 1.1453-4.174 1.7262-3.7092 4.8434-6.4968 7.5563-6.7575 1.0448-0.10038 2.3996 0.32563 2.9422 0.92511 0.37796 0.41765 0.67133 0.3417 0.67133-0.17381 0-0.23993 0.36322-0.48525 1.2242-0.82687l1.2243-0.48573-0.14349 0.63617c-0.0789 0.34989-0.10581 0.67383-0.0598 0.71987 0.046 0.046-0.39168 1.8471-0.97269 4.0024-0.581 2.1553-1.5015 5.6506-2.0455 7.7672-0.54403 2.1167-1.2493 4.752-1.5673 5.8563-0.31796 1.1043-2.7353 10.061-5.3718 19.904-2.6365 9.8429-4.9024 17.965-5.0352 18.049-0.35424 0.22491-0.42186 0.20296-0.88138-0.28617zm-7.8712-42.819c1.1586-0.79717 2.8455-3.051 3.7678-5.034 0.99601-2.1416 1.9183-5.7314 1.659-6.4571-0.28886-0.80826-1.3212-1.2768-2.626-1.1919-0.90776 0.0591-1.2464 0.19124-2.0056 0.7827-3.084 2.4028-5.4782 8.7277-4.3322 11.444 0.55333 1.3117 2.0185 1.5005 3.5369 0.45579zm14.724 0.36951c2.1665-1.1216 4.5873-4.8291 5.7093-8.744 0.59186-2.0652 0.59914-2.3136 0.0887-3.0305-0.53428-0.75033-1.3259-1.1332-2.3429-1.1332-2.2921 0-5.1112 3.45-6.2874 7.6946-1.0948 3.9509 0.30245 6.5228 2.8323 5.2131zm-152.52 23.286c-2.0354-0.70294-3.1831-2.4326-3.1922-4.8109-0.0134-3.4714 2.144-5.7425 5.2862-5.565 1.0475 0.0592 1.4813 0.19167 2.3056 0.70406 1.0474 0.65108 1.3299 0.6071 1.337-0.20817 2e-3 -0.18521 0.0895-0.33674 0.19537-0.33674 0.1157 0 0.19242 0.78252 0.19242 1.9627 0 2.0019-0.14443 2.2154-0.54475 0.80538-0.12363-0.43547-0.41284-1.0308-0.64269-1.323-0.90918-1.1558-3.0776-1.5976-4.3959-0.89556-2.4065 1.2817-2.7548 6.9187-0.54254 8.7802 1.87 1.5735 4.9152 0.63964 5.5826-1.7121 0.39468-1.3907 0.54321-1.1954 0.54321 0.71429 0 1.0266-0.0431 1.8665-0.0957 1.8665s-0.20613-0.27073-0.34115-0.60162l-0.24548-0.60162-0.60344 0.50775c-1.2831 1.0796-3.0321 1.3376-4.8386 0.71375zm13.091 0.0138c-1.4306-0.51054-2.3536-1.3109-3.006-2.6066-0.71156-1.4132-0.78316-3.3705-0.1733-4.7375 1.7562-3.9365 8.2843-4.1344 10.313-0.31254 0.34232 0.64495 0.42184 1.118 0.42452 2.5254 4e-3 1.9692-0.29005 2.782-1.4105 3.9025-1.4255 1.4255-4.0988 1.9599-6.1475 1.2288zm3.7482-0.406c1.5183-0.68935 2.2926-2.5592 2.1383-5.1643-0.10883-1.8378-0.62478-3.0663-1.6004-3.8104-0.59415-0.45318-0.95024-0.56323-1.9952-0.61663-1.8392-0.094-2.8086 0.43463-3.5623 1.9425-0.50121 1.0028-0.55845 1.3087-0.55845 2.9848 0 1.4603 0.0854 2.0607 0.3918 2.7533 0.40019 0.90469 1.4362 1.8968 2.215 2.1212 0.84756 0.24419 2.1772 0.15001 2.9712-0.21047zm12.061-4.0867-3.6302-4.8455-0.0545 3.9315c-0.03 2.1623-0.0104 4.1115 0.0435 4.3315 0.10392 0.42416 0.83765 0.85079 1.4632 0.85079 0.20669 0 0.37579 0.0866 0.37579 0.19242 0 0.11614-0.80555 0.19243-2.0318 0.19243-1.9428 0-2.4458-0.18524-1.2904-0.47522 1.0161-0.25503 1.0131-0.24115 1.0131-4.6602 0-2.4763-0.0796-4.275-0.19919-4.4984-0.1122-0.20965-0.40138-0.3722-0.66213-0.3722-0.25461 0-0.51645-0.0866-0.58186-0.19243-0.0758-0.12262 0.46105-0.18938 1.4799-0.18404l1.5989 8e-3 5.9652 7.9223 0.0527-3.4202c0.0583-3.7887-0.037-4.1341-1.1408-4.1341-0.30109 0-0.54744-0.0866-0.54744-0.19243 0-0.11553 0.77348-0.19242 1.9356-0.19242 1.2414 0 1.893 0.069 1.8167 0.19242-0.0654 0.10584-0.287 0.19243-0.49242 0.19243s-0.54667 0.17318-0.75834 0.38485c-0.3639 0.3639-0.38485 0.64141-0.38485 5.0992 0 2.6043-0.0762 4.7144-0.1702 4.7144-0.0936 0-1.8038-2.1805-3.8004-4.8455zm13.085 0-3.6302-4.8455-0.0545 3.9315c-0.03 2.1623-0.0104 4.1115 0.0435 4.3315 0.10392 0.42416 0.83765 0.85079 1.4632 0.85079 0.20669 0 0.37579 0.0866 0.37579 0.19242 0 0.11614-0.80555 0.19243-2.0318 0.19243-1.9428 0-2.4458-0.18524-1.2904-0.47522 1.0161-0.25503 1.0131-0.24115 1.0131-4.6602 0-2.4763-0.0797-4.275-0.19919-4.4984-0.1122-0.20965-0.40138-0.3722-0.66213-0.3722-0.25462 0-0.51645-0.0866-0.58186-0.19243-0.0758-0.12262 0.46105-0.18938 1.4799-0.18404l1.5989 8e-3 5.9652 7.9223 0.0527-3.4202c0.0583-3.7887-0.037-4.1341-1.1408-4.1341-0.30109 0-0.54745-0.0866-0.54745-0.19243 0-0.11553 0.77349-0.19242 1.9356-0.19242 1.2414 0 1.893 0.069 1.8167 0.19242-0.0654 0.10584-0.287 0.19243-0.49242 0.19243s-0.54667 0.17318-0.75834 0.38485c-0.36391 0.3639-0.38485 0.64141-0.38485 5.0992 0 2.6043-0.0762 4.7144-0.1702 4.7144-0.0936 0-1.8038-2.1805-3.8004-4.8455zm22.284 4.4789c-2.0354-0.70294-3.1831-2.4326-3.1922-4.8109-0.01337-3.4714 2.144-5.7425 5.2862-5.565 1.0475 0.0592 1.4813 0.19167 2.3056 0.70406 1.0474 0.65109 1.3299 0.6071 1.337-0.20817 1e-3 -0.18521 0.0895-0.33674 0.19537-0.33674 0.11571 0 0.19242 0.78252 0.19242 1.9627 0 2.0019-0.14443 2.2154-0.54475 0.80537-0.12363-0.43546-0.41284-1.0308-0.64269-1.323-0.90918-1.1558-3.0776-1.5976-4.3959-0.89556-2.4065 1.2817-2.7548 6.9187-0.54254 8.7802 1.87 1.5735 4.9152 0.63964 5.5826-1.7121 0.39469-1.3907 0.54322-1.1954 0.54322 0.71429 0 1.0266-0.043 1.8665-0.0957 1.8665-0.0526 0-0.20613-0.27073-0.34115-0.60162l-0.24549-0.60162-0.60344 0.50776c-1.2831 1.0796-3.0321 1.3376-4.8386 0.71374zm32.141 0.0138c-1.4306-0.51054-2.3536-1.3109-3.006-2.6066-0.71157-1.4132-0.78316-3.3705-0.1733-4.7375 1.7562-3.9365 8.2843-4.1344 10.313-0.31254 0.34231 0.64495 0.42183 1.118 0.42451 2.5254 4e-3 1.9692-0.29004 2.782-1.4105 3.9025-1.4255 1.4255-4.0988 1.9599-6.1475 1.2288zm3.7482-0.406c1.5184-0.68935 2.2926-2.5592 2.1383-5.1643-0.10883-1.8378-0.62478-3.0663-1.6004-3.8104-0.59415-0.45319-0.95024-0.56323-1.9952-0.61664-1.8392-0.094-2.8086 0.43464-3.5622 1.9425-0.50121 1.0028-0.55845 1.3087-0.55845 2.9848 0 1.4603 0.0854 2.0607 0.3918 2.7533 0.40018 0.90469 1.4362 1.8969 2.215 2.1212 0.84756 0.2442 2.1772 0.15001 2.9712-0.21047zm12.061-4.0867-3.6302-4.8455-0.0545 3.9315c-0.03 2.1623-0.0104 4.1115 0.0435 4.3315 0.10392 0.42416 0.83765 0.85079 1.4632 0.85079 0.20668 0 0.37579 0.0866 0.37579 0.19242 0 0.11614-0.80555 0.19243-2.0318 0.19243-1.9428 0-2.4458-0.18524-1.2904-0.47521 1.0161-0.25504 1.0131-0.24116 1.0131-4.6602 0-2.4763-0.0797-4.275-0.19919-4.4984-0.1122-0.20965-0.40138-0.3722-0.66213-0.3722-0.25462 0-0.51645-0.0866-0.58186-0.19243-0.0758-0.12262 0.46104-0.18938 1.4799-0.18404l1.5989 8e-3 5.9652 7.9224 0.0527-3.4202c0.0583-3.7887-0.037-4.1341-1.1408-4.1341-0.30109 0-0.54745-0.0866-0.54745-0.19243 0-0.11552 0.77348-0.19242 1.9356-0.19242 1.2414 0 1.893 0.069 1.8167 0.19242-0.0654 0.10584-0.287 0.19243-0.49242 0.19243s-0.54668 0.17318-0.75834 0.38485c-0.36391 0.3639-0.38485 0.64141-0.38485 5.0992 0 2.6043-0.0762 4.7144-0.1702 4.7144-0.0936 0-1.8038-2.1805-3.8004-4.8455zm-62.608 4.4606c0-0.10583 0.21157-0.19242 0.47015-0.19242 0.96144 0 1.0692-0.49063 1.0692-4.8661 0-2.3967-0.0802-4.1605-0.1992-4.3829-0.11422-0.21344-0.4015-0.3722-0.67348-0.3722-0.26086 0-0.47429-0.0866-0.47429-0.19243 0-0.1217 1.379-0.19242 3.7523-0.19242h3.7523v0.94638c0 0.52051 0.05256 1.0834 0.1168 1.2508 0.06424 0.16741 0.02766 0.30438-0.08129 0.30438s-0.29766-0.30172-0.41937-0.67048c-0.3715-1.1257-0.97456-1.4462-2.7209-1.4462h-1.5134v4.2333h1.0198c1.1083 0 1.4817-0.22506 1.4817-0.89304 0-0.23717 0.0866-0.48473 0.19243-0.55014 0.12319-0.0761 0.19242 0.54699 0.19242 1.7318s-0.0692 1.808-0.19242 1.7318c-0.10583-0.0654-0.19243-0.37054-0.19243-0.67807 0-0.69476-0.44538-0.95754-1.623-0.95754h-0.87856v2.2855c0 1.7839 0.0626 2.3374 0.285 2.522 0.19132 0.1588 0.80007 0.21314 1.8522 0.16536 1.5364-0.0698 1.5795-0.0853 2.1886-0.79003 0.34177-0.39536 0.70019-0.99358 0.79649-1.3294 0.21007-0.73246 0.77953-1.0528 0.58599-0.32969-0.06752 0.25229-0.12395 0.99991-0.12539 1.6614l-0.0026 1.2026h-4.3295c-2.7581 0-4.3296-0.0698-4.3296-0.19243zm25.977 0c0-0.10583 0.28142-0.19375 0.62538-0.19537 1.2205-6e-3 1.197 0.0876 1.2605-4.9928l0.0578-4.6254h-1.5351c-1.4158 0-1.5651 0.0381-1.9207 0.4901-0.21203 0.26955-0.44167 0.7458-0.51032 1.0583-0.21717 0.98877-0.47908 0.61564-0.47908-0.68252v-1.2508h10.198v1.2621c0 1.2781-0.23948 1.5333-0.45019 0.47973-0.21245-1.0622-0.72069-1.357-2.34-1.357h-1.4432v4.5797c0 3.3054 0.0642 4.6439 0.23091 4.8106 0.127 0.127 0.51666 0.23091 0.86591 0.23091s0.635 0.0866 0.635 0.19242c0 0.11878-0.9942 0.19243-2.5977 0.19243s-2.5977-0.0736-2.5977-0.19243zm9.8136 0.0122c0-0.0991 0.27944-0.20736 0.62099-0.24053 1.0097-0.098 1.1073-0.52619 1.0888-4.7747-9e-3 -2.0638-0.0761-3.9688-0.1491-4.2333-0.0971-0.35192-0.28567-0.49795-0.70241-0.54397-0.31331-0.0346-0.65192-0.14284-0.75246-0.24053-0.11199-0.10882 0.77883-0.17763 2.2995-0.17763s2.4114 0.0688 2.2995 0.17762c-0.10054 0.0977-0.43918 0.20593-0.75252 0.24053-0.49228 0.0544-0.59199 0.16753-0.73367 0.83261-0.0902 0.42333-0.13688 2.4234-0.10377 4.4446 0.0657 4.0131 0.14457 4.3107 1.1421 4.3107 0.30454 0 0.55371 0.0866 0.55371 0.19243 0 0.11801-0.93005 0.19242-2.4053 0.19242-1.3668 0-2.4053-0.0778-2.4053-0.18023zm87.876-14.558c-3.497-0.63191-6.5274-2.1848-8.5534-4.383-2.7247-2.9563-3.6058-5.9556-2.8336-9.6461 1.0762-5.1439 6.2076-9.7908 9.1382-8.2753 0.8097 0.41871 1.1572 1.0268 1.1524 2.0163-0.0113 2.3399-2.533 4.9234-6.5811 6.7425-0.81736 0.36729-1.5139 0.79845-1.5478 0.95811-0.11632 0.54696 0.24819 2.0222 0.76109 3.0805 0.66467 1.3713 2.7038 3.3923 4.2329 4.1951 0.65471 0.34373 1.8592 0.79602 2.6766 1.0051 1.4042 0.35913 2.1833 0.38057 14.107 0.38813l12.621 8e-3 -0.75928 0.67035c-1.0079 0.88984-5.0696 2.8583-6.6886 3.2415-1.7669 0.41826-15.41 0.41738-17.726-1e-3zm-5.0239-16.33c1.4688-1.4632 2.1953-2.7233 2.3472-4.0709 0.24782-2.1988-2.0292-2.1033-3.8184 0.16026-1.3689 1.7318-2.679 4.8117-2.679 6.2982 0 0.39758 0.0607 0.38414 1.3951-0.30856 0.90428-0.46944 1.8735-1.2009 2.7551-2.079zm-68.708 9.3293c-0.9392-0.24145-1.5388-0.52207-1.8076-0.84593-0.21454-0.2585-0.16002-0.42077 0.3635-1.0818l0.6159-0.77764 0.63886 0.56093c0.94894 0.83318 2.6326 1.3974 4.1553 1.3926 3.9617-0.0125 7.5107-3.3464 8.5539-8.0355 1.0436-4.6906-1.332-8.1151-5.3388-7.6963-0.82393 0.0861-1.119 0.0543-1.1171-0.12054 7e-3 -0.62595 0.27008-1.0672 0.82889-1.39 1.2482-0.72088 3.7664-2.8092 5.0334-4.1743 3.3217-3.5788 5.0156-7.1263 4.63-9.6972-0.10031-0.66889-0.32451-1.1023-0.8758-1.6929-0.73078-0.78295-0.75902-0.79374-2.0532-0.78436-1.0938 8e-3 -1.5204 0.11551-2.563 0.64627-2.0828 1.0604-5.3347 3.6883-6.8454 5.5318-0.66237 0.80833-0.75056 1.0682-1.1634 3.4287-0.82117 4.6955-3.158 13.249-4.9103 17.972-1.1407 3.075-2.0266 4.7705-3.0436 5.8257-0.86001 0.89225-0.97998 0.95395-1.7456 0.89777-0.63422-0.0465-0.91248-0.18177-1.2173-0.59156-1.4611-1.9646 0.52404-10.71 4.007-17.653 0.87853-1.7512 2.3171-4.0582 3.6223-5.8089l1.2322-1.6528 0.32323-2.9559c0.55634-5.0876 0.33307-4.4517 1.8028-5.1346 0.70552-0.32779 1.3042-0.57456 1.3304-0.54836 0.0573 0.0573-0.47082 4.277-0.61227 4.8918-0.0548 0.23813-0.0451 0.43296 0.0215 0.43296s0.80591-0.6442 1.6429-1.4316c3.4935-3.2864 6.8908-5.3193 9.1278-5.4617 1.5258-0.0972 2.006 0.0197 2.789 0.67854 0.82965 0.6981 1.1673 1.5854 1.1673 3.0679 0 2.2499-0.90447 4.4498-2.9877 7.2667-1.358 1.8364-4.0262 4.6223-5.7485 6.0023-1.8135 1.4531-1.8553 1.4948-1.3849 1.3824 0.68759-0.16422 2.9341 0.20335 3.7326 0.61072 2.0051 1.0229 3.0954 2.6842 3.2435 4.9422 0.27791 4.2374-2.7937 8.8377-7.3662 11.033-0.84667 0.4064-1.9983 0.83329-2.5591 0.94866-1.1443 0.23539-4.6385 0.24928-5.5227 0.022zm-5.7739-2.2774c1.1488-1.7359 3.2894-7.9242 4.7918-13.852 0.85405-3.37 1.7233-7.5394 1.598-7.6648-0.0941-0.0941-1.6876 2.1415-2.487 3.4892-3.0298 5.1074-5.4274 11.993-5.6768 16.303-0.11828 2.0446 0.0221 2.4584 0.8339 2.4584 0.31363 0 0.60539-0.22759 0.94008-0.73334zm25.771 1.8601c-0.66379-0.32209-1.043-1.1849-1.043-2.3732 0-2.021 1.2628-4.983 3.8751-9.0894 1.1799-1.8548 1.358-2.2471 0.78413-1.7278-0.59668 0.53999-1.7239 0.90307-2.8037 0.90307h-1.0432l-0.66805 1.3951c-0.88593 1.85-2.4145 3.9163-2.6919 3.6389-0.14675-0.14675 0.0826-0.62412 0.79473-1.6543 0.55055-0.7964 1.2224-1.9316 1.493-2.5227l0.492-1.0747-0.77444-0.66289c-1.3794-1.1807-1.77-3.2533-0.84616-4.4906 0.30028-0.40218 0.53236-0.49772 1.2091-0.49772 0.74141 0 0.89014 0.0773 1.2965 0.67348 0.40989 0.60142 0.45015 0.83307 0.37623 2.1648l-0.0828 1.4913 0.59355 0.0195c1.3023 0.0428 1.969-0.0657 2.5769-0.41916 0.35001-0.20352 0.93308-0.37003 1.2957-0.37003h0.65935l-1.0419 2.0795c-2.5946 5.1784-3.8936 9.6815-3.1784 11.018 0.44296 0.82767 2.0054 0.29649 3.6016-1.2244 0.50767-0.48373 0.67108-0.54945 0.86591-0.34828 0.19359 0.19988 0.0349 0.43463-0.81817 1.2106-2.0176 1.8352-3.6801 2.4638-4.9222 1.8611zm-0.18415-15.643c-0.21421-1.0704-0.30395-1.2609-0.69173-1.4684-0.54499-0.29166-0.93679 0.0941-0.93679 0.92227 0 0.51308 0.16335 0.83252 0.7003 1.3695l0.70031 0.7003 0.17289-0.46736c0.0951-0.25705 0.11985-0.73238 0.055-1.0563zm-43.935 13.029c-4.4423-10.587-11.527-26.966-12.023-27.796-0.7687-1.2859-1.7549-1.8585-3.4783-2.0194l-1.2664-0.11826v-2.2534h17.318v2.2288l-1.7662 0.20511c-1.5723 0.18257-1.8175 0.26471-2.2331 0.74788-0.80151 0.93182-0.57364 1.6372 3.8662 11.967 2.2415 5.215 4.1216 9.4818 4.178 9.4818 0.11129 0 7.3094-16.876 7.7867-18.256 0.34016-0.9835 0.37988-2.3851 0.0833-2.9392-0.29188-0.54538-1.2725-0.90713-2.8588-1.0546l-1.359-0.12631v-2.2538h12.508v2.2568l-0.86653 0.11877c-1.8976 0.2601-2.9409 1.2022-4.166 3.7617-0.33463 0.69911-3.23 7.3758-6.434 14.837l-5.8256 13.566-2.4313 0.1042zm-82.385 0.74538v-1.1267l1.2558-0.11727c0.6907-0.0645 1.6461-0.28992 2.1232-0.50094 1.5944-0.70527 1.5278-0.0845 1.5278-14.254 0-11.512-0.0247-12.457-0.34071-13.035-0.46358-0.84835-1.6246-1.3986-3.2362-1.5337l-1.3299-0.11149v-2.2533h17.126v2.2533l-1.3588 0.11391c-1.6697 0.13998-2.646 0.59798-3.1578 1.4813-0.36561 0.63102-0.39389 1.0547-0.44862 6.7196l-0.0584 6.0461 1.4054-1.2467c0.77296-0.68569 3.4403-3.027 5.9274-5.2029 4.5024-3.9391 5.3879-4.9218 5.3879-5.9795 0-1.0549-1.2371-1.8721-2.8383-1.8748l-0.62538-1e-3v-2.3091l6.8792-3e-3c3.7835-1e-3 8.611-0.0944 10.728-0.20645 8.3479-0.44202 16.63-0.22505 20.008 0.52421 6.3379 1.4055 9.591 7.0855 7.038 12.289-0.31157 0.635-0.89604 1.4738-1.2988 1.8641-0.95518 0.92546-2.7709 2.006-4.0465 2.4081-0.55847 0.17605-1.0154 0.38379-1.0154 0.46167 0 0.0779 0.28737 0.31919 0.6386 0.53626 1.2376 0.76488 2.7843 2.664 5.6593 6.9488 3.7309 5.5604 4.5896 6.4412 6.6426 6.8138l0.72159 0.13095v2.2916h-9.1717l-0.82046-1.1064c-0.45125-0.60854-1.7313-2.5785-2.8445-4.3776s-2.6396-4.267-3.3921-5.4841c-0.75244-1.2171-1.7263-2.5711-2.1642-3.009-0.95517-0.95523-1.95-1.2243-4.5261-1.2243h-1.7333l0.0591 5.4704c0.0559 5.1735 0.0807 5.4999 0.45637 6.0133 0.57178 0.78131 1.5958 1.2203 3.1508 1.3506l1.3588 0.11392v2.2533h-32.712v-2.3091l1.6837-0.0108c0.92604-6e-3 1.9868-0.11594 2.3572-0.24438 0.6124-0.21233 0.67157-0.29783 0.65231-0.94259-0.014-0.46761-0.28227-1.1255-0.78785-1.9318-0.54666-0.87185-6.3465-9.1571-8.4074-12.01-0.0137-0.019-0.99886 0.80357-2.1891 1.828l-2.1641 1.8627 0.05 4.6328c0.0495 4.5872 0.0547 4.6398 0.53105 5.3371 0.57612 0.84342 1.5245 1.264 3.2037 1.4208l1.2221 0.11412v2.2534h-17.126v-1.1267zm40.177-1.886c0.28666-0.21011 0.67359-0.67894 0.85986-1.0418 0.31461-0.61295 0.33511-1.5482 0.28863-13.167-0.0562-14.054 0.0195-13.336-1.4859-14.095-1.5732-0.79334-5.4004-0.44649-7.6355 0.69199-1.5072 0.76775-2.5478 1.5701-6.8168 5.2566l-3.6157 3.1223 0.34371 0.49165c10.754 15.383 12.029 17.126 13.153 17.984 1.6998 1.2965 3.7434 1.6122 4.9083 0.75823zm14.857-15.656c1.6174-0.54484 2.0991-0.80408 2.7318-1.4702 1.0886-1.146 1.6197-3.6606 1.3034-6.1712-0.31146-2.4723-1.3489-3.7998-3.5726-4.5715-1.6759-0.58158-3.4145-0.8647-5.3214-0.86656l-1.4913-1e-3v13.717l2.5496-0.10719c1.8936-0.0796 2.8715-0.21561 3.8004-0.52853zm82.445-3.7396c-1.3116-1.3116 0.43384-3.3665 1.8879-2.2227 0.40625 0.31956 0.52613 0.5784 0.52613 1.136 0 1.3957-1.4516 2.0491-2.414 1.0867z"/>
	</g>
</svg>
