<svg height="16" width="16" xmlns="http://www.w3.org/2000/svg" viewBox="0 0 16 16">
	<g transform="translate(-261, -727)">
		<path d="M269.55 735.09c-.705.624-1.54.906-2.555.906s-1.853-.29-2.558-.914c-1.11.363-2.436 1.288-2.438 2.902l-.004 3.012c0 .554.446 1 1 1h8c.554 0 1-.446 1-1v-3c0-1.387-1.102-2.556-2.445-2.906z"></path>
		<circle cx="49.5" cy="342.5" r="2.5" transform="matrix(1.2 0 0 1.2 207.6 321)"></circle>
		<path d="M273 728v1.997h-2v1.996h2v1.997h2v-1.997h2v-1.996h-2V728z"></path>
	</g>
	<path fill-rule="evenodd" d="M14 1H2c-.55 0-1 .45-1 1v8c0 .55.45 1 1 1h2v3.5L7.5 11H14c.55 0 1-.45 1-1V2c0-.55-.45-1-1-1zm0 9H7l-2 2v-2H2V2h12v8z"></path>
</svg>
