<svg version="1.1" viewBox="0 0 192 192" xmlns="http://www.w3.org/2000/svg">
	<rect width="192" height="192" rx="22.1" ry="22" fill="#1a5fb4"/>
	<path d="m89.459 74.602a8.8022 8.8022 0 0 1-2.6164-6.541c0-2.6164 0.84098-4.859 2.6164-6.541 1.7754-1.682 3.9246-2.6164 6.541-2.6164s4.859 0.84098 6.541 2.6164c1.682 1.7754 2.6164 3.9246 2.6164 6.541s-0.84098 4.859-2.6164 6.541a9.3442 9.3442 0 0 1-6.541 2.8033c-2.6164 0-4.859-1.0279-6.541-2.8033zm15.885 21.492c-0.18688-2.336-1.0279-4.4852-2.8967-6.4475-1.8688-1.7754-3.9246-2.8033-6.4475-2.8967h-9.3442c-2.5229 0.18688-4.4852 1.2147-6.4475 2.8967-1.8688 1.8688-2.8033 4.1115-2.8967 6.4475h9.3442v28.033c0.18688 2.5229 1.0279 4.6721 2.8967 6.4475 1.8688 1.8688 3.9246 2.8967 6.4475 2.8967h9.3442c2.5229 0 4.4852-1.0279 6.4475-2.8967 1.8688-1.7754 2.8033-3.9246 2.8967-6.4475h-9.3442v-28.126zm-9.3442-53.169c-29.341 0-53.262 23.734-53.262 53.075 0 29.341 23.921 53.262 53.262 53.262 29.341 0 53.262-23.828 53.262-53.262 0-29.434-23.921-53.169-53.262-53.169zm0-12.334c36.069 0 65.41 29.341 65.41 65.41s-29.341 65.409-65.41 65.409c-36.069 0-65.41-29.154-65.41-65.409 0-36.256 29.341-65.41 65.41-65.41z" fill="#fafafa" fill-rule="evenodd" stroke-width="9.3442"/>
</svg>
