<svg version="1.1" viewBox="0 0 192 192" xmlns="http://www.w3.org/2000/svg">
	<rect width="192" height="192" rx="22.1" ry="22" fill="#1a5fb4"/>
	<path d="m161.41 105.34-10.559-66.718c-0.74754-4.4852-4.6721-8.036-9.3442-8.036h-91.013c-4.6721 0-8.5967 3.5508-9.3442 8.036l-10.559 66.718v46.721c0 5.1393 4.2049 9.3442 9.3442 9.3442h112.13c5.1393 0 9.3442-4.2049 9.3442-9.3442zm-30.649 5.1393-4.1115 8.3164c-1.5885 3.177-4.859 5.2328-8.5032 5.2328h-44.478c-3.5508 0-6.7278-2.0557-8.3164-5.1393l-4.1115-8.5032c-1.5885-3.0836-4.859-5.1393-8.3164-5.1393h-12.988l9.3442-65.409h93.442l9.3442 65.409h-12.895c-3.6442 0-6.8213 2.0557-8.5032 5.1393z" fill="#fafafa" fill-rule="evenodd" stroke-width="9.3442"/>
</svg>
