<svg version="1.1" viewBox="0 0 192 192" xmlns="http://www.w3.org/2000/svg">
	<rect width="192" height="192" rx="22.1" ry="22" fill="#1a5fb4"/>
	<g transform="matrix(.2837 0 0 .2837 27.444 27.444)" fill="#fafafa">
		<g fill="#fafafa">
			<path d="m77.273 150.7c-21.494 20.822-33.567 46.752-38.825 75.96-1.313 7.296-1.778 14.745-2.646 22.124-0.094 0.803-0.268 1.597-0.407 2.395v21.588c0.46 4.944 0.891 9.89 1.385 14.83 2.331 23.281 8.067 45.762 15.78 67.807 10.486 29.969 25.457 57.268 44.502 82.08 0.591 0.789 1.186 1.578 1.782 2.363 8.184 10.756 16.684 21.211 27.421 29.582 2.444 1.906 4.938 3.619 7.483 5.139 13.797 9.543 29.115 10.855 45.055 5.893 0.436-0.137 0.87-0.281 1.306-0.422 7.148-1.852 14.081-4.385 20.932-7.209 4.79-1.973 9.635-3.719 14.548-5.143 8.058-2.256 25.646-3.881 26.059-3.883 0.413 0 0.825-6e-3 1.239 2e-3 8.525 0.164 16.762 1.625 24.818 3.881 4.914 1.424 9.758 3.17 14.549 5.143 6.852 2.824 13.783 5.357 20.932 7.211 0.437 0.135 0.87 0.283 1.307 0.42 15.939 4.963 31.258 3.65 45.056-5.893 2.545-1.518 5.041-3.232 7.483-5.139 10.739-8.371 19.238-18.826 27.423-29.582 0.6-0.785 1.192-1.574 1.78-2.363 19.049-24.812 34.019-52.111 44.504-82.08 7.714-22.045 13.449-44.521 15.779-67.807 0.494-4.938 0.925-9.886 1.385-14.83v-21.588c-0.137-0.797-0.312-1.592-0.407-2.395-0.865-7.379-1.331-14.828-2.646-22.124-5.258-29.208-17.33-55.139-38.825-75.96-2.897-2.806-5.875-5.436-8.931-7.897-16.712-14.104-36.623-21.511-58.44-25.131-22.176-3.681-42.987 1.164-63.571 8.573-10.595 3.813-32.914 11.537-33.435 11.687-0.521-0.149-22.84-7.874-33.434-11.687-20.586-7.409-41.395-12.254-63.572-8.573-21.821 3.624-41.73 11.03-58.441 25.131-3.053 2.461-6.032 5.091-8.928 7.897z"/>
			<path d="m174.41 83.121c11.172 12.094 24.207 21.392 40.299 25.866 7.938 2.208 16.017 3.021 24.248 2.585 1.957-0.102 2.346-0.883 2.467-2.659 1.674-24.658-6.109-46.287-20.802-65.766-17.44-23.129-40.703-36.752-68.887-42.401-1.349-0.271-2.704-0.497-4.057-0.746h-3.434c-0.672 9.246-0.437 18.452 1.276 27.585 4.022 21.427 14.231 39.667 28.89 55.536z"/>
		</g>
	</g>
</svg>
