<svg version="1.1" viewBox="0 0 192 192" xmlns="http://www.w3.org/2000/svg">
	<rect width="192" height="192" rx="22.1" ry="22" fill="#1a5fb4"/>
	<path d="m52.448 150.51c0 6.4319 0 10.902-6.4319 10.902h-8.9393c-6.4319 0-6.4319-4.4696-6.4319-10.902s0-10.902 6.4319-10.902h8.8303c6.4319 0 6.4319 4.4697 6.4319 10.902zm28.235-98.114h74.24c6.4319 0 6.4319-4.4697 6.4319-10.902 0-6.4319 0-10.902-6.4319-10.902h-74.24c-6.4319 0-6.4319 4.4697-6.4319 10.902 0 6.4319 0 10.902 6.4319 10.902zm-34.667 32.705h-8.9393c-6.4319 0-6.4319 4.4697-6.4319 10.902 0 6.4319 0 10.902 6.4319 10.902h8.8303c6.4319 0 6.4319-4.4697 6.4319-10.902 0-6.4319 0-10.902-6.4319-10.902zm0-54.508h-8.9393c-6.4319 0-6.4319 4.4697-6.4319 10.902 0 6.4319 0 10.902 6.4319 10.902h8.8303c6.4319 0 6.4319-4.4697 6.4319-10.902 0-6.4319 0-10.902-6.4319-10.902zm109.02 54.508h-74.349c-6.4319 0-6.4319 4.4697-6.4319 10.902 0 6.4319 0 10.902 6.4319 10.902h74.24c6.4319 0 6.4319-4.4697 6.4319-10.902 0-6.4319 0-10.902-6.4319-10.902zm0 54.508h-74.349c-6.4319 0-6.4319 4.4697-6.4319 10.902s0 10.902 6.4319 10.902h74.24c6.4319 0 6.4319-4.4696 6.4319-10.902s0-10.902-6.4319-10.902z" fill="#fafafa" fill-rule="evenodd" stroke-width="10.902"/>
</svg>
