<svg version="1.1" viewBox="0 0 12 11" xmlns="http://www.w3.org/2000/svg">
	<path d="m3 0c-1.632 0.086-2.954 1.333-3 3 0 0.52 0.089922 1.5199 0.66992 2.6699 0.58 1.15 2.3401 2.9401 5.3301 5.3301 2.98-2.39 4.7698-4.1701 5.3398-5.3301 0.57-1.16 0.66016-2.1699 0.66016-2.6699-0.047-1.69-1.342-2.913-3-3-0.97 0-1.6892 0.42-2.1992 1-0.51 0.58-0.78078 0.92-0.80078 1-0.02-0.08-0.28078-0.42-0.80078-1-0.52-0.58-1.1692-1-2.1992-1zm2.8125 2.6875h0.31445v0.73242c0.19545 0.0084066 0.38552 0.028873 0.56836 0.0625 0.18284 0.031525 0.36072 0.076068 0.53516 0.13281v0.55078c-0.17444-0.08827-0.35412-0.15674-0.53906-0.20508-0.18284-0.048338-0.3711-0.075578-0.56445-0.083984v1.3457c0.47708 0.073558 0.82786 0.20538 1.0527 0.39453s0.33789 0.44753 0.33789 0.77539c0 0.35518-0.11979 0.63583-0.35938 0.8418-0.23749 0.20386-0.5815 0.32199-1.0312 0.35352v0.95508h-0.31445l-0.0039062-0.94922c-0.22068-0.0042033-0.44144-0.029936-0.66211-0.076172-0.22067-0.048338-0.44129-0.12027-0.66406-0.21484v-0.56641c0.21437 0.13451 0.42987 0.23533 0.64844 0.30469 0.22067 0.067253 0.44836 0.10337 0.68164 0.10547v-1.4375c-0.46447-0.07566-0.80336-0.20402-1.0156-0.38477-0.21017-0.18074-0.31445-0.42889-0.31445-0.74414 0-0.34257 0.11467-0.61299 0.34375-0.81055 0.22908-0.19756 0.55759-0.31042 0.98633-0.33984v-0.74219zm0 1.1855c-0.24379 0.027321-0.43039 0.097596-0.55859 0.20898-0.1282 0.11139-0.19141 0.25841-0.19141 0.44336 0 0.18074 0.058089 0.32295 0.17578 0.42383 0.11979 0.10088 0.31151 0.17266 0.57422 0.2168v-1.293zm0.31445 1.8984v1.3652c0.26691-0.035728 0.46901-0.11292 0.60352-0.22852 0.13661-0.11559 0.20508-0.26788 0.20508-0.45703 0-0.18495-0.06501-0.33212-0.19531-0.44141-0.1282-0.10929-0.33376-0.18784-0.61328-0.23828z"/>
</svg>
