<svg version="1.1" viewBox="0 0 1028 1028" xmlns="http://www.w3.org/2000/svg">
	<rect width="1028" height="1028" rx="95.388" ry="96.548" fill="#fafafa" stroke-linecap="round" stroke-width="75.564"/>
	<path d="m512.33 89.035c-7.939 0.45818-12.071 6.7311-17.494 11.779l-10.83 9.3135-24.3 24.917-32.206 34.988-28.399 33.322-20.268 24.992-21.101 24.992-20.302 24.992c-12.437 14.012-24.925 29.407-35.305 44.985-2.9573 4.4318-9.8217 12.662-7.5558 18.236 1.9993 4.9234 16.953 5.9563 21.993 6.9227l34.988 6.8477 33.322 7.8057c37.446 8.3555 86.029 24.333 121.63 38.829 39.745 16.17 77.091 33.58 113.3 56.889 83.972 54.065 150.81 126.31 172.79 226.02 3.0573 13.845 4.5901 27.549 5.5565 41.653l0.75808 8.3305v17.494l-0.83305 11.663c-0.025 2.874-0.32489 8.5138 3.4155 9.3135 3.4655 0.73309 6.3812-4.3902 7.8973-6.8144 4.7401-7.5891 10.988-19.277 14.512-27.491 11.771-27.457 18.819-56.006 20.901-85.804l0.75808-9.9966v-29.99l-0.75808-8.3305-3.8904-34.988-7.9723-44.152c-7.764-29.115-20.401-56.456-33.822-83.305-30.39-60.78-69.885-116.65-116.87-165.78-4.8317-5.0483-15.903-17.419-22.459-18.685-7.2392-1.3995-15.062 6.3312-19.16 6.5061-5.1316 0.22492-10.28-9.0053-12.979-12.812l-19.235-29.157-18.56-27.491-18.944-30.823-25.375-36.654-19.768-27.491c-3.932-5.1066-6.6478-10.022-13.429-11.021zm-236.59 280.74c-8.922 0.64978-14.27 12.687-18.927 19.352-14.453 20.701-24.975 43.76-35.413 66.644-10.771 23.617-20.052 53.074-26.358 78.307-4.8984 19.568-8.0973 36.579-10.238 56.648l-1.5328 15.828-0.83305 14.162 0.86637 16.661v8.3305c1.3745 13.271 3.7987 26.483 8.0223 39.153 2.016 6.0646 5.3898 16.369 11.138 19.652 3.5571 2.0243 6.8644 1.9993 10.796 2.0077h25.825l9.9966-0.79973h9.1636l8.3305-0.7914 42.486-4.007 34.988-5.5648c39.253-7.8557 80.323-19.235 112.46-44.11 20.776-16.078 36.613-39.303 36.654-66.353v-6.6644c-0.28324-24.25-15.27-51.874-29.465-70.809-30.898-41.194-80.64-77.924-124.65-104.46l-43.319-24.458c-6.4728-3.3072-12.621-7.8307-19.993-8.7221zm37.671 54.298c6.048-0.0417 7.4058 5.7897 7.1393 10.871-1.6307 76.303-0.60075 233.04-0.65811 229.09-0.0417 3.0656-0.8747 9.4552-5.6481 7.7807-3.1156-1.0913-2.6741-5.9896-2.6824-8.6138 0.42824 2.7017-0.2166-237.23-0.2166-237.23 0.69977-1.4912 0.94135-1.2079 2.066-1.8994zm37.554 22.642c7.7224-1.5495 8.9053 6.806 8.9137 12.387-0.2011 1.0471-0.34214 191.19 0 187.44 0.0333 3.2073-0.2999 13.171-1.8077 15.636-1.6661 2.7158-6.1563 3.5905-8.0473 0.76641-1.1579-1.7411-0.97467-5.1732-0.97467-7.2392v-191.6c-8e-3 -5.6648-2.4825-13.246 1.916-17.386zm43.069 203.99c-2.5075-5.4065-1.6661-11.654-1.6661-17.494v-147.45c0-1.6328 0.34155-11.046 4.2236-6.3562 1.7161 2.0743 1.6078 7.081 1.6078 9.6884v4.9983l-0.83306 12.496v128.29c0 5.6148 0.73309 10.646-1.6661 15.828zm38.32-137.45h1.6661c4.2461 7.5857 3.1898 91.08 3.1898 91.08s0.60062 19.516-4.0228 25.548c-2.9657-10.105-1.7704-22.646-1.7704-22.646l0.25425-87.317zm231.59 142.73c-13.895 3.4155-17.636 17.161-17.494 29.715l5.1399 35.821c0.34155 3.4322 0.80806 4.5401 0.65811 8.3305l-1.0746 11.663c-0.29157 4.965 2.4158 9.755 7.6974 6.1646 2.4742-1.6828 9.5468-12.238 11.738-15.328 11.28-15.92 20.227-35.196 19.993-54.981-0.18327-15.336-12.329-22.984-26.658-21.384zm61.646 17.527c-17.719 2.0993-20.51 11.28-26.908 25.516l-9.1636 18.327c-15.02 27.341-35.255 51.333-57.231 73.309l-12.496 12.263-29.157 24.7c-3.1823 2.3659-13.52 8.6721-14.97 11.429-3.9487 7.4975 8.3972 7.4642 12.471 7.4225 21.01-0.24158 44.293-8.2972 62.479-18.444 33.089-18.46 59.647-45.268 79.623-77.357 6.3229-10.163 12.921-24.433 16.736-35.821 1.7994-5.3899 3.9737-11.796 4.2652-17.494 0.74141-14.262-12.562-23.725-25.65-23.85zm-123.29 25.758c-17.411 2.8907-36.679 15.52-51.649 24.7l-19.16 10.305-14.162 7.8557c-15.52 8.0056-41.819 20.152-58.314 24.85-35.93 10.255-77.799 10.746-114.13 2.1243-32.831-7.7974-64.753-24.567-96.634-35.638l-24.159-6.7727c-2.9907-0.63312-7.1143-1.7161-9.7384 0.44152-2.3492 1.9327-1.9577 5.09-1.2912 7.7141 1.1913 4.6901 4.8234 11.338 7.0726 15.828 11.013 22.026 25.75 44.918 41.111 64.145 53.782 67.327 129.05 112.54 215.26 121.76l13.329 1.5328h7.4975l8.3305 0.83305c65.753 0.76641 131.64-16.378 189.1-48.434 18.036-10.063 37.504-20.576 52.482-34.905 22.476-21.501 46.001-50.525 46.634-83.272 0.29157-14.695-12.546-38.179-29.14-37.454-13.804 0.5998-17.577 13.046-22.701 23.292-9.2052 18.419-20.177 32.222-34.78 46.651-36.688 36.254-91.269 56.056-142.45 55.815-8.3555-0.0417-23.409-1.6494-31.656-3.3322-2.3992-0.49151-9.1636-1.5245-8.6471-5.0316 0.41653-2.8157 7.1143-6.7144 9.4801-8.2972l27.491-19.993c17.236-13.729 39.412-34.313 52.774-51.649 9.6301-12.487 17.561-27.966 17.194-44.152-0.39987-17.477-10.746-30.656-29.149-28.915z" fill="#1a5fb4" stroke-width=".83305"/>
</svg>
