<svg version="1.1" viewBox="0 0 252.21 323.59" xmlns="http://www.w3.org/2000/svg">
	<path d="m42.56 95.199c13.897 1.8714 27.764 5.5706 41.28 9.2317 57.879 15.676 123.42 46.55 145.85 106.61 6.0576 16.226 6.7936 31.925 6.7936 48.96 1.9744-1.0102 2.928-3.5619 3.9712-5.44 2.8416-5.111 5.0784-10.451 6.9088-16 6.0096-18.206 5.8336-37.916 2.6912-56.64-1.0048-6.0058-1.8048-12.085-3.6608-17.92-10.73-33.771-30.954-65.353-55.363-90.88-2.0448-2.1389-6.4832-8.3635-9.5872-8.4707-2.6592-0.09184-5.232 3.8394-7.68 2.9142-3.4496-1.3053-6.5344-8.1078-8.48-11.084-13.246-19.278-23.157-37.33-36.639-53.44-0.8512-1.0053-1.7699-2.8074-3.2054-3.0185-2.1456-0.31549-3.8093 3.005-5.2195 4.1884-5.6413 4.7342-10.301 10.209-15.6 15.286-16.403 15.716-30.092 34.858-44.575 52.29-4.8058 5.7837-9.9302 11.261-13.933 17.654-1.2214 1.951-2.8838 3.5056-3.5472 5.76m-8.9043 12.503c-1.9293 0.9568-3.4275 4.3261-4.6413 6.0448-4.1802 5.919-7.6502 12.059-10.852 18.572-8.209 16.698-14.22 35.31-16.652 53.761-1.0342 7.8429-1.9965 15.768-1.2438 23.679 0.5536 5.8163 1.1254 11.318 2.8451 16.96 0.6704 2.2 1.6493 5.3517 3.3946 6.9382 1.3181 1.1984 3.9757 1.0592 5.6547 1.0618 4.9066 8e-3 9.8182-0.632 14.72-0.64 22.057-0.0355 47.157-4.3094 66.88-14.483 4.7107-2.4301 9.6093-5.4045 13.304-9.2518 2.7914-2.9062 5.247-5.9248 7.0573-9.5456 10.432-20.866-8.144-43.364-22.693-56.484-3.167-2.856-6.4045-5.6938-9.8285-8.2419-4.1254-3.0698-8.223-6.0925-12.48-8.984-8.4691-5.7526-17.4-11.068-26.56-15.649-1.8899-0.94496-6.8211-4.7715-8.9043-3.7382m13.384 16.617c1.6739 0.48224 4.4685 1.4448 5.4806 2.9482 0.82432 1.224 0.28 3.3277 0.27936 4.7318v85.76c0 1.5078 0.61664 4.7485-0.74176 5.7798-1.0362 0.78656-4.1734 1.4166-4.8253-0.0675-0.73568-1.6755-0.19296-4.5427-0.19296-6.3523v-69.12c0-5.4397 0.0259-10.88-3.2e-4 -16.32-0.0118-2.4662-0.71552-4.9386 3.2e-4 -7.36m14.4 8.32c2.0893 0.63744 5.3261 2.1466 6.391 4.1728 1.6403 3.1206 0.32896 9.9126 0.32896 13.427 0 16.532-0.32 33.012-0.32 49.6v15.04c0 1.4973 0.56512 4.3795-0.74176 5.4384-1.0541 0.85408-4.7427 1.9046-5.4653 0.27296-0.67232-1.5187-0.19296-4.073-0.19296-5.7114v-75.2c-9.6e-4 -2.383-0.55968-4.6886 0-7.04m17.28 84.16-0.32-7.68-0.0413-14.72-0.27872-49.92c6.6115 0.88288 4.48 10.573 4.48 15.36v43.2c0 4.8707 1.9923 12.422-3.84 13.76m14.72-7.04c-1.3386-10.828-0.32-22.359-0.32-33.28 0-6.1514-1.1053-13.534 0.32-19.52 4.7254 2.1706 3.84 6.8448 3.84 11.2v30.08c0 3.9699 1.6102 10.958-3.84 11.52m86.72 41.28h0.64c2.4992-4.8438 6.5856-8.6326 8.8256-13.76 1.9456-4.4602 4.2592-10.098 2.8416-15.04-1.4112-4.9136-8.1856-6.4237-11.638-2.8662-5.5968 5.7686-0.8416 15.589-0.3776 22.386 0.2016 2.9632-0.9952 6.4918-0.2912 9.28m-30.08 36.8c23.616 2.9846 45.485-16.694 57.488-34.826 3.4752-5.2486 6.1024-11.299 7.8368-17.334 0.9856-3.4307 1.2544-7.0922-1.9936-9.5293-3.9744-2.9795-9.9168-2.4371-12.781 1.8541-2.4864 3.7232-3.6768 8.5165-5.8496 12.475-4.0288 7.3331-9.072 14.272-14.675 20.48-6.064 6.7155-12.518 13.057-19.466 18.854-3.216 2.6822-7.8954 4.8938-10.56 8.0256m-139.2-43.84c0.84192 4.0269 3.121 7.6048 5.0246 11.2 4.7034 8.8822 10.458 17.34 17.014 24.96 34.468 40.067 89.79 53.824 139.24 35.334 18.563-6.9376 38.358-16.105 50.768-32.134 5.2448-6.775 9.7824-14.82 9.3792-23.68-0.2592-5.6886-6.4224-14.998-12.787-10.94-2.9536 1.8851-3.6352 5.4528-5.2192 8.3805-2.5984 4.8022-5.6512 9.3526-9.312 13.412-14.643 16.23-36.63 25.628-58.429 25.628-4.9133 0-9.896-0.59104-14.72-1.5373-1.4608-0.2864-4.2042-0.50112-5.2909-1.6112-1.1888-1.2144 1.9872-2.5674 2.7309-3.0336 4.0669-2.5504 8.0227-5.2685 11.84-8.1808 9.7789-7.4611 20.672-16.503 26.458-27.557 2.4544-4.6893 3.8752-12.325 0.5376-16.959-2.7456-3.8147-7.2736-3.647-11.315-2.3216-8.1434 2.6704-15.17 8.2902-22.72 12.22-9.0448 4.7085-18.033 9.6762-27.84 12.681-15.862 4.8592-33.35 4.4522-49.28 0.0906-15.364-4.2067-30.02-14.682-46.08-15.951"/>
</svg>
