<svg version="1.1" viewBox="0 0 1117.4 899.69" xmlns="http://www.w3.org/2000/svg">
	<path d="m26.732 186.99q9.7573-5.8987 19.654-6.1423 11.31-0.27837 43.416 10.956 32.83 11.924 106.6 49.011 73.767 37.087 126.91 69.731s52.133 31.168 53.835 31.919c1.7012 0.75104 3.2787 0.18173 4.8126-2.1548 1.534-2.3366-2.159-4.9837-2.159-4.9837l-50.387-35.541q-50.387-35.541-116.36-72.112-65.284-37.296-86.874-52.326-21.59-15.03-26.074-24.822-4.4849-9.7921-2.0053-24 3.2039-13.518 16.443-21.624t27.377-8.4543q15.552-0.38276 42.657 8.8526 27.106 9.2354 73.662 32.846t107.6 61.011q62.457 37.365 88.427 57.946 26.66 19.856 66.628 34.434 39.969 14.577 71.211 19.467 32.656 4.8548 55.277 4.2981 23.31-1.281 27.412-7.0406 4.1022-5.7595 2.3752-18.449-0.31317-12.724-25.879-74.339-25.565-61.615-28.295-86.304-2.7296-24.689-0.42397-45.965 2.3056-21.276 8.957-38.416 7.3409-17.864 19.062-30.177 11.721-12.313 21.583-13.97 10.586-0.96786 14.967 4.5829 5.07 4.8265 13.524 32.204 8.4543 27.377 39.71 90.267 31.98 63.579 40.775 76.094 10.21 12.48 18.832 17.927 8.6219 5.4464 30.385 27.545 22.488 22.788 27.697 33.27 5.8987 9.7573 29.193 94.063 24.708 84.27 28.441 120.96t23.253 53.891q20.245 17.892 98.602 69.013l79.08 51.81-215.81 226.7-21.039-21.409q-20.315-20.72-48.354-39.127-27.349-19.132-65.041-27.399-37.002-8.9918-91.624-15.428-53.898-5.7466-93.038-15.393-37.726-9.6812-94.18-33.048-55.04-23.402-98.08-47.806-42.316-23.715-148.53-57.174-105.49-32.77-128.39-43.523-22.899-10.754-31.59-19.027-7.9672-7.5844-9.0394-22.412-0.34796-14.138 3.7542-19.897 4.1022-5.7595 11.102-8.7611 7.6888-3.7258 132.87 24.315s119.94 27.377 125.18 28.041c5.2357 0.66405 31.866-9.1809-1.455-30.379q-33.321-21.198 0 0-12.313-11.721-170.15-73.618s-129.35-46.865-144.78-56.034c-15.433-9.169-20.371-15.585-20.371-15.585q-7.3125-9.7225-7.556-19.619 0.48072-9.207 5.8575-20.656 6.7906-11.484 13.066-15.175 7.6888-3.7258 16.172-3.9346 9.207 0.48072 29.933 9.1658 22.14 8.6503 115.49 36.768 93.351 28.117 124.84 42.903s26.931 13.044 32.176 14.062c5.2444 1.0175 22.169-0.80804 3.1691-14.932q-19-14.124 0 0-7.9672-7.5844-73.251-44.88-64.595-38.02-154.88-85.311s-59.984-30.536-76.141-40.394c-16.157-9.8585-24.194-20.271-24.194-20.271-7.5213-18.205-8.3262-21.711-0.37572-36.589 7.9505-14.878 14.375-19.451 14.375-19.451z" stroke="#000"/>
</svg>
