<svg version="1.1" viewBox="0 0 123.51 158.81" xmlns="http://www.w3.org/2000/svg">
	<path d="m57.802 158.72c-12.213-0.84771-24.726-5.2529-35.963-12.661-2.2754-1.5-6.1416-5.2398-7.9604-7.7-3.235-4.3758-4.7339-9.2195-3.7859-12.234 0.72496-2.3048 2.9616-4.7363 4.3567-4.7363 0.7231 0 1.8539 0.58242 2.4876 1.2812 0.27272 0.30073 0.73865 1.1096 1.0354 1.7975 1.8807 4.3598 5.892 9.3803 10.014 12.534 9.2808 7.0995 21.244 9.708 32.453 7.0763 0.95603-0.22446 1.6651-0.48099 1.5757-0.57008-0.0894-0.0891-1.0517-0.72557-2.1385-1.4144-2.3472-1.4878-5.8208-4.0436-8.2225-6.0501-2.3236-1.9412-7.0745-6.732-8.3305-8.4003-2.2769-3.0245-3.3786-6.2994-2.9416-8.7446 0.63642-3.5612 2.9556-4.8323 6.5156-3.5711 1.9127 0.67765 2.7317 1.0979 6.5152 3.3435 6.4464 3.826 12.453 6.7725 17.279 8.4759 0.90452 0.31926 2.9658 0.86028 4.5806 1.2023 2.904 0.61501 2.9938 0.62177 8.2277 0.61959 4.5771-2e-3 5.5905-0.0577 7.5046-0.41292 3.6406-0.67572 6.6823-1.6616 13.469-4.3658 3.5456-1.4127 7.3125-2.8448 8.3708-3.1825 1.6237-0.51808 4.8504-1.3316 5.3381-1.3458 0.28284-8e-3 -0.85833 2.6462-2.2318 5.1913-10.406 19.283-27.239 31.285-47.075 33.564-3.182 0.36563-8.1978 0.50304-11.074 0.30336zm-11.343-17.254c-6.2412-0.76279-12.331-3.8742-17.899-9.1445-4.5386-4.2962-8.3165-10.043-10.096-15.358-0.82721-2.4709-0.92996-3.5574-0.42861-4.5326 0.79914-1.5544 2.1392-2.3947 3.8188-2.3947 2.1762 0 3.4494 1.0536 4.5096 3.7319 1.7386 4.392 4.7616 9.138 8.7763 13.779 4.3284 5.0033 10.411 10.53 14.089 12.799 0.64597 0.39873 1.1745 0.78789 1.1745 0.86484 0 0.30882-2.2908 0.45658-3.9447 0.25446zm-38.581-12.722c0-0.0824-0.48939-0.96997-1.0875-1.9723-6.1152-10.248-8.033-21.732-6.0243-36.074 0.47857-3.417 0.94757-6.1915 1.1677-6.9079 0.0943-0.30684 0.17196-0.78309 0.17261-1.0583 5.8e-4 -0.27525 0.11798-0.72427 0.26072-0.99781 0.14274-0.27355 0.41178-1.0096 0.59785-1.6356 0.76166-2.5626 1.8068-5.504 2.042-5.7468 0.0974-0.10054 0.17705-0.2957 0.17705-0.43369 0-0.65982 5.0885-10.8 7.4637-14.874 3.2308-5.5408 7.4706-11.553 11.883-16.851 2.6454-3.1762 7.6754-8.619 8.9892-9.7267 0.90801-0.76565 0.97475-0.78916 1.6584-0.58434 0.39176 0.11738 1.1792 0.56179 1.7499 0.9876 0.57071 0.4258 1.226 0.77419 1.4562 0.77419 0.43802 0 2.2336-2.3613 4.6091-6.0614 0.61153-0.9525 1.9445-2.9705 2.9622-4.4845 1.0177-1.514 2.3266-3.5542 2.9087-4.5339 0.58208-0.97968 1.3614-2.2748 1.7318-2.8782 0.60105-0.97895 5.209-7.7257 6.6037-9.669 0.29831-0.41562 0.79403-1.1453 1.1016-1.6216 0.79941-1.2378 3.067-4.1075 3.3968-4.2988 0.53274-0.30896 1.2006 0.07627 2.8672 1.6539 4.3708 4.1374 6.0628 5.8287 8.3187 8.3154 1.3411 1.4784 3.1312 3.4279 3.9778 4.3324 1.6894 1.8047 5.3939 6.1595 8.2048 9.6453 0.99072 1.2286 2.6359 3.2202 3.6559 4.4258 1.7021 2.0118 4.5426 5.4444 8.8732 10.723 1.912 2.3304 4.8785 6.5373 5.2691 7.4721 0.26025 0.62286 0.25922 0.62493-0.36341 0.73216-9.1064 1.5683-16.071 3.1071-23.186 5.123-5.6714 1.6068-13.41 4.219-15.963 5.3879-0.67154 0.30757-1.3017 0.55921-1.4004 0.55921-0.39688 0-6.2901 2.6479-9.817 4.4109-24.078 12.036-39.204 29.169-43.165 48.891-0.85096 4.2374-0.99648 5.9445-0.99648 11.69 0 2.9898-0.0216 5.436-0.0481 5.436s-0.0481-0.0674-0.0481-0.14986zm27.198-5.276c-0.089-0.13788-0.24851-0.39601-0.35437-0.57362-0.10587-0.17762-0.78248-1.1301-1.5036-2.1167-2.9095-3.9805-4.7459-9.2882-3.9979-11.555 0.29688-0.89953 1.4142-1.9867 2.4472-2.3812 1.6748-0.63961 3.3437 0.0936 4.2394 1.8626 0.73899 1.4595 0.74916 2.4676 0.0652 6.4674-0.63211 3.6968-0.62987 3.6433-0.32847 7.8344 0.0429 0.59703-0.3 0.87613-0.56753 0.46189zm74.595-8.4484c-18.456-1.1059-31.96-5.236-38.606-11.807-11.074-10.95-2.7781-27.067 22.057-42.851 4.5665-2.9021 13.088-7.6678 13.71-7.6678 0.62074 0 4.5217 6.0727 6.9222 10.776 9.1123 17.853 12.345 39.159 7.5322 49.636-1.0471 2.2794-0.68057 2.1301-5.1515 2.0975-2.1267-0.0155-5.0357-0.0983-6.4645-0.18388zm-9.2397-25.332c-4e-3 -21.898-9e-3 -22.048-0.93603-23.864-2.0593-4.0365-6.3401-0.72721-8.1888 6.3303-0.95503 3.6458-0.97406 4.0472-0.97406 20.552v15.478l2.1167 0.53348c1.1642 0.29341 2.9393 0.68015 3.9447 0.85942 1.0054 0.17927 2.1744 0.38846 2.5977 0.46487 0.42334 0.0764 0.92124 0.14977 1.1064 0.16301 0.31878 0.0228 0.33657-1.072 0.33341-20.517zm-15.296 3.0144c-1e-3 -12.715-0.0276-13.828-0.35047-14.897-0.936-3.0971-2.8049-4.1431-4.8705-2.726-1.7742 1.2172-2.7795 2.9581-3.5535 6.1537-0.33267 1.3736-0.36412 2.3466-0.36412 11.264v9.7603l1.7799 1.0624c2.3235 1.3868 6.6378 3.2947 7.1678 3.1698 0.12608-0.0297 0.1919-4.7833 0.19088-13.787z"/>
</svg>
