<svg version="1.1" viewBox="0 0 797 1021.3" xmlns="http://www.w3.org/2000/svg">
	<!-- <path d="m17.518 733.12c6.2103 22.702 1.8812 25.683 23.351 51.253 71.373 85.004 343.8 184.1 343.8 184.1l332.21-94.477c15.274-21.305 32.028-42.2 39.643-65.633l-16.164-239.48-436.47-276.49-169.77 8.1217-23.25 37.501z" fill="#fafafa" /> -->
	<path d="m396.5 0.50212c-9.53 0.55-14.49 8.08-21 14.14l-13 11.18-29.17 29.91-38.66 42-34.09 40-24.33 30-25.33 30-24.37 30c-14.93 16.82-29.92 35.3-42.38 54-3.55 5.32-11.79 15.2-9.07 21.89 2.4 5.91 20.35 7.15 26.4 8.31l42 8.22 40 9.37c44.95 10.03 103.27 29.21 146 46.61 47.71 19.41 92.54 40.31 136 68.29 100.8 64.9 181.03 151.62 207.42 271.31 3.67 16.62 5.51 33.07 6.67 50l0.91 10v21l-1 14c-0.03 3.45-0.39 10.22 4.1 11.18 4.16 0.88 7.66-5.27 9.48-8.18 5.69-9.11 13.19-23.14 17.42-33 14.13-32.96 22.59-67.23 25.09-103l0.91-12v-36l-0.91-10-4.67-42-9.57-53c-9.32-34.95-24.49-67.77-40.6-100-36.48-72.96-83.89-140.03-140.29-199-5.8-6.06-19.09-20.91-26.96-22.43-8.69-1.68-18.08 7.6-23 7.81-6.16 0.27-12.34-10.81-15.58-15.38l-23.09-35-22.28-33-22.74-37-30.46-44-23.73-33c-4.72-6.13-7.98-12.03-16.12-13.23zm-284 337c-10.71 0.78-17.13 15.23-22.72 23.23-17.35 24.85-29.98 52.53-42.51 80-12.93 28.35-24.07 63.71-31.64 94-5.88 23.49-9.72 43.91-12.29 68l-1.84 19-1 17 1.04 20v10c1.65 15.93 4.56 31.79 9.63 47 2.42 7.28 6.47 19.65 13.37 23.59 4.27 2.43 8.24 2.4 12.96 2.41h31l12-0.96h11l10-0.95 51-4.81 42-6.68c47.12-9.43 96.42-23.09 135-52.95 24.94-19.3 43.95-47.18 44-79.65v-8c-0.34-29.11-18.33-62.27-35.37-85-37.09-49.45-96.8-93.54-149.63-125.4l-52-29.36c-7.77-3.97-15.15-9.4-24-10.47zm45.22 65.18c7.26-0.05 8.89 6.95 8.57 13.05-1.9575 91.594-0.72115 279.74-0.79 275-0.05 3.68-1.05 11.35-6.78 9.34-3.74-1.31-3.21-7.19-3.22-10.34 0.51407 3.2431-0.26-284.77-0.26-284.77 0.84-1.79 1.13-1.45 2.48-2.28zm45.08 27.18c9.27-1.86 10.69 8.17 10.7 14.87-0.2414 1.2569-0.41071 229.5 0 225 0.04 3.85-0.36 15.81-2.17 18.77-2 3.26-7.39 4.31-9.66 0.92-1.39-2.09-1.17-6.21-1.17-8.69v-230c-0.01-6.8-2.98-15.9 2.3-20.87zm51.7 244.87c-3.01-6.49-2-13.99-2-21v-177c0-1.96 0.41-13.26 5.07-7.63 2.06 2.49 1.93 8.5 1.93 11.63v6l-1 15v154c0 6.74 0.88 12.78-2 19zm46-165h2c2.1943 29.41 1.3913 59.766 1.09 90l0.73 7 0.15962 13.095c0.1 8.62 2.5704 22.665-2.9796 29.905-3.56-12.13-2.1452-15.934-2.1252-27.184l1.1252-21.816c0-32.147-0.55755-79.391-0.82-83zm278 171.33c-16.68 4.1-21.17 20.6-21 35.67l6.17 43c0.41 4.12 0.97 5.45 0.79 10l-1.29 14c-0.35 5.96 2.9 11.71 9.24 7.4 2.97-2.02 11.46-14.69 14.09-18.4 13.54-19.11 24.28-42.25 24-66-0.22-18.41-14.8-27.59-32-25.67zm74 21.04c-21.27 2.52-24.62 13.54-32.3 30.63l-11 22c-18.03 32.82-42.32 61.62-68.7 88l-15 14.72-35 29.65c-3.82 2.84-16.23 10.41-17.97 13.72-4.74 9 10.08 8.96 14.97 8.91 25.22-0.29 53.17-9.96 75-22.14 39.72-22.16 71.6-54.34 95.58-92.86 7.59-12.2 15.51-29.33 20.09-43 2.16-6.47 4.77-14.16 5.12-21 0.89-17.12-15.08-28.48-30.79-28.63zm-148 30.92c-20.9 3.47-44.03 18.63-62 29.65l-23 12.37-17 9.43c-18.63 9.61-50.2 24.19-70 29.83-43.13 12.31-93.39 12.9-137 2.55-39.41-9.36-77.73-29.49-116-42.78l-29-8.13c-3.59-0.76-8.54-2.06-11.69 0.53-2.82 2.32-2.35 6.11-1.55 9.26 1.43 5.63 5.79 13.61 8.49 19 13.22 26.44 30.91 53.92 49.35 77 64.56 80.82 154.91 135.09 258.4 146.16l16 1.84h9l10 1c78.93 0.92 158.02-19.66 227-58.14 21.65-12.08 45.02-24.7 63-41.9 26.98-25.81 55.22-60.65 55.98-99.96 0.35-17.64-15.06-45.83-34.98-44.96-16.57 0.72-21.1 15.66-27.25 27.96-11.05 22.11-24.22 38.68-41.75 56-44.04 43.52-109.56 67.29-171 67-10.03-0.05-28.1-1.98-38-4-2.88-0.59-11-1.83-10.38-6.04 0.5-3.38 8.54-8.06 11.38-9.96l33-24c20.69-16.48 47.31-41.19 63.35-62 11.56-14.99 21.08-33.57 20.64-53-0.48-20.98-12.9-36.8-34.99-34.71z" />
</svg>
