<?xml version="1.0" standalone="no"?>
<!DOCTYPE svg PUBLIC "-//W3C//DTD SVG 20010904//EN"
 "http://www.w3.org/TR/2001/REC-SVG-20010904/DTD/svg10.dtd">
<svg version="1.0" xmlns="http://www.w3.org/2000/svg"
 width="700.000000pt" height="700.000000pt" viewBox="0 0 700.000000 700.000000"
 preserveAspectRatio="xMidYMid meet">
<metadata>
Created by potrace 1.14, written by Peter Selinger 2001-2017
</metadata>
<g transform="translate(0.000000,700.000000) scale(0.100000,-0.100000)"
fill="#000000" stroke="none">
<path d="M3393 6338 c-197 -176 -464 -468 -799 -874 -82 -99 -168 -203 -191
-230 -215 -255 -349 -429 -387 -502 -8 -16 -12 -39 -9 -51 7 -26 40 -36 273
-80 91 -18 172 -34 180 -35 168 -39 264 -63 350 -88 154 -43 302 -88 325 -98
11 -5 40 -16 65 -24 75 -24 318 -120 445 -176 912 -402 1522 -1011 1719 -1716
55 -199 67 -290 71 -533 3 -183 7 -207 39 -195 30 11 141 227 184 359 32 96
58 191 66 240 2 17 8 50 11 75 4 25 9 54 12 65 9 39 10 361 2 435 -4 41 -11
102 -14 135 -7 61 -11 91 -20 135 -5 26 -9 44 -25 140 -5 30 -11 66 -14 80
-15 84 -89 280 -177 467 -212 454 -484 854 -833 1226 -143 153 -174 169 -256
127 -50 -25 -62 -25 -87 3 -28 30 -292 425 -376 562 -70 114 -79 126 -261 385
-137 195 -160 220 -202 220 -25 0 -46 -12 -91 -52z"/>
<path d="M1823 4451 c-58 -58 -204 -308 -286 -491 -13 -30 -34 -75 -45 -100
-25 -52 -81 -201 -92 -245 -5 -16 -24 -85 -44 -153 -37 -128 -80 -331 -90
-417 -3 -27 -9 -81 -13 -120 -14 -125 -5 -341 18 -460 12 -60 25 -114 30 -119
5 -6 9 -16 9 -23 0 -7 10 -34 21 -59 35 -74 49 -77 293 -71 116 3 222 8 236
11 14 2 65 7 114 11 49 4 98 8 110 10 84 13 122 19 126 20 3 0 32 5 65 9 72 9
270 56 380 89 359 110 593 291 677 523 31 87 31 263 -1 354 -66 188 -166 337
-355 526 -200 200 -441 379 -736 549 -355 204 -366 208 -417 156z m347 -355
c8 -11 11 -68 10 -198 -1 -101 -2 -466 -2 -813 0 -360 -4 -638 -10 -648 -6
-13 -13 -15 -26 -8 -17 9 -18 61 -20 845 -2 812 -1 836 17 836 10 0 24 -6 31
-14z m265 -160 c14 -20 15 -106 13 -731 -3 -696 -3 -708 -23 -721 -49 -32 -48
-46 -49 712 -1 390 0 721 2 737 6 34 35 36 57 3z m270 -779 c0 -317 -4 -579
-8 -584 -5 -4 -12 -1 -17 7 -10 17 -14 1119 -4 1145 4 9 12 14 18 12 8 -3 11
-161 11 -580z m257 326 c14 -54 18 -666 5 -727 -16 -74 -29 -23 -29 110 0 462
3 634 11 634 5 0 11 -8 13 -17z"/>
<path d="M4503 2524 c-99 -34 -119 -137 -73 -384 5 -24 8 -83 7 -130 -1 -88 5
-110 27 -110 32 0 156 181 199 291 41 103 50 214 23 267 -31 59 -114 89 -183
66z"/>
<path d="M4880 2399 c-45 -18 -69 -50 -140 -191 -75 -150 -140 -252 -228 -363
-142 -176 -351 -377 -524 -503 -72 -53 -87 -77 -56 -93 12 -6 44 -12 72 -12
47 0 68 3 149 18 49 10 173 52 218 76 55 28 190 109 205 123 6 6 29 24 50 40
73 55 223 216 289 311 110 157 196 353 197 449 1 56 -27 105 -78 133 -42 24
-110 29 -154 12z"/>
<path d="M4040 2222 c-56 -19 -163 -73 -255 -129 -100 -62 -370 -202 -475
-246 -134 -56 -201 -77 -325 -102 -66 -13 -167 -19 -295 -19 -251 1 -372 30
-735 176 -208 84 -325 125 -431 148 -53 12 -74 2 -74 -37 0 -29 79 -189 150
-304 46 -74 164 -245 179 -259 4 -3 31 -34 61 -70 358 -420 861 -693 1390
-755 30 -3 73 -9 95 -12 43 -6 300 -5 350 1 17 2 59 7 95 10 36 4 72 9 80 11
8 3 35 7 60 10 116 14 374 89 530 152 121 50 360 171 422 214 14 11 29 19 33
19 21 0 162 114 242 196 200 204 292 409 259 579 -9 52 -72 144 -113 168 -59
34 -124 27 -164 -19 -9 -11 -34 -53 -55 -94 -64 -127 -133 -221 -233 -321
-101 -101 -183 -163 -294 -223 -139 -77 -318 -136 -476 -160 -150 -23 -427 -9
-479 23 -22 13 2 40 90 101 44 30 85 60 91 65 7 6 26 21 44 33 103 73 365 336
412 415 56 95 80 175 77 253 -4 80 -23 123 -71 160 -45 34 -112 40 -185 16z"/>
</g>
</svg>
