<?xml version="1.0" standalone="no"?>
<!DOCTYPE svg PUBLIC "-//W3C//DTD SVG 20010904//EN"
 "http://www.w3.org/TR/2001/REC-SVG-20010904/DTD/svg10.dtd">
<svg version="1.0" xmlns="http://www.w3.org/2000/svg"
 width="700.000000pt" height="700.000000pt" viewBox="0 0 700.000000 700.000000"
 preserveAspectRatio="xMidYMid meet">
<metadata>
Created by potrace 1.14, written by Peter Selinger 2001-2017
</metadata>
<g transform="translate(0.000000,700.000000) scale(0.100000,-0.100000)"
fill="#000000" stroke="none">
<path d="M3481 6383 c-58 -65 -295 -408 -419 -606 -130 -207 -339 -519 -377
-565 -39 -45 -48 -45 -101 -5 -17 12 -44 26 -61 29 -28 5 -37 -1 -98 -62 -279
-282 -580 -675 -745 -974 -64 -115 -240 -465 -240 -477 0 -4 -6 -20 -14 -34
-16 -31 -102 -291 -110 -334 -23 -117 -35 -185 -41 -235 -3 -25 -7 -56 -10
-70 -19 -98 -26 -446 -11 -565 7 -57 9 -73 21 -147 12 -70 57 -227 91 -313 48
-125 163 -338 164 -305 1 14 3 111 5 215 3 209 19 326 66 504 161 606 633
1154 1341 1555 148 83 414 212 538 260 52 21 109 44 126 51 102 47 704 231
824 252 14 2 41 8 60 13 50 13 279 61 315 66 17 3 50 9 75 14 25 5 64 12 88
15 23 4 42 11 42 16 0 9 -105 170 -135 207 -49 61 -219 271 -233 287 -9 11
-93 112 -186 225 -172 209 -266 321 -276 330 -3 3 -18 21 -34 40 -79 97 -300
332 -441 470 -173 168 -191 180 -224 143z"/>
<path d="M4995 4399 c-82 -45 -162 -90 -177 -100 -14 -11 -29 -19 -31 -19 -9
0 -131 -77 -254 -160 -279 -188 -539 -420 -672 -600 -74 -100 -154 -258 -178
-350 -66 -258 53 -503 326 -669 97 -59 334 -158 419 -176 9 -2 64 -15 122 -29
129 -31 209 -46 325 -60 28 -4 59 -9 70 -11 11 -2 56 -7 100 -11 44 -3 96 -8
115 -10 19 -2 128 -6 241 -10 148 -4 213 -3 228 6 34 18 83 139 106 260 27
146 27 423 0 569 -1 9 -6 41 -10 71 -26 195 -119 518 -217 750 -77 183 -244
497 -270 508 -5 2 -8 9 -8 16 0 6 -19 33 -42 59 l-43 48 -150 -82z m-153 -359
c38 -29 57 -80 64 -167 8 -100 9 -1464 2 -1485 -5 -13 -15 -14 -55 -7 -26 5
-59 11 -73 14 -94 17 -226 49 -230 56 -12 18 -3 1153 9 1217 35 187 103 323
186 373 39 24 66 24 97 -1z m-555 -381 c29 -25 55 -93 61 -163 8 -81 8 -974 0
-981 -11 -11 -154 50 -266 114 l-63 36 2 355 c2 377 7 426 53 525 24 52 76
111 111 126 25 11 82 4 102 -12z"/>
<path d="M2398 2496 c-43 -18 -77 -56 -89 -98 -12 -47 12 -156 56 -253 33 -74
155 -257 168 -252 5 1 10 61 12 132 2 72 6 141 8 155 12 60 19 104 21 151 7
114 -86 201 -176 165z"/>
<path d="M1972 2363 c-103 -50 -100 -165 9 -384 182 -364 525 -653 874 -734
67 -15 225 -20 225 -6 0 5 -17 20 -37 32 -119 74 -385 317 -524 479 -75 87
-155 199 -210 290 -47 80 -51 87 -99 195 -34 76 -60 109 -102 131 -36 19 -95
17 -136 -3z"/>
<path d="M2825 2197 c-69 -22 -106 -86 -107 -182 -2 -131 70 -252 263 -442
142 -141 272 -246 432 -353 109 -71 109 -70 2 -92 -94 -19 -140 -23 -275 -23
-195 0 -326 21 -490 81 -323 116 -571 331 -735 636 -50 92 -64 110 -98 127
-36 18 -43 19 -73 6 -41 -17 -85 -65 -115 -125 -75 -149 20 -397 236 -614 102
-102 155 -143 280 -218 217 -131 468 -241 705 -308 101 -28 97 -28 245 -55
588 -106 1159 13 1635 343 233 162 441 377 613 635 100 150 98 147 164 277 71
141 71 142 -14 123 -86 -20 -427 -141 -531 -189 -72 -33 -303 -104 -390 -119
-113 -19 -455 -20 -547 0 -242 51 -465 147 -826 358 -211 122 -306 156 -374
134z"/>
</g>
</svg>
